G04 Layer_Color=32768*
%FSLAX25Y25*%
%MOIN*%
G70*
G01*
G75*
%ADD10C,0.00500*%
%ADD107C,0.00394*%
%ADD108C,0.00197*%
D10*
X615300Y771229D02*
Y823729D01*
X571600D02*
X615300D01*
X571600Y771229D02*
Y823729D01*
Y771229D02*
X615300D01*
X686600Y635601D02*
Y688101D01*
X642900D02*
X686600D01*
X642900Y635601D02*
Y688101D01*
Y635601D02*
X686600D01*
X570971Y614400D02*
X623471D01*
X570971Y570700D02*
Y614400D01*
Y570700D02*
X623471D01*
Y614400D01*
D107*
X494050Y716532D02*
Y720469D01*
X492081Y718500D02*
X496019D01*
X494050Y771032D02*
Y774968D01*
X492081Y773000D02*
X496019D01*
X515531Y745500D02*
X519468D01*
X517500Y743532D02*
Y747469D01*
X535622Y721311D02*
Y722689D01*
X534933Y722000D02*
X536311D01*
X532866Y721016D02*
X538378D01*
X532866Y722984D02*
X538378D01*
Y721016D02*
Y722984D01*
X532866Y721016D02*
Y722984D01*
X535622Y717811D02*
Y719189D01*
X534933Y718500D02*
X536311D01*
X532866Y719484D02*
X538378D01*
X532866Y717516D02*
X538378D01*
X532866D02*
Y719484D01*
X538378Y717516D02*
Y719484D01*
X534244Y768016D02*
Y769984D01*
X539756Y768016D02*
Y769984D01*
X534244D02*
X539756D01*
X534244Y768016D02*
X539756D01*
X536311Y769000D02*
X537689D01*
X537000Y768311D02*
Y769689D01*
X539756Y771516D02*
Y773484D01*
X534244Y771516D02*
Y773484D01*
Y771516D02*
X539756D01*
X534244Y773484D02*
X539756D01*
X536311Y772500D02*
X537689D01*
X537000Y771811D02*
Y773189D01*
X601701Y714500D02*
X605638D01*
X603669Y712532D02*
Y716468D01*
X563032Y617419D02*
Y619781D01*
X561851Y618600D02*
X564213D01*
X559489Y617222D02*
X566575D01*
X559489Y619978D02*
X566575D01*
Y617222D02*
Y619978D01*
X559489Y617222D02*
Y619978D01*
X562900Y610558D02*
Y612920D01*
X561719Y611739D02*
X564081D01*
X559357Y613117D02*
X566443D01*
X559357Y610361D02*
X566443D01*
X559357D02*
Y613117D01*
X566443Y610361D02*
Y613117D01*
X536853Y630271D02*
X540790D01*
X538821Y628302D02*
Y632239D01*
X563100Y646019D02*
Y648381D01*
X561919Y647200D02*
X564281D01*
X559557Y645822D02*
X566643D01*
X559557Y648578D02*
X566643D01*
Y645822D02*
Y648578D01*
X559557Y645822D02*
Y648578D01*
X563200Y639519D02*
Y641881D01*
X562019Y640700D02*
X564381D01*
X559657Y642078D02*
X566743D01*
X559657Y639322D02*
X566743D01*
X559657D02*
Y642078D01*
X566743Y639322D02*
Y642078D01*
X600132Y628700D02*
X604069D01*
X602100Y626731D02*
Y630668D01*
X494000Y600531D02*
Y604468D01*
X492031Y602500D02*
X495968D01*
X494050Y658032D02*
Y661969D01*
X492081Y660000D02*
X496019D01*
D108*
X508774Y703776D02*
Y733224D01*
X447889D02*
X508774D01*
X447889Y703776D02*
X508774D01*
X447889D02*
Y733224D01*
X508774Y758276D02*
Y787724D01*
X447889D02*
X508774D01*
X447889Y758276D02*
X508774D01*
X447889D02*
Y787724D01*
X524784Y732803D02*
Y758197D01*
X510217Y732803D02*
Y758197D01*
X524784D01*
X510217Y732803D02*
X524784D01*
X620008Y698161D02*
Y730839D01*
X587331Y698161D02*
Y730839D01*
X620008D01*
X587331Y698161D02*
X620008D01*
X527207Y618657D02*
Y641885D01*
X550435Y618657D02*
Y641885D01*
X527207D02*
X550435D01*
X527207Y618657D02*
X550435D01*
X581923Y608523D02*
Y648877D01*
X622277Y608523D02*
Y648877D01*
X581923Y608523D02*
X622277D01*
X581923Y648877D02*
X622277D01*
X508724Y587776D02*
Y617224D01*
X447839D02*
X508724D01*
X447839Y587776D02*
X508724D01*
X447839D02*
Y617224D01*
X508774Y645276D02*
Y674724D01*
X447889D02*
X508774D01*
X447889Y645276D02*
X508774D01*
X447889D02*
Y674724D01*
M02*
