G04 Layer_Color=16711935*
%FSLAX25Y25*%
%MOIN*%
G70*
G01*
G75*
G04:AMPARAMS|DCode=66|XSize=28mil|YSize=28mil|CornerRadius=10mil|HoleSize=0mil|Usage=FLASHONLY|Rotation=90.000|XOffset=0mil|YOffset=0mil|HoleType=Round|Shape=RoundedRectangle|*
%AMROUNDEDRECTD66*
21,1,0.02800,0.00800,0,0,90.0*
21,1,0.00800,0.02800,0,0,90.0*
1,1,0.02000,0.00400,0.00400*
1,1,0.02000,0.00400,-0.00400*
1,1,0.02000,-0.00400,-0.00400*
1,1,0.02000,-0.00400,0.00400*
%
%ADD66ROUNDEDRECTD66*%
G04:AMPARAMS|DCode=67|XSize=28mil|YSize=28mil|CornerRadius=10mil|HoleSize=0mil|Usage=FLASHONLY|Rotation=180.000|XOffset=0mil|YOffset=0mil|HoleType=Round|Shape=RoundedRectangle|*
%AMROUNDEDRECTD67*
21,1,0.02800,0.00800,0,0,180.0*
21,1,0.00800,0.02800,0,0,180.0*
1,1,0.02000,-0.00400,0.00400*
1,1,0.02000,0.00400,0.00400*
1,1,0.02000,0.00400,-0.00400*
1,1,0.02000,-0.00400,-0.00400*
%
%ADD67ROUNDEDRECTD67*%
G04:AMPARAMS|DCode=71|XSize=43mil|YSize=42mil|CornerRadius=13.01mil|HoleSize=0mil|Usage=FLASHONLY|Rotation=90.000|XOffset=0mil|YOffset=0mil|HoleType=Round|Shape=RoundedRectangle|*
%AMROUNDEDRECTD71*
21,1,0.04300,0.01598,0,0,90.0*
21,1,0.01698,0.04200,0,0,90.0*
1,1,0.02602,0.00799,0.00849*
1,1,0.02602,0.00799,-0.00849*
1,1,0.02602,-0.00799,-0.00849*
1,1,0.02602,-0.00799,0.00849*
%
%ADD71ROUNDEDRECTD71*%
G04:AMPARAMS|DCode=75|XSize=43mil|YSize=42mil|CornerRadius=9.95mil|HoleSize=0mil|Usage=FLASHONLY|Rotation=90.000|XOffset=0mil|YOffset=0mil|HoleType=Round|Shape=RoundedRectangle|*
%AMROUNDEDRECTD75*
21,1,0.04300,0.02210,0,0,90.0*
21,1,0.02310,0.04200,0,0,90.0*
1,1,0.01990,0.01105,0.01155*
1,1,0.01990,0.01105,-0.01155*
1,1,0.01990,-0.01105,-0.01155*
1,1,0.01990,-0.01105,0.01155*
%
%ADD75ROUNDEDRECTD75*%
G04:AMPARAMS|DCode=77|XSize=63mil|YSize=51mil|CornerRadius=11.96mil|HoleSize=0mil|Usage=FLASHONLY|Rotation=90.000|XOffset=0mil|YOffset=0mil|HoleType=Round|Shape=RoundedRectangle|*
%AMROUNDEDRECTD77*
21,1,0.06300,0.02709,0,0,90.0*
21,1,0.03909,0.05100,0,0,90.0*
1,1,0.02391,0.01355,0.01955*
1,1,0.02391,0.01355,-0.01955*
1,1,0.02391,-0.01355,-0.01955*
1,1,0.02391,-0.01355,0.01955*
%
%ADD77ROUNDEDRECTD77*%
G04:AMPARAMS|DCode=78|XSize=43mil|YSize=42mil|CornerRadius=9.95mil|HoleSize=0mil|Usage=FLASHONLY|Rotation=0.000|XOffset=0mil|YOffset=0mil|HoleType=Round|Shape=RoundedRectangle|*
%AMROUNDEDRECTD78*
21,1,0.04300,0.02210,0,0,0.0*
21,1,0.02310,0.04200,0,0,0.0*
1,1,0.01990,0.01155,-0.01105*
1,1,0.01990,-0.01155,-0.01105*
1,1,0.01990,-0.01155,0.01105*
1,1,0.01990,0.01155,0.01105*
%
%ADD78ROUNDEDRECTD78*%
G04:AMPARAMS|DCode=86|XSize=63mil|YSize=51mil|CornerRadius=11.96mil|HoleSize=0mil|Usage=FLASHONLY|Rotation=180.000|XOffset=0mil|YOffset=0mil|HoleType=Round|Shape=RoundedRectangle|*
%AMROUNDEDRECTD86*
21,1,0.06300,0.02709,0,0,180.0*
21,1,0.03909,0.05100,0,0,180.0*
1,1,0.02391,-0.01955,0.01355*
1,1,0.02391,0.01955,0.01355*
1,1,0.02391,0.01955,-0.01355*
1,1,0.02391,-0.01955,-0.01355*
%
%ADD86ROUNDEDRECTD86*%
%ADD91C,0.07874*%
%ADD92C,0.09200*%
%ADD93C,0.15800*%
%ADD94C,0.09461*%
%ADD95C,0.08800*%
%ADD96C,0.06299*%
%ADD97C,0.02800*%
%ADD98C,0.02769*%
G04:AMPARAMS|DCode=99|XSize=181.23mil|YSize=106.42mil|CornerRadius=28.61mil|HoleSize=0mil|Usage=FLASHONLY|Rotation=90.000|XOffset=0mil|YOffset=0mil|HoleType=Round|Shape=RoundedRectangle|*
%AMROUNDEDRECTD99*
21,1,0.18123,0.04921,0,0,90.0*
21,1,0.12402,0.10642,0,0,90.0*
1,1,0.05721,0.02461,0.06201*
1,1,0.05721,0.02461,-0.06201*
1,1,0.05721,-0.02461,-0.06201*
1,1,0.05721,-0.02461,0.06201*
%
%ADD99ROUNDEDRECTD99*%
%ADD100O,0.04900X0.09600*%
%ADD101O,0.14000X0.09700*%
%ADD102R,0.09501X0.10052*%
%ADD103R,0.28700X0.43700*%
%ADD104O,0.09700X0.05400*%
G04:AMPARAMS|DCode=105|XSize=181.23mil|YSize=106.42mil|CornerRadius=28.61mil|HoleSize=0mil|Usage=FLASHONLY|Rotation=180.000|XOffset=0mil|YOffset=0mil|HoleType=Round|Shape=RoundedRectangle|*
%AMROUNDEDRECTD105*
21,1,0.18123,0.04921,0,0,180.0*
21,1,0.12402,0.10642,0,0,180.0*
1,1,0.05721,-0.06201,0.02461*
1,1,0.05721,0.06201,0.02461*
1,1,0.05721,0.06201,-0.02461*
1,1,0.05721,-0.06201,-0.02461*
%
%ADD105ROUNDEDRECTD105*%
D66*
X550670Y719200D02*
D03*
X554170D02*
D03*
X547000Y800500D02*
D03*
X543500D02*
D03*
X554500D02*
D03*
X551000D02*
D03*
X560450Y719400D02*
D03*
X563950D02*
D03*
D67*
X682600Y726550D02*
D03*
Y730050D02*
D03*
Y734350D02*
D03*
Y737850D02*
D03*
D71*
X529000Y768500D02*
D03*
Y774400D02*
D03*
X529500Y729900D02*
D03*
Y724000D02*
D03*
D75*
X572900Y746000D02*
D03*
Y751900D02*
D03*
X684000Y721450D02*
D03*
Y715550D02*
D03*
D77*
X544250Y807800D02*
D03*
X550950D02*
D03*
X548500Y713516D02*
D03*
X555200D02*
D03*
D78*
X559550Y809500D02*
D03*
X565450D02*
D03*
X559550Y802000D02*
D03*
X565450D02*
D03*
X519950Y770000D02*
D03*
X514050D02*
D03*
X520000Y763000D02*
D03*
X514100D02*
D03*
X513750Y730900D02*
D03*
X519650D02*
D03*
X515439Y724000D02*
D03*
X521339D02*
D03*
D86*
X537500Y775350D02*
D03*
Y768650D02*
D03*
X581100Y745300D02*
D03*
Y752000D02*
D03*
X537500Y723150D02*
D03*
Y729850D02*
D03*
X573200Y630400D02*
D03*
Y623700D02*
D03*
X693000Y722100D02*
D03*
Y715400D02*
D03*
D91*
X530500Y807500D02*
D03*
X534000Y572500D02*
D03*
X768500Y818500D02*
D03*
X530500Y807500D02*
D03*
X768500Y818500D02*
D03*
X534000Y572500D02*
D03*
D92*
X685500Y816622D02*
D03*
Y791622D02*
D03*
Y779122D02*
D03*
X623000D02*
D03*
Y816622D02*
D03*
X629203Y606219D02*
D03*
Y581219D02*
D03*
Y568719D02*
D03*
X691703D02*
D03*
Y606219D02*
D03*
D93*
X517500Y796000D02*
D03*
X731500Y813000D02*
D03*
Y566000D02*
D03*
X517500Y575000D02*
D03*
D94*
X494050Y718500D02*
D03*
X504050Y708500D02*
D03*
X484050D02*
D03*
Y728500D02*
D03*
X504050D02*
D03*
X494050Y773000D02*
D03*
X504050Y763000D02*
D03*
X484050D02*
D03*
Y783000D02*
D03*
X504050D02*
D03*
X494000Y602500D02*
D03*
X504000Y592500D02*
D03*
X484000D02*
D03*
Y612500D02*
D03*
X504000D02*
D03*
X494050Y660000D02*
D03*
X504050Y650000D02*
D03*
X484050D02*
D03*
Y670000D02*
D03*
X504050D02*
D03*
D95*
X727500Y796500D02*
D03*
X739000Y582000D02*
D03*
D96*
X739500Y582450D02*
D03*
X727500Y796550D02*
D03*
D97*
X707600Y760100D02*
D03*
X717600Y774600D02*
D03*
X712600Y769600D02*
D03*
X742600Y764600D02*
D03*
Y749600D02*
D03*
Y734600D02*
D03*
X722600Y729600D02*
D03*
X717600D02*
D03*
X742600Y719600D02*
D03*
Y704600D02*
D03*
X712600D02*
D03*
X702600D02*
D03*
X727600Y694600D02*
D03*
X707600D02*
D03*
X702600Y689600D02*
D03*
X712600D02*
D03*
X722600D02*
D03*
X732600D02*
D03*
X742600D02*
D03*
X712600Y654600D02*
D03*
X737600Y669600D02*
D03*
X732600Y674600D02*
D03*
X727600Y679600D02*
D03*
X722600Y684600D02*
D03*
X717600D02*
D03*
X702600D02*
D03*
X742600Y674600D02*
D03*
X727600Y664600D02*
D03*
X722600D02*
D03*
X702600D02*
D03*
X712600Y659600D02*
D03*
X707600D02*
D03*
X717600Y654600D02*
D03*
X737600D02*
D03*
X747700Y654700D02*
D03*
X742600Y644600D02*
D03*
X732600D02*
D03*
X727600Y649600D02*
D03*
X722600D02*
D03*
Y644600D02*
D03*
X712600D02*
D03*
X707600Y654700D02*
D03*
X702600Y649700D02*
D03*
Y644600D02*
D03*
X707600Y639600D02*
D03*
Y634600D02*
D03*
X717600Y639600D02*
D03*
X727600D02*
D03*
X737600D02*
D03*
X747600D02*
D03*
X747700Y624700D02*
D03*
X742600Y629600D02*
D03*
X732600D02*
D03*
X737600Y624600D02*
D03*
X727600D02*
D03*
X722600Y629600D02*
D03*
Y624600D02*
D03*
X717600D02*
D03*
X712600Y629600D02*
D03*
X702600D02*
D03*
Y624600D02*
D03*
X707600Y619600D02*
D03*
X722600Y614600D02*
D03*
X742600D02*
D03*
X732600D02*
D03*
X727600Y594600D02*
D03*
X732600Y599600D02*
D03*
X727600D02*
D03*
Y604600D02*
D03*
X712600Y614600D02*
D03*
X707600D02*
D03*
X702600Y609600D02*
D03*
X742600Y599600D02*
D03*
X702600Y604600D02*
D03*
X717600Y609600D02*
D03*
X722600D02*
D03*
Y604600D02*
D03*
X727600Y609600D02*
D03*
X737600D02*
D03*
X747600D02*
D03*
Y594600D02*
D03*
X742600D02*
D03*
X737600D02*
D03*
X722600Y599600D02*
D03*
X712600D02*
D03*
X707600D02*
D03*
X702600Y589600D02*
D03*
X707600Y594600D02*
D03*
X712600Y589600D02*
D03*
X717600Y594600D02*
D03*
X722600D02*
D03*
X712600D02*
D03*
X717600Y589600D02*
D03*
X722600D02*
D03*
X727600D02*
D03*
X732600D02*
D03*
X737600D02*
D03*
X742600D02*
D03*
X747600D02*
D03*
Y729600D02*
D03*
X717600Y669600D02*
D03*
X747600D02*
D03*
X737600Y684600D02*
D03*
X747600D02*
D03*
Y699600D02*
D03*
X737400Y699800D02*
D03*
X717600Y699600D02*
D03*
X732600Y704600D02*
D03*
X722600D02*
D03*
X727600Y724600D02*
D03*
X732600Y719600D02*
D03*
X737600Y714600D02*
D03*
X747600D02*
D03*
X737600Y729600D02*
D03*
X712600Y734600D02*
D03*
X707600D02*
D03*
Y739600D02*
D03*
X737600Y744600D02*
D03*
X747600D02*
D03*
X707600Y754600D02*
D03*
X712600Y764600D02*
D03*
X717600Y759600D02*
D03*
X727600D02*
D03*
X737600D02*
D03*
X702700Y764700D02*
D03*
X727600Y774600D02*
D03*
X732600Y769600D02*
D03*
X742600D02*
D03*
X737600Y774600D02*
D03*
Y779600D02*
D03*
X747600Y774600D02*
D03*
Y779600D02*
D03*
X727600D02*
D03*
X717600D02*
D03*
X707600D02*
D03*
X742600Y784600D02*
D03*
X722500Y784700D02*
D03*
X712600Y784600D02*
D03*
X702700Y784700D02*
D03*
X747300Y649300D02*
D03*
X712500Y669500D02*
D03*
X742500Y669300D02*
D03*
X712600Y664700D02*
D03*
X747900Y664500D02*
D03*
X742400Y664700D02*
D03*
X717400Y674400D02*
D03*
Y679700D02*
D03*
X712800Y684700D02*
D03*
X732600Y749600D02*
D03*
X727600Y754600D02*
D03*
X717600Y744600D02*
D03*
X702600Y729600D02*
D03*
X512700Y595500D02*
D03*
X512800Y653100D02*
D03*
X545600Y616400D02*
D03*
X550000Y611200D02*
D03*
X533600Y609200D02*
D03*
X536300Y665000D02*
D03*
X580600Y651100D02*
D03*
X594800Y603750D02*
D03*
X600708Y696486D02*
D03*
X606764Y691700D02*
D03*
X587473Y700173D02*
D03*
X585500Y681700D02*
D03*
X576600Y673900D02*
D03*
X555246Y693446D02*
D03*
X577000Y614400D02*
D03*
X516200Y635800D02*
D03*
X551800Y629700D02*
D03*
X548770Y615970D02*
D03*
X551762Y627200D02*
D03*
X551800Y633300D02*
D03*
X561300Y663000D02*
D03*
X565786Y666600D02*
D03*
X587336Y666664D02*
D03*
X579986Y671300D02*
D03*
X568500Y653036D02*
D03*
X625600Y650600D02*
D03*
X580800Y606500D02*
D03*
X581677Y696700D02*
D03*
X554200Y702500D02*
D03*
X562700Y713200D02*
D03*
X562831Y720600D02*
D03*
X601350Y739700D02*
D03*
X587450Y753000D02*
D03*
X553500Y722250D02*
D03*
X747600Y759600D02*
D03*
X732600Y764600D02*
D03*
X707600Y699500D02*
D03*
X722600Y669600D02*
D03*
X702600D02*
D03*
X556200Y809500D02*
D03*
X559550Y805350D02*
D03*
X540900Y807800D02*
D03*
X540150Y800500D02*
D03*
X544636Y715100D02*
D03*
X548500Y710166D02*
D03*
X512089Y724000D02*
D03*
X541600Y724400D02*
D03*
X509600Y753684D02*
D03*
X524011Y736900D02*
D03*
X572500Y737100D02*
D03*
X578600Y740200D02*
D03*
X604200Y756600D02*
D03*
X620200Y765600D02*
D03*
X620100Y758300D02*
D03*
X591900Y742700D02*
D03*
X618651Y787049D02*
D03*
X615400Y769700D02*
D03*
X605200Y766600D02*
D03*
X583700Y780900D02*
D03*
X587200Y744300D02*
D03*
X537500Y780500D02*
D03*
X524900Y760200D02*
D03*
X524350Y731350D02*
D03*
X575100Y601300D02*
D03*
X703900Y818600D02*
D03*
X713100Y818700D02*
D03*
X592842Y732313D02*
D03*
X606500Y732400D02*
D03*
X586100Y711547D02*
D03*
Y717453D02*
D03*
X584800Y725300D02*
D03*
X581900Y709500D02*
D03*
Y719400D02*
D03*
X602700Y732400D02*
D03*
X550000Y761000D02*
D03*
X566200Y737200D02*
D03*
X626400Y678000D02*
D03*
X567500Y675600D02*
D03*
X722600Y699600D02*
D03*
X732600Y669600D02*
D03*
X722600Y679600D02*
D03*
Y674600D02*
D03*
X727600Y689600D02*
D03*
Y684600D02*
D03*
X732600Y694600D02*
D03*
Y699600D02*
D03*
X747600Y769600D02*
D03*
X707600Y714600D02*
D03*
X722600Y764600D02*
D03*
Y769600D02*
D03*
X702600D02*
D03*
X727600Y739600D02*
D03*
X722600Y744600D02*
D03*
X683700Y631087D02*
D03*
Y645192D02*
D03*
X684061Y648395D02*
D03*
X594168Y597400D02*
D03*
X599650Y604050D02*
D03*
X657700Y645672D02*
D03*
X681000Y626300D02*
D03*
X737600Y679600D02*
D03*
Y674600D02*
D03*
X732600Y664600D02*
D03*
X737600D02*
D03*
Y659600D02*
D03*
X727600Y709600D02*
D03*
X702600D02*
D03*
X722600Y724600D02*
D03*
X737600Y769600D02*
D03*
X727300Y714600D02*
D03*
X727600Y719600D02*
D03*
X717600Y714600D02*
D03*
X556100Y631250D02*
D03*
Y627750D02*
D03*
X747600Y764600D02*
D03*
X722600Y719600D02*
D03*
X722300Y714500D02*
D03*
X732600Y709600D02*
D03*
Y714600D02*
D03*
X737600Y704600D02*
D03*
Y709600D02*
D03*
X727600Y704600D02*
D03*
Y699600D02*
D03*
X747300Y659300D02*
D03*
X717600D02*
D03*
X717700Y664700D02*
D03*
X652800Y636600D02*
D03*
X654521Y638321D02*
D03*
X656439Y640767D02*
D03*
X650000Y663000D02*
D03*
X722600Y694600D02*
D03*
X737600Y689600D02*
D03*
Y694600D02*
D03*
X712600Y674600D02*
D03*
X707600D02*
D03*
X707700Y679500D02*
D03*
X608800Y650300D02*
D03*
X580190Y615905D02*
D03*
X623700Y635669D02*
D03*
X599240Y656000D02*
D03*
X607108Y652797D02*
D03*
X580321Y623779D02*
D03*
X580190Y643464D02*
D03*
X577350Y619400D02*
D03*
X624100Y620300D02*
D03*
X623219Y639174D02*
D03*
X592162Y657600D02*
D03*
X579100Y629700D02*
D03*
X623100Y613800D02*
D03*
X625900Y623900D02*
D03*
X579600Y632600D02*
D03*
X592900Y606600D02*
D03*
X612700Y650400D02*
D03*
X605053Y605727D02*
D03*
X625779Y629684D02*
D03*
X599000Y659300D02*
D03*
X614994Y607100D02*
D03*
X579600Y639000D02*
D03*
X580190Y635590D02*
D03*
Y613936D02*
D03*
X608990Y605727D02*
D03*
X623700Y641574D02*
D03*
X610700Y652400D02*
D03*
X615554Y651200D02*
D03*
X625494Y618300D02*
D03*
X623600Y631300D02*
D03*
X601300Y654000D02*
D03*
X607021Y607646D02*
D03*
X580190Y621810D02*
D03*
X603084Y657384D02*
D03*
Y607646D02*
D03*
X624600Y615900D02*
D03*
X605200Y654400D02*
D03*
X594600Y653400D02*
D03*
X580190Y641495D02*
D03*
X610958Y607646D02*
D03*
X627600Y621900D02*
D03*
X627510Y627716D02*
D03*
X594700Y655833D02*
D03*
X625139Y637700D02*
D03*
X624400Y625800D02*
D03*
X722600Y739600D02*
D03*
X732600Y734600D02*
D03*
X722600Y709600D02*
D03*
X702600Y724600D02*
D03*
X707600Y774600D02*
D03*
X622736Y753336D02*
D03*
X678400Y684400D02*
D03*
X682900Y687513D02*
D03*
X742600Y774600D02*
D03*
Y779600D02*
D03*
X702600Y744600D02*
D03*
X677900Y742600D02*
D03*
X681100Y740900D02*
D03*
X686900Y738500D02*
D03*
X595700Y760300D02*
D03*
X678300Y696800D02*
D03*
X700600Y715500D02*
D03*
X620900Y654100D02*
D03*
X561892Y752900D02*
D03*
X566800Y757000D02*
D03*
X552700Y746462D02*
D03*
X553900Y737100D02*
D03*
X571050Y808500D02*
D03*
X576500Y815200D02*
D03*
X581200Y806500D02*
D03*
X742700Y659700D02*
D03*
X550900Y593500D02*
D03*
X600995Y597813D02*
D03*
X671000Y586700D02*
D03*
X660500Y577150D02*
D03*
X651100Y577100D02*
D03*
X669400Y577300D02*
D03*
X558500Y602300D02*
D03*
X590413Y603500D02*
D03*
X588650Y601300D02*
D03*
X622440Y633534D02*
D03*
X603900Y663000D02*
D03*
X569287Y743300D02*
D03*
X543700Y778900D02*
D03*
X575800Y637000D02*
D03*
X576100Y582300D02*
D03*
X581685Y703889D02*
D03*
X600300Y732829D02*
D03*
X737600Y764600D02*
D03*
X722700Y736900D02*
D03*
X732600Y659700D02*
D03*
X601550Y605684D02*
D03*
X603600Y669600D02*
D03*
X657000Y737000D02*
D03*
X732600Y744600D02*
D03*
X656879Y739900D02*
D03*
X732600Y739600D02*
D03*
X655900Y746400D02*
D03*
X737600Y749600D02*
D03*
X661000Y748300D02*
D03*
X737600Y754600D02*
D03*
X619805Y755200D02*
D03*
X727600Y744600D02*
D03*
X732600Y754600D02*
D03*
Y759600D02*
D03*
Y724600D02*
D03*
X659000Y734600D02*
D03*
X732600Y729600D02*
D03*
X657000Y732500D02*
D03*
X664900Y768800D02*
D03*
X732600Y774600D02*
D03*
X667803Y766303D02*
D03*
X732600Y779600D02*
D03*
X641768Y701500D02*
D03*
X638400Y703600D02*
D03*
X737600Y739600D02*
D03*
Y734600D02*
D03*
X664700Y730400D02*
D03*
X727600Y729600D02*
D03*
X664800Y727000D02*
D03*
X727600Y734600D02*
D03*
X665000Y718800D02*
D03*
X737600Y724600D02*
D03*
X662200Y717000D02*
D03*
X737600Y719600D02*
D03*
X633000Y753100D02*
D03*
X698900Y752800D02*
D03*
X702600Y749500D02*
D03*
X712600D02*
D03*
X722600D02*
D03*
X727900Y749900D02*
D03*
X630900Y754800D02*
D03*
X732600Y679600D02*
D03*
Y684600D02*
D03*
X613000Y605600D02*
D03*
X680600Y573175D02*
D03*
X616800Y603200D02*
D03*
X567000Y585200D02*
D03*
X640600Y779200D02*
D03*
D98*
X574900Y800600D02*
D03*
X612331Y723161D02*
D03*
Y718831D02*
D03*
Y714500D02*
D03*
Y710169D02*
D03*
Y705839D02*
D03*
X608000Y723161D02*
D03*
Y718831D02*
D03*
Y714500D02*
D03*
Y710169D02*
D03*
Y705839D02*
D03*
X603669Y723161D02*
D03*
Y718831D02*
D03*
Y714500D02*
D03*
Y710169D02*
D03*
Y705839D02*
D03*
X599339Y723161D02*
D03*
Y718831D02*
D03*
Y714500D02*
D03*
Y710169D02*
D03*
Y705839D02*
D03*
X595008Y723161D02*
D03*
Y718831D02*
D03*
Y714500D02*
D03*
Y710169D02*
D03*
Y705839D02*
D03*
X536656Y632436D02*
D03*
X540987D02*
D03*
X536656Y628105D02*
D03*
X540987D02*
D03*
X610761Y637361D02*
D03*
X602100D02*
D03*
X606431D02*
D03*
X593439Y620039D02*
D03*
Y624369D02*
D03*
Y628700D02*
D03*
Y633031D02*
D03*
Y637361D02*
D03*
X597769Y620039D02*
D03*
Y624369D02*
D03*
Y628700D02*
D03*
Y633031D02*
D03*
Y637361D02*
D03*
X602100Y620039D02*
D03*
Y624369D02*
D03*
Y628700D02*
D03*
Y633031D02*
D03*
X606431Y620039D02*
D03*
Y624369D02*
D03*
Y628700D02*
D03*
Y633031D02*
D03*
X610761Y620039D02*
D03*
Y624369D02*
D03*
Y628700D02*
D03*
Y633031D02*
D03*
D99*
X593500Y780929D02*
D03*
Y814000D02*
D03*
X664800Y645301D02*
D03*
Y678372D02*
D03*
D100*
X547000Y791500D02*
D03*
X556000D02*
D03*
X565000D02*
D03*
X564500Y729500D02*
D03*
X555500D02*
D03*
X546500D02*
D03*
D101*
X556000Y769000D02*
D03*
X555500Y752000D02*
D03*
D102*
X658539Y696600D02*
D03*
X670861D02*
D03*
X674200Y751200D02*
D03*
X686523D02*
D03*
D103*
X630600Y728000D02*
D03*
D104*
X672600Y718000D02*
D03*
Y728000D02*
D03*
Y738000D02*
D03*
D105*
X613771Y592600D02*
D03*
X580700D02*
D03*
M02*
