G04 Layer_Color=8388736*
%FSLAX26Y26*%
%MOIN*%
%TF.FileFunction,Soldermask,Top*%
%TF.Part,Single*%
G01*
G75*
%TA.AperFunction,SMDPad,CuDef*%
G04:AMPARAMS|DCode=64|XSize=63mil|YSize=51mil|CornerRadius=11.955mil|HoleSize=0mil|Usage=FLASHONLY|Rotation=180.000|XOffset=0mil|YOffset=0mil|HoleType=Round|Shape=RoundedRectangle|*
%AMROUNDEDRECTD64*
21,1,0.063000,0.027090,0,0,180.0*
21,1,0.039090,0.051000,0,0,180.0*
1,1,0.023910,-0.019545,0.013545*
1,1,0.023910,0.019545,0.013545*
1,1,0.023910,0.019545,-0.013545*
1,1,0.023910,-0.019545,-0.013545*
%
%ADD64ROUNDEDRECTD64*%
G04:AMPARAMS|DCode=65|XSize=28mil|YSize=28mil|CornerRadius=10mil|HoleSize=0mil|Usage=FLASHONLY|Rotation=90.000|XOffset=0mil|YOffset=0mil|HoleType=Round|Shape=RoundedRectangle|*
%AMROUNDEDRECTD65*
21,1,0.028000,0.008000,0,0,90.0*
21,1,0.008000,0.028000,0,0,90.0*
1,1,0.020000,0.004000,0.004000*
1,1,0.020000,0.004000,-0.004000*
1,1,0.020000,-0.004000,-0.004000*
1,1,0.020000,-0.004000,0.004000*
%
%ADD65ROUNDEDRECTD65*%
G04:AMPARAMS|DCode=67|XSize=43mil|YSize=42mil|CornerRadius=9.95mil|HoleSize=0mil|Usage=FLASHONLY|Rotation=0.000|XOffset=0mil|YOffset=0mil|HoleType=Round|Shape=RoundedRectangle|*
%AMROUNDEDRECTD67*
21,1,0.043000,0.022100,0,0,0.0*
21,1,0.023100,0.042000,0,0,0.0*
1,1,0.019900,0.011550,-0.011050*
1,1,0.019900,-0.011550,-0.011050*
1,1,0.019900,-0.011550,0.011050*
1,1,0.019900,0.011550,0.011050*
%
%ADD67ROUNDEDRECTD67*%
G04:AMPARAMS|DCode=70|XSize=63mil|YSize=51mil|CornerRadius=11.955mil|HoleSize=0mil|Usage=FLASHONLY|Rotation=270.000|XOffset=0mil|YOffset=0mil|HoleType=Round|Shape=RoundedRectangle|*
%AMROUNDEDRECTD70*
21,1,0.063000,0.027090,0,0,270.0*
21,1,0.039090,0.051000,0,0,270.0*
1,1,0.023910,-0.013545,-0.019545*
1,1,0.023910,-0.013545,0.019545*
1,1,0.023910,0.013545,0.019545*
1,1,0.023910,0.013545,-0.019545*
%
%ADD70ROUNDEDRECTD70*%
G04:AMPARAMS|DCode=71|XSize=43mil|YSize=42mil|CornerRadius=13.01mil|HoleSize=0mil|Usage=FLASHONLY|Rotation=270.000|XOffset=0mil|YOffset=0mil|HoleType=Round|Shape=RoundedRectangle|*
%AMROUNDEDRECTD71*
21,1,0.043000,0.015980,0,0,270.0*
21,1,0.016980,0.042000,0,0,270.0*
1,1,0.026020,-0.007990,-0.008490*
1,1,0.026020,-0.007990,0.008490*
1,1,0.026020,0.007990,0.008490*
1,1,0.026020,0.007990,-0.008490*
%
%ADD71ROUNDEDRECTD71*%
G04:AMPARAMS|DCode=72|XSize=43mil|YSize=42mil|CornerRadius=9.95mil|HoleSize=0mil|Usage=FLASHONLY|Rotation=90.000|XOffset=0mil|YOffset=0mil|HoleType=Round|Shape=RoundedRectangle|*
%AMROUNDEDRECTD72*
21,1,0.043000,0.022100,0,0,90.0*
21,1,0.023100,0.042000,0,0,90.0*
1,1,0.019900,0.011050,0.011550*
1,1,0.019900,0.011050,-0.011550*
1,1,0.019900,-0.011050,-0.011550*
1,1,0.019900,-0.011050,0.011550*
%
%ADD72ROUNDEDRECTD72*%
G04:AMPARAMS|DCode=74|XSize=28mil|YSize=28mil|CornerRadius=10mil|HoleSize=0mil|Usage=FLASHONLY|Rotation=180.000|XOffset=0mil|YOffset=0mil|HoleType=Round|Shape=RoundedRectangle|*
%AMROUNDEDRECTD74*
21,1,0.028000,0.008000,0,0,180.0*
21,1,0.008000,0.028000,0,0,180.0*
1,1,0.020000,-0.004000,0.004000*
1,1,0.020000,0.004000,0.004000*
1,1,0.020000,0.004000,-0.004000*
1,1,0.020000,-0.004000,-0.004000*
%
%ADD74ROUNDEDRECTD74*%
%ADD78C,0.078740*%
%TA.AperFunction,ComponentPad*%
%ADD79C,0.092000*%
%ADD80C,0.158000*%
%ADD81C,0.094614*%
%ADD82C,0.088000*%
%ADD83C,0.062992*%
%TA.AperFunction,ViaPad*%
%ADD84C,0.028000*%
%ADD85C,0.027685*%
%TA.AperFunction,SMDPad,CuDef*%
%ADD90O,0.021260X0.076378*%
%ADD91R,0.027685X0.019811*%
G04:AMPARAMS|DCode=92|XSize=79mil|YSize=55mil|CornerRadius=11.99mil|HoleSize=0mil|Usage=FLASHONLY|Rotation=90.000|XOffset=0mil|YOffset=0mil|HoleType=Round|Shape=RoundedRectangle|*
%AMROUNDEDRECTD92*
21,1,0.079000,0.031020,0,0,90.0*
21,1,0.055020,0.055000,0,0,90.0*
1,1,0.023980,0.015510,0.027510*
1,1,0.023980,0.015510,-0.027510*
1,1,0.023980,-0.015510,-0.027510*
1,1,0.023980,-0.015510,0.027510*
%
%ADD92ROUNDEDRECTD92*%
G04:AMPARAMS|DCode=93|XSize=43mil|YSize=42mil|CornerRadius=13.01mil|HoleSize=0mil|Usage=FLASHONLY|Rotation=0.000|XOffset=0mil|YOffset=0mil|HoleType=Round|Shape=RoundedRectangle|*
%AMROUNDEDRECTD93*
21,1,0.043000,0.015980,0,0,0.0*
21,1,0.016980,0.042000,0,0,0.0*
1,1,0.026020,0.008490,-0.007990*
1,1,0.026020,-0.008490,-0.007990*
1,1,0.026020,-0.008490,0.007990*
1,1,0.026020,0.008490,0.007990*
%
%ADD93ROUNDEDRECTD93*%
G04:AMPARAMS|DCode=94|XSize=79mil|YSize=55mil|CornerRadius=11.99mil|HoleSize=0mil|Usage=FLASHONLY|Rotation=180.000|XOffset=0mil|YOffset=0mil|HoleType=Round|Shape=RoundedRectangle|*
%AMROUNDEDRECTD94*
21,1,0.079000,0.031020,0,0,180.0*
21,1,0.055020,0.055000,0,0,180.0*
1,1,0.023980,-0.027510,0.015510*
1,1,0.023980,0.027510,0.015510*
1,1,0.023980,0.027510,-0.015510*
1,1,0.023980,-0.027510,-0.015510*
%
%ADD94ROUNDEDRECTD94*%
G04:AMPARAMS|DCode=95|XSize=43mil|YSize=39mil|CornerRadius=10.045mil|HoleSize=0mil|Usage=FLASHONLY|Rotation=90.000|XOffset=0mil|YOffset=0mil|HoleType=Round|Shape=RoundedRectangle|*
%AMROUNDEDRECTD95*
21,1,0.043000,0.018910,0,0,90.0*
21,1,0.022910,0.039000,0,0,90.0*
1,1,0.020090,0.009455,0.011455*
1,1,0.020090,0.009455,-0.011455*
1,1,0.020090,-0.009455,-0.011455*
1,1,0.020090,-0.009455,0.011455*
%
%ADD95ROUNDEDRECTD95*%
G04:AMPARAMS|DCode=96|XSize=43mil|YSize=39mil|CornerRadius=10.045mil|HoleSize=0mil|Usage=FLASHONLY|Rotation=0.000|XOffset=0mil|YOffset=0mil|HoleType=Round|Shape=RoundedRectangle|*
%AMROUNDEDRECTD96*
21,1,0.043000,0.018910,0,0,0.0*
21,1,0.022910,0.039000,0,0,0.0*
1,1,0.020090,0.011455,-0.009455*
1,1,0.020090,-0.011455,-0.009455*
1,1,0.020090,-0.011455,0.009455*
1,1,0.020090,0.011455,0.009455*
%
%ADD96ROUNDEDRECTD96*%
%ADD97O,0.016535X0.038976*%
%ADD98R,0.225984X0.225984*%
%ADD99O,0.038976X0.016535*%
%ADD100R,0.031622X0.027685*%
%ADD101O,0.037402X0.013780*%
%ADD102O,0.013780X0.037402*%
%ADD103R,0.088583X0.088583*%
%ADD104R,0.296850X0.296850*%
%ADD105O,0.037008X0.014567*%
%ADD106O,0.014567X0.037008*%
%TA.AperFunction,BGAPad,CuDef*%
%ADD107C,0.033197*%
D64*
X5720000Y6184500D02*
D03*
Y6117500D02*
D03*
X5726000Y6472500D02*
D03*
Y6405500D02*
D03*
D65*
X5232500Y7635000D02*
D03*
X5267500D02*
D03*
X5118000Y7725000D02*
D03*
X5153000D02*
D03*
X5227500Y7730000D02*
D03*
X5262500D02*
D03*
X5427500Y7725000D02*
D03*
X5462500D02*
D03*
X5427500Y7690000D02*
D03*
X5462500D02*
D03*
X5230000Y7680000D02*
D03*
X5265000D02*
D03*
X5152500Y7620000D02*
D03*
X5187500D02*
D03*
X5243000Y7230000D02*
D03*
X5208000D02*
D03*
X5150500Y7185000D02*
D03*
X5115500D02*
D03*
X5243000Y7175000D02*
D03*
X5208000D02*
D03*
Y7280000D02*
D03*
X5243000D02*
D03*
X5452500Y7185000D02*
D03*
X5417500D02*
D03*
X5452500Y7220000D02*
D03*
X5417500D02*
D03*
X5167500Y7300000D02*
D03*
X5132500D02*
D03*
X5878500Y6965000D02*
D03*
X5843500D02*
D03*
X6048500Y7367000D02*
D03*
X6013500D02*
D03*
X6090000Y6941000D02*
D03*
X6055000D02*
D03*
X5343500Y6442000D02*
D03*
X5308500D02*
D03*
X5318500Y6127000D02*
D03*
X5353500D02*
D03*
Y6164000D02*
D03*
X5318500D02*
D03*
X5563500Y6184886D02*
D03*
X5528500D02*
D03*
X5564500Y6117386D02*
D03*
X5529500D02*
D03*
X5416500Y6441929D02*
D03*
X5381500D02*
D03*
X5565000Y6472000D02*
D03*
X5530000D02*
D03*
X5563500Y6407000D02*
D03*
X5528500D02*
D03*
X5391000Y6164000D02*
D03*
X5426000D02*
D03*
X5864500Y6065000D02*
D03*
X5829500D02*
D03*
X5877500Y6510000D02*
D03*
X5842500D02*
D03*
X5991500Y6065000D02*
D03*
X5956500D02*
D03*
X6190579Y6507000D02*
D03*
X6225579D02*
D03*
X6362500Y7791221D02*
D03*
X6327500D02*
D03*
D67*
X6129000Y6883440D02*
D03*
X6070000D02*
D03*
X5432500Y6496000D02*
D03*
X5373500D02*
D03*
X5403000Y6110000D02*
D03*
X5462000D02*
D03*
X5854000Y6013000D02*
D03*
X5795000D02*
D03*
X5679000Y6332000D02*
D03*
X5738000D02*
D03*
X5679000Y6260000D02*
D03*
X5738000D02*
D03*
X5947630Y6009000D02*
D03*
X6006630D02*
D03*
X6047500Y7422000D02*
D03*
X5988500D02*
D03*
D70*
X5743000Y7206000D02*
D03*
X5676000D02*
D03*
D71*
X5675000Y6803000D02*
D03*
Y6862000D02*
D03*
X5956000Y7560000D02*
D03*
Y7501000D02*
D03*
X5729000Y5877500D02*
D03*
Y5936500D02*
D03*
D72*
X5855000Y6914000D02*
D03*
Y6855000D02*
D03*
X5782000Y7041000D02*
D03*
Y6982000D02*
D03*
X5873362Y6559000D02*
D03*
Y6618000D02*
D03*
X6775000Y8010000D02*
D03*
Y8069000D02*
D03*
X6855000Y8010000D02*
D03*
Y8069000D02*
D03*
X6468000Y5771000D02*
D03*
Y5830000D02*
D03*
X6554000Y5771500D02*
D03*
Y5830500D02*
D03*
X6654000Y5771500D02*
D03*
Y5830500D02*
D03*
D74*
X5500000Y7725000D02*
D03*
Y7760000D02*
D03*
Y7687500D02*
D03*
Y7652500D02*
D03*
X5290000Y7220000D02*
D03*
Y7185000D02*
D03*
X5500000Y7222500D02*
D03*
Y7257500D02*
D03*
X5495000Y7186000D02*
D03*
Y7151000D02*
D03*
X5843116Y7036732D02*
D03*
Y7001732D02*
D03*
X5310000Y7725000D02*
D03*
Y7690000D02*
D03*
X5309000Y6485000D02*
D03*
Y6520000D02*
D03*
X5128000Y6566000D02*
D03*
Y6601000D02*
D03*
X5240000Y6358000D02*
D03*
Y6323000D02*
D03*
X5197000Y6358000D02*
D03*
Y6323000D02*
D03*
Y6245500D02*
D03*
Y6210500D02*
D03*
X5239000Y6280500D02*
D03*
Y6245500D02*
D03*
X5129000Y5991500D02*
D03*
Y6026500D02*
D03*
X6200000Y6077000D02*
D03*
Y6042000D02*
D03*
X6850000Y5735500D02*
D03*
Y5700500D02*
D03*
D78*
X5305000Y8075000D02*
D03*
X5340000Y5725000D02*
D03*
X7685000Y8185000D02*
D03*
X5305000Y8075000D02*
D03*
X7685000Y8185000D02*
D03*
X5340000Y5725000D02*
D03*
D79*
X6855000Y8166221D02*
D03*
Y7916221D02*
D03*
Y7791221D02*
D03*
X6230000D02*
D03*
Y8166221D02*
D03*
X6292028Y6062190D02*
D03*
Y5812190D02*
D03*
Y5687190D02*
D03*
X6917028D02*
D03*
Y6062190D02*
D03*
D80*
X5175000Y7960000D02*
D03*
X7315000Y8130000D02*
D03*
Y5660000D02*
D03*
X5175000Y5750000D02*
D03*
D81*
X4940500Y7185000D02*
D03*
X5040500Y7085000D02*
D03*
X4840500D02*
D03*
Y7285000D02*
D03*
X5040500D02*
D03*
X4940500Y7730000D02*
D03*
X5040500Y7630000D02*
D03*
X4840500D02*
D03*
Y7830000D02*
D03*
X5040500D02*
D03*
X4940000Y6025000D02*
D03*
X5040000Y5925000D02*
D03*
X4840000D02*
D03*
Y6125000D02*
D03*
X5040000D02*
D03*
X4940500Y6600000D02*
D03*
X5040500Y6500000D02*
D03*
X4840500D02*
D03*
Y6700000D02*
D03*
X5040500D02*
D03*
D82*
X7275000Y7965000D02*
D03*
X7390000Y5820000D02*
D03*
D83*
X7395000Y5824499D02*
D03*
X7275000Y7965500D02*
D03*
D84*
X7076000Y7601000D02*
D03*
X7176000Y7746000D02*
D03*
X7126000Y7696000D02*
D03*
X7426000Y7646000D02*
D03*
Y7496000D02*
D03*
Y7346000D02*
D03*
X7226000Y7296000D02*
D03*
X7176000D02*
D03*
X7426000Y7196000D02*
D03*
Y7046000D02*
D03*
X7126000D02*
D03*
X7026000D02*
D03*
X7276000Y6946000D02*
D03*
X7076000D02*
D03*
X7026000Y6896000D02*
D03*
X7126000D02*
D03*
X7226000D02*
D03*
X7326000D02*
D03*
X7426000D02*
D03*
X7126000Y6546000D02*
D03*
X7376000Y6696000D02*
D03*
X7326000Y6746000D02*
D03*
X7276000Y6796000D02*
D03*
X7226000Y6846000D02*
D03*
X7176000D02*
D03*
X7026000D02*
D03*
X7426000Y6746000D02*
D03*
X7276000Y6646000D02*
D03*
X7226000D02*
D03*
X7026000D02*
D03*
X7126000Y6596000D02*
D03*
X7076000D02*
D03*
X7176000Y6546000D02*
D03*
X7376000D02*
D03*
X7477000Y6547000D02*
D03*
X7426000Y6446000D02*
D03*
X7326000D02*
D03*
X7276000Y6496000D02*
D03*
X7226000D02*
D03*
Y6446000D02*
D03*
X7126000D02*
D03*
X7076000Y6547000D02*
D03*
X7026000Y6497000D02*
D03*
Y6446000D02*
D03*
X7076000Y6396000D02*
D03*
Y6346000D02*
D03*
X7176000Y6396000D02*
D03*
X7276000D02*
D03*
X7376000D02*
D03*
X7476000D02*
D03*
X7477000Y6247000D02*
D03*
X7426000Y6296000D02*
D03*
X7326000D02*
D03*
X7376000Y6246000D02*
D03*
X7276000D02*
D03*
X7226000Y6296000D02*
D03*
Y6246000D02*
D03*
X7176000D02*
D03*
X7126000Y6296000D02*
D03*
X7026000D02*
D03*
Y6246000D02*
D03*
X7076000Y6196000D02*
D03*
X7226000Y6146000D02*
D03*
X7426000D02*
D03*
X7326000D02*
D03*
X7276000Y5946000D02*
D03*
X7326000Y5996000D02*
D03*
X7276000D02*
D03*
Y6046000D02*
D03*
X7126000Y6146000D02*
D03*
X7076000D02*
D03*
X7026000Y6096000D02*
D03*
X7426000Y5996000D02*
D03*
X7026000Y6046000D02*
D03*
X7176000Y6096000D02*
D03*
X7226000D02*
D03*
Y6046000D02*
D03*
X7276000Y6096000D02*
D03*
X7376000D02*
D03*
X7476000D02*
D03*
Y5946000D02*
D03*
X7426000D02*
D03*
X7376000D02*
D03*
X7226000Y5996000D02*
D03*
X7126000D02*
D03*
X7076000D02*
D03*
X7026000Y5896000D02*
D03*
X7076000Y5946000D02*
D03*
X7126000Y5896000D02*
D03*
X7176000Y5946000D02*
D03*
X7226000D02*
D03*
X7126000D02*
D03*
X7176000Y5896000D02*
D03*
X7226000D02*
D03*
X7276000D02*
D03*
X7326000D02*
D03*
X7376000D02*
D03*
X7426000D02*
D03*
X7476000D02*
D03*
Y7296000D02*
D03*
X7176000Y6696000D02*
D03*
X7476000D02*
D03*
X7376000Y6846000D02*
D03*
X7476000D02*
D03*
Y6996000D02*
D03*
X7374000Y6998000D02*
D03*
X7176000Y6996000D02*
D03*
X7326000Y7046000D02*
D03*
X7226000D02*
D03*
X7276000Y7246000D02*
D03*
X7326000Y7196000D02*
D03*
X7376000Y7146000D02*
D03*
X7476000D02*
D03*
X7376000Y7296000D02*
D03*
X7126000Y7346000D02*
D03*
X7076000D02*
D03*
Y7396000D02*
D03*
X7376000Y7446000D02*
D03*
X7476000D02*
D03*
X7076000Y7546000D02*
D03*
X7126000Y7646000D02*
D03*
X7176000Y7596000D02*
D03*
X7276000D02*
D03*
X7376000D02*
D03*
X7027000Y7647000D02*
D03*
X7276000Y7746000D02*
D03*
X7326000Y7696000D02*
D03*
X7426000D02*
D03*
X7376000Y7746000D02*
D03*
Y7796000D02*
D03*
X7476000Y7746000D02*
D03*
Y7796000D02*
D03*
X7276000D02*
D03*
X7176000D02*
D03*
X7076000D02*
D03*
X7426000Y7846000D02*
D03*
X7225000Y7847000D02*
D03*
X7126000Y7846000D02*
D03*
X7027000Y7847000D02*
D03*
X7473000Y6493000D02*
D03*
X7125000Y6695000D02*
D03*
X7425000Y6693000D02*
D03*
X7126000Y6647000D02*
D03*
X7479000Y6645000D02*
D03*
X7424000Y6647000D02*
D03*
X7174000Y6744000D02*
D03*
Y6797000D02*
D03*
X7128000Y6847000D02*
D03*
X7326000Y7496000D02*
D03*
X7276000Y7546000D02*
D03*
X7176000Y7446000D02*
D03*
X7026000Y7296000D02*
D03*
X5127000Y5955000D02*
D03*
X5128000Y6531000D02*
D03*
X5456000Y6164000D02*
D03*
X5500000Y6112000D02*
D03*
X5336000Y6092000D02*
D03*
X5363000Y6650000D02*
D03*
X5806000Y6511000D02*
D03*
X5948000Y6037500D02*
D03*
X6007083Y6964862D02*
D03*
X6067636Y6917000D02*
D03*
X5874732Y7001732D02*
D03*
X5855000Y6817000D02*
D03*
X5766000Y6739000D02*
D03*
X5552456Y6934456D02*
D03*
X5770000Y6144000D02*
D03*
X5162000Y6358000D02*
D03*
X5518000Y6297000D02*
D03*
X5487695Y6159695D02*
D03*
X5517618Y6272000D02*
D03*
X5518000Y6333000D02*
D03*
X5613000Y6630000D02*
D03*
X5657864Y6666000D02*
D03*
X5873362Y6666636D02*
D03*
X5799864Y6713000D02*
D03*
X5685000Y6530364D02*
D03*
X6256000Y6506000D02*
D03*
X5808000Y6065000D02*
D03*
X5816775Y6967000D02*
D03*
X5542000Y7025000D02*
D03*
X5627000Y7132000D02*
D03*
X5628315Y7206000D02*
D03*
X6013500Y7397000D02*
D03*
X5874500Y7530000D02*
D03*
X5535000Y7222500D02*
D03*
X7476000Y7596000D02*
D03*
X7326000Y7646000D02*
D03*
X7076000Y6995000D02*
D03*
X7226000Y6696000D02*
D03*
X7026000D02*
D03*
X5562000Y8095000D02*
D03*
X5595500Y8053500D02*
D03*
X5409000Y8078000D02*
D03*
X5401500Y8005000D02*
D03*
X5446364Y7151000D02*
D03*
X5485000Y7101658D02*
D03*
X5120886Y7240000D02*
D03*
X5416000Y7244000D02*
D03*
X5096000Y7536841D02*
D03*
X5240114Y7369000D02*
D03*
X5725000Y7371000D02*
D03*
X5786000Y7402000D02*
D03*
X6042000Y7566000D02*
D03*
X6202000Y7656000D02*
D03*
X6201000Y7583000D02*
D03*
X5919000Y7427000D02*
D03*
X6186513Y7870487D02*
D03*
X6154000Y7697000D02*
D03*
X6052000Y7666000D02*
D03*
X5837000Y7809000D02*
D03*
X5872000Y7443000D02*
D03*
X5375000Y7805000D02*
D03*
X5249000Y7602000D02*
D03*
X5243500Y7313500D02*
D03*
X5751000Y6013000D02*
D03*
X7039000Y8186000D02*
D03*
X7131000Y8187000D02*
D03*
X5928425Y7323126D02*
D03*
X6065000Y7324000D02*
D03*
X5861000Y7115472D02*
D03*
Y7174528D02*
D03*
X5848000Y7253000D02*
D03*
X5819000Y7095000D02*
D03*
Y7194000D02*
D03*
X6027000Y7324000D02*
D03*
X5500000Y7610000D02*
D03*
X5662000Y7372000D02*
D03*
X6264000Y6780000D02*
D03*
X5675000Y6756000D02*
D03*
X7226000Y6996000D02*
D03*
X7326000Y6696000D02*
D03*
X7226000Y6796000D02*
D03*
Y6746000D02*
D03*
X7276000Y6896000D02*
D03*
Y6846000D02*
D03*
X7326000Y6946000D02*
D03*
Y6996000D02*
D03*
X7476000Y7696000D02*
D03*
X7076000Y7146000D02*
D03*
X7226000Y7646000D02*
D03*
Y7696000D02*
D03*
X7026000D02*
D03*
X7276000Y7396000D02*
D03*
X7226000Y7446000D02*
D03*
X6837000Y6310870D02*
D03*
Y6451919D02*
D03*
X6840613Y6483947D02*
D03*
X5941677Y5974000D02*
D03*
X5996500Y6040500D02*
D03*
X6577000Y6456720D02*
D03*
X6810000Y6263000D02*
D03*
X7376000Y6796000D02*
D03*
Y6746000D02*
D03*
X7326000Y6646000D02*
D03*
X7376000D02*
D03*
Y6596000D02*
D03*
X7276000Y7096000D02*
D03*
X7026000D02*
D03*
X7226000Y7246000D02*
D03*
X7376000Y7696000D02*
D03*
X7273000Y7146000D02*
D03*
X7276000Y7196000D02*
D03*
X7176000Y7146000D02*
D03*
X5561000Y6312500D02*
D03*
Y6277500D02*
D03*
X7476000Y7646000D02*
D03*
X7226000Y7196000D02*
D03*
X7223000Y7145000D02*
D03*
X7326000Y7096000D02*
D03*
Y7146000D02*
D03*
X7376000Y7046000D02*
D03*
Y7096000D02*
D03*
X7276000Y7046000D02*
D03*
Y6996000D02*
D03*
X7473000Y6593000D02*
D03*
X7176000D02*
D03*
X7177000Y6647000D02*
D03*
X6528000Y6366000D02*
D03*
X6545207Y6383207D02*
D03*
X6564395Y6407667D02*
D03*
X6500000Y6630000D02*
D03*
X7226000Y6946000D02*
D03*
X7376000Y6896000D02*
D03*
Y6946000D02*
D03*
X7126000Y6746000D02*
D03*
X7076000D02*
D03*
X7077000Y6795000D02*
D03*
X6088000Y6503000D02*
D03*
X5801898Y6159047D02*
D03*
X6237000Y6356685D02*
D03*
X5992396Y6560000D02*
D03*
X6071076Y6527972D02*
D03*
X5803213Y6237787D02*
D03*
X5801898Y6434638D02*
D03*
X5773500Y6194000D02*
D03*
X6241000Y6203000D02*
D03*
X6232193Y6391740D02*
D03*
X5921622Y6576000D02*
D03*
X5791000Y6297000D02*
D03*
X6231000Y6138000D02*
D03*
X6259000Y6239000D02*
D03*
X5796000Y6326000D02*
D03*
X5929000Y6066000D02*
D03*
X6127000Y6504000D02*
D03*
X6050528Y6057268D02*
D03*
X6257787Y6296842D02*
D03*
X5990000Y6593000D02*
D03*
X6149939Y6071000D02*
D03*
X5796000Y6390000D02*
D03*
X5801898Y6355898D02*
D03*
Y6139362D02*
D03*
X6089898Y6057268D02*
D03*
X6237000Y6415740D02*
D03*
X6107000Y6524000D02*
D03*
X6155544Y6512000D02*
D03*
X6254941Y6183000D02*
D03*
X6236000Y6313000D02*
D03*
X6013000Y6540000D02*
D03*
X6070213Y6076458D02*
D03*
X5801898Y6218102D02*
D03*
X6030842Y6573842D02*
D03*
Y6076458D02*
D03*
X6246000Y6159000D02*
D03*
X6052000Y6544000D02*
D03*
X5946000Y6534000D02*
D03*
X5801898Y6414953D02*
D03*
X6109583Y6076458D02*
D03*
X6276000Y6219000D02*
D03*
X6275102Y6277158D02*
D03*
X5947000Y6558334D02*
D03*
X6251394Y6377000D02*
D03*
X6244000Y6258000D02*
D03*
X7226000Y7396000D02*
D03*
X7326000Y7346000D02*
D03*
X7226000Y7096000D02*
D03*
X7026000Y7246000D02*
D03*
X7076000Y7746000D02*
D03*
X6227364Y7533364D02*
D03*
X6784000Y6844000D02*
D03*
X6829000Y6875130D02*
D03*
X7426000Y7746000D02*
D03*
Y7796000D02*
D03*
X7026000Y7446000D02*
D03*
X6779000Y7426000D02*
D03*
X6811000Y7409000D02*
D03*
X6869000Y7385000D02*
D03*
X5957000Y7603000D02*
D03*
X6783000Y6968000D02*
D03*
X7006000Y7155000D02*
D03*
X6209000Y6541000D02*
D03*
X5618921Y7529000D02*
D03*
X5668000Y7570000D02*
D03*
X5527000Y7464624D02*
D03*
X5539000Y7371000D02*
D03*
X5710500Y8085000D02*
D03*
X5765000Y8152000D02*
D03*
X5812000Y8065000D02*
D03*
X7427000Y6597000D02*
D03*
X5509000Y5935000D02*
D03*
X6009953Y5978130D02*
D03*
X6710000Y5867000D02*
D03*
X6605000Y5771500D02*
D03*
X6511000Y5771000D02*
D03*
X6694000Y5773000D02*
D03*
X5585000Y6023000D02*
D03*
X5904130Y6035000D02*
D03*
X5886500Y6013000D02*
D03*
X6224402Y6335342D02*
D03*
X6039000Y6630000D02*
D03*
X5692870Y7433000D02*
D03*
X5437000Y7789000D02*
D03*
X5758000Y6370000D02*
D03*
X5761000Y5823000D02*
D03*
X5816846Y7038886D02*
D03*
X6003000Y7328291D02*
D03*
X7376000Y7646000D02*
D03*
X7227000Y7369000D02*
D03*
X7326000Y6597000D02*
D03*
X6015500Y6056844D02*
D03*
X6036000Y6696000D02*
D03*
X6570000Y7370000D02*
D03*
X7326000Y7446000D02*
D03*
X6568787Y7399000D02*
D03*
X7326000Y7396000D02*
D03*
X6559000Y7464000D02*
D03*
X7376000Y7496000D02*
D03*
X6610000Y7483000D02*
D03*
X7376000Y7546000D02*
D03*
X6198051Y7552000D02*
D03*
X7276000Y7446000D02*
D03*
X7326000Y7546000D02*
D03*
Y7596000D02*
D03*
Y7246000D02*
D03*
X6590000Y7346000D02*
D03*
X7326000Y7296000D02*
D03*
X6570000Y7325000D02*
D03*
X6649000Y7688000D02*
D03*
X7326000Y7746000D02*
D03*
X6678033Y7663033D02*
D03*
X7326000Y7796000D02*
D03*
X6417681Y7015000D02*
D03*
X6384000Y7036000D02*
D03*
X7376000Y7396000D02*
D03*
Y7346000D02*
D03*
X6647000Y7304000D02*
D03*
X7276000Y7296000D02*
D03*
X6648000Y7270000D02*
D03*
X7276000Y7346000D02*
D03*
X6650000Y7188000D02*
D03*
X7376000Y7246000D02*
D03*
X6622000Y7170000D02*
D03*
X7376000Y7196000D02*
D03*
X6330000Y7531000D02*
D03*
X6989000Y7528000D02*
D03*
X7026000Y7495000D02*
D03*
X7126000D02*
D03*
X7226000D02*
D03*
X7279000Y7499000D02*
D03*
X6309000Y7548000D02*
D03*
X7326000Y6796000D02*
D03*
Y6846000D02*
D03*
X6130000Y6056000D02*
D03*
X6806000Y5731750D02*
D03*
X6168000Y6032000D02*
D03*
X5670000Y5852000D02*
D03*
X6406000Y7792000D02*
D03*
D85*
X5749000Y8006000D02*
D03*
X6123307Y7231614D02*
D03*
Y7188307D02*
D03*
Y7145000D02*
D03*
Y7101693D02*
D03*
Y7058386D02*
D03*
X6080000Y7231614D02*
D03*
Y7188307D02*
D03*
Y7145000D02*
D03*
Y7101693D02*
D03*
Y7058386D02*
D03*
X6036693Y7231614D02*
D03*
Y7188307D02*
D03*
Y7145000D02*
D03*
Y7101693D02*
D03*
Y7058386D02*
D03*
X5993386Y7231614D02*
D03*
Y7188307D02*
D03*
Y7145000D02*
D03*
Y7101693D02*
D03*
Y7058386D02*
D03*
X5950079Y7231614D02*
D03*
Y7188307D02*
D03*
Y7145000D02*
D03*
Y7101693D02*
D03*
Y7058386D02*
D03*
X5366559Y6324362D02*
D03*
X5409866D02*
D03*
X5366559Y6281055D02*
D03*
X5409866D02*
D03*
X6107614Y6373614D02*
D03*
X6021000D02*
D03*
X6064307D02*
D03*
X5934386Y6200386D02*
D03*
Y6243693D02*
D03*
Y6287000D02*
D03*
Y6330307D02*
D03*
Y6373614D02*
D03*
X5977693Y6200386D02*
D03*
Y6243693D02*
D03*
Y6287000D02*
D03*
Y6330307D02*
D03*
Y6373614D02*
D03*
X6021000Y6200386D02*
D03*
Y6243693D02*
D03*
Y6287000D02*
D03*
Y6330307D02*
D03*
X6064307Y6200386D02*
D03*
Y6243693D02*
D03*
Y6287000D02*
D03*
Y6330307D02*
D03*
X6107614Y6200386D02*
D03*
Y6243693D02*
D03*
Y6287000D02*
D03*
Y6330307D02*
D03*
D90*
X5213386Y7536693D02*
D03*
X5187795D02*
D03*
X5162205D02*
D03*
X5136614D02*
D03*
X5213386Y7373307D02*
D03*
X5187795D02*
D03*
X5162205D02*
D03*
X5136614D02*
D03*
D91*
X5370000Y7220000D02*
D03*
X5342441D02*
D03*
Y7185000D02*
D03*
X5370000D02*
D03*
X5356220Y7690000D02*
D03*
X5383779D02*
D03*
Y7725000D02*
D03*
X5356220D02*
D03*
D92*
X5592685Y7022000D02*
D03*
X5706685D02*
D03*
X5363000Y6581000D02*
D03*
X5477000D02*
D03*
X5685000Y6579000D02*
D03*
X5799000D02*
D03*
X5524000Y6025000D02*
D03*
X5410000D02*
D03*
X6027000Y5921000D02*
D03*
X5913000D02*
D03*
D93*
X5605000Y6934456D02*
D03*
X5664000D02*
D03*
X5706500Y6666000D02*
D03*
X5765500D02*
D03*
X5613000Y6581364D02*
D03*
X5554000D02*
D03*
X5467000Y5935000D02*
D03*
X5408000D02*
D03*
X6229000Y6780000D02*
D03*
X6170000D02*
D03*
D94*
X5767000Y6792000D02*
D03*
Y6906000D02*
D03*
X6088000Y6693000D02*
D03*
Y6807000D02*
D03*
X6047000Y7615000D02*
D03*
Y7501000D02*
D03*
X5820000Y5822000D02*
D03*
Y5936000D02*
D03*
D95*
X5851000Y6782000D02*
D03*
X5914000D02*
D03*
X5942000Y6885000D02*
D03*
X6005000D02*
D03*
X5848500Y6713000D02*
D03*
X5911500D02*
D03*
X5669000Y7126000D02*
D03*
X5732000D02*
D03*
X5662000Y7335000D02*
D03*
X5725000D02*
D03*
X5692000Y7402000D02*
D03*
X5755000D02*
D03*
X5710500Y7469000D02*
D03*
X5773500D02*
D03*
X6112500Y7423000D02*
D03*
X6175500D02*
D03*
X6238500Y7422000D02*
D03*
X6301500D02*
D03*
D96*
X6003000Y6688500D02*
D03*
Y6625500D02*
D03*
X5841000Y7530000D02*
D03*
Y7467000D02*
D03*
X6300000Y7294500D02*
D03*
Y7357500D02*
D03*
X6374000Y7221179D02*
D03*
Y7284179D02*
D03*
X6302929Y6913000D02*
D03*
Y6850000D02*
D03*
X6375000Y7135158D02*
D03*
Y7072158D02*
D03*
X6301000Y7061000D02*
D03*
Y6998000D02*
D03*
X6220000Y6911500D02*
D03*
Y6848500D02*
D03*
X6375000Y6986000D02*
D03*
Y6923000D02*
D03*
X6300000Y7210000D02*
D03*
Y7147000D02*
D03*
X5613000Y6263500D02*
D03*
Y6326500D02*
D03*
X6995000Y8122000D02*
D03*
Y8185000D02*
D03*
X7085000Y8123500D02*
D03*
Y8186500D02*
D03*
X7175000Y8122000D02*
D03*
Y8185000D02*
D03*
D97*
X6125276Y7281811D02*
D03*
X6144961D02*
D03*
X6085905Y7008189D02*
D03*
X6105591D02*
D03*
X6125276D02*
D03*
X6144961D02*
D03*
X6026850D02*
D03*
X6046535D02*
D03*
X6085905Y7281811D02*
D03*
X6105591D02*
D03*
X5928425D02*
D03*
X5948110D02*
D03*
X5967795D02*
D03*
X5987480D02*
D03*
X6007165D02*
D03*
X6026850D02*
D03*
X6046535D02*
D03*
X6066221D02*
D03*
Y7008189D02*
D03*
X6007165D02*
D03*
X5987480D02*
D03*
X5967795D02*
D03*
X5948110D02*
D03*
X5928425D02*
D03*
D98*
X6036693Y7145000D02*
D03*
D99*
X5899882Y7036732D02*
D03*
Y7056417D02*
D03*
Y7076102D02*
D03*
Y7095787D02*
D03*
Y7115472D02*
D03*
Y7135158D02*
D03*
Y7154842D02*
D03*
Y7174528D02*
D03*
Y7194213D02*
D03*
Y7213898D02*
D03*
Y7233583D02*
D03*
Y7253268D02*
D03*
X6173504D02*
D03*
Y7233583D02*
D03*
Y7213898D02*
D03*
Y7194213D02*
D03*
Y7174528D02*
D03*
Y7154842D02*
D03*
Y7135158D02*
D03*
Y7115472D02*
D03*
Y7095787D02*
D03*
Y7076102D02*
D03*
Y7056417D02*
D03*
Y7036732D02*
D03*
D100*
X5650006Y6186000D02*
D03*
X5610636D02*
D03*
X5609315Y6117386D02*
D03*
X5648685D02*
D03*
X5650685Y6472000D02*
D03*
X5611315D02*
D03*
X5612315Y6407000D02*
D03*
X5651685D02*
D03*
D101*
X5307504Y6351921D02*
D03*
Y6332236D02*
D03*
Y6312551D02*
D03*
Y6292866D02*
D03*
Y6273181D02*
D03*
Y6253496D02*
D03*
X5468921D02*
D03*
Y6273181D02*
D03*
Y6292866D02*
D03*
Y6312551D02*
D03*
Y6332236D02*
D03*
Y6351921D02*
D03*
D102*
X5339000Y6222000D02*
D03*
X5358685D02*
D03*
X5378370D02*
D03*
X5398055D02*
D03*
X5417740D02*
D03*
X5437425D02*
D03*
Y6383417D02*
D03*
X5417740D02*
D03*
X5398055D02*
D03*
X5378370D02*
D03*
X5358685D02*
D03*
X5339000D02*
D03*
D103*
X5388213Y6302709D02*
D03*
D104*
X6021000Y6287000D02*
D03*
D105*
X6197181Y6434638D02*
D03*
Y6414953D02*
D03*
Y6395268D02*
D03*
Y6375583D02*
D03*
Y6355898D02*
D03*
Y6336213D02*
D03*
Y6316528D02*
D03*
Y6296842D02*
D03*
Y6277158D02*
D03*
Y6257472D02*
D03*
Y6237787D02*
D03*
Y6218102D02*
D03*
Y6198417D02*
D03*
Y6178732D02*
D03*
Y6159047D02*
D03*
Y6139362D02*
D03*
X5844819D02*
D03*
Y6159047D02*
D03*
Y6178732D02*
D03*
Y6198417D02*
D03*
Y6218102D02*
D03*
Y6237787D02*
D03*
Y6257472D02*
D03*
Y6277158D02*
D03*
Y6296842D02*
D03*
Y6316528D02*
D03*
Y6336213D02*
D03*
Y6355898D02*
D03*
Y6375583D02*
D03*
Y6395268D02*
D03*
Y6414953D02*
D03*
Y6434638D02*
D03*
D106*
X6168638Y6110819D02*
D03*
X6129268D02*
D03*
X6109583D02*
D03*
X6089898D02*
D03*
X6050528D02*
D03*
X6030842D02*
D03*
X6011158D02*
D03*
X5991472D02*
D03*
X5971787D02*
D03*
X5952102D02*
D03*
X5932417D02*
D03*
X5912732D02*
D03*
X5893047D02*
D03*
X5873362D02*
D03*
Y6463181D02*
D03*
X5893047D02*
D03*
X5912732D02*
D03*
X5932417D02*
D03*
X5952102D02*
D03*
X5971787D02*
D03*
X5991472D02*
D03*
X6011158D02*
D03*
X6030842D02*
D03*
X6050528D02*
D03*
X6070213D02*
D03*
X6089898D02*
D03*
X6109583D02*
D03*
X6129268D02*
D03*
X6148953D02*
D03*
X6168638D02*
D03*
X6148953Y6110819D02*
D03*
X6070213D02*
D03*
D107*
X7500000Y5920000D02*
D03*
Y5970000D02*
D03*
Y6020000D02*
D03*
Y6070000D02*
D03*
Y6120000D02*
D03*
Y6170000D02*
D03*
Y6220000D02*
D03*
Y6270000D02*
D03*
Y6320000D02*
D03*
Y6370000D02*
D03*
Y6420000D02*
D03*
Y6470000D02*
D03*
Y6520000D02*
D03*
Y6570000D02*
D03*
Y6620000D02*
D03*
Y6670000D02*
D03*
Y6720000D02*
D03*
Y6770000D02*
D03*
Y6820000D02*
D03*
Y6870000D02*
D03*
Y6920000D02*
D03*
Y6970000D02*
D03*
Y7020000D02*
D03*
Y7070000D02*
D03*
Y7120000D02*
D03*
Y7170000D02*
D03*
Y7220000D02*
D03*
Y7270000D02*
D03*
Y7320000D02*
D03*
Y7370000D02*
D03*
Y7420000D02*
D03*
Y7470000D02*
D03*
Y7520000D02*
D03*
Y7570000D02*
D03*
Y7620000D02*
D03*
Y7670000D02*
D03*
Y7720000D02*
D03*
Y7770000D02*
D03*
Y7820000D02*
D03*
Y7870000D02*
D03*
X7450000Y5920000D02*
D03*
Y5970000D02*
D03*
Y6020000D02*
D03*
Y6070000D02*
D03*
Y6120000D02*
D03*
Y6170000D02*
D03*
Y6220000D02*
D03*
Y6270000D02*
D03*
Y6320000D02*
D03*
Y6370000D02*
D03*
Y6420000D02*
D03*
Y6470000D02*
D03*
Y6520000D02*
D03*
Y6570000D02*
D03*
Y6620000D02*
D03*
Y6670000D02*
D03*
Y6720000D02*
D03*
Y6770000D02*
D03*
Y6820000D02*
D03*
Y6870000D02*
D03*
Y6920000D02*
D03*
Y6970000D02*
D03*
Y7020000D02*
D03*
Y7070000D02*
D03*
Y7120000D02*
D03*
Y7170000D02*
D03*
Y7220000D02*
D03*
Y7270000D02*
D03*
Y7320000D02*
D03*
Y7370000D02*
D03*
Y7420000D02*
D03*
Y7470000D02*
D03*
Y7520000D02*
D03*
Y7570000D02*
D03*
Y7620000D02*
D03*
Y7670000D02*
D03*
Y7720000D02*
D03*
Y7770000D02*
D03*
Y7820000D02*
D03*
Y7870000D02*
D03*
X7400000Y5920000D02*
D03*
Y5970000D02*
D03*
Y6020000D02*
D03*
Y6070000D02*
D03*
Y6120000D02*
D03*
Y6170000D02*
D03*
Y6220000D02*
D03*
Y6270000D02*
D03*
Y6320000D02*
D03*
Y6370000D02*
D03*
Y6420000D02*
D03*
Y6470000D02*
D03*
Y6520000D02*
D03*
Y6570000D02*
D03*
Y6620000D02*
D03*
Y6670000D02*
D03*
Y6720000D02*
D03*
Y6770000D02*
D03*
Y6820000D02*
D03*
Y6870000D02*
D03*
Y6920000D02*
D03*
Y6970000D02*
D03*
Y7020000D02*
D03*
Y7070000D02*
D03*
Y7120000D02*
D03*
Y7170000D02*
D03*
Y7220000D02*
D03*
Y7270000D02*
D03*
Y7320000D02*
D03*
Y7370000D02*
D03*
Y7420000D02*
D03*
Y7470000D02*
D03*
Y7520000D02*
D03*
Y7570000D02*
D03*
Y7620000D02*
D03*
Y7670000D02*
D03*
Y7720000D02*
D03*
Y7770000D02*
D03*
Y7820000D02*
D03*
Y7870000D02*
D03*
X7350000Y5920000D02*
D03*
Y5970000D02*
D03*
Y6020000D02*
D03*
Y6070000D02*
D03*
Y6120000D02*
D03*
Y6170000D02*
D03*
Y6220000D02*
D03*
Y6270000D02*
D03*
Y6320000D02*
D03*
Y6370000D02*
D03*
Y6420000D02*
D03*
Y6470000D02*
D03*
Y6520000D02*
D03*
Y6570000D02*
D03*
Y6620000D02*
D03*
Y6670000D02*
D03*
Y6720000D02*
D03*
Y6770000D02*
D03*
Y6820000D02*
D03*
Y6870000D02*
D03*
Y6920000D02*
D03*
Y6970000D02*
D03*
Y7020000D02*
D03*
Y7070000D02*
D03*
Y7120000D02*
D03*
Y7170000D02*
D03*
Y7220000D02*
D03*
Y7270000D02*
D03*
Y7320000D02*
D03*
Y7370000D02*
D03*
Y7420000D02*
D03*
Y7470000D02*
D03*
Y7520000D02*
D03*
Y7570000D02*
D03*
Y7620000D02*
D03*
Y7670000D02*
D03*
Y7720000D02*
D03*
Y7770000D02*
D03*
Y7820000D02*
D03*
Y7870000D02*
D03*
X7300000Y5920000D02*
D03*
Y5970000D02*
D03*
Y6020000D02*
D03*
Y6070000D02*
D03*
Y6120000D02*
D03*
Y6170000D02*
D03*
Y6220000D02*
D03*
Y6270000D02*
D03*
Y6320000D02*
D03*
Y6370000D02*
D03*
Y6420000D02*
D03*
Y6470000D02*
D03*
Y6520000D02*
D03*
Y6570000D02*
D03*
Y6620000D02*
D03*
Y6670000D02*
D03*
Y6720000D02*
D03*
Y6770000D02*
D03*
Y6820000D02*
D03*
Y6870000D02*
D03*
Y6920000D02*
D03*
Y6970000D02*
D03*
Y7020000D02*
D03*
Y7070000D02*
D03*
Y7120000D02*
D03*
Y7170000D02*
D03*
Y7220000D02*
D03*
Y7270000D02*
D03*
Y7320000D02*
D03*
Y7370000D02*
D03*
Y7420000D02*
D03*
Y7470000D02*
D03*
Y7520000D02*
D03*
Y7570000D02*
D03*
Y7620000D02*
D03*
Y7670000D02*
D03*
Y7720000D02*
D03*
Y7770000D02*
D03*
Y7820000D02*
D03*
Y7870000D02*
D03*
X7250000Y5920000D02*
D03*
Y5970000D02*
D03*
Y6020000D02*
D03*
Y6070000D02*
D03*
Y6120000D02*
D03*
Y6170000D02*
D03*
Y6220000D02*
D03*
Y6270000D02*
D03*
Y6320000D02*
D03*
Y6370000D02*
D03*
Y6420000D02*
D03*
Y6470000D02*
D03*
Y6520000D02*
D03*
Y6570000D02*
D03*
Y6620000D02*
D03*
Y6670000D02*
D03*
Y6720000D02*
D03*
Y6770000D02*
D03*
Y6820000D02*
D03*
Y6870000D02*
D03*
Y6920000D02*
D03*
Y6970000D02*
D03*
Y7020000D02*
D03*
Y7070000D02*
D03*
Y7120000D02*
D03*
Y7170000D02*
D03*
Y7220000D02*
D03*
Y7270000D02*
D03*
Y7320000D02*
D03*
Y7370000D02*
D03*
Y7420000D02*
D03*
Y7470000D02*
D03*
Y7520000D02*
D03*
Y7570000D02*
D03*
Y7620000D02*
D03*
Y7670000D02*
D03*
Y7720000D02*
D03*
Y7770000D02*
D03*
Y7820000D02*
D03*
Y7870000D02*
D03*
X7200000Y5920000D02*
D03*
Y5970000D02*
D03*
Y6020000D02*
D03*
Y6070000D02*
D03*
Y6120000D02*
D03*
Y6170000D02*
D03*
Y6220000D02*
D03*
Y6270000D02*
D03*
Y6320000D02*
D03*
Y6370000D02*
D03*
Y6420000D02*
D03*
Y6470000D02*
D03*
Y6520000D02*
D03*
Y6570000D02*
D03*
Y6620000D02*
D03*
Y6670000D02*
D03*
Y6720000D02*
D03*
Y6770000D02*
D03*
Y6820000D02*
D03*
Y6870000D02*
D03*
Y6920000D02*
D03*
Y6970000D02*
D03*
Y7020000D02*
D03*
Y7070000D02*
D03*
Y7120000D02*
D03*
Y7170000D02*
D03*
Y7220000D02*
D03*
Y7270000D02*
D03*
Y7320000D02*
D03*
Y7370000D02*
D03*
Y7420000D02*
D03*
Y7470000D02*
D03*
Y7520000D02*
D03*
Y7570000D02*
D03*
Y7620000D02*
D03*
Y7670000D02*
D03*
Y7720000D02*
D03*
Y7770000D02*
D03*
Y7820000D02*
D03*
Y7870000D02*
D03*
X7150000Y5920000D02*
D03*
Y5970000D02*
D03*
Y6020000D02*
D03*
Y6070000D02*
D03*
Y6120000D02*
D03*
Y6170000D02*
D03*
Y6220000D02*
D03*
Y6270000D02*
D03*
Y6320000D02*
D03*
Y6370000D02*
D03*
Y6420000D02*
D03*
Y6470000D02*
D03*
Y6520000D02*
D03*
Y6570000D02*
D03*
Y6620000D02*
D03*
Y6670000D02*
D03*
Y6720000D02*
D03*
Y6770000D02*
D03*
Y6820000D02*
D03*
Y6870000D02*
D03*
Y6920000D02*
D03*
Y6970000D02*
D03*
Y7020000D02*
D03*
Y7070000D02*
D03*
Y7120000D02*
D03*
Y7170000D02*
D03*
Y7220000D02*
D03*
Y7270000D02*
D03*
Y7320000D02*
D03*
Y7370000D02*
D03*
Y7420000D02*
D03*
Y7470000D02*
D03*
Y7520000D02*
D03*
Y7570000D02*
D03*
Y7620000D02*
D03*
Y7670000D02*
D03*
Y7720000D02*
D03*
Y7770000D02*
D03*
Y7820000D02*
D03*
Y7870000D02*
D03*
X7050000Y5920000D02*
D03*
Y5970000D02*
D03*
Y6020000D02*
D03*
Y6070000D02*
D03*
Y6120000D02*
D03*
Y6170000D02*
D03*
Y6220000D02*
D03*
Y6270000D02*
D03*
Y6320000D02*
D03*
Y6370000D02*
D03*
Y6420000D02*
D03*
Y6470000D02*
D03*
Y6520000D02*
D03*
Y6570000D02*
D03*
Y6620000D02*
D03*
Y6670000D02*
D03*
Y6720000D02*
D03*
Y6770000D02*
D03*
Y6820000D02*
D03*
Y6870000D02*
D03*
Y6920000D02*
D03*
Y6970000D02*
D03*
Y7020000D02*
D03*
Y7070000D02*
D03*
Y7120000D02*
D03*
Y7170000D02*
D03*
Y7220000D02*
D03*
Y7270000D02*
D03*
Y7320000D02*
D03*
Y7370000D02*
D03*
Y7420000D02*
D03*
Y7470000D02*
D03*
Y7520000D02*
D03*
Y7570000D02*
D03*
Y7620000D02*
D03*
Y7670000D02*
D03*
Y7720000D02*
D03*
Y7770000D02*
D03*
Y7820000D02*
D03*
Y7870000D02*
D03*
X7100000D02*
D03*
Y7820000D02*
D03*
Y7770000D02*
D03*
Y7720000D02*
D03*
Y7670000D02*
D03*
Y7620000D02*
D03*
Y7570000D02*
D03*
Y7520000D02*
D03*
Y7470000D02*
D03*
Y7420000D02*
D03*
Y7370000D02*
D03*
Y7320000D02*
D03*
Y7270000D02*
D03*
Y7220000D02*
D03*
Y7170000D02*
D03*
Y7120000D02*
D03*
Y7070000D02*
D03*
Y7020000D02*
D03*
Y6970000D02*
D03*
Y6920000D02*
D03*
Y6870000D02*
D03*
Y6820000D02*
D03*
Y6770000D02*
D03*
Y6720000D02*
D03*
Y6670000D02*
D03*
Y6620000D02*
D03*
Y6570000D02*
D03*
Y6520000D02*
D03*
Y6470000D02*
D03*
Y6420000D02*
D03*
Y6370000D02*
D03*
Y6320000D02*
D03*
Y6270000D02*
D03*
Y6220000D02*
D03*
Y6170000D02*
D03*
Y6120000D02*
D03*
Y6070000D02*
D03*
Y6020000D02*
D03*
Y5970000D02*
D03*
Y5920000D02*
D03*
%TF.MD5,6B4BDA4D8F5EF835BDB90D3B546711C5*%
M02*
