G04 Layer_Color=32896*
%FSLAX25Y25*%
%MOIN*%
G70*
G01*
G75*
%ADD107C,0.00394*%
D107*
X723563Y689500D02*
X727500D01*
X731437D01*
X727500Y685563D02*
Y689500D01*
Y693437D01*
Y685563D02*
Y689500D01*
Y693437D01*
X723563Y689500D02*
X727500D01*
X731437D01*
X746063Y592000D02*
X750000D01*
X753937D01*
X750000D02*
Y595937D01*
Y588063D02*
Y592000D01*
X741063D02*
X745000D01*
X748937D01*
X745000D02*
Y595937D01*
Y588063D02*
Y592000D01*
X736063D02*
X740000D01*
X743937D01*
X740000D02*
Y595937D01*
Y588063D02*
Y592000D01*
X731063D02*
X735000D01*
X738937D01*
X735000D02*
Y595937D01*
Y588063D02*
Y592000D01*
X726063D02*
X730000D01*
X733937D01*
X730000D02*
Y595937D01*
Y588063D02*
Y592000D01*
X721063D02*
X725000D01*
X728937D01*
X725000D02*
Y595937D01*
Y588063D02*
Y592000D01*
X716063D02*
X720000D01*
X723937D01*
X720000D02*
Y595937D01*
Y588063D02*
Y592000D01*
X711063D02*
X715000D01*
X718937D01*
X715000D02*
Y595937D01*
Y588063D02*
Y592000D01*
X706063D02*
X710000D01*
X713937D01*
X710000D02*
Y595937D01*
Y588063D02*
Y592000D01*
X701063D02*
X705000D01*
X708937D01*
X705000D02*
Y595937D01*
Y588063D02*
Y592000D01*
X746063Y597000D02*
X750000D01*
X753937D01*
X750000D02*
Y600937D01*
Y593063D02*
Y597000D01*
X741063D02*
X745000D01*
X748937D01*
X745000D02*
Y600937D01*
Y593063D02*
Y597000D01*
X736063D02*
X740000D01*
X743937D01*
X740000D02*
Y600937D01*
Y593063D02*
Y597000D01*
X731063D02*
X735000D01*
X738937D01*
X735000D02*
Y600937D01*
Y593063D02*
Y597000D01*
X726063D02*
X730000D01*
X733937D01*
X730000D02*
Y600937D01*
Y593063D02*
Y597000D01*
X721063D02*
X725000D01*
X728937D01*
X725000D02*
Y600937D01*
Y593063D02*
Y597000D01*
X716063D02*
X720000D01*
X723937D01*
X720000D02*
Y600937D01*
Y593063D02*
Y597000D01*
X711063D02*
X715000D01*
X718937D01*
X715000D02*
Y600937D01*
Y593063D02*
Y597000D01*
X706063D02*
X710000D01*
X713937D01*
X710000D02*
Y600937D01*
Y593063D02*
Y597000D01*
X701063D02*
X705000D01*
X708937D01*
X705000D02*
Y600937D01*
Y593063D02*
Y597000D01*
X746063Y602000D02*
X750000D01*
X753937D01*
X750000D02*
Y605937D01*
Y598063D02*
Y602000D01*
X741063D02*
X745000D01*
X748937D01*
X745000D02*
Y605937D01*
Y598063D02*
Y602000D01*
X736063D02*
X740000D01*
X743937D01*
X740000D02*
Y605937D01*
Y598063D02*
Y602000D01*
X731063D02*
X735000D01*
X738937D01*
X735000D02*
Y605937D01*
Y598063D02*
Y602000D01*
X726063D02*
X730000D01*
X733937D01*
X730000D02*
Y605937D01*
Y598063D02*
Y602000D01*
X721063D02*
X725000D01*
X728937D01*
X725000D02*
Y605937D01*
Y598063D02*
Y602000D01*
X716063D02*
X720000D01*
X723937D01*
X720000D02*
Y605937D01*
Y598063D02*
Y602000D01*
X711063D02*
X715000D01*
X718937D01*
X715000D02*
Y605937D01*
Y598063D02*
Y602000D01*
X706063D02*
X710000D01*
X713937D01*
X710000D02*
Y605937D01*
Y598063D02*
Y602000D01*
X701063D02*
X705000D01*
X708937D01*
X705000D02*
Y605937D01*
Y598063D02*
Y602000D01*
X746063Y607000D02*
X750000D01*
X753937D01*
X750000D02*
Y610937D01*
Y603063D02*
Y607000D01*
X741063D02*
X745000D01*
X748937D01*
X745000D02*
Y610937D01*
Y603063D02*
Y607000D01*
X736063D02*
X740000D01*
X743937D01*
X740000D02*
Y610937D01*
Y603063D02*
Y607000D01*
X731063D02*
X735000D01*
X738937D01*
X735000D02*
Y610937D01*
Y603063D02*
Y607000D01*
X726063D02*
X730000D01*
X733937D01*
X730000D02*
Y610937D01*
Y603063D02*
Y607000D01*
X721063D02*
X725000D01*
X728937D01*
X725000D02*
Y610937D01*
Y603063D02*
Y607000D01*
X716063D02*
X720000D01*
X723937D01*
X720000D02*
Y610937D01*
Y603063D02*
Y607000D01*
X711063D02*
X715000D01*
X718937D01*
X715000D02*
Y610937D01*
Y603063D02*
Y607000D01*
X706063D02*
X710000D01*
X713937D01*
X710000D02*
Y610937D01*
Y603063D02*
Y607000D01*
X701063D02*
X705000D01*
X708937D01*
X705000D02*
Y610937D01*
Y603063D02*
Y607000D01*
X746063Y612000D02*
X750000D01*
X753937D01*
X750000D02*
Y615937D01*
Y608063D02*
Y612000D01*
X741063D02*
X745000D01*
X748937D01*
X745000D02*
Y615937D01*
Y608063D02*
Y612000D01*
X736063D02*
X740000D01*
X743937D01*
X740000D02*
Y615937D01*
Y608063D02*
Y612000D01*
X731063D02*
X735000D01*
X738937D01*
X735000D02*
Y615937D01*
Y608063D02*
Y612000D01*
X726063D02*
X730000D01*
X733937D01*
X730000D02*
Y615937D01*
Y608063D02*
Y612000D01*
X721063D02*
X725000D01*
X728937D01*
X725000D02*
Y615937D01*
Y608063D02*
Y612000D01*
X716063D02*
X720000D01*
X723937D01*
X720000D02*
Y615937D01*
Y608063D02*
Y612000D01*
X711063D02*
X715000D01*
X718937D01*
X715000D02*
Y615937D01*
Y608063D02*
Y612000D01*
X706063D02*
X710000D01*
X713937D01*
X710000D02*
Y615937D01*
Y608063D02*
Y612000D01*
X701063D02*
X705000D01*
X708937D01*
X705000D02*
Y615937D01*
Y608063D02*
Y612000D01*
X746063Y617000D02*
X750000D01*
X753937D01*
X750000D02*
Y620937D01*
Y613063D02*
Y617000D01*
X741063D02*
X745000D01*
X748937D01*
X745000D02*
Y620937D01*
Y613063D02*
Y617000D01*
X736063D02*
X740000D01*
X743937D01*
X740000D02*
Y620937D01*
Y613063D02*
Y617000D01*
X731063D02*
X735000D01*
X738937D01*
X735000D02*
Y620937D01*
Y613063D02*
Y617000D01*
X726063D02*
X730000D01*
X733937D01*
X730000D02*
Y620937D01*
Y613063D02*
Y617000D01*
X721063D02*
X725000D01*
X728937D01*
X725000D02*
Y620937D01*
Y613063D02*
Y617000D01*
X716063D02*
X720000D01*
X723937D01*
X720000D02*
Y620937D01*
Y613063D02*
Y617000D01*
X711063D02*
X715000D01*
X718937D01*
X715000D02*
Y620937D01*
Y613063D02*
Y617000D01*
X706063D02*
X710000D01*
X713937D01*
X710000D02*
Y620937D01*
Y613063D02*
Y617000D01*
X701063D02*
X705000D01*
X708937D01*
X705000D02*
Y620937D01*
Y613063D02*
Y617000D01*
X746063Y622000D02*
X750000D01*
X753937D01*
X750000D02*
Y625937D01*
Y618063D02*
Y622000D01*
X741063D02*
X745000D01*
X748937D01*
X745000D02*
Y625937D01*
Y618063D02*
Y622000D01*
X736063D02*
X740000D01*
X743937D01*
X740000D02*
Y625937D01*
Y618063D02*
Y622000D01*
X731063D02*
X735000D01*
X738937D01*
X735000D02*
Y625937D01*
Y618063D02*
Y622000D01*
X726063D02*
X730000D01*
X733937D01*
X730000D02*
Y625937D01*
Y618063D02*
Y622000D01*
X721063D02*
X725000D01*
X728937D01*
X725000D02*
Y625937D01*
Y618063D02*
Y622000D01*
X716063D02*
X720000D01*
X723937D01*
X720000D02*
Y625937D01*
Y618063D02*
Y622000D01*
X711063D02*
X715000D01*
X718937D01*
X715000D02*
Y625937D01*
Y618063D02*
Y622000D01*
X706063D02*
X710000D01*
X713937D01*
X710000D02*
Y625937D01*
Y618063D02*
Y622000D01*
X701063D02*
X705000D01*
X708937D01*
X705000D02*
Y625937D01*
Y618063D02*
Y622000D01*
X746063Y627000D02*
X750000D01*
X753937D01*
X750000D02*
Y630937D01*
Y623063D02*
Y627000D01*
X741063D02*
X745000D01*
X748937D01*
X745000D02*
Y630937D01*
Y623063D02*
Y627000D01*
X736063D02*
X740000D01*
X743937D01*
X740000D02*
Y630937D01*
Y623063D02*
Y627000D01*
X731063D02*
X735000D01*
X738937D01*
X735000D02*
Y630937D01*
Y623063D02*
Y627000D01*
X726063D02*
X730000D01*
X733937D01*
X730000D02*
Y630937D01*
Y623063D02*
Y627000D01*
X721063D02*
X725000D01*
X728937D01*
X725000D02*
Y630937D01*
Y623063D02*
Y627000D01*
X716063D02*
X720000D01*
X723937D01*
X720000D02*
Y630937D01*
Y623063D02*
Y627000D01*
X711063D02*
X715000D01*
X718937D01*
X715000D02*
Y630937D01*
Y623063D02*
Y627000D01*
X706063D02*
X710000D01*
X713937D01*
X710000D02*
Y630937D01*
Y623063D02*
Y627000D01*
X701063D02*
X705000D01*
X708937D01*
X705000D02*
Y630937D01*
Y623063D02*
Y627000D01*
X746063Y632000D02*
X750000D01*
X753937D01*
X750000D02*
Y635937D01*
Y628063D02*
Y632000D01*
X741063D02*
X745000D01*
X748937D01*
X745000D02*
Y635937D01*
Y628063D02*
Y632000D01*
X736063D02*
X740000D01*
X743937D01*
X740000D02*
Y635937D01*
Y628063D02*
Y632000D01*
X731063D02*
X735000D01*
X738937D01*
X735000D02*
Y635937D01*
Y628063D02*
Y632000D01*
X726063D02*
X730000D01*
X733937D01*
X730000D02*
Y635937D01*
Y628063D02*
Y632000D01*
X721063D02*
X725000D01*
X728937D01*
X725000D02*
Y635937D01*
Y628063D02*
Y632000D01*
X716063D02*
X720000D01*
X723937D01*
X720000D02*
Y635937D01*
Y628063D02*
Y632000D01*
X711063D02*
X715000D01*
X718937D01*
X715000D02*
Y635937D01*
Y628063D02*
Y632000D01*
X706063D02*
X710000D01*
X713937D01*
X710000D02*
Y635937D01*
Y628063D02*
Y632000D01*
X701063D02*
X705000D01*
X708937D01*
X705000D02*
Y635937D01*
Y628063D02*
Y632000D01*
X746063Y637000D02*
X750000D01*
X753937D01*
X750000D02*
Y640937D01*
Y633063D02*
Y637000D01*
X741063D02*
X745000D01*
X748937D01*
X745000D02*
Y640937D01*
Y633063D02*
Y637000D01*
X736063D02*
X740000D01*
X743937D01*
X740000D02*
Y640937D01*
Y633063D02*
Y637000D01*
X731063D02*
X735000D01*
X738937D01*
X735000D02*
Y640937D01*
Y633063D02*
Y637000D01*
X726063D02*
X730000D01*
X733937D01*
X730000D02*
Y640937D01*
Y633063D02*
Y637000D01*
X721063D02*
X725000D01*
X728937D01*
X725000D02*
Y640937D01*
Y633063D02*
Y637000D01*
X716063D02*
X720000D01*
X723937D01*
X720000D02*
Y640937D01*
Y633063D02*
Y637000D01*
X711063D02*
X715000D01*
X718937D01*
X715000D02*
Y640937D01*
Y633063D02*
Y637000D01*
X706063D02*
X710000D01*
X713937D01*
X710000D02*
Y640937D01*
Y633063D02*
Y637000D01*
X701063D02*
X705000D01*
X708937D01*
X705000D02*
Y640937D01*
Y633063D02*
Y637000D01*
X746063Y642000D02*
X750000D01*
X753937D01*
X750000D02*
Y645937D01*
Y638063D02*
Y642000D01*
X741063D02*
X745000D01*
X748937D01*
X745000D02*
Y645937D01*
Y638063D02*
Y642000D01*
X736063D02*
X740000D01*
X743937D01*
X740000D02*
Y645937D01*
Y638063D02*
Y642000D01*
X731063D02*
X735000D01*
X738937D01*
X735000D02*
Y645937D01*
Y638063D02*
Y642000D01*
X726063D02*
X730000D01*
X733937D01*
X730000D02*
Y645937D01*
Y638063D02*
Y642000D01*
X721063D02*
X725000D01*
X728937D01*
X725000D02*
Y645937D01*
Y638063D02*
Y642000D01*
X716063D02*
X720000D01*
X723937D01*
X720000D02*
Y645937D01*
Y638063D02*
Y642000D01*
X711063D02*
X715000D01*
X718937D01*
X715000D02*
Y645937D01*
Y638063D02*
Y642000D01*
X706063D02*
X710000D01*
X713937D01*
X710000D02*
Y645937D01*
Y638063D02*
Y642000D01*
X701063D02*
X705000D01*
X708937D01*
X705000D02*
Y645937D01*
Y638063D02*
Y642000D01*
X746063Y647000D02*
X750000D01*
X753937D01*
X750000D02*
Y650937D01*
Y643063D02*
Y647000D01*
X741063D02*
X745000D01*
X748937D01*
X745000D02*
Y650937D01*
Y643063D02*
Y647000D01*
X736063D02*
X740000D01*
X743937D01*
X740000D02*
Y650937D01*
Y643063D02*
Y647000D01*
X731063D02*
X735000D01*
X738937D01*
X735000D02*
Y650937D01*
Y643063D02*
Y647000D01*
X726063D02*
X730000D01*
X733937D01*
X730000D02*
Y650937D01*
Y643063D02*
Y647000D01*
X721063D02*
X725000D01*
X728937D01*
X725000D02*
Y650937D01*
Y643063D02*
Y647000D01*
X716063D02*
X720000D01*
X723937D01*
X720000D02*
Y650937D01*
Y643063D02*
Y647000D01*
X711063D02*
X715000D01*
X718937D01*
X715000D02*
Y650937D01*
Y643063D02*
Y647000D01*
X706063D02*
X710000D01*
X713937D01*
X710000D02*
Y650937D01*
Y643063D02*
Y647000D01*
X701063D02*
X705000D01*
X708937D01*
X705000D02*
Y650937D01*
Y643063D02*
Y647000D01*
X746063Y652000D02*
X750000D01*
X753937D01*
X750000D02*
Y655937D01*
Y648063D02*
Y652000D01*
X741063D02*
X745000D01*
X748937D01*
X745000D02*
Y655937D01*
Y648063D02*
Y652000D01*
X736063D02*
X740000D01*
X743937D01*
X740000D02*
Y655937D01*
Y648063D02*
Y652000D01*
X731063D02*
X735000D01*
X738937D01*
X735000D02*
Y655937D01*
Y648063D02*
Y652000D01*
X726063D02*
X730000D01*
X733937D01*
X730000D02*
Y655937D01*
Y648063D02*
Y652000D01*
X721063D02*
X725000D01*
X728937D01*
X725000D02*
Y655937D01*
Y648063D02*
Y652000D01*
X716063D02*
X720000D01*
X723937D01*
X720000D02*
Y655937D01*
Y648063D02*
Y652000D01*
X711063D02*
X715000D01*
X718937D01*
X715000D02*
Y655937D01*
Y648063D02*
Y652000D01*
X706063D02*
X710000D01*
X713937D01*
X710000D02*
Y655937D01*
Y648063D02*
Y652000D01*
X701063D02*
X705000D01*
X708937D01*
X705000D02*
Y655937D01*
Y648063D02*
Y652000D01*
X746063Y657000D02*
X750000D01*
X753937D01*
X750000D02*
Y660937D01*
Y653063D02*
Y657000D01*
X741063D02*
X745000D01*
X748937D01*
X745000D02*
Y660937D01*
Y653063D02*
Y657000D01*
X736063D02*
X740000D01*
X743937D01*
X740000D02*
Y660937D01*
Y653063D02*
Y657000D01*
X731063D02*
X735000D01*
X738937D01*
X735000D02*
Y660937D01*
Y653063D02*
Y657000D01*
X726063D02*
X730000D01*
X733937D01*
X730000D02*
Y660937D01*
Y653063D02*
Y657000D01*
X721063D02*
X725000D01*
X728937D01*
X725000D02*
Y660937D01*
Y653063D02*
Y657000D01*
X716063D02*
X720000D01*
X723937D01*
X720000D02*
Y660937D01*
Y653063D02*
Y657000D01*
X711063D02*
X715000D01*
X718937D01*
X715000D02*
Y660937D01*
Y653063D02*
Y657000D01*
X706063D02*
X710000D01*
X713937D01*
X710000D02*
Y660937D01*
Y653063D02*
Y657000D01*
X701063D02*
X705000D01*
X708937D01*
X705000D02*
Y660937D01*
Y653063D02*
Y657000D01*
X746063Y662000D02*
X750000D01*
X753937D01*
X750000D02*
Y665937D01*
Y658063D02*
Y662000D01*
X741063D02*
X745000D01*
X748937D01*
X745000D02*
Y665937D01*
Y658063D02*
Y662000D01*
X736063D02*
X740000D01*
X743937D01*
X740000D02*
Y665937D01*
Y658063D02*
Y662000D01*
X731063D02*
X735000D01*
X738937D01*
X735000D02*
Y665937D01*
Y658063D02*
Y662000D01*
X726063D02*
X730000D01*
X733937D01*
X730000D02*
Y665937D01*
Y658063D02*
Y662000D01*
X721063D02*
X725000D01*
X728937D01*
X725000D02*
Y665937D01*
Y658063D02*
Y662000D01*
X716063D02*
X720000D01*
X723937D01*
X720000D02*
Y665937D01*
Y658063D02*
Y662000D01*
X711063D02*
X715000D01*
X718937D01*
X715000D02*
Y665937D01*
Y658063D02*
Y662000D01*
X706063D02*
X710000D01*
X713937D01*
X710000D02*
Y665937D01*
Y658063D02*
Y662000D01*
X701063D02*
X705000D01*
X708937D01*
X705000D02*
Y665937D01*
Y658063D02*
Y662000D01*
X746063Y667000D02*
X750000D01*
X753937D01*
X750000D02*
Y670937D01*
Y663063D02*
Y667000D01*
X741063D02*
X745000D01*
X748937D01*
X745000D02*
Y670937D01*
Y663063D02*
Y667000D01*
X736063D02*
X740000D01*
X743937D01*
X740000D02*
Y670937D01*
Y663063D02*
Y667000D01*
X731063D02*
X735000D01*
X738937D01*
X735000D02*
Y670937D01*
Y663063D02*
Y667000D01*
X726063D02*
X730000D01*
X733937D01*
X730000D02*
Y670937D01*
Y663063D02*
Y667000D01*
X721063D02*
X725000D01*
X728937D01*
X725000D02*
Y670937D01*
Y663063D02*
Y667000D01*
X716063D02*
X720000D01*
X723937D01*
X720000D02*
Y670937D01*
Y663063D02*
Y667000D01*
X711063D02*
X715000D01*
X718937D01*
X715000D02*
Y670937D01*
Y663063D02*
Y667000D01*
X706063D02*
X710000D01*
X713937D01*
X710000D02*
Y670937D01*
Y663063D02*
Y667000D01*
X701063D02*
X705000D01*
X708937D01*
X705000D02*
Y670937D01*
Y663063D02*
Y667000D01*
X746063Y672000D02*
X750000D01*
X753937D01*
X750000D02*
Y675937D01*
Y668063D02*
Y672000D01*
X741063D02*
X745000D01*
X748937D01*
X745000D02*
Y675937D01*
Y668063D02*
Y672000D01*
X736063D02*
X740000D01*
X743937D01*
X740000D02*
Y675937D01*
Y668063D02*
Y672000D01*
X731063D02*
X735000D01*
X738937D01*
X735000D02*
Y675937D01*
Y668063D02*
Y672000D01*
X726063D02*
X730000D01*
X733937D01*
X730000D02*
Y675937D01*
Y668063D02*
Y672000D01*
X721063D02*
X725000D01*
X728937D01*
X725000D02*
Y675937D01*
Y668063D02*
Y672000D01*
X716063D02*
X720000D01*
X723937D01*
X720000D02*
Y675937D01*
Y668063D02*
Y672000D01*
X711063D02*
X715000D01*
X718937D01*
X715000D02*
Y675937D01*
Y668063D02*
Y672000D01*
X706063D02*
X710000D01*
X713937D01*
X710000D02*
Y675937D01*
Y668063D02*
Y672000D01*
X701063D02*
X705000D01*
X708937D01*
X705000D02*
Y675937D01*
Y668063D02*
Y672000D01*
X746063Y677000D02*
X750000D01*
X753937D01*
X750000D02*
Y680937D01*
Y673063D02*
Y677000D01*
X741063D02*
X745000D01*
X748937D01*
X745000D02*
Y680937D01*
Y673063D02*
Y677000D01*
X736063D02*
X740000D01*
X743937D01*
X740000D02*
Y680937D01*
Y673063D02*
Y677000D01*
X731063D02*
X735000D01*
X738937D01*
X735000D02*
Y680937D01*
Y673063D02*
Y677000D01*
X726063D02*
X730000D01*
X733937D01*
X730000D02*
Y680937D01*
Y673063D02*
Y677000D01*
X721063D02*
X725000D01*
X728937D01*
X725000D02*
Y680937D01*
Y673063D02*
Y677000D01*
X716063D02*
X720000D01*
X723937D01*
X720000D02*
Y680937D01*
Y673063D02*
Y677000D01*
X711063D02*
X715000D01*
X718937D01*
X715000D02*
Y680937D01*
Y673063D02*
Y677000D01*
X706063D02*
X710000D01*
X713937D01*
X710000D02*
Y680937D01*
Y673063D02*
Y677000D01*
X701063D02*
X705000D01*
X708937D01*
X705000D02*
Y680937D01*
Y673063D02*
Y677000D01*
X746063Y682000D02*
X750000D01*
X753937D01*
X750000D02*
Y685937D01*
Y678063D02*
Y682000D01*
X741063D02*
X745000D01*
X748937D01*
X745000D02*
Y685937D01*
Y678063D02*
Y682000D01*
X736063D02*
X740000D01*
X743937D01*
X740000D02*
Y685937D01*
Y678063D02*
Y682000D01*
X731063D02*
X735000D01*
X738937D01*
X735000D02*
Y685937D01*
Y678063D02*
Y682000D01*
X726063D02*
X730000D01*
X733937D01*
X730000D02*
Y685937D01*
Y678063D02*
Y682000D01*
X721063D02*
X725000D01*
X728937D01*
X725000D02*
Y685937D01*
Y678063D02*
Y682000D01*
X716063D02*
X720000D01*
X723937D01*
X720000D02*
Y685937D01*
Y678063D02*
Y682000D01*
X711063D02*
X715000D01*
X718937D01*
X715000D02*
Y685937D01*
Y678063D02*
Y682000D01*
X706063D02*
X710000D01*
X713937D01*
X710000D02*
Y685937D01*
Y678063D02*
Y682000D01*
X701063D02*
X705000D01*
X708937D01*
X705000D02*
Y685937D01*
Y678063D02*
Y682000D01*
X746063Y687000D02*
X750000D01*
X753937D01*
X750000D02*
Y690937D01*
Y683063D02*
Y687000D01*
X741063D02*
X745000D01*
X748937D01*
X745000D02*
Y690937D01*
Y683063D02*
Y687000D01*
X736063D02*
X740000D01*
X743937D01*
X740000D02*
Y690937D01*
Y683063D02*
Y687000D01*
X731063D02*
X735000D01*
X738937D01*
X735000D02*
Y690937D01*
Y683063D02*
Y687000D01*
X726063D02*
X730000D01*
X733937D01*
X730000D02*
Y690937D01*
Y683063D02*
Y687000D01*
X721063D02*
X725000D01*
X728937D01*
X725000D02*
Y690937D01*
Y683063D02*
Y687000D01*
X716063D02*
X720000D01*
X723937D01*
X720000D02*
Y690937D01*
Y683063D02*
Y687000D01*
X711063D02*
X715000D01*
X718937D01*
X715000D02*
Y690937D01*
Y683063D02*
Y687000D01*
X706063D02*
X710000D01*
X713937D01*
X710000D02*
Y690937D01*
Y683063D02*
Y687000D01*
X701063D02*
X705000D01*
X708937D01*
X705000D02*
Y690937D01*
Y683063D02*
Y687000D01*
X746063Y692000D02*
X750000D01*
X753937D01*
X750000D02*
Y695937D01*
Y688063D02*
Y692000D01*
X741063D02*
X745000D01*
X748937D01*
X745000D02*
Y695937D01*
Y688063D02*
Y692000D01*
X736063D02*
X740000D01*
X743937D01*
X740000D02*
Y695937D01*
Y688063D02*
Y692000D01*
X731063D02*
X735000D01*
X738937D01*
X735000D02*
Y695937D01*
Y688063D02*
Y692000D01*
X726063D02*
X730000D01*
X733937D01*
X730000D02*
Y695937D01*
Y688063D02*
Y692000D01*
X721063D02*
X725000D01*
X728937D01*
X725000D02*
Y695937D01*
Y688063D02*
Y692000D01*
X716063D02*
X720000D01*
X723937D01*
X720000D02*
Y695937D01*
Y688063D02*
Y692000D01*
X711063D02*
X715000D01*
X718937D01*
X715000D02*
Y695937D01*
Y688063D02*
Y692000D01*
X706063D02*
X710000D01*
X713937D01*
X710000D02*
Y695937D01*
Y688063D02*
Y692000D01*
X701063D02*
X705000D01*
X708937D01*
X705000D02*
Y695937D01*
Y688063D02*
Y692000D01*
X746063Y697000D02*
X750000D01*
X753937D01*
X750000D02*
Y700937D01*
Y693063D02*
Y697000D01*
X741063D02*
X745000D01*
X748937D01*
X745000D02*
Y700937D01*
Y693063D02*
Y697000D01*
X736063D02*
X740000D01*
X743937D01*
X740000D02*
Y700937D01*
Y693063D02*
Y697000D01*
X731063D02*
X735000D01*
X738937D01*
X735000D02*
Y700937D01*
Y693063D02*
Y697000D01*
X726063D02*
X730000D01*
X733937D01*
X730000D02*
Y700937D01*
Y693063D02*
Y697000D01*
X721063D02*
X725000D01*
X728937D01*
X725000D02*
Y700937D01*
Y693063D02*
Y697000D01*
X716063D02*
X720000D01*
X723937D01*
X720000D02*
Y700937D01*
Y693063D02*
Y697000D01*
X711063D02*
X715000D01*
X718937D01*
X715000D02*
Y700937D01*
Y693063D02*
Y697000D01*
X706063D02*
X710000D01*
X713937D01*
X710000D02*
Y700937D01*
Y693063D02*
Y697000D01*
X701063D02*
X705000D01*
X708937D01*
X705000D02*
Y700937D01*
Y693063D02*
Y697000D01*
X746063Y702000D02*
X750000D01*
X753937D01*
X750000D02*
Y705937D01*
Y698063D02*
Y702000D01*
X741063D02*
X745000D01*
X748937D01*
X745000D02*
Y705937D01*
Y698063D02*
Y702000D01*
X736063D02*
X740000D01*
X743937D01*
X740000D02*
Y705937D01*
Y698063D02*
Y702000D01*
X731063D02*
X735000D01*
X738937D01*
X735000D02*
Y705937D01*
Y698063D02*
Y702000D01*
X726063D02*
X730000D01*
X733937D01*
X730000D02*
Y705937D01*
Y698063D02*
Y702000D01*
X721063D02*
X725000D01*
X728937D01*
X725000D02*
Y705937D01*
Y698063D02*
Y702000D01*
X716063D02*
X720000D01*
X723937D01*
X720000D02*
Y705937D01*
Y698063D02*
Y702000D01*
X711063D02*
X715000D01*
X718937D01*
X715000D02*
Y705937D01*
Y698063D02*
Y702000D01*
X706063D02*
X710000D01*
X713937D01*
X710000D02*
Y705937D01*
Y698063D02*
Y702000D01*
X701063D02*
X705000D01*
X708937D01*
X705000D02*
Y705937D01*
Y698063D02*
Y702000D01*
X746063Y707000D02*
X750000D01*
X753937D01*
X750000D02*
Y710937D01*
Y703063D02*
Y707000D01*
X741063D02*
X745000D01*
X748937D01*
X745000D02*
Y710937D01*
Y703063D02*
Y707000D01*
X736063D02*
X740000D01*
X743937D01*
X740000D02*
Y710937D01*
Y703063D02*
Y707000D01*
X731063D02*
X735000D01*
X738937D01*
X735000D02*
Y710937D01*
Y703063D02*
Y707000D01*
X726063D02*
X730000D01*
X733937D01*
X730000D02*
Y710937D01*
Y703063D02*
Y707000D01*
X721063D02*
X725000D01*
X728937D01*
X725000D02*
Y710937D01*
Y703063D02*
Y707000D01*
X716063D02*
X720000D01*
X723937D01*
X720000D02*
Y710937D01*
Y703063D02*
Y707000D01*
X711063D02*
X715000D01*
X718937D01*
X715000D02*
Y710937D01*
Y703063D02*
Y707000D01*
X706063D02*
X710000D01*
X713937D01*
X710000D02*
Y710937D01*
Y703063D02*
Y707000D01*
X701063D02*
X705000D01*
X708937D01*
X705000D02*
Y710937D01*
Y703063D02*
Y707000D01*
X746063Y712000D02*
X750000D01*
X753937D01*
X750000D02*
Y715937D01*
Y708063D02*
Y712000D01*
X741063D02*
X745000D01*
X748937D01*
X745000D02*
Y715937D01*
Y708063D02*
Y712000D01*
X736063D02*
X740000D01*
X743937D01*
X740000D02*
Y715937D01*
Y708063D02*
Y712000D01*
X731063D02*
X735000D01*
X738937D01*
X735000D02*
Y715937D01*
Y708063D02*
Y712000D01*
X726063D02*
X730000D01*
X733937D01*
X730000D02*
Y715937D01*
Y708063D02*
Y712000D01*
X721063D02*
X725000D01*
X728937D01*
X725000D02*
Y715937D01*
Y708063D02*
Y712000D01*
X716063D02*
X720000D01*
X723937D01*
X720000D02*
Y715937D01*
Y708063D02*
Y712000D01*
X711063D02*
X715000D01*
X718937D01*
X715000D02*
Y715937D01*
Y708063D02*
Y712000D01*
X706063D02*
X710000D01*
X713937D01*
X710000D02*
Y715937D01*
Y708063D02*
Y712000D01*
X701063D02*
X705000D01*
X708937D01*
X705000D02*
Y715937D01*
Y708063D02*
Y712000D01*
X746063Y717000D02*
X750000D01*
X753937D01*
X750000D02*
Y720937D01*
Y713063D02*
Y717000D01*
X741063D02*
X745000D01*
X748937D01*
X745000D02*
Y720937D01*
Y713063D02*
Y717000D01*
X736063D02*
X740000D01*
X743937D01*
X740000D02*
Y720937D01*
Y713063D02*
Y717000D01*
X731063D02*
X735000D01*
X738937D01*
X735000D02*
Y720937D01*
Y713063D02*
Y717000D01*
X726063D02*
X730000D01*
X733937D01*
X730000D02*
Y720937D01*
Y713063D02*
Y717000D01*
X721063D02*
X725000D01*
X728937D01*
X725000D02*
Y720937D01*
Y713063D02*
Y717000D01*
X716063D02*
X720000D01*
X723937D01*
X720000D02*
Y720937D01*
Y713063D02*
Y717000D01*
X711063D02*
X715000D01*
X718937D01*
X715000D02*
Y720937D01*
Y713063D02*
Y717000D01*
X706063D02*
X710000D01*
X713937D01*
X710000D02*
Y720937D01*
Y713063D02*
Y717000D01*
X701063D02*
X705000D01*
X708937D01*
X705000D02*
Y720937D01*
Y713063D02*
Y717000D01*
X746063Y722000D02*
X750000D01*
X753937D01*
X750000D02*
Y725937D01*
Y718063D02*
Y722000D01*
X741063D02*
X745000D01*
X748937D01*
X745000D02*
Y725937D01*
Y718063D02*
Y722000D01*
X736063D02*
X740000D01*
X743937D01*
X740000D02*
Y725937D01*
Y718063D02*
Y722000D01*
X731063D02*
X735000D01*
X738937D01*
X735000D02*
Y725937D01*
Y718063D02*
Y722000D01*
X726063D02*
X730000D01*
X733937D01*
X730000D02*
Y725937D01*
Y718063D02*
Y722000D01*
X721063D02*
X725000D01*
X728937D01*
X725000D02*
Y725937D01*
Y718063D02*
Y722000D01*
X716063D02*
X720000D01*
X723937D01*
X720000D02*
Y725937D01*
Y718063D02*
Y722000D01*
X711063D02*
X715000D01*
X718937D01*
X715000D02*
Y725937D01*
Y718063D02*
Y722000D01*
X706063D02*
X710000D01*
X713937D01*
X710000D02*
Y725937D01*
Y718063D02*
Y722000D01*
X701063D02*
X705000D01*
X708937D01*
X705000D02*
Y725937D01*
Y718063D02*
Y722000D01*
X746063Y727000D02*
X750000D01*
X753937D01*
X750000D02*
Y730937D01*
Y723063D02*
Y727000D01*
X741063D02*
X745000D01*
X748937D01*
X745000D02*
Y730937D01*
Y723063D02*
Y727000D01*
X736063D02*
X740000D01*
X743937D01*
X740000D02*
Y730937D01*
Y723063D02*
Y727000D01*
X731063D02*
X735000D01*
X738937D01*
X735000D02*
Y730937D01*
Y723063D02*
Y727000D01*
X726063D02*
X730000D01*
X733937D01*
X730000D02*
Y730937D01*
Y723063D02*
Y727000D01*
X721063D02*
X725000D01*
X728937D01*
X725000D02*
Y730937D01*
Y723063D02*
Y727000D01*
X716063D02*
X720000D01*
X723937D01*
X720000D02*
Y730937D01*
Y723063D02*
Y727000D01*
X711063D02*
X715000D01*
X718937D01*
X715000D02*
Y730937D01*
Y723063D02*
Y727000D01*
X706063D02*
X710000D01*
X713937D01*
X710000D02*
Y730937D01*
Y723063D02*
Y727000D01*
X701063D02*
X705000D01*
X708937D01*
X705000D02*
Y730937D01*
Y723063D02*
Y727000D01*
X746063Y732000D02*
X750000D01*
X753937D01*
X750000D02*
Y735937D01*
Y728063D02*
Y732000D01*
X741063D02*
X745000D01*
X748937D01*
X745000D02*
Y735937D01*
Y728063D02*
Y732000D01*
X736063D02*
X740000D01*
X743937D01*
X740000D02*
Y735937D01*
Y728063D02*
Y732000D01*
X731063D02*
X735000D01*
X738937D01*
X735000D02*
Y735937D01*
Y728063D02*
Y732000D01*
X726063D02*
X730000D01*
X733937D01*
X730000D02*
Y735937D01*
Y728063D02*
Y732000D01*
X721063D02*
X725000D01*
X728937D01*
X725000D02*
Y735937D01*
Y728063D02*
Y732000D01*
X716063D02*
X720000D01*
X723937D01*
X720000D02*
Y735937D01*
Y728063D02*
Y732000D01*
X711063D02*
X715000D01*
X718937D01*
X715000D02*
Y735937D01*
Y728063D02*
Y732000D01*
X706063D02*
X710000D01*
X713937D01*
X710000D02*
Y735937D01*
Y728063D02*
Y732000D01*
X701063D02*
X705000D01*
X708937D01*
X705000D02*
Y735937D01*
Y728063D02*
Y732000D01*
X746063Y737000D02*
X750000D01*
X753937D01*
X750000D02*
Y740937D01*
Y733063D02*
Y737000D01*
X741063D02*
X745000D01*
X748937D01*
X745000D02*
Y740937D01*
Y733063D02*
Y737000D01*
X736063D02*
X740000D01*
X743937D01*
X740000D02*
Y740937D01*
Y733063D02*
Y737000D01*
X731063D02*
X735000D01*
X738937D01*
X735000D02*
Y740937D01*
Y733063D02*
Y737000D01*
X726063D02*
X730000D01*
X733937D01*
X730000D02*
Y740937D01*
Y733063D02*
Y737000D01*
X721063D02*
X725000D01*
X728937D01*
X725000D02*
Y740937D01*
Y733063D02*
Y737000D01*
X716063D02*
X720000D01*
X723937D01*
X720000D02*
Y740937D01*
Y733063D02*
Y737000D01*
X711063D02*
X715000D01*
X718937D01*
X715000D02*
Y740937D01*
Y733063D02*
Y737000D01*
X706063D02*
X710000D01*
X713937D01*
X710000D02*
Y740937D01*
Y733063D02*
Y737000D01*
X701063D02*
X705000D01*
X708937D01*
X705000D02*
Y740937D01*
Y733063D02*
Y737000D01*
X746063Y742000D02*
X750000D01*
X753937D01*
X750000D02*
Y745937D01*
Y738063D02*
Y742000D01*
X741063D02*
X745000D01*
X748937D01*
X745000D02*
Y745937D01*
Y738063D02*
Y742000D01*
X736063D02*
X740000D01*
X743937D01*
X740000D02*
Y745937D01*
Y738063D02*
Y742000D01*
X731063D02*
X735000D01*
X738937D01*
X735000D02*
Y745937D01*
Y738063D02*
Y742000D01*
X726063D02*
X730000D01*
X733937D01*
X730000D02*
Y745937D01*
Y738063D02*
Y742000D01*
X721063D02*
X725000D01*
X728937D01*
X725000D02*
Y745937D01*
Y738063D02*
Y742000D01*
X716063D02*
X720000D01*
X723937D01*
X720000D02*
Y745937D01*
Y738063D02*
Y742000D01*
X711063D02*
X715000D01*
X718937D01*
X715000D02*
Y745937D01*
Y738063D02*
Y742000D01*
X706063D02*
X710000D01*
X713937D01*
X710000D02*
Y745937D01*
Y738063D02*
Y742000D01*
X701063D02*
X705000D01*
X708937D01*
X705000D02*
Y745937D01*
Y738063D02*
Y742000D01*
X746063Y747000D02*
X750000D01*
X753937D01*
X750000D02*
Y750937D01*
Y743063D02*
Y747000D01*
X741063D02*
X745000D01*
X748937D01*
X745000D02*
Y750937D01*
Y743063D02*
Y747000D01*
X736063D02*
X740000D01*
X743937D01*
X740000D02*
Y750937D01*
Y743063D02*
Y747000D01*
X731063D02*
X735000D01*
X738937D01*
X735000D02*
Y750937D01*
Y743063D02*
Y747000D01*
X726063D02*
X730000D01*
X733937D01*
X730000D02*
Y750937D01*
Y743063D02*
Y747000D01*
X721063D02*
X725000D01*
X728937D01*
X725000D02*
Y750937D01*
Y743063D02*
Y747000D01*
X716063D02*
X720000D01*
X723937D01*
X720000D02*
Y750937D01*
Y743063D02*
Y747000D01*
X711063D02*
X715000D01*
X718937D01*
X715000D02*
Y750937D01*
Y743063D02*
Y747000D01*
X706063D02*
X710000D01*
X713937D01*
X710000D02*
Y750937D01*
Y743063D02*
Y747000D01*
X701063D02*
X705000D01*
X708937D01*
X705000D02*
Y750937D01*
Y743063D02*
Y747000D01*
X746063Y752000D02*
X750000D01*
X753937D01*
X750000D02*
Y755937D01*
Y748063D02*
Y752000D01*
X741063D02*
X745000D01*
X748937D01*
X745000D02*
Y755937D01*
Y748063D02*
Y752000D01*
X736063D02*
X740000D01*
X743937D01*
X740000D02*
Y755937D01*
Y748063D02*
Y752000D01*
X731063D02*
X735000D01*
X738937D01*
X735000D02*
Y755937D01*
Y748063D02*
Y752000D01*
X726063D02*
X730000D01*
X733937D01*
X730000D02*
Y755937D01*
Y748063D02*
Y752000D01*
X721063D02*
X725000D01*
X728937D01*
X725000D02*
Y755937D01*
Y748063D02*
Y752000D01*
X716063D02*
X720000D01*
X723937D01*
X720000D02*
Y755937D01*
Y748063D02*
Y752000D01*
X711063D02*
X715000D01*
X718937D01*
X715000D02*
Y755937D01*
Y748063D02*
Y752000D01*
X706063D02*
X710000D01*
X713937D01*
X710000D02*
Y755937D01*
Y748063D02*
Y752000D01*
X701063D02*
X705000D01*
X708937D01*
X705000D02*
Y755937D01*
Y748063D02*
Y752000D01*
X746063Y757000D02*
X750000D01*
X753937D01*
X750000D02*
Y760937D01*
Y753063D02*
Y757000D01*
X741063D02*
X745000D01*
X748937D01*
X745000D02*
Y760937D01*
Y753063D02*
Y757000D01*
X736063D02*
X740000D01*
X743937D01*
X740000D02*
Y760937D01*
Y753063D02*
Y757000D01*
X731063D02*
X735000D01*
X738937D01*
X735000D02*
Y760937D01*
Y753063D02*
Y757000D01*
X726063D02*
X730000D01*
X733937D01*
X730000D02*
Y760937D01*
Y753063D02*
Y757000D01*
X721063D02*
X725000D01*
X728937D01*
X725000D02*
Y760937D01*
Y753063D02*
Y757000D01*
X716063D02*
X720000D01*
X723937D01*
X720000D02*
Y760937D01*
Y753063D02*
Y757000D01*
X711063D02*
X715000D01*
X718937D01*
X715000D02*
Y760937D01*
Y753063D02*
Y757000D01*
X706063D02*
X710000D01*
X713937D01*
X710000D02*
Y760937D01*
Y753063D02*
Y757000D01*
X701063D02*
X705000D01*
X708937D01*
X705000D02*
Y760937D01*
Y753063D02*
Y757000D01*
X746063Y762000D02*
X750000D01*
X753937D01*
X750000D02*
Y765937D01*
Y758063D02*
Y762000D01*
X741063D02*
X745000D01*
X748937D01*
X745000D02*
Y765937D01*
Y758063D02*
Y762000D01*
X736063D02*
X740000D01*
X743937D01*
X740000D02*
Y765937D01*
Y758063D02*
Y762000D01*
X731063D02*
X735000D01*
X738937D01*
X735000D02*
Y765937D01*
Y758063D02*
Y762000D01*
X726063D02*
X730000D01*
X733937D01*
X730000D02*
Y765937D01*
Y758063D02*
Y762000D01*
X721063D02*
X725000D01*
X728937D01*
X725000D02*
Y765937D01*
Y758063D02*
Y762000D01*
X716063D02*
X720000D01*
X723937D01*
X720000D02*
Y765937D01*
Y758063D02*
Y762000D01*
X711063D02*
X715000D01*
X718937D01*
X715000D02*
Y765937D01*
Y758063D02*
Y762000D01*
X706063D02*
X710000D01*
X713937D01*
X710000D02*
Y765937D01*
Y758063D02*
Y762000D01*
X701063D02*
X705000D01*
X708937D01*
X705000D02*
Y765937D01*
Y758063D02*
Y762000D01*
X746063Y767000D02*
X750000D01*
X753937D01*
X750000D02*
Y770937D01*
Y763063D02*
Y767000D01*
X741063D02*
X745000D01*
X748937D01*
X745000D02*
Y770937D01*
Y763063D02*
Y767000D01*
X736063D02*
X740000D01*
X743937D01*
X740000D02*
Y770937D01*
Y763063D02*
Y767000D01*
X731063D02*
X735000D01*
X738937D01*
X735000D02*
Y770937D01*
Y763063D02*
Y767000D01*
X726063D02*
X730000D01*
X733937D01*
X730000D02*
Y770937D01*
Y763063D02*
Y767000D01*
X721063D02*
X725000D01*
X728937D01*
X725000D02*
Y770937D01*
Y763063D02*
Y767000D01*
X716063D02*
X720000D01*
X723937D01*
X720000D02*
Y770937D01*
Y763063D02*
Y767000D01*
X711063D02*
X715000D01*
X718937D01*
X715000D02*
Y770937D01*
Y763063D02*
Y767000D01*
X706063D02*
X710000D01*
X713937D01*
X710000D02*
Y770937D01*
Y763063D02*
Y767000D01*
X701063D02*
X705000D01*
X708937D01*
X705000D02*
Y770937D01*
Y763063D02*
Y767000D01*
X746063Y772000D02*
X750000D01*
X753937D01*
X750000D02*
Y775937D01*
Y768063D02*
Y772000D01*
X741063D02*
X745000D01*
X748937D01*
X745000D02*
Y775937D01*
Y768063D02*
Y772000D01*
X736063D02*
X740000D01*
X743937D01*
X740000D02*
Y775937D01*
Y768063D02*
Y772000D01*
X731063D02*
X735000D01*
X738937D01*
X735000D02*
Y775937D01*
Y768063D02*
Y772000D01*
X726063D02*
X730000D01*
X733937D01*
X730000D02*
Y775937D01*
Y768063D02*
Y772000D01*
X721063D02*
X725000D01*
X728937D01*
X725000D02*
Y775937D01*
Y768063D02*
Y772000D01*
X716063D02*
X720000D01*
X723937D01*
X720000D02*
Y775937D01*
Y768063D02*
Y772000D01*
X711063D02*
X715000D01*
X718937D01*
X715000D02*
Y775937D01*
Y768063D02*
Y772000D01*
X706063D02*
X710000D01*
X713937D01*
X710000D02*
Y775937D01*
Y768063D02*
Y772000D01*
X701063D02*
X705000D01*
X708937D01*
X705000D02*
Y775937D01*
Y768063D02*
Y772000D01*
X746063Y777000D02*
X750000D01*
X753937D01*
X750000D02*
Y780937D01*
Y773063D02*
Y777000D01*
X741063D02*
X745000D01*
X748937D01*
X745000D02*
Y780937D01*
Y773063D02*
Y777000D01*
X736063D02*
X740000D01*
X743937D01*
X740000D02*
Y780937D01*
Y773063D02*
Y777000D01*
X731063D02*
X735000D01*
X738937D01*
X735000D02*
Y780937D01*
Y773063D02*
Y777000D01*
X726063D02*
X730000D01*
X733937D01*
X730000D02*
Y780937D01*
Y773063D02*
Y777000D01*
X721063D02*
X725000D01*
X728937D01*
X725000D02*
Y780937D01*
Y773063D02*
Y777000D01*
X716063D02*
X720000D01*
X723937D01*
X720000D02*
Y780937D01*
Y773063D02*
Y777000D01*
X711063D02*
X715000D01*
X718937D01*
X715000D02*
Y780937D01*
Y773063D02*
Y777000D01*
X706063D02*
X710000D01*
X713937D01*
X710000D02*
Y780937D01*
Y773063D02*
Y777000D01*
X701063D02*
X705000D01*
X708937D01*
X705000D02*
Y780937D01*
Y773063D02*
Y777000D01*
X746063Y782000D02*
X750000D01*
X753937D01*
X750000D02*
Y785937D01*
Y778063D02*
Y782000D01*
X741063D02*
X745000D01*
X748937D01*
X745000D02*
Y785937D01*
Y778063D02*
Y782000D01*
X736063D02*
X740000D01*
X743937D01*
X740000D02*
Y785937D01*
Y778063D02*
Y782000D01*
X731063D02*
X735000D01*
X738937D01*
X735000D02*
Y785937D01*
Y778063D02*
Y782000D01*
X726063D02*
X730000D01*
X733937D01*
X730000D02*
Y785937D01*
Y778063D02*
Y782000D01*
X721063D02*
X725000D01*
X728937D01*
X725000D02*
Y785937D01*
Y778063D02*
Y782000D01*
X716063D02*
X720000D01*
X723937D01*
X720000D02*
Y785937D01*
Y778063D02*
Y782000D01*
X711063D02*
X715000D01*
X718937D01*
X715000D02*
Y785937D01*
Y778063D02*
Y782000D01*
X706063D02*
X710000D01*
X713937D01*
X710000D02*
Y785937D01*
Y778063D02*
Y782000D01*
X701063D02*
X705000D01*
X708937D01*
X705000D02*
Y785937D01*
Y778063D02*
Y782000D01*
X746063Y787000D02*
X750000D01*
X753937D01*
X750000D02*
Y790937D01*
Y783063D02*
Y787000D01*
X741063D02*
X745000D01*
X748937D01*
X745000D02*
Y790937D01*
Y783063D02*
Y787000D01*
X736063D02*
X740000D01*
X743937D01*
X740000D02*
Y790937D01*
Y783063D02*
Y787000D01*
X731063D02*
X735000D01*
X738937D01*
X735000D02*
Y790937D01*
Y783063D02*
Y787000D01*
X726063D02*
X730000D01*
X733937D01*
X730000D02*
Y790937D01*
Y783063D02*
Y787000D01*
X721063D02*
X725000D01*
X728937D01*
X725000D02*
Y790937D01*
Y783063D02*
Y787000D01*
X716063D02*
X720000D01*
X723937D01*
X720000D02*
Y790937D01*
Y783063D02*
Y787000D01*
X711063D02*
X715000D01*
X718937D01*
X715000D02*
Y790937D01*
Y783063D02*
Y787000D01*
X706063D02*
X710000D01*
X713937D01*
X710000D02*
Y790937D01*
Y783063D02*
Y787000D01*
X701063D02*
X705000D01*
X708937D01*
X705000D02*
Y790937D01*
Y783063D02*
Y787000D01*
X727500Y684500D02*
Y688437D01*
X723563Y689500D02*
X727500D01*
X731437D01*
X727500D02*
Y693437D01*
Y685563D02*
Y689500D01*
X722500D02*
X726437D01*
X723563Y796550D02*
X727500D01*
X731437D01*
X727500D02*
Y800487D01*
Y792613D02*
Y796550D01*
X735563Y582450D02*
X739500D01*
X743437D01*
X739500D02*
Y586387D01*
Y578513D02*
Y582450D01*
M02*
