G04 Layer_Color=16711935*
%FSLAX26Y26*%
%MOIN*%
%TF.FileFunction,Mechanical*%
%TF.Part,Single*%
G01*
G75*
%TA.AperFunction,NonConductor*%
%ADD109C,0.003937*%
%ADD110C,0.001968*%
D109*
X5061559Y7185000D02*
G03*
X5061559Y7185000I-121059J0D01*
G01*
X4965500D02*
G03*
X4965500Y7185000I-25000J0D01*
G01*
X4826344Y7309998D02*
G03*
X4815510Y7299164I114156J-124998D01*
G01*
X4815502Y7070844D02*
G03*
X4826336Y7060010I124998J114156D01*
G01*
X5054656Y7060002D02*
G03*
X5065490Y7070836I-114156J124998D01*
G01*
X5065498Y7299156D02*
G03*
X5054664Y7309990I-124998J-114156D01*
G01*
X5056638Y7185000D02*
G03*
X5056638Y7185000I-116138J0D01*
G01*
X5021210D02*
G03*
X5021210Y7185000I-80710J0D01*
G01*
X5061559Y7730000D02*
G03*
X5061559Y7730000I-121059J0D01*
G01*
X4965500D02*
G03*
X4965500Y7730000I-25000J0D01*
G01*
X4826344Y7854998D02*
G03*
X4815510Y7844164I114156J-124998D01*
G01*
X4815502Y7615844D02*
G03*
X4826336Y7605010I124998J114156D01*
G01*
X5054656Y7605002D02*
G03*
X5065490Y7615836I-114156J124998D01*
G01*
X5065498Y7844156D02*
G03*
X5054664Y7854990I-124998J-114156D01*
G01*
X5056638Y7730000D02*
G03*
X5056638Y7730000I-116138J0D01*
G01*
X5021210D02*
G03*
X5021210Y7730000I-80710J0D01*
G01*
X5167126Y7427441D02*
G03*
X5167126Y7427441I-19685J0D01*
G01*
X5952047Y7040669D02*
G03*
X5952047Y7040669I-19685J0D01*
G01*
X5364591Y6346016D02*
G03*
X5364591Y6346016I-19685J0D01*
G01*
X6185370Y6431685D02*
G03*
X6185370Y6431685I-19685J0D01*
G01*
X5061059Y6025000D02*
G03*
X5061059Y6025000I-121059J0D01*
G01*
X4965000D02*
G03*
X4965000Y6025000I-25000J0D01*
G01*
X4825844Y6149998D02*
G03*
X4815010Y6139164I114156J-124998D01*
G01*
X4815002Y5910844D02*
G03*
X4825836Y5900010I124998J114156D01*
G01*
X5054156Y5900002D02*
G03*
X5064990Y5910836I-114156J124998D01*
G01*
X5064998Y6139156D02*
G03*
X5054164Y6149990I-124998J-114156D01*
G01*
X5056138Y6025000D02*
G03*
X5056138Y6025000I-116138J0D01*
G01*
X5020710D02*
G03*
X5020710Y6025000I-80710J0D01*
G01*
X5061559Y6600000D02*
G03*
X5061559Y6600000I-121059J0D01*
G01*
X4965500D02*
G03*
X4965500Y6600000I-25000J0D01*
G01*
X4826344Y6724998D02*
G03*
X4815510Y6714164I114156J-124998D01*
G01*
X4815502Y6485844D02*
G03*
X4826336Y6475010I124998J114156D01*
G01*
X5054656Y6475002D02*
G03*
X5065490Y6485836I-114156J124998D01*
G01*
X5065498Y6714156D02*
G03*
X5054664Y6724990I-124998J-114156D01*
G01*
X5056638Y6600000D02*
G03*
X5056638Y6600000I-116138J0D01*
G01*
X5021210D02*
G03*
X5021210Y6600000I-80710J0D01*
G01*
X5020815Y7065315D02*
X5060185D01*
Y7104685D01*
X5020815D02*
X5060185D01*
X5020815Y7065315D02*
Y7104685D01*
Y7265315D02*
X5060185D01*
X5020815D02*
Y7304685D01*
X5060185D01*
Y7265315D02*
Y7304685D01*
X4860185Y7265315D02*
Y7304685D01*
X4820815Y7265315D02*
X4860185D01*
X4820815D02*
Y7304685D01*
X4860185D01*
X4820815Y7104685D02*
X4860185D01*
Y7065315D02*
Y7104685D01*
X4820815Y7065315D02*
X4860185D01*
X4820815D02*
Y7104685D01*
X4815500Y7070630D02*
Y7299154D01*
X4826130Y7060000D02*
X5054654D01*
X4826346Y7310000D02*
X5054655D01*
X5065500Y7070846D02*
Y7299155D01*
X4811575Y7299170D02*
X4815500Y7299154D01*
X4801732Y7289326D02*
X4811575Y7299170D01*
X4663937Y7289326D02*
X4801732D01*
X4643268Y7309998D02*
X4663937Y7289326D01*
X4535002Y7309998D02*
X4643268D01*
X4514330Y7289326D02*
X4535002Y7309998D01*
X4484804Y7289326D02*
X4514330D01*
X4482836Y7287358D02*
X4484804Y7289326D01*
X4482836Y7278501D02*
Y7287358D01*
Y7082642D02*
Y7091499D01*
Y7082642D02*
X4484804Y7080674D01*
X4514330D01*
X4535002Y7060002D01*
X4643268D01*
X4663937Y7080674D01*
X4801732D01*
X4811575Y7070830D01*
X4815500Y7070846D01*
X4482836Y7091499D02*
Y7278501D01*
X4514330Y7080674D02*
Y7289326D01*
X4535002Y7060002D02*
Y7309998D01*
X4643268Y7060002D02*
Y7309998D01*
X4663937Y7080674D02*
Y7289326D01*
X4801732Y7080674D02*
Y7289326D01*
X5020815Y7610315D02*
X5060185D01*
Y7649685D01*
X5020815D02*
X5060185D01*
X5020815Y7610315D02*
Y7649685D01*
Y7810315D02*
X5060185D01*
X5020815D02*
Y7849685D01*
X5060185D01*
Y7810315D02*
Y7849685D01*
X4860185Y7810315D02*
Y7849685D01*
X4820815Y7810315D02*
X4860185D01*
X4820815D02*
Y7849685D01*
X4860185D01*
X4820815Y7649685D02*
X4860185D01*
Y7610315D02*
Y7649685D01*
X4820815Y7610315D02*
X4860185D01*
X4820815D02*
Y7649685D01*
X4815500Y7615630D02*
Y7844154D01*
X4826130Y7605000D02*
X5054654D01*
X4826346Y7855000D02*
X5054655D01*
X5065500Y7615846D02*
Y7844155D01*
X4811575Y7844170D02*
X4815500Y7844154D01*
X4801732Y7834326D02*
X4811575Y7844170D01*
X4663937Y7834326D02*
X4801732D01*
X4643268Y7854998D02*
X4663937Y7834326D01*
X4535002Y7854998D02*
X4643268D01*
X4514330Y7834326D02*
X4535002Y7854998D01*
X4484804Y7834326D02*
X4514330D01*
X4482836Y7832358D02*
X4484804Y7834326D01*
X4482836Y7823501D02*
Y7832358D01*
Y7627642D02*
Y7636499D01*
Y7627642D02*
X4484804Y7625674D01*
X4514330D01*
X4535002Y7605002D01*
X4643268D01*
X4663937Y7625674D01*
X4801732D01*
X4811575Y7615830D01*
X4815500Y7615846D01*
X4482836Y7636499D02*
Y7823501D01*
X4514330Y7625674D02*
Y7834326D01*
X4535002Y7605002D02*
Y7854998D01*
X4643268Y7605002D02*
Y7854998D01*
X4663937Y7625674D02*
Y7834326D01*
X4801732Y7625674D02*
Y7834326D01*
X5237992Y7392008D02*
Y7517992D01*
X5112008Y7392008D02*
Y7517992D01*
X5237992D01*
X5112008Y7392008D02*
X5237992D01*
X5343425Y7213110D02*
X5369016D01*
X5343425Y7226890D02*
X5369016D01*
Y7213110D02*
Y7226890D01*
X5343425Y7213110D02*
Y7226890D01*
Y7191890D02*
X5369016D01*
X5343425Y7178110D02*
X5369016D01*
X5343425D02*
Y7191890D01*
X5369016Y7178110D02*
Y7191890D01*
X5357205Y7683110D02*
Y7696890D01*
X5382795Y7683110D02*
Y7696890D01*
X5357205D02*
X5382795D01*
X5357205Y7683110D02*
X5382795D01*
Y7718110D02*
Y7731890D01*
X5357205Y7718110D02*
Y7731890D01*
Y7718110D02*
X5382795D01*
X5357205Y7731890D02*
X5382795D01*
X6176457Y7005236D02*
Y7284764D01*
X5896929Y7005236D02*
Y7284764D01*
X6176457D01*
X5896929Y7005236D02*
X6176457D01*
X5608667Y6174189D02*
X5651975D01*
X5608667Y6197811D02*
X5651975D01*
Y6174189D02*
Y6197811D01*
X5608667Y6174189D02*
Y6197811D01*
X5607346Y6129197D02*
X5650654D01*
X5607346Y6105575D02*
X5650654D01*
X5607346D02*
Y6129197D01*
X5650654Y6105575D02*
Y6129197D01*
X5309472Y6223968D02*
Y6381449D01*
X5466953Y6223968D02*
Y6381449D01*
X5309472D02*
X5466953D01*
X5309472Y6223968D02*
X5466953D01*
X5609346Y6460189D02*
X5652654D01*
X5609346Y6483811D02*
X5652654D01*
Y6460189D02*
Y6483811D01*
X5609346Y6460189D02*
Y6483811D01*
X5610346Y6418811D02*
X5653654D01*
X5610346Y6395189D02*
X5653654D01*
X5610346D02*
Y6418811D01*
X5653654Y6395189D02*
Y6418811D01*
X5840882Y6106882D02*
Y6467118D01*
X6201118Y6106882D02*
Y6467118D01*
X5840882Y6106882D02*
X6201118D01*
X5840882Y6467118D02*
X6201118D01*
X5020315Y5905315D02*
X5059685D01*
Y5944685D01*
X5020315D02*
X5059685D01*
X5020315Y5905315D02*
Y5944685D01*
Y6105315D02*
X5059685D01*
X5020315D02*
Y6144685D01*
X5059685D01*
Y6105315D02*
Y6144685D01*
X4859685Y6105315D02*
Y6144685D01*
X4820315Y6105315D02*
X4859685D01*
X4820315D02*
Y6144685D01*
X4859685D01*
X4820315Y5944685D02*
X4859685D01*
Y5905315D02*
Y5944685D01*
X4820315Y5905315D02*
X4859685D01*
X4820315D02*
Y5944685D01*
X4815000Y5910630D02*
Y6139154D01*
X4825630Y5900000D02*
X5054154D01*
X4825846Y6150000D02*
X5054155D01*
X5065000Y5910846D02*
Y6139155D01*
X4811075Y6139170D02*
X4815000Y6139154D01*
X4801232Y6129326D02*
X4811075Y6139170D01*
X4663437Y6129326D02*
X4801232D01*
X4642768Y6149998D02*
X4663437Y6129326D01*
X4534502Y6149998D02*
X4642768D01*
X4513830Y6129326D02*
X4534502Y6149998D01*
X4484304Y6129326D02*
X4513830D01*
X4482336Y6127358D02*
X4484304Y6129326D01*
X4482336Y6118501D02*
Y6127358D01*
Y5922642D02*
Y5931499D01*
Y5922642D02*
X4484304Y5920674D01*
X4513830D01*
X4534502Y5900002D01*
X4642768D01*
X4663437Y5920674D01*
X4801232D01*
X4811075Y5910830D01*
X4815000Y5910846D01*
X4482336Y5931499D02*
Y6118501D01*
X4513830Y5920674D02*
Y6129326D01*
X4534502Y5900002D02*
Y6149998D01*
X4642768Y5900002D02*
Y6149998D01*
X4663437Y5920674D02*
Y6129326D01*
X4801232Y5920674D02*
Y6129326D01*
X5020815Y6480315D02*
X5060185D01*
Y6519685D01*
X5020815D02*
X5060185D01*
X5020815Y6480315D02*
Y6519685D01*
Y6680315D02*
X5060185D01*
X5020815D02*
Y6719685D01*
X5060185D01*
Y6680315D02*
Y6719685D01*
X4860185Y6680315D02*
Y6719685D01*
X4820815Y6680315D02*
X4860185D01*
X4820815D02*
Y6719685D01*
X4860185D01*
X4820815Y6519685D02*
X4860185D01*
Y6480315D02*
Y6519685D01*
X4820815Y6480315D02*
X4860185D01*
X4820815D02*
Y6519685D01*
X4815500Y6485630D02*
Y6714154D01*
X4826130Y6475000D02*
X5054654D01*
X4826346Y6725000D02*
X5054655D01*
X5065500Y6485846D02*
Y6714155D01*
X4811575Y6714170D02*
X4815500Y6714154D01*
X4801732Y6704326D02*
X4811575Y6714170D01*
X4663937Y6704326D02*
X4801732D01*
X4643268Y6724998D02*
X4663937Y6704326D01*
X4535002Y6724998D02*
X4643268D01*
X4514330Y6704326D02*
X4535002Y6724998D01*
X4484804Y6704326D02*
X4514330D01*
X4482836Y6702358D02*
X4484804Y6704326D01*
X4482836Y6693501D02*
Y6702358D01*
Y6497642D02*
Y6506499D01*
Y6497642D02*
X4484804Y6495674D01*
X4514330D01*
X4535002Y6475002D01*
X4643268D01*
X4663937Y6495674D01*
X4801732D01*
X4811575Y6485830D01*
X4815500Y6485846D01*
X4482836Y6506499D02*
Y6693501D01*
X4514330Y6495674D02*
Y6704326D01*
X4535002Y6475002D02*
Y6724998D01*
X4643268Y6475002D02*
Y6724998D01*
X4663937Y6495674D02*
Y6704326D01*
X4801732Y6495674D02*
Y6704326D01*
D110*
X4811575Y7070830D02*
Y7299170D01*
Y7615830D02*
Y7844170D01*
X4811075Y5910830D02*
Y6139170D01*
X4811575Y6485830D02*
Y6714170D01*
%TF.MD5,EEFC06A50EDC367FFDC554781BA41E07*%
M02*
