G04 Layer_Physical_Order=7*
G04 Layer_Color=32768*
%FSLAX25Y25*%
%MOIN*%
G70*
G01*
G75*
%ADD41C,0.15000*%
%ADD45C,0.04000*%
%ADD46C,0.09500*%
%ADD47C,0.10496*%
%ADD48C,0.09100*%
%ADD49C,0.09118*%
%ADD50C,0.05000*%
%ADD51C,0.04787*%
D41*
X517500Y796000D02*
D03*
X731500Y813000D02*
D03*
Y566000D02*
D03*
X517500Y575000D02*
D03*
D45*
X474000Y565000D02*
Y805000D01*
X519000D01*
Y813500D01*
X561500D01*
Y825000D01*
X775000D01*
Y553500D02*
Y825000D01*
X580500Y553500D02*
X775000D01*
X580500D02*
Y565000D01*
X474000D02*
X580500D01*
D46*
X685500Y791622D02*
D03*
Y779122D02*
D03*
X623000D02*
D03*
Y816622D02*
D03*
X629203Y606219D02*
D03*
Y581219D02*
D03*
Y568719D02*
D03*
X691703D02*
D03*
D47*
X494050Y718500D02*
D03*
Y773000D02*
D03*
X494000Y602500D02*
D03*
X494050Y660000D02*
D03*
D48*
X727500Y796500D02*
D03*
X739000Y582000D02*
D03*
D49*
X739500Y582450D02*
D03*
X727500Y796550D02*
D03*
D50*
X712600Y654600D02*
D03*
X722600Y614600D02*
D03*
X727600Y599600D02*
D03*
X722600Y604600D02*
D03*
X727600Y609600D02*
D03*
X742600Y594600D02*
D03*
X722600D02*
D03*
X712600D02*
D03*
X717600Y589600D02*
D03*
X727600D02*
D03*
X737600D02*
D03*
X747600D02*
D03*
X747300Y649300D02*
D03*
X712500Y669500D02*
D03*
X742500Y669300D02*
D03*
X712600Y664700D02*
D03*
X747900Y664500D02*
D03*
X742400Y664700D02*
D03*
X717400Y674400D02*
D03*
Y679700D02*
D03*
X712800Y684700D02*
D03*
X533600Y609200D02*
D03*
X594800Y603750D02*
D03*
X555246Y693446D02*
D03*
X577000Y614400D02*
D03*
X516200Y635800D02*
D03*
X548770Y615970D02*
D03*
X551800Y633300D02*
D03*
X561300Y663000D02*
D03*
X565786Y666600D02*
D03*
X579986Y671300D02*
D03*
X509600Y753684D02*
D03*
X524011Y736900D02*
D03*
X572500Y737100D02*
D03*
X578600Y740200D02*
D03*
X604200Y756600D02*
D03*
X620200Y765600D02*
D03*
X620100Y758300D02*
D03*
X591900Y742700D02*
D03*
X618651Y787049D02*
D03*
X615400Y769700D02*
D03*
X703900Y818600D02*
D03*
X713100Y818700D02*
D03*
X592842Y732313D02*
D03*
X606500Y732400D02*
D03*
X584800Y725300D02*
D03*
X581900Y709500D02*
D03*
Y719400D02*
D03*
X602700Y732400D02*
D03*
X566200Y737200D02*
D03*
X626400Y678000D02*
D03*
X567500Y675600D02*
D03*
X722600Y699600D02*
D03*
X732600Y669600D02*
D03*
X722600Y679600D02*
D03*
Y674600D02*
D03*
X727600Y689600D02*
D03*
Y684600D02*
D03*
X732600Y694600D02*
D03*
Y699600D02*
D03*
X747600Y769600D02*
D03*
X683700Y631087D02*
D03*
Y645192D02*
D03*
X684061Y648395D02*
D03*
X594168Y597400D02*
D03*
X681000Y626300D02*
D03*
X737600Y679600D02*
D03*
Y674600D02*
D03*
X732600Y664600D02*
D03*
X737600D02*
D03*
Y659600D02*
D03*
Y769600D02*
D03*
X727300Y714600D02*
D03*
X727600Y719600D02*
D03*
X556100Y631250D02*
D03*
Y627750D02*
D03*
X747600Y764600D02*
D03*
X722600Y719600D02*
D03*
X722300Y714500D02*
D03*
X732600Y709600D02*
D03*
Y714600D02*
D03*
X737600Y704600D02*
D03*
Y709600D02*
D03*
X727600Y704600D02*
D03*
Y699600D02*
D03*
X747300Y659300D02*
D03*
X717600D02*
D03*
X717700Y664700D02*
D03*
X652800Y636600D02*
D03*
X654521Y638321D02*
D03*
X656439Y640767D02*
D03*
X650000Y663000D02*
D03*
X722600Y694600D02*
D03*
X737600Y689600D02*
D03*
Y694600D02*
D03*
X608800Y650300D02*
D03*
X623700Y635669D02*
D03*
X599240Y656000D02*
D03*
X607108Y652797D02*
D03*
X577350Y619400D02*
D03*
X624100Y620300D02*
D03*
X623219Y639174D02*
D03*
X592162Y657600D02*
D03*
X625900Y623900D02*
D03*
X579600Y632600D02*
D03*
X592900Y606600D02*
D03*
X612700Y650400D02*
D03*
X605053Y605727D02*
D03*
X625779Y629684D02*
D03*
X599000Y659300D02*
D03*
X614994Y607100D02*
D03*
X579600Y639000D02*
D03*
X608990Y605727D02*
D03*
X623700Y641574D02*
D03*
X610700Y652400D02*
D03*
X615554Y651200D02*
D03*
X625494Y618300D02*
D03*
X623600Y631300D02*
D03*
X601300Y654000D02*
D03*
X607021Y607646D02*
D03*
X603084Y657384D02*
D03*
Y607646D02*
D03*
X624600Y615900D02*
D03*
X605200Y654400D02*
D03*
X594600Y653400D02*
D03*
X610958Y607646D02*
D03*
X627600Y621900D02*
D03*
X627510Y627716D02*
D03*
X594700Y655833D02*
D03*
X625139Y637700D02*
D03*
X624400Y625800D02*
D03*
X722600Y739600D02*
D03*
X622736Y753336D02*
D03*
X678400Y684400D02*
D03*
X682900Y687513D02*
D03*
X742600Y774600D02*
D03*
Y779600D02*
D03*
X677900Y742600D02*
D03*
X681100Y740900D02*
D03*
X595700Y760300D02*
D03*
X700600Y715500D02*
D03*
X620900Y654100D02*
D03*
X561892Y752900D02*
D03*
X566800Y757000D02*
D03*
X552700Y746462D02*
D03*
X553900Y737100D02*
D03*
X571050Y808500D02*
D03*
X576500Y815200D02*
D03*
X581200Y806500D02*
D03*
X550900Y593500D02*
D03*
X671000Y586700D02*
D03*
X590413Y603500D02*
D03*
X588650Y601300D02*
D03*
X603900Y663000D02*
D03*
X569287Y743300D02*
D03*
X575800Y637000D02*
D03*
X581685Y703889D02*
D03*
X600300Y732829D02*
D03*
X737600Y764600D02*
D03*
X722700Y736900D02*
D03*
X601550Y605684D02*
D03*
X657000Y737000D02*
D03*
X732600Y744600D02*
D03*
X656879Y739900D02*
D03*
X732600Y739600D02*
D03*
X655900Y746400D02*
D03*
X737600Y749600D02*
D03*
X661000Y748300D02*
D03*
X737600Y754600D02*
D03*
X619805Y755200D02*
D03*
X727600Y744600D02*
D03*
X732600Y754600D02*
D03*
Y759600D02*
D03*
Y724600D02*
D03*
X659000Y734600D02*
D03*
X732600Y729600D02*
D03*
X657000Y732500D02*
D03*
X664900Y768800D02*
D03*
X732600Y774600D02*
D03*
X667803Y766303D02*
D03*
X732600Y779600D02*
D03*
X641768Y701500D02*
D03*
X638400Y703600D02*
D03*
X737600Y739600D02*
D03*
Y734600D02*
D03*
X664700Y730400D02*
D03*
X727600Y729600D02*
D03*
X664800Y727000D02*
D03*
X727600Y734600D02*
D03*
X665000Y718800D02*
D03*
X737600Y724600D02*
D03*
X662200Y717000D02*
D03*
X737600Y719600D02*
D03*
X633000Y753100D02*
D03*
X727900Y749900D02*
D03*
X630900Y754800D02*
D03*
X732600Y679600D02*
D03*
Y684600D02*
D03*
X613000Y605600D02*
D03*
X680600Y573175D02*
D03*
X567000Y585200D02*
D03*
D51*
X574900Y800600D02*
D03*
X536656Y632436D02*
D03*
X540987D02*
D03*
X536656Y628105D02*
D03*
X540987D02*
D03*
M02*
