G04 Layer_Color=8388736*
%FSLAX25Y25*%
%MOIN*%
G70*
G01*
G75*
%ADD53C,0.01000*%
%ADD65C,0.00472*%
%ADD107C,0.00394*%
D53*
X474000Y565000D02*
Y805000D01*
X519000D01*
Y813500D01*
X561500D01*
Y825000D01*
X775000D01*
Y553500D02*
Y825000D01*
X580500Y553500D02*
X775000D01*
X474000Y565000D02*
X580500D01*
Y553500D02*
Y565000D01*
D65*
X759282Y789567D02*
X757971D01*
X758626D01*
Y785631D01*
X759282Y786287D01*
X755500Y583968D02*
X751564D01*
X753532Y582000D01*
Y584624D01*
X752220Y585936D02*
X751564Y586592D01*
Y587904D01*
X752220Y588559D01*
X754844D01*
X755500Y587904D01*
Y586592D01*
X754844Y585936D01*
X752220D01*
X750782Y807567D02*
Y803631D01*
Y806255D02*
X748814Y804943D01*
X750782Y806255D02*
X748814Y807567D01*
X746282Y808379D02*
X745626D01*
X744971Y807723D01*
Y804443D01*
X734971Y808379D02*
X734314D01*
X733659Y807723D01*
Y804443D01*
X735626D01*
X736282Y805099D01*
Y806411D01*
X735626Y807067D01*
X733659D01*
X741500Y803564D02*
Y807500D01*
Y805532D01*
X740844Y804876D01*
X739532D01*
X738876Y805532D01*
Y807500D01*
X730626Y808067D02*
Y804787D01*
Y806099D01*
X731282D01*
X729971D01*
X730626D01*
Y804787D01*
X729971Y804131D01*
X724324Y807411D02*
X725636D01*
X726292Y806755D01*
Y805443D01*
X725636Y804787D01*
X724324D01*
X723668Y805443D01*
Y806099D01*
X726292D01*
X718795Y803631D02*
Y807567D01*
X720763D01*
X721419Y806911D01*
Y805599D01*
X720763Y804943D01*
X718795D01*
X713376Y804876D02*
X715344D01*
X716000Y805532D01*
Y806844D01*
X715344Y807500D01*
X713376D01*
X711000Y803564D02*
Y807500D01*
X709032D01*
X708376Y806844D01*
Y806188D01*
Y805532D01*
X709032Y804876D01*
X711000D01*
X705344D02*
X704032D01*
X703376Y805532D01*
Y807500D01*
X705344D01*
X706000Y806844D01*
X705344Y806188D01*
X703376D01*
D107*
X756400Y596400D02*
G03*
X755400Y597400I-1000J0D01*
G01*
Y781600D02*
G03*
X756400Y782600I0J1000D01*
G01*
X751800Y598400D02*
G03*
X752800Y597400I1000J0D01*
G01*
Y781600D02*
G03*
X751800Y780600I0J-1000D01*
G01*
X752800Y601600D02*
G03*
X751800Y600600I0J-1000D01*
G01*
Y778400D02*
G03*
X752800Y777400I1000J0D01*
G01*
X755400Y601600D02*
G03*
X756400Y602600I0J1000D01*
G01*
Y776400D02*
G03*
X755400Y777400I-1000J0D01*
G01*
X756400Y606400D02*
G03*
X755400Y607400I-1000J0D01*
G01*
Y771600D02*
G03*
X756400Y772600I0J1000D01*
G01*
X751800Y608400D02*
G03*
X752800Y607400I1000J0D01*
G01*
Y771600D02*
G03*
X751800Y770600I0J-1000D01*
G01*
X752800Y611600D02*
G03*
X751800Y610600I0J-1000D01*
G01*
Y768400D02*
G03*
X752800Y767400I1000J0D01*
G01*
X755400Y611600D02*
G03*
X756400Y612600I0J1000D01*
G01*
Y766400D02*
G03*
X755400Y767400I-1000J0D01*
G01*
X756400Y616400D02*
G03*
X755400Y617400I-1000J0D01*
G01*
Y761600D02*
G03*
X756400Y762600I0J1000D01*
G01*
X751800Y618400D02*
G03*
X752800Y617400I1000J0D01*
G01*
Y761600D02*
G03*
X751800Y760600I0J-1000D01*
G01*
X752800Y621600D02*
G03*
X751800Y620600I0J-1000D01*
G01*
Y758400D02*
G03*
X752800Y757400I1000J0D01*
G01*
X755400Y621600D02*
G03*
X756400Y622600I0J1000D01*
G01*
Y756400D02*
G03*
X755400Y757400I-1000J0D01*
G01*
X756400Y626400D02*
G03*
X755400Y627400I-1000J0D01*
G01*
Y751600D02*
G03*
X756400Y752600I0J1000D01*
G01*
X751800Y628400D02*
G03*
X752800Y627400I1000J0D01*
G01*
Y751600D02*
G03*
X751800Y750600I0J-1000D01*
G01*
X752800Y631600D02*
G03*
X751800Y630600I0J-1000D01*
G01*
Y748400D02*
G03*
X752800Y747400I1000J0D01*
G01*
X755400Y631600D02*
G03*
X756400Y632600I0J1000D01*
G01*
Y746400D02*
G03*
X755400Y747400I-1000J0D01*
G01*
X756400Y636400D02*
G03*
X755400Y637400I-1000J0D01*
G01*
Y741600D02*
G03*
X756400Y742600I0J1000D01*
G01*
X751800Y638400D02*
G03*
X752800Y637400I1000J0D01*
G01*
Y741600D02*
G03*
X751800Y740600I0J-1000D01*
G01*
X752800Y641600D02*
G03*
X751800Y640600I0J-1000D01*
G01*
Y738400D02*
G03*
X752800Y737400I1000J0D01*
G01*
X755400Y641600D02*
G03*
X756400Y642600I0J1000D01*
G01*
Y736400D02*
G03*
X755400Y737400I-1000J0D01*
G01*
X756400Y646400D02*
G03*
X755400Y647400I-1000J0D01*
G01*
Y731600D02*
G03*
X756400Y732600I0J1000D01*
G01*
X751800Y648400D02*
G03*
X752800Y647400I1000J0D01*
G01*
Y731600D02*
G03*
X751800Y730600I0J-1000D01*
G01*
X752800Y651600D02*
G03*
X751800Y650600I0J-1000D01*
G01*
Y728400D02*
G03*
X752800Y727400I1000J0D01*
G01*
X755400Y651600D02*
G03*
X756400Y652600I0J1000D01*
G01*
Y726400D02*
G03*
X755400Y727400I-1000J0D01*
G01*
X756400Y656400D02*
G03*
X755400Y657400I-1000J0D01*
G01*
Y721600D02*
G03*
X756400Y722600I0J1000D01*
G01*
X751800Y658400D02*
G03*
X752800Y657400I1000J0D01*
G01*
Y721600D02*
G03*
X751800Y720600I0J-1000D01*
G01*
X752800Y661600D02*
G03*
X751800Y660600I0J-1000D01*
G01*
Y718400D02*
G03*
X752800Y717400I1000J0D01*
G01*
X755400Y661600D02*
G03*
X756400Y662600I0J1000D01*
G01*
Y716400D02*
G03*
X755400Y717400I-1000J0D01*
G01*
X756400Y666400D02*
G03*
X755400Y667400I-1000J0D01*
G01*
Y711600D02*
G03*
X756400Y712600I0J1000D01*
G01*
X751800Y668400D02*
G03*
X752800Y667400I1000J0D01*
G01*
Y711600D02*
G03*
X751800Y710600I0J-1000D01*
G01*
X752800Y671600D02*
G03*
X751800Y670600I0J-1000D01*
G01*
Y708400D02*
G03*
X752800Y707400I1000J0D01*
G01*
X755400Y671600D02*
G03*
X756400Y672600I0J1000D01*
G01*
Y706400D02*
G03*
X755400Y707400I-1000J0D01*
G01*
X756400Y676400D02*
G03*
X755400Y677400I-1000J0D01*
G01*
Y701600D02*
G03*
X756400Y702600I0J1000D01*
G01*
X751800Y678400D02*
G03*
X752800Y677400I1000J0D01*
G01*
Y701600D02*
G03*
X751800Y700600I0J-1000D01*
G01*
X752800Y681600D02*
G03*
X751800Y680600I0J-1000D01*
G01*
Y698400D02*
G03*
X752800Y697400I1000J0D01*
G01*
X755400Y681600D02*
G03*
X756400Y682600I0J1000D01*
G01*
Y696400D02*
G03*
X755400Y697400I-1000J0D01*
G01*
X756400Y686400D02*
G03*
X755400Y687400I-1000J0D01*
G01*
Y691600D02*
G03*
X756400Y692600I0J1000D01*
G01*
X751800Y688400D02*
G03*
X752800Y687400I1000J0D01*
G01*
Y691600D02*
G03*
X751800Y690600I0J-1000D01*
G01*
X698600Y782600D02*
G03*
X699600Y781600I1000J0D01*
G01*
X703200Y780600D02*
G03*
X702200Y781600I-1000J0D01*
G01*
Y777400D02*
G03*
X703200Y778400I0J1000D01*
G01*
X699600Y597400D02*
G03*
X698600Y596400I0J-1000D01*
G01*
X699600Y777400D02*
G03*
X698600Y776400I0J-1000D01*
G01*
X702200Y597400D02*
G03*
X703200Y598400I0J1000D01*
G01*
X698600Y772600D02*
G03*
X699600Y771600I1000J0D01*
G01*
X703200Y600600D02*
G03*
X702200Y601600I-1000J0D01*
G01*
X703200Y770600D02*
G03*
X702200Y771600I-1000J0D01*
G01*
X698600Y602600D02*
G03*
X699600Y601600I1000J0D01*
G01*
X702200Y767400D02*
G03*
X703200Y768400I0J1000D01*
G01*
X699600Y607400D02*
G03*
X698600Y606400I0J-1000D01*
G01*
X699600Y767400D02*
G03*
X698600Y766400I0J-1000D01*
G01*
X702200Y607400D02*
G03*
X703200Y608400I0J1000D01*
G01*
X698600Y762600D02*
G03*
X699600Y761600I1000J0D01*
G01*
X703200Y610600D02*
G03*
X702200Y611600I-1000J0D01*
G01*
X703200Y760600D02*
G03*
X702200Y761600I-1000J0D01*
G01*
X698600Y612600D02*
G03*
X699600Y611600I1000J0D01*
G01*
X702200Y757400D02*
G03*
X703200Y758400I0J1000D01*
G01*
X699600Y617400D02*
G03*
X698600Y616400I0J-1000D01*
G01*
X699600Y757400D02*
G03*
X698600Y756400I0J-1000D01*
G01*
X702200Y617400D02*
G03*
X703200Y618400I0J1000D01*
G01*
X698600Y752600D02*
G03*
X699600Y751600I1000J0D01*
G01*
X703200Y620600D02*
G03*
X702200Y621600I-1000J0D01*
G01*
X703200Y750600D02*
G03*
X702200Y751600I-1000J0D01*
G01*
X698600Y622600D02*
G03*
X699600Y621600I1000J0D01*
G01*
X702200Y747400D02*
G03*
X703200Y748400I0J1000D01*
G01*
X699600Y627400D02*
G03*
X698600Y626400I0J-1000D01*
G01*
X699600Y747400D02*
G03*
X698600Y746400I0J-1000D01*
G01*
X702200Y627400D02*
G03*
X703200Y628400I0J1000D01*
G01*
X698600Y742600D02*
G03*
X699600Y741600I1000J0D01*
G01*
X703200Y630600D02*
G03*
X702200Y631600I-1000J0D01*
G01*
X703200Y740600D02*
G03*
X702200Y741600I-1000J0D01*
G01*
X698600Y632600D02*
G03*
X699600Y631600I1000J0D01*
G01*
X702200Y737400D02*
G03*
X703200Y738400I0J1000D01*
G01*
X699600Y637400D02*
G03*
X698600Y636400I0J-1000D01*
G01*
X699600Y737400D02*
G03*
X698600Y736400I0J-1000D01*
G01*
X702200Y637400D02*
G03*
X703200Y638400I0J1000D01*
G01*
X698600Y732600D02*
G03*
X699600Y731600I1000J0D01*
G01*
X703200Y640600D02*
G03*
X702200Y641600I-1000J0D01*
G01*
X703200Y730600D02*
G03*
X702200Y731600I-1000J0D01*
G01*
X698600Y642600D02*
G03*
X699600Y641600I1000J0D01*
G01*
X702200Y727400D02*
G03*
X703200Y728400I0J1000D01*
G01*
X699600Y647400D02*
G03*
X698600Y646400I0J-1000D01*
G01*
X699600Y727400D02*
G03*
X698600Y726400I0J-1000D01*
G01*
X702200Y647400D02*
G03*
X703200Y648400I0J1000D01*
G01*
X698600Y722600D02*
G03*
X699600Y721600I1000J0D01*
G01*
X703200Y650600D02*
G03*
X702200Y651600I-1000J0D01*
G01*
X703200Y720600D02*
G03*
X702200Y721600I-1000J0D01*
G01*
X698600Y652600D02*
G03*
X699600Y651600I1000J0D01*
G01*
X702200Y717400D02*
G03*
X703200Y718400I0J1000D01*
G01*
X699600Y657400D02*
G03*
X698600Y656400I0J-1000D01*
G01*
X699600Y717400D02*
G03*
X698600Y716400I0J-1000D01*
G01*
X702200Y657400D02*
G03*
X703200Y658400I0J1000D01*
G01*
X698600Y712600D02*
G03*
X699600Y711600I1000J0D01*
G01*
X703200Y660600D02*
G03*
X702200Y661600I-1000J0D01*
G01*
X703200Y710600D02*
G03*
X702200Y711600I-1000J0D01*
G01*
X698600Y662600D02*
G03*
X699600Y661600I1000J0D01*
G01*
X702200Y707400D02*
G03*
X703200Y708400I0J1000D01*
G01*
X699600Y667400D02*
G03*
X698600Y666400I0J-1000D01*
G01*
X699600Y707400D02*
G03*
X698600Y706400I0J-1000D01*
G01*
X702200Y667400D02*
G03*
X703200Y668400I0J1000D01*
G01*
X698600Y702600D02*
G03*
X699600Y701600I1000J0D01*
G01*
X703200Y670600D02*
G03*
X702200Y671600I-1000J0D01*
G01*
X703200Y700600D02*
G03*
X702200Y701600I-1000J0D01*
G01*
X698600Y672600D02*
G03*
X699600Y671600I1000J0D01*
G01*
X702200Y697400D02*
G03*
X703200Y698400I0J1000D01*
G01*
X699600Y677400D02*
G03*
X698600Y676400I0J-1000D01*
G01*
X699600Y697400D02*
G03*
X698600Y696400I0J-1000D01*
G01*
X702200Y677400D02*
G03*
X703200Y678400I0J1000D01*
G01*
X698600Y692600D02*
G03*
X699600Y691600I1000J0D01*
G01*
X703200Y680600D02*
G03*
X702200Y681600I-1000J0D01*
G01*
X703200Y690600D02*
G03*
X702200Y691600I-1000J0D01*
G01*
X698600Y682600D02*
G03*
X699600Y681600I1000J0D01*
G01*
X702200Y687400D02*
G03*
X703200Y688400I0J1000D01*
G01*
X699600Y687400D02*
G03*
X698600Y686400I0J-1000D01*
G01*
X702200Y777400D02*
G03*
X703200Y778400I0J1000D01*
G01*
Y780600D02*
G03*
X702200Y781600I-1000J0D01*
G01*
X751800Y778400D02*
G03*
X752800Y777400I1000J0D01*
G01*
Y781600D02*
G03*
X751800Y780600I0J-1000D01*
G01*
X702200Y767400D02*
G03*
X703200Y768400I0J1000D01*
G01*
Y770600D02*
G03*
X702200Y771600I-1000J0D01*
G01*
X751800Y768400D02*
G03*
X752800Y767400I1000J0D01*
G01*
Y771600D02*
G03*
X751800Y770600I0J-1000D01*
G01*
X702200Y757400D02*
G03*
X703200Y758400I0J1000D01*
G01*
Y760600D02*
G03*
X702200Y761600I-1000J0D01*
G01*
X751800Y758400D02*
G03*
X752800Y757400I1000J0D01*
G01*
Y761600D02*
G03*
X751800Y760600I0J-1000D01*
G01*
X702200Y747400D02*
G03*
X703200Y748400I0J1000D01*
G01*
Y750600D02*
G03*
X702200Y751600I-1000J0D01*
G01*
X751800Y748400D02*
G03*
X752800Y747400I1000J0D01*
G01*
Y751600D02*
G03*
X751800Y750600I0J-1000D01*
G01*
X702200Y737400D02*
G03*
X703200Y738400I0J1000D01*
G01*
Y740600D02*
G03*
X702200Y741600I-1000J0D01*
G01*
X751800Y738400D02*
G03*
X752800Y737400I1000J0D01*
G01*
Y741600D02*
G03*
X751800Y740600I0J-1000D01*
G01*
X702200Y727400D02*
G03*
X703200Y728400I0J1000D01*
G01*
Y730600D02*
G03*
X702200Y731600I-1000J0D01*
G01*
X751800Y728400D02*
G03*
X752800Y727400I1000J0D01*
G01*
Y731600D02*
G03*
X751800Y730600I0J-1000D01*
G01*
X702200Y717400D02*
G03*
X703200Y718400I0J1000D01*
G01*
Y720600D02*
G03*
X702200Y721600I-1000J0D01*
G01*
X751800Y718400D02*
G03*
X752800Y717400I1000J0D01*
G01*
Y721600D02*
G03*
X751800Y720600I0J-1000D01*
G01*
X702200Y707400D02*
G03*
X703200Y708400I0J1000D01*
G01*
Y710600D02*
G03*
X702200Y711600I-1000J0D01*
G01*
X751800Y708400D02*
G03*
X752800Y707400I1000J0D01*
G01*
Y711600D02*
G03*
X751800Y710600I0J-1000D01*
G01*
X702200Y697400D02*
G03*
X703200Y698400I0J1000D01*
G01*
Y700600D02*
G03*
X702200Y701600I-1000J0D01*
G01*
X751800Y698400D02*
G03*
X752800Y697400I1000J0D01*
G01*
Y701600D02*
G03*
X751800Y700600I0J-1000D01*
G01*
X702200Y687400D02*
G03*
X703200Y688400I0J1000D01*
G01*
Y690600D02*
G03*
X702200Y691600I-1000J0D01*
G01*
X751800Y688400D02*
G03*
X752800Y687400I1000J0D01*
G01*
Y691600D02*
G03*
X751800Y690600I0J-1000D01*
G01*
X702200Y677400D02*
G03*
X703200Y678400I0J1000D01*
G01*
Y680600D02*
G03*
X702200Y681600I-1000J0D01*
G01*
X751800Y678400D02*
G03*
X752800Y677400I1000J0D01*
G01*
Y681600D02*
G03*
X751800Y680600I0J-1000D01*
G01*
X702200Y667400D02*
G03*
X703200Y668400I0J1000D01*
G01*
Y670600D02*
G03*
X702200Y671600I-1000J0D01*
G01*
X751800Y668400D02*
G03*
X752800Y667400I1000J0D01*
G01*
Y671600D02*
G03*
X751800Y670600I0J-1000D01*
G01*
X702200Y657400D02*
G03*
X703200Y658400I0J1000D01*
G01*
Y660600D02*
G03*
X702200Y661600I-1000J0D01*
G01*
X751800Y658400D02*
G03*
X752800Y657400I1000J0D01*
G01*
Y661600D02*
G03*
X751800Y660600I0J-1000D01*
G01*
X702200Y647400D02*
G03*
X703200Y648400I0J1000D01*
G01*
Y650600D02*
G03*
X702200Y651600I-1000J0D01*
G01*
X751800Y648400D02*
G03*
X752800Y647400I1000J0D01*
G01*
Y651600D02*
G03*
X751800Y650600I0J-1000D01*
G01*
X702200Y637400D02*
G03*
X703200Y638400I0J1000D01*
G01*
Y640600D02*
G03*
X702200Y641600I-1000J0D01*
G01*
X751800Y638400D02*
G03*
X752800Y637400I1000J0D01*
G01*
Y641600D02*
G03*
X751800Y640600I0J-1000D01*
G01*
X702200Y627400D02*
G03*
X703200Y628400I0J1000D01*
G01*
Y630600D02*
G03*
X702200Y631600I-1000J0D01*
G01*
X751800Y628400D02*
G03*
X752800Y627400I1000J0D01*
G01*
Y631600D02*
G03*
X751800Y630600I0J-1000D01*
G01*
X702200Y617400D02*
G03*
X703200Y618400I0J1000D01*
G01*
Y620600D02*
G03*
X702200Y621600I-1000J0D01*
G01*
X751800Y618400D02*
G03*
X752800Y617400I1000J0D01*
G01*
Y621600D02*
G03*
X751800Y620600I0J-1000D01*
G01*
X702200Y607400D02*
G03*
X703200Y608400I0J1000D01*
G01*
Y610600D02*
G03*
X702200Y611600I-1000J0D01*
G01*
X751800Y608400D02*
G03*
X752800Y607400I1000J0D01*
G01*
Y611600D02*
G03*
X751800Y610600I0J-1000D01*
G01*
X702200Y597400D02*
G03*
X703200Y598400I0J1000D01*
G01*
Y600600D02*
G03*
X702200Y601600I-1000J0D01*
G01*
X751800Y598400D02*
G03*
X752800Y597400I1000J0D01*
G01*
Y601600D02*
G03*
X751800Y600600I0J-1000D01*
G01*
X735400Y799300D02*
X753400D01*
Y579700D02*
X756400Y582700D01*
X753400Y799300D02*
X756400Y796300D01*
Y582700D02*
Y596400D01*
Y782600D02*
Y796300D01*
X752800Y597400D02*
X755400D01*
X752800Y781600D02*
X755400D01*
X751800Y598400D02*
Y600600D01*
Y778400D02*
Y780600D01*
X752800Y601600D02*
X755400D01*
X752800Y777400D02*
X755400D01*
X756400Y602600D02*
Y606400D01*
Y772600D02*
Y776400D01*
X752800Y607400D02*
X755400D01*
X752800Y771600D02*
X755400D01*
X751800Y608400D02*
Y610600D01*
Y768400D02*
Y770600D01*
X752800Y611600D02*
X755400D01*
X752800Y767400D02*
X755400D01*
X756400Y612600D02*
Y616400D01*
Y762600D02*
Y766400D01*
X752800Y617400D02*
X755400D01*
X752800Y761600D02*
X755400D01*
X751800Y618400D02*
Y620600D01*
Y758400D02*
Y760600D01*
X752800Y621600D02*
X755400D01*
X752800Y757400D02*
X755400D01*
X756400Y622600D02*
Y626400D01*
Y752600D02*
Y756400D01*
X752800Y627400D02*
X755400D01*
X752800Y751600D02*
X755400D01*
X751800Y628400D02*
Y630600D01*
Y748400D02*
Y750600D01*
X752800Y631600D02*
X755400D01*
X752800Y747400D02*
X755400D01*
X756400Y632600D02*
Y636400D01*
Y742600D02*
Y746400D01*
X752800Y637400D02*
X755400D01*
X752800Y741600D02*
X755400D01*
X751800Y638400D02*
Y640600D01*
Y738400D02*
Y740600D01*
X752800Y641600D02*
X755400D01*
X752800Y737400D02*
X755400D01*
X756400Y642600D02*
Y646400D01*
Y732600D02*
Y736400D01*
X752800Y647400D02*
X755400D01*
X752800Y731600D02*
X755400D01*
X751800Y648400D02*
Y650600D01*
Y728400D02*
Y730600D01*
X752800Y651600D02*
X755400D01*
X752800Y727400D02*
X755400D01*
X756400Y652600D02*
Y656400D01*
Y722600D02*
Y726400D01*
X752800Y657400D02*
X755400D01*
X752800Y721600D02*
X755400D01*
X751800Y658400D02*
Y660600D01*
Y718400D02*
Y720600D01*
X752800Y661600D02*
X755400D01*
X752800Y717400D02*
X755400D01*
X756400Y662600D02*
Y666400D01*
Y712600D02*
Y716400D01*
X752800Y667400D02*
X755400D01*
X752800Y711600D02*
X755400D01*
X751800Y668400D02*
Y670600D01*
Y708400D02*
Y710600D01*
X752800Y671600D02*
X755400D01*
X752800Y707400D02*
X755400D01*
X756400Y672600D02*
Y676400D01*
Y702600D02*
Y706400D01*
X752800Y677400D02*
X755400D01*
X752800Y701600D02*
X755400D01*
X751800Y678400D02*
Y680600D01*
Y698400D02*
Y700600D01*
X752800Y681600D02*
X755400D01*
X752800Y697400D02*
X755400D01*
X756400Y682600D02*
Y686400D01*
Y692600D02*
Y696400D01*
X752800Y687400D02*
X755400D01*
X752800Y691600D02*
X755400D01*
X751800Y688400D02*
Y690600D01*
X701600Y799300D02*
X719600D01*
X698600Y796300D02*
X701600Y799300D01*
X698600Y782600D02*
Y796300D01*
X709500Y579700D02*
Y583400D01*
X699600Y781600D02*
X702200D01*
X701600Y579700D02*
X709500D01*
X698600Y582700D02*
X701600Y579700D01*
X703200Y778400D02*
Y780600D01*
X698600Y582700D02*
Y596400D01*
X699600Y777400D02*
X702200D01*
X699600Y597400D02*
X702200D01*
X698600Y772600D02*
Y776400D01*
X703200Y598400D02*
Y600600D01*
X699600Y771600D02*
X702200D01*
X699600Y601600D02*
X702200D01*
X703200Y768400D02*
Y770600D01*
X698600Y602600D02*
Y606400D01*
X699600Y767400D02*
X702200D01*
X699600Y607400D02*
X702200D01*
X698600Y762600D02*
Y766400D01*
X703200Y608400D02*
Y610600D01*
X699600Y761600D02*
X702200D01*
X699600Y611600D02*
X702200D01*
X703200Y758400D02*
Y760600D01*
X698600Y612600D02*
Y616400D01*
X699600Y757400D02*
X702200D01*
X699600Y617400D02*
X702200D01*
X698600Y752600D02*
Y756400D01*
X703200Y618400D02*
Y620600D01*
X699600Y751600D02*
X702200D01*
X699600Y621600D02*
X702200D01*
X703200Y748400D02*
Y750600D01*
X698600Y622600D02*
Y626400D01*
X699600Y747400D02*
X702200D01*
X699600Y627400D02*
X702200D01*
X698600Y742600D02*
Y746400D01*
X703200Y628400D02*
Y630600D01*
X699600Y741600D02*
X702200D01*
X699600Y631600D02*
X702200D01*
X703200Y738400D02*
Y740600D01*
X698600Y632600D02*
Y636400D01*
X699600Y737400D02*
X702200D01*
X699600Y637400D02*
X702200D01*
X698600Y732600D02*
Y736400D01*
X703200Y638400D02*
Y640600D01*
X699600Y731600D02*
X702200D01*
X699600Y641600D02*
X702200D01*
X703200Y728400D02*
Y730600D01*
X698600Y642600D02*
Y646400D01*
X699600Y727400D02*
X702200D01*
X699600Y647400D02*
X702200D01*
X698600Y722600D02*
Y726400D01*
X703200Y648400D02*
Y650600D01*
X699600Y721600D02*
X702200D01*
X699600Y651600D02*
X702200D01*
X703200Y718400D02*
Y720600D01*
X698600Y652600D02*
Y656400D01*
X699600Y717400D02*
X702200D01*
X699600Y657400D02*
X702200D01*
X698600Y712600D02*
Y716400D01*
X703200Y658400D02*
Y660600D01*
X699600Y711600D02*
X702200D01*
X699600Y661600D02*
X702200D01*
X703200Y708400D02*
Y710600D01*
X698600Y662600D02*
Y666400D01*
X699600Y707400D02*
X702200D01*
X699600Y667400D02*
X702200D01*
X698600Y702600D02*
Y706400D01*
X703200Y668400D02*
Y670600D01*
X699600Y701600D02*
X702200D01*
X699600Y671600D02*
X702200D01*
X703200Y698400D02*
Y700600D01*
X698600Y672600D02*
Y676400D01*
X699600Y697400D02*
X702200D01*
X699600Y677400D02*
X702200D01*
X698600Y692600D02*
Y696400D01*
X703200Y678400D02*
Y680600D01*
X699600Y691600D02*
X702200D01*
X699600Y681600D02*
X702200D01*
X703200Y688400D02*
Y690600D01*
X698600Y682600D02*
Y686400D01*
X699600Y687400D02*
X702200D01*
X739500Y584257D02*
X742000Y583400D01*
X743000D01*
X745500Y584257D01*
X709500D02*
X712000Y583400D01*
X713000D01*
X715500Y584257D01*
Y579700D02*
Y584257D01*
X713000Y582200D02*
X715500Y579700D01*
X709500D02*
X712000Y582200D01*
X713000D01*
X715500Y579700D01*
X709500Y584257D02*
X712000Y583400D01*
X709500Y579700D02*
Y584257D01*
X712000Y582200D02*
Y583400D01*
X709500Y579700D02*
X712000Y582200D01*
X743000Y583400D02*
X745500Y584257D01*
X743000Y582200D02*
Y583400D01*
Y582200D02*
X745500Y579700D01*
X739500D02*
X742000Y582200D01*
X743000D01*
X745500Y579700D01*
X739500Y584257D02*
X742000Y583400D01*
Y582200D02*
Y583400D01*
X739500Y579700D02*
X742000Y582200D01*
X712000Y583400D02*
X713000D01*
X712000Y582200D02*
Y583400D01*
X713000Y582200D02*
Y583400D01*
X712000Y582200D02*
X713000D01*
X709500Y579700D02*
Y584400D01*
Y579700D02*
Y583400D01*
X715500Y579700D02*
Y584400D01*
Y579700D02*
Y583400D01*
X742000D02*
X743000D01*
X742000Y582200D02*
Y583400D01*
X743000Y582200D02*
Y583400D01*
X742000Y582200D02*
X743000D01*
X699600Y781600D02*
X702200D01*
X699600Y777400D02*
X702200D01*
X703200Y778400D02*
Y780600D01*
X751800Y778400D02*
Y780600D01*
X752800Y777400D02*
X755400D01*
X752800Y781600D02*
X755400D01*
X699600Y771600D02*
X702200D01*
X699600Y767400D02*
X702200D01*
X703200Y768400D02*
Y770600D01*
X751800Y768400D02*
Y770600D01*
X752800Y767400D02*
X755400D01*
X752800Y771600D02*
X755400D01*
X699600Y761600D02*
X702200D01*
X699600Y757400D02*
X702200D01*
X703200Y758400D02*
Y760600D01*
X751800Y758400D02*
Y760600D01*
X752800Y757400D02*
X755400D01*
X752800Y761600D02*
X755400D01*
X699600Y751600D02*
X702200D01*
X699600Y747400D02*
X702200D01*
X703200Y748400D02*
Y750600D01*
X751800Y748400D02*
Y750600D01*
X752800Y747400D02*
X755400D01*
X752800Y751600D02*
X755400D01*
X699600Y741600D02*
X702200D01*
X699600Y737400D02*
X702200D01*
X703200Y738400D02*
Y740600D01*
X751800Y738400D02*
Y740600D01*
X752800Y737400D02*
X755400D01*
X752800Y741600D02*
X755400D01*
X699600Y731600D02*
X702200D01*
X699600Y727400D02*
X702200D01*
X703200Y728400D02*
Y730600D01*
X751800Y728400D02*
Y730600D01*
X752800Y727400D02*
X755400D01*
X752800Y731600D02*
X755400D01*
X699600Y721600D02*
X702200D01*
X699600Y717400D02*
X702200D01*
X703200Y718400D02*
Y720600D01*
X751800Y718400D02*
Y720600D01*
X752800Y717400D02*
X755400D01*
X752800Y721600D02*
X755400D01*
X699600Y711600D02*
X702200D01*
X699600Y707400D02*
X702200D01*
X703200Y708400D02*
Y710600D01*
X751800Y708400D02*
Y710600D01*
X752800Y707400D02*
X755400D01*
X752800Y711600D02*
X755400D01*
X699600Y701600D02*
X702200D01*
X699600Y697400D02*
X702200D01*
X703200Y698400D02*
Y700600D01*
X751800Y698400D02*
Y700600D01*
X752800Y697400D02*
X755400D01*
X752800Y701600D02*
X755400D01*
X699600Y691600D02*
X702200D01*
X699600Y687400D02*
X702200D01*
X703200Y688400D02*
Y690600D01*
X751800Y688400D02*
Y690600D01*
X752800Y687400D02*
X755400D01*
X752800Y691600D02*
X755400D01*
X699600Y681600D02*
X702200D01*
X699600Y677400D02*
X702200D01*
X703200Y678400D02*
Y680600D01*
X751800Y678400D02*
Y680600D01*
X752800Y677400D02*
X755400D01*
X752800Y681600D02*
X755400D01*
X699600Y671600D02*
X702200D01*
X699600Y667400D02*
X702200D01*
X703200Y668400D02*
Y670600D01*
X751800Y668400D02*
Y670600D01*
X752800Y667400D02*
X755400D01*
X752800Y671600D02*
X755400D01*
X699600Y661600D02*
X702200D01*
X699600Y657400D02*
X702200D01*
X703200Y658400D02*
Y660600D01*
X751800Y658400D02*
Y660600D01*
X752800Y657400D02*
X755400D01*
X752800Y661600D02*
X755400D01*
X699600Y651600D02*
X702200D01*
X699600Y647400D02*
X702200D01*
X703200Y648400D02*
Y650600D01*
X751800Y648400D02*
Y650600D01*
X752800Y647400D02*
X755400D01*
X752800Y651600D02*
X755400D01*
X699600Y641600D02*
X702200D01*
X699600Y637400D02*
X702200D01*
X703200Y638400D02*
Y640600D01*
X751800Y638400D02*
Y640600D01*
X752800Y637400D02*
X755400D01*
X752800Y641600D02*
X755400D01*
X699600Y631600D02*
X702200D01*
X699600Y627400D02*
X702200D01*
X703200Y628400D02*
Y630600D01*
X751800Y628400D02*
Y630600D01*
X752800Y627400D02*
X755400D01*
X752800Y631600D02*
X755400D01*
X699600Y621600D02*
X702200D01*
X699600Y617400D02*
X702200D01*
X703200Y618400D02*
Y620600D01*
X751800Y618400D02*
Y620600D01*
X752800Y617400D02*
X755400D01*
X752800Y621600D02*
X755400D01*
X699600Y611600D02*
X702200D01*
X699600Y607400D02*
X702200D01*
X703200Y608400D02*
Y610600D01*
X751800Y608400D02*
Y610600D01*
X752800Y607400D02*
X755400D01*
X752800Y611600D02*
X755400D01*
X699600Y601600D02*
X702200D01*
X699600Y597400D02*
X702200D01*
X703200Y598400D02*
Y600600D01*
X751800Y598400D02*
Y600600D01*
X752800Y597400D02*
X755400D01*
X752800Y601600D02*
X755400D01*
X753400Y799300D02*
X756400Y796300D01*
X698600D02*
X701600Y799300D01*
X698600Y582700D02*
X701600Y579700D01*
X753400D02*
X756400Y582700D01*
X698600Y782600D02*
Y796300D01*
X756400Y582700D02*
Y596400D01*
X705900Y584400D02*
Y591150D01*
X701600Y799300D02*
X719600D01*
X735400D02*
X753400D01*
X709500Y579700D02*
X715500D01*
X701600D02*
X753400D01*
X756400Y602600D02*
Y606400D01*
X698600Y582700D02*
Y596400D01*
X756400Y612600D02*
Y616400D01*
X698600Y602600D02*
Y606400D01*
X756400Y622600D02*
Y626400D01*
X698600Y612600D02*
Y616400D01*
X756400Y632600D02*
Y636400D01*
X698600Y622600D02*
Y626400D01*
X756400Y642600D02*
Y646400D01*
X698600Y632600D02*
Y636400D01*
X756400Y652600D02*
Y656400D01*
X698600Y642600D02*
Y646400D01*
X756400Y662600D02*
Y666400D01*
X698600Y652600D02*
Y656400D01*
X756400Y672600D02*
Y676400D01*
X698600Y662600D02*
Y666400D01*
X756400Y682600D02*
Y686400D01*
X698600Y672600D02*
Y676400D01*
X756400Y692600D02*
Y696400D01*
X698600Y682600D02*
Y686400D01*
X756400Y702600D02*
Y706400D01*
X698600Y692600D02*
Y696400D01*
X756400Y712600D02*
Y716400D01*
X698600Y702600D02*
Y706400D01*
X756400Y722600D02*
Y726400D01*
X698600Y712600D02*
Y716400D01*
X756400Y732600D02*
Y736400D01*
X698600Y722600D02*
Y726400D01*
X756400Y742600D02*
Y746400D01*
X698600Y732600D02*
Y736400D01*
X756400Y752600D02*
Y756400D01*
X698600Y742600D02*
Y746400D01*
X756400Y762600D02*
Y766400D01*
X698600Y752600D02*
Y756400D01*
X756400Y772600D02*
Y776400D01*
X698600Y762600D02*
Y766400D01*
X756400Y782600D02*
Y796300D01*
X698600Y772600D02*
Y776400D01*
X745500Y583400D02*
X750100D01*
X704900D02*
X705900Y584400D01*
X749100D01*
X704900Y583400D02*
X709500D01*
X715500D02*
X739500D01*
X715500Y579700D02*
Y583400D01*
X745500Y579700D02*
Y584400D01*
X739500Y579700D02*
Y584400D01*
X705900Y777850D02*
Y781150D01*
Y782850D02*
Y786150D01*
Y787850D02*
Y794600D01*
X704900Y788300D02*
Y795600D01*
Y783300D02*
Y785700D01*
Y778300D02*
Y780700D01*
X735400Y795600D02*
X750100D01*
X730250Y794600D02*
X749100D01*
X735400D02*
Y799300D01*
X732900Y796800D02*
X735400Y799300D01*
X732900Y795600D02*
Y796800D01*
Y795600D02*
X735400Y794743D01*
X730250Y796800D02*
X732900D01*
X730250Y795600D02*
X732900D01*
X730250Y794600D02*
Y799300D01*
X724500D02*
Y802800D01*
X730500D01*
Y799300D02*
Y802800D01*
X724750Y794600D02*
Y799300D01*
X705900Y794600D02*
X724750D01*
X704900Y795600D02*
X705900Y794600D01*
X704900Y795600D02*
X719600D01*
Y794600D02*
Y799300D01*
Y794743D02*
X722100Y795600D01*
Y796800D01*
X719600Y799300D02*
X722100Y796800D01*
Y795600D02*
X724750D01*
X722100Y796800D02*
X724750D01*
X709100Y791500D02*
X715900D01*
X709100Y585000D02*
X715900D01*
X710100Y790500D02*
X714900D01*
Y788300D02*
Y790500D01*
X710100Y788300D02*
Y790500D01*
X719100Y794000D02*
X725900D01*
Y787850D02*
Y794000D01*
Y782850D02*
Y786150D01*
Y777850D02*
Y781150D01*
X719100Y587500D02*
X725900D01*
X719100Y777850D02*
Y781150D01*
Y782850D02*
Y786150D01*
Y787850D02*
Y794000D01*
X714900Y788300D02*
X715455D01*
Y787850D02*
Y788300D01*
Y787850D02*
X716855D01*
Y786150D02*
Y787850D01*
X715455Y786150D02*
X716855D01*
X715455Y785700D02*
Y786150D01*
X714900Y785700D02*
X715455D01*
X714900Y783300D02*
Y785700D01*
Y783300D02*
X715455D01*
Y782850D02*
Y783300D01*
Y782850D02*
X716855D01*
Y781150D02*
Y782850D01*
X715455Y781150D02*
X716855D01*
X715455Y780700D02*
Y781150D01*
X714900Y780700D02*
X715455D01*
X714900Y778300D02*
Y780700D01*
Y778300D02*
X715455D01*
Y777850D02*
Y778300D01*
Y777850D02*
X716855D01*
X714900Y586000D02*
Y590700D01*
X710100Y586000D02*
X714900D01*
X710100D02*
Y590700D01*
X708145Y776150D02*
Y777850D01*
X709545D01*
Y778300D01*
X710100D01*
Y780700D01*
X709545D02*
X710100D01*
X709545D02*
Y781150D01*
X708145D02*
X709545D01*
X708145D02*
Y782850D01*
X709545D01*
Y783300D01*
X710100D01*
Y785700D01*
X709545D02*
X710100D01*
X709545D02*
Y786150D01*
X708145D02*
X709545D01*
X708145D02*
Y787850D01*
X709545D01*
Y788300D01*
X710100D01*
X704900D02*
X705455D01*
Y787850D02*
Y788300D01*
Y787850D02*
X706855D01*
Y786150D02*
Y787850D01*
X705455Y786150D02*
X706855D01*
X705455Y785700D02*
Y786150D01*
X704900Y785700D02*
X705455D01*
X704900Y783300D02*
Y785700D01*
Y783300D02*
X705455D01*
Y782850D02*
Y783300D01*
Y782850D02*
X706855D01*
Y781150D02*
Y782850D01*
X705455Y781150D02*
X706855D01*
X705455Y780700D02*
Y781150D01*
X704900Y780700D02*
X705455D01*
X704900Y778300D02*
Y780700D01*
Y778300D02*
X705455D01*
Y777850D02*
Y778300D01*
Y777850D02*
X706855D01*
Y776150D02*
Y777850D01*
X709100Y787850D02*
Y791500D01*
Y782850D02*
Y786150D01*
Y777850D02*
Y781150D01*
X705900Y787850D02*
Y794600D01*
Y782850D02*
Y786150D01*
Y777850D02*
Y781150D01*
X710100Y790500D02*
X714900D01*
Y788300D02*
Y790500D01*
X715900Y791500D01*
X709100D02*
X715900D01*
Y787850D02*
Y791500D01*
Y782850D02*
Y786150D01*
Y777850D02*
Y781150D01*
X720100Y788300D02*
Y793000D01*
X724900D01*
Y788300D02*
Y793000D01*
X719100Y794000D02*
X720100Y793000D01*
X724900D02*
X725900Y794000D01*
X719545Y788300D02*
X720100D01*
X719545Y787850D02*
Y788300D01*
X718145Y787850D02*
X719545D01*
X718145Y786150D02*
Y787850D01*
Y786150D02*
X719545D01*
Y785700D02*
Y786150D01*
Y785700D02*
X720100D01*
Y783300D02*
Y785700D01*
X719545Y783300D02*
X720100D01*
X719545Y782850D02*
Y783300D01*
X718145Y782850D02*
X719545D01*
X718145Y781150D02*
Y782850D01*
Y781150D02*
X719545D01*
Y780700D02*
Y781150D01*
Y780700D02*
X720100D01*
Y778300D02*
Y780700D01*
X724900Y788300D02*
X725455D01*
Y787850D02*
Y788300D01*
X724900Y783300D02*
Y785700D01*
X725455D01*
Y786150D01*
X726855D01*
Y787850D01*
X725455D02*
X726855D01*
X724900Y783300D02*
X725455D01*
Y782850D02*
Y783300D01*
Y782850D02*
X726855D01*
Y781150D02*
Y782850D01*
X725455Y781150D02*
X726855D01*
X725455Y780700D02*
Y781150D01*
X724900Y780700D02*
X725455D01*
X724900Y778300D02*
Y780700D01*
X705900Y767850D02*
Y771150D01*
Y772850D02*
Y776150D01*
X704900Y773300D02*
Y775700D01*
Y768300D02*
Y770700D01*
X708145Y766150D02*
Y767850D01*
X709545D01*
Y768300D01*
X710100D01*
Y770700D01*
X709545D02*
X710100D01*
X709545D02*
Y771150D01*
X708145D02*
X709545D01*
X708145D02*
Y772850D01*
X709545D01*
Y773300D01*
X710100D01*
Y775700D01*
X709545D02*
X710100D01*
X709545D02*
Y776150D01*
X708145D02*
X709545D01*
X705455D02*
X706855D01*
X705455Y775700D02*
Y776150D01*
X704900Y775700D02*
X705455D01*
X704900Y773300D02*
Y775700D01*
Y773300D02*
X705455D01*
Y772850D02*
Y773300D01*
Y772850D02*
X706855D01*
Y771150D02*
Y772850D01*
X705455Y771150D02*
X706855D01*
X705455Y770700D02*
Y771150D01*
X704900Y770700D02*
X705455D01*
X704900Y768300D02*
Y770700D01*
Y768300D02*
X705455D01*
Y767850D02*
Y768300D01*
Y767850D02*
X706855D01*
Y766150D02*
Y767850D01*
X709100Y772850D02*
Y776150D01*
Y767850D02*
Y771150D01*
X705900Y772850D02*
Y776150D01*
Y767850D02*
Y771150D01*
Y757850D02*
Y761150D01*
Y762850D02*
Y766150D01*
X704900Y763300D02*
Y765700D01*
Y758300D02*
Y760700D01*
X708145Y756150D02*
Y757850D01*
X709545D01*
Y758300D01*
X710100D01*
Y760700D01*
X709545D02*
X710100D01*
X709545D02*
Y761150D01*
X708145D02*
X709545D01*
X708145D02*
Y762850D01*
X709545D01*
Y763300D01*
X710100D01*
Y765700D01*
X709545D02*
X710100D01*
X709545D02*
Y766150D01*
X708145D02*
X709545D01*
X705455D02*
X706855D01*
X705455Y765700D02*
Y766150D01*
X704900Y765700D02*
X705455D01*
X704900Y763300D02*
Y765700D01*
Y763300D02*
X705455D01*
Y762850D02*
Y763300D01*
Y762850D02*
X706855D01*
Y761150D02*
Y762850D01*
X705455Y761150D02*
X706855D01*
X705455Y760700D02*
Y761150D01*
X704900Y760700D02*
X705455D01*
X704900Y758300D02*
Y760700D01*
Y758300D02*
X705455D01*
Y757850D02*
Y758300D01*
Y757850D02*
X706855D01*
Y756150D02*
Y757850D01*
X709100Y762850D02*
Y766150D01*
Y757850D02*
Y761150D01*
X705900Y762850D02*
Y766150D01*
Y757850D02*
Y761150D01*
Y747850D02*
Y751150D01*
Y752850D02*
Y756150D01*
X704900Y753300D02*
Y755700D01*
Y748300D02*
Y750700D01*
X708145Y746150D02*
Y747850D01*
X709545D01*
Y748300D01*
X710100D01*
Y750700D01*
X709545D02*
X710100D01*
X709545D02*
Y751150D01*
X708145D02*
X709545D01*
X708145D02*
Y752850D01*
X709545D01*
Y753300D01*
X710100D01*
Y755700D01*
X709545D02*
X710100D01*
X709545D02*
Y756150D01*
X708145D02*
X709545D01*
X705455D02*
X706855D01*
X705455Y755700D02*
Y756150D01*
X704900Y755700D02*
X705455D01*
X704900Y753300D02*
Y755700D01*
Y753300D02*
X705455D01*
Y752850D02*
Y753300D01*
Y752850D02*
X706855D01*
Y751150D02*
Y752850D01*
X705455Y751150D02*
X706855D01*
X705455Y750700D02*
Y751150D01*
X704900Y750700D02*
X705455D01*
X704900Y748300D02*
Y750700D01*
Y748300D02*
X705455D01*
Y747850D02*
Y748300D01*
Y747850D02*
X706855D01*
Y746150D02*
Y747850D01*
X709100Y752850D02*
Y756150D01*
Y747850D02*
Y751150D01*
X705900Y752850D02*
Y756150D01*
Y747850D02*
Y751150D01*
Y737850D02*
Y741150D01*
Y742850D02*
Y746150D01*
X704900Y743300D02*
Y745700D01*
Y738300D02*
Y740700D01*
X708145Y736150D02*
Y737850D01*
X709545D01*
Y738300D01*
X710100D01*
Y740700D01*
X709545D02*
X710100D01*
X709545D02*
Y741150D01*
X708145D02*
X709545D01*
X708145D02*
Y742850D01*
X709545D01*
Y743300D01*
X710100D01*
Y745700D01*
X709545D02*
X710100D01*
X709545D02*
Y746150D01*
X708145D02*
X709545D01*
X705455D02*
X706855D01*
X705455Y745700D02*
Y746150D01*
X704900Y745700D02*
X705455D01*
X704900Y743300D02*
Y745700D01*
Y743300D02*
X705455D01*
Y742850D02*
Y743300D01*
Y742850D02*
X706855D01*
Y741150D02*
Y742850D01*
X705455Y741150D02*
X706855D01*
X705455Y740700D02*
Y741150D01*
X704900Y740700D02*
X705455D01*
X704900Y738300D02*
Y740700D01*
Y738300D02*
X705455D01*
Y737850D02*
Y738300D01*
Y737850D02*
X706855D01*
Y736150D02*
Y737850D01*
X709100Y742850D02*
Y746150D01*
Y737850D02*
Y741150D01*
X705900Y742850D02*
Y746150D01*
Y737850D02*
Y741150D01*
Y727850D02*
Y731150D01*
Y732850D02*
Y736150D01*
X704900Y733300D02*
Y735700D01*
Y728300D02*
Y730700D01*
X708145Y726150D02*
Y727850D01*
X709545D01*
Y728300D01*
X710100D01*
Y730700D01*
X709545D02*
X710100D01*
X709545D02*
Y731150D01*
X708145D02*
X709545D01*
X708145D02*
Y732850D01*
X709545D01*
Y733300D01*
X710100D01*
Y735700D01*
X709545D02*
X710100D01*
X709545D02*
Y736150D01*
X708145D02*
X709545D01*
X705455D02*
X706855D01*
X705455Y735700D02*
Y736150D01*
X704900Y735700D02*
X705455D01*
X704900Y733300D02*
Y735700D01*
Y733300D02*
X705455D01*
Y732850D02*
Y733300D01*
Y732850D02*
X706855D01*
Y731150D02*
Y732850D01*
X705455Y731150D02*
X706855D01*
X705455Y730700D02*
Y731150D01*
X704900Y730700D02*
X705455D01*
X704900Y728300D02*
Y730700D01*
Y728300D02*
X705455D01*
Y727850D02*
Y728300D01*
Y727850D02*
X706855D01*
Y726150D02*
Y727850D01*
X709100Y732850D02*
Y736150D01*
Y727850D02*
Y731150D01*
X705900Y732850D02*
Y736150D01*
Y727850D02*
Y731150D01*
Y717850D02*
Y721150D01*
Y722850D02*
Y726150D01*
X704900Y723300D02*
Y725700D01*
Y718300D02*
Y720700D01*
X708145Y716150D02*
Y717850D01*
X709545D01*
Y718300D01*
X710100D01*
Y720700D01*
X709545D02*
X710100D01*
X709545D02*
Y721150D01*
X708145D02*
X709545D01*
X708145D02*
Y722850D01*
X709545D01*
Y723300D01*
X710100D01*
Y725700D01*
X709545D02*
X710100D01*
X709545D02*
Y726150D01*
X708145D02*
X709545D01*
X705455D02*
X706855D01*
X705455Y725700D02*
Y726150D01*
X704900Y725700D02*
X705455D01*
X704900Y723300D02*
Y725700D01*
Y723300D02*
X705455D01*
Y722850D02*
Y723300D01*
Y722850D02*
X706855D01*
Y721150D02*
Y722850D01*
X705455Y721150D02*
X706855D01*
X705455Y720700D02*
Y721150D01*
X704900Y720700D02*
X705455D01*
X704900Y718300D02*
Y720700D01*
Y718300D02*
X705455D01*
Y717850D02*
Y718300D01*
Y717850D02*
X706855D01*
Y716150D02*
Y717850D01*
X709100Y722850D02*
Y726150D01*
Y717850D02*
Y721150D01*
X705900Y722850D02*
Y726150D01*
Y717850D02*
Y721150D01*
Y707850D02*
Y711150D01*
Y712850D02*
Y716150D01*
X704900Y713300D02*
Y715700D01*
Y708300D02*
Y710700D01*
X708145Y706150D02*
Y707850D01*
X709545D01*
Y708300D01*
X710100D01*
Y710700D01*
X709545D02*
X710100D01*
X709545D02*
Y711150D01*
X708145D02*
X709545D01*
X708145D02*
Y712850D01*
X709545D01*
Y713300D01*
X710100D01*
Y715700D01*
X709545D02*
X710100D01*
X709545D02*
Y716150D01*
X708145D02*
X709545D01*
X705455D02*
X706855D01*
X705455Y715700D02*
Y716150D01*
X704900Y715700D02*
X705455D01*
X704900Y713300D02*
Y715700D01*
Y713300D02*
X705455D01*
Y712850D02*
Y713300D01*
Y712850D02*
X706855D01*
Y711150D02*
Y712850D01*
X705455Y711150D02*
X706855D01*
X705455Y710700D02*
Y711150D01*
X704900Y710700D02*
X705455D01*
X704900Y708300D02*
Y710700D01*
Y708300D02*
X705455D01*
Y707850D02*
Y708300D01*
Y707850D02*
X706855D01*
Y706150D02*
Y707850D01*
X709100Y712850D02*
Y716150D01*
Y707850D02*
Y711150D01*
X705900Y712850D02*
Y716150D01*
Y707850D02*
Y711150D01*
Y697850D02*
Y701150D01*
Y702850D02*
Y706150D01*
X704900Y703300D02*
Y705700D01*
Y698300D02*
Y700700D01*
X708145Y696150D02*
Y697850D01*
X709545D01*
Y698300D01*
X710100D01*
Y700700D01*
X709545D02*
X710100D01*
X709545D02*
Y701150D01*
X708145D02*
X709545D01*
X708145D02*
Y702850D01*
X709545D01*
Y703300D01*
X710100D01*
Y705700D01*
X709545D02*
X710100D01*
X709545D02*
Y706150D01*
X708145D02*
X709545D01*
X705455D02*
X706855D01*
X705455Y705700D02*
Y706150D01*
X704900Y705700D02*
X705455D01*
X704900Y703300D02*
Y705700D01*
Y703300D02*
X705455D01*
Y702850D02*
Y703300D01*
Y702850D02*
X706855D01*
Y701150D02*
Y702850D01*
X705455Y701150D02*
X706855D01*
X705455Y700700D02*
Y701150D01*
X704900Y700700D02*
X705455D01*
X704900Y698300D02*
Y700700D01*
Y698300D02*
X705455D01*
Y697850D02*
Y698300D01*
Y697850D02*
X706855D01*
Y696150D02*
Y697850D01*
X709100Y702850D02*
Y706150D01*
Y697850D02*
Y701150D01*
X705900Y702850D02*
Y706150D01*
Y697850D02*
Y701150D01*
Y687850D02*
Y691150D01*
Y692850D02*
Y696150D01*
X704900Y693300D02*
Y695700D01*
Y688300D02*
Y690700D01*
X708145Y686150D02*
Y687850D01*
X709545D01*
Y688300D01*
X710100D01*
Y690700D01*
X709545D02*
X710100D01*
X709545D02*
Y691150D01*
X708145D02*
X709545D01*
X708145D02*
Y692850D01*
X709545D01*
Y693300D01*
X710100D01*
Y695700D01*
X709545D02*
X710100D01*
X709545D02*
Y696150D01*
X708145D02*
X709545D01*
X705455D02*
X706855D01*
X705455Y695700D02*
Y696150D01*
X704900Y695700D02*
X705455D01*
X704900Y693300D02*
Y695700D01*
Y693300D02*
X705455D01*
Y692850D02*
Y693300D01*
Y692850D02*
X706855D01*
Y691150D02*
Y692850D01*
X705455Y691150D02*
X706855D01*
X705455Y690700D02*
Y691150D01*
X704900Y690700D02*
X705455D01*
X704900Y688300D02*
Y690700D01*
Y688300D02*
X705455D01*
Y687850D02*
Y688300D01*
Y687850D02*
X706855D01*
Y686150D02*
Y687850D01*
X709100Y692850D02*
Y696150D01*
Y687850D02*
Y691150D01*
X705900Y692850D02*
Y696150D01*
Y687850D02*
Y691150D01*
Y677850D02*
Y681150D01*
Y682850D02*
Y686150D01*
X704900Y683300D02*
Y685700D01*
Y678300D02*
Y680700D01*
X708145Y676150D02*
Y677850D01*
X709545D01*
Y678300D01*
X710100D01*
Y680700D01*
X709545D02*
X710100D01*
X709545D02*
Y681150D01*
X708145D02*
X709545D01*
X708145D02*
Y682850D01*
X709545D01*
Y683300D01*
X710100D01*
Y685700D01*
X709545D02*
X710100D01*
X709545D02*
Y686150D01*
X708145D02*
X709545D01*
X705455D02*
X706855D01*
X705455Y685700D02*
Y686150D01*
X704900Y685700D02*
X705455D01*
X704900Y683300D02*
Y685700D01*
Y683300D02*
X705455D01*
Y682850D02*
Y683300D01*
Y682850D02*
X706855D01*
Y681150D02*
Y682850D01*
X705455Y681150D02*
X706855D01*
X705455Y680700D02*
Y681150D01*
X704900Y680700D02*
X705455D01*
X704900Y678300D02*
Y680700D01*
Y678300D02*
X705455D01*
Y677850D02*
Y678300D01*
Y677850D02*
X706855D01*
Y676150D02*
Y677850D01*
X709100Y682850D02*
Y686150D01*
Y677850D02*
Y681150D01*
X705900Y682850D02*
Y686150D01*
Y677850D02*
Y681150D01*
Y667850D02*
Y671150D01*
Y672850D02*
Y676150D01*
X704900Y673300D02*
Y675700D01*
Y668300D02*
Y670700D01*
X708145Y666150D02*
Y667850D01*
X709545D01*
Y668300D01*
X710100D01*
Y670700D01*
X709545D02*
X710100D01*
X709545D02*
Y671150D01*
X708145D02*
X709545D01*
X708145D02*
Y672850D01*
X709545D01*
Y673300D01*
X710100D01*
Y675700D01*
X709545D02*
X710100D01*
X709545D02*
Y676150D01*
X708145D02*
X709545D01*
X705455D02*
X706855D01*
X705455Y675700D02*
Y676150D01*
X704900Y675700D02*
X705455D01*
X704900Y673300D02*
Y675700D01*
Y673300D02*
X705455D01*
Y672850D02*
Y673300D01*
Y672850D02*
X706855D01*
Y671150D02*
Y672850D01*
X705455Y671150D02*
X706855D01*
X705455Y670700D02*
Y671150D01*
X704900Y670700D02*
X705455D01*
X704900Y668300D02*
Y670700D01*
Y668300D02*
X705455D01*
Y667850D02*
Y668300D01*
Y667850D02*
X706855D01*
Y666150D02*
Y667850D01*
X709100Y672850D02*
Y676150D01*
Y667850D02*
Y671150D01*
X705900Y672850D02*
Y676150D01*
Y667850D02*
Y671150D01*
Y657850D02*
Y661150D01*
Y662850D02*
Y666150D01*
X704900Y663300D02*
Y665700D01*
Y658300D02*
Y660700D01*
X708145Y656150D02*
Y657850D01*
X709545D01*
Y658300D01*
X710100D01*
Y660700D01*
X709545D02*
X710100D01*
X709545D02*
Y661150D01*
X708145D02*
X709545D01*
X708145D02*
Y662850D01*
X709545D01*
Y663300D01*
X710100D01*
Y665700D01*
X709545D02*
X710100D01*
X709545D02*
Y666150D01*
X708145D02*
X709545D01*
X705455D02*
X706855D01*
X705455Y665700D02*
Y666150D01*
X704900Y665700D02*
X705455D01*
X704900Y663300D02*
Y665700D01*
Y663300D02*
X705455D01*
Y662850D02*
Y663300D01*
Y662850D02*
X706855D01*
Y661150D02*
Y662850D01*
X705455Y661150D02*
X706855D01*
X705455Y660700D02*
Y661150D01*
X704900Y660700D02*
X705455D01*
X704900Y658300D02*
Y660700D01*
Y658300D02*
X705455D01*
Y657850D02*
Y658300D01*
Y657850D02*
X706855D01*
Y656150D02*
Y657850D01*
X709100Y662850D02*
Y666150D01*
Y657850D02*
Y661150D01*
X705900Y662850D02*
Y666150D01*
Y657850D02*
Y661150D01*
Y647850D02*
Y651150D01*
Y652850D02*
Y656150D01*
X704900Y653300D02*
Y655700D01*
Y648300D02*
Y650700D01*
X708145Y646150D02*
Y647850D01*
X709545D01*
Y648300D01*
X710100D01*
Y650700D01*
X709545D02*
X710100D01*
X709545D02*
Y651150D01*
X708145D02*
X709545D01*
X708145D02*
Y652850D01*
X709545D01*
Y653300D01*
X710100D01*
Y655700D01*
X709545D02*
X710100D01*
X709545D02*
Y656150D01*
X708145D02*
X709545D01*
X705455D02*
X706855D01*
X705455Y655700D02*
Y656150D01*
X704900Y655700D02*
X705455D01*
X704900Y653300D02*
Y655700D01*
Y653300D02*
X705455D01*
Y652850D02*
Y653300D01*
Y652850D02*
X706855D01*
Y651150D02*
Y652850D01*
X705455Y651150D02*
X706855D01*
X705455Y650700D02*
Y651150D01*
X704900Y650700D02*
X705455D01*
X704900Y648300D02*
Y650700D01*
Y648300D02*
X705455D01*
Y647850D02*
Y648300D01*
Y647850D02*
X706855D01*
Y646150D02*
Y647850D01*
X709100Y652850D02*
Y656150D01*
Y647850D02*
Y651150D01*
X705900Y652850D02*
Y656150D01*
Y647850D02*
Y651150D01*
Y637850D02*
Y641150D01*
Y642850D02*
Y646150D01*
X704900Y643300D02*
Y645700D01*
Y638300D02*
Y640700D01*
X708145Y636150D02*
Y637850D01*
X709545D01*
Y638300D01*
X710100D01*
Y640700D01*
X709545D02*
X710100D01*
X709545D02*
Y641150D01*
X708145D02*
X709545D01*
X708145D02*
Y642850D01*
X709545D01*
Y643300D01*
X710100D01*
Y645700D01*
X709545D02*
X710100D01*
X709545D02*
Y646150D01*
X708145D02*
X709545D01*
X705455D02*
X706855D01*
X705455Y645700D02*
Y646150D01*
X704900Y645700D02*
X705455D01*
X704900Y643300D02*
Y645700D01*
Y643300D02*
X705455D01*
Y642850D02*
Y643300D01*
Y642850D02*
X706855D01*
Y641150D02*
Y642850D01*
X705455Y641150D02*
X706855D01*
X705455Y640700D02*
Y641150D01*
X704900Y640700D02*
X705455D01*
X704900Y638300D02*
Y640700D01*
Y638300D02*
X705455D01*
Y637850D02*
Y638300D01*
Y637850D02*
X706855D01*
Y636150D02*
Y637850D01*
X709100Y642850D02*
Y646150D01*
Y637850D02*
Y641150D01*
X705900Y642850D02*
Y646150D01*
Y637850D02*
Y641150D01*
Y627850D02*
Y631150D01*
Y632850D02*
Y636150D01*
X704900Y633300D02*
Y635700D01*
Y628300D02*
Y630700D01*
X708145Y626150D02*
Y627850D01*
X709545D01*
Y628300D01*
X710100D01*
Y630700D01*
X709545D02*
X710100D01*
X709545D02*
Y631150D01*
X708145D02*
X709545D01*
X708145D02*
Y632850D01*
X709545D01*
Y633300D01*
X710100D01*
Y635700D01*
X709545D02*
X710100D01*
X709545D02*
Y636150D01*
X708145D02*
X709545D01*
X705455D02*
X706855D01*
X705455Y635700D02*
Y636150D01*
X704900Y635700D02*
X705455D01*
X704900Y633300D02*
Y635700D01*
Y633300D02*
X705455D01*
Y632850D02*
Y633300D01*
Y632850D02*
X706855D01*
Y631150D02*
Y632850D01*
X705455Y631150D02*
X706855D01*
X705455Y630700D02*
Y631150D01*
X704900Y630700D02*
X705455D01*
X704900Y628300D02*
Y630700D01*
Y628300D02*
X705455D01*
Y627850D02*
Y628300D01*
Y627850D02*
X706855D01*
Y626150D02*
Y627850D01*
X709100Y632850D02*
Y636150D01*
Y627850D02*
Y631150D01*
X705900Y632850D02*
Y636150D01*
Y627850D02*
Y631150D01*
Y617850D02*
Y621150D01*
Y622850D02*
Y626150D01*
X704900Y623300D02*
Y625700D01*
Y618300D02*
Y620700D01*
X708145Y616150D02*
Y617850D01*
X709545D01*
Y618300D01*
X710100D01*
Y620700D01*
X709545D02*
X710100D01*
X709545D02*
Y621150D01*
X708145D02*
X709545D01*
X708145D02*
Y622850D01*
X709545D01*
Y623300D01*
X710100D01*
Y625700D01*
X709545D02*
X710100D01*
X709545D02*
Y626150D01*
X708145D02*
X709545D01*
X705455D02*
X706855D01*
X705455Y625700D02*
Y626150D01*
X704900Y625700D02*
X705455D01*
X704900Y623300D02*
Y625700D01*
Y623300D02*
X705455D01*
Y622850D02*
Y623300D01*
Y622850D02*
X706855D01*
Y621150D02*
Y622850D01*
X705455Y621150D02*
X706855D01*
X705455Y620700D02*
Y621150D01*
X704900Y620700D02*
X705455D01*
X704900Y618300D02*
Y620700D01*
Y618300D02*
X705455D01*
Y617850D02*
Y618300D01*
Y617850D02*
X706855D01*
Y616150D02*
Y617850D01*
X709100Y622850D02*
Y626150D01*
Y617850D02*
Y621150D01*
X705900Y622850D02*
Y626150D01*
Y617850D02*
Y621150D01*
Y607850D02*
Y611150D01*
Y612850D02*
Y616150D01*
X704900Y613300D02*
Y615700D01*
Y608300D02*
Y610700D01*
X708145Y606150D02*
Y607850D01*
X709545D01*
Y608300D01*
X710100D01*
Y610700D01*
X709545D02*
X710100D01*
X709545D02*
Y611150D01*
X708145D02*
X709545D01*
X708145D02*
Y612850D01*
X709545D01*
Y613300D01*
X710100D01*
Y615700D01*
X709545D02*
X710100D01*
X709545D02*
Y616150D01*
X708145D02*
X709545D01*
X705455D02*
X706855D01*
X705455Y615700D02*
Y616150D01*
X704900Y615700D02*
X705455D01*
X704900Y613300D02*
Y615700D01*
Y613300D02*
X705455D01*
Y612850D02*
Y613300D01*
Y612850D02*
X706855D01*
Y611150D02*
Y612850D01*
X705455Y611150D02*
X706855D01*
X705455Y610700D02*
Y611150D01*
X704900Y610700D02*
X705455D01*
X704900Y608300D02*
Y610700D01*
Y608300D02*
X705455D01*
Y607850D02*
Y608300D01*
Y607850D02*
X706855D01*
Y606150D02*
Y607850D01*
X709100Y612850D02*
Y616150D01*
Y607850D02*
Y611150D01*
X705900Y612850D02*
Y616150D01*
Y607850D02*
Y611150D01*
Y597850D02*
Y601150D01*
Y602850D02*
Y606150D01*
X704900Y603300D02*
Y605700D01*
Y598300D02*
Y600700D01*
X708145Y596150D02*
Y597850D01*
X709545D01*
Y598300D01*
X710100D01*
Y600700D01*
X709545D02*
X710100D01*
X709545D02*
Y601150D01*
X708145D02*
X709545D01*
X708145D02*
Y602850D01*
X709545D01*
Y603300D01*
X710100D01*
Y605700D01*
X709545D02*
X710100D01*
X709545D02*
Y606150D01*
X708145D02*
X709545D01*
X705455D02*
X706855D01*
X705455Y605700D02*
Y606150D01*
X704900Y605700D02*
X705455D01*
X704900Y603300D02*
Y605700D01*
Y603300D02*
X705455D01*
Y602850D02*
Y603300D01*
Y602850D02*
X706855D01*
Y601150D02*
Y602850D01*
X705455Y601150D02*
X706855D01*
X705455Y600700D02*
Y601150D01*
X704900Y600700D02*
X705455D01*
X704900Y598300D02*
Y600700D01*
Y598300D02*
X705455D01*
Y597850D02*
Y598300D01*
Y597850D02*
X706855D01*
Y596150D02*
Y597850D01*
X709100Y602850D02*
Y606150D01*
Y597850D02*
Y601150D01*
X705900Y602850D02*
Y606150D01*
Y597850D02*
Y601150D01*
Y592850D02*
Y596150D01*
X704900Y593300D02*
Y595700D01*
X708145Y591150D02*
Y592850D01*
X709545D01*
Y593300D01*
X710100D01*
Y595700D01*
X709545D02*
X710100D01*
X709545D02*
Y596150D01*
X708145D02*
X709545D01*
X705455D02*
X706855D01*
X705455Y595700D02*
Y596150D01*
X704900Y595700D02*
X705455D01*
X704900Y593300D02*
Y595700D01*
Y593300D02*
X705455D01*
Y592850D02*
Y593300D01*
Y592850D02*
X706855D01*
Y591150D02*
Y592850D01*
X709100D02*
Y596150D01*
X705900Y592850D02*
Y596150D01*
X705455Y591150D02*
X706855D01*
X705455Y590700D02*
Y591150D01*
X704900Y590700D02*
X705455D01*
X704900Y583400D02*
Y590700D01*
X708145Y591150D02*
X709545D01*
Y590700D02*
Y591150D01*
Y590700D02*
X710100D01*
Y586000D02*
Y590700D01*
X709100Y585000D02*
Y591150D01*
X719545Y778300D02*
X720100D01*
X719545Y777850D02*
Y778300D01*
X718145Y777844D02*
X719545D01*
X724900Y778300D02*
X725455D01*
Y777850D02*
Y778300D01*
Y777850D02*
X726855D01*
X725900Y772850D02*
Y776150D01*
Y767850D02*
Y771150D01*
X719100Y767850D02*
Y771150D01*
Y772850D02*
Y776150D01*
X716855D02*
Y777850D01*
X715455Y776150D02*
X716855D01*
X715455Y775700D02*
Y776150D01*
X714900Y775700D02*
X715455D01*
X714900Y773300D02*
Y775700D01*
Y773300D02*
X715455D01*
Y772850D02*
Y773300D01*
Y772850D02*
X716855D01*
Y771150D02*
Y772850D01*
X715455Y771150D02*
X716855D01*
X715455Y770700D02*
Y771150D01*
X714900Y770700D02*
X715455D01*
X714900Y768300D02*
Y770700D01*
Y768300D02*
X715455D01*
Y767850D02*
Y768300D01*
Y767850D02*
X716855D01*
X715900Y772850D02*
Y776150D01*
Y767850D02*
Y771150D01*
X718145Y776150D02*
Y777850D01*
Y776150D02*
X719545D01*
Y775700D02*
Y776150D01*
Y775700D02*
X720100D01*
Y773300D02*
Y775700D01*
X719545Y773300D02*
X720100D01*
X719545Y772850D02*
Y773300D01*
X718145Y772850D02*
X719545D01*
X718145Y771150D02*
Y772850D01*
Y771150D02*
X719545D01*
Y770700D02*
Y771150D01*
Y770700D02*
X720100D01*
Y768300D02*
Y770700D01*
X724900Y773300D02*
Y775700D01*
X725455D01*
Y776150D01*
X726855D01*
Y777850D01*
X724900Y773300D02*
X725455D01*
Y772850D02*
Y773300D01*
Y772850D02*
X726855D01*
Y771150D02*
Y772850D01*
X725455Y771150D02*
X726855D01*
X725455Y770700D02*
Y771150D01*
X724900Y770700D02*
X725455D01*
X724900Y768300D02*
Y770700D01*
X719545Y768300D02*
X720100D01*
X719545Y767850D02*
Y768300D01*
X718145Y767844D02*
X719545D01*
X724900Y768300D02*
X725455D01*
Y767850D02*
Y768300D01*
Y767850D02*
X726855D01*
X725900Y762850D02*
Y766150D01*
Y757850D02*
Y761150D01*
X719100Y757850D02*
Y761150D01*
Y762850D02*
Y766150D01*
X716855D02*
Y767850D01*
X715455Y766150D02*
X716855D01*
X715455Y765700D02*
Y766150D01*
X714900Y765700D02*
X715455D01*
X714900Y763300D02*
Y765700D01*
Y763300D02*
X715455D01*
Y762850D02*
Y763300D01*
Y762850D02*
X716855D01*
Y761150D02*
Y762850D01*
X715455Y761150D02*
X716855D01*
X715455Y760700D02*
Y761150D01*
X714900Y760700D02*
X715455D01*
X714900Y758300D02*
Y760700D01*
Y758300D02*
X715455D01*
Y757850D02*
Y758300D01*
Y757850D02*
X716855D01*
X715900Y762850D02*
Y766150D01*
Y757850D02*
Y761150D01*
X718145Y766150D02*
Y767850D01*
Y766150D02*
X719545D01*
Y765700D02*
Y766150D01*
Y765700D02*
X720100D01*
Y763300D02*
Y765700D01*
X719545Y763300D02*
X720100D01*
X719545Y762850D02*
Y763300D01*
X718145Y762850D02*
X719545D01*
X718145Y761150D02*
Y762850D01*
Y761150D02*
X719545D01*
Y760700D02*
Y761150D01*
Y760700D02*
X720100D01*
Y758300D02*
Y760700D01*
X724900Y763300D02*
Y765700D01*
X725455D01*
Y766150D01*
X726855D01*
Y767850D01*
X724900Y763300D02*
X725455D01*
Y762850D02*
Y763300D01*
Y762850D02*
X726855D01*
Y761150D02*
Y762850D01*
X725455Y761150D02*
X726855D01*
X725455Y760700D02*
Y761150D01*
X724900Y760700D02*
X725455D01*
X724900Y758300D02*
Y760700D01*
X719545Y758300D02*
X720100D01*
X719545Y757850D02*
Y758300D01*
X718145Y757844D02*
X719545D01*
X724900Y758300D02*
X725455D01*
Y757850D02*
Y758300D01*
Y757850D02*
X726855D01*
X725900Y752850D02*
Y756150D01*
Y747850D02*
Y751150D01*
X719100Y747850D02*
Y751150D01*
Y752850D02*
Y756150D01*
X716855D02*
Y757850D01*
X715455Y756150D02*
X716855D01*
X715455Y755700D02*
Y756150D01*
X714900Y755700D02*
X715455D01*
X714900Y753300D02*
Y755700D01*
Y753300D02*
X715455D01*
Y752850D02*
Y753300D01*
Y752850D02*
X716855D01*
Y751150D02*
Y752850D01*
X715455Y751150D02*
X716855D01*
X715455Y750700D02*
Y751150D01*
X714900Y750700D02*
X715455D01*
X714900Y748300D02*
Y750700D01*
Y748300D02*
X715455D01*
Y747850D02*
Y748300D01*
Y747850D02*
X716855D01*
X715900Y752850D02*
Y756150D01*
Y747850D02*
Y751150D01*
X718145Y756150D02*
Y757850D01*
Y756150D02*
X719545D01*
Y755700D02*
Y756150D01*
Y755700D02*
X720100D01*
Y753300D02*
Y755700D01*
X719545Y753300D02*
X720100D01*
X719545Y752850D02*
Y753300D01*
X718145Y752850D02*
X719545D01*
X718145Y751150D02*
Y752850D01*
Y751150D02*
X719545D01*
Y750700D02*
Y751150D01*
Y750700D02*
X720100D01*
Y748300D02*
Y750700D01*
X724900Y753300D02*
Y755700D01*
X725455D01*
Y756150D01*
X726855D01*
Y757850D01*
X724900Y753300D02*
X725455D01*
Y752850D02*
Y753300D01*
Y752850D02*
X726855D01*
Y751150D02*
Y752850D01*
X725455Y751150D02*
X726855D01*
X725455Y750700D02*
Y751150D01*
X724900Y750700D02*
X725455D01*
X724900Y748300D02*
Y750700D01*
X719545Y748300D02*
X720100D01*
X719545Y747850D02*
Y748300D01*
X718145Y747844D02*
X719545D01*
X724900Y748300D02*
X725455D01*
Y747850D02*
Y748300D01*
Y747850D02*
X726855D01*
X725900Y742850D02*
Y746150D01*
Y737850D02*
Y741150D01*
X719100Y737850D02*
Y741150D01*
Y742850D02*
Y746150D01*
X716855D02*
Y747850D01*
X715455Y746150D02*
X716855D01*
X715455Y745700D02*
Y746150D01*
X714900Y745700D02*
X715455D01*
X714900Y743300D02*
Y745700D01*
Y743300D02*
X715455D01*
Y742850D02*
Y743300D01*
Y742850D02*
X716855D01*
Y741150D02*
Y742850D01*
X715455Y741150D02*
X716855D01*
X715455Y740700D02*
Y741150D01*
X714900Y740700D02*
X715455D01*
X714900Y738300D02*
Y740700D01*
Y738300D02*
X715455D01*
Y737850D02*
Y738300D01*
Y737850D02*
X716855D01*
X715900Y742850D02*
Y746150D01*
Y737850D02*
Y741150D01*
X718145Y746150D02*
Y747850D01*
Y746150D02*
X719545D01*
Y745700D02*
Y746150D01*
Y745700D02*
X720100D01*
Y743300D02*
Y745700D01*
X719545Y743300D02*
X720100D01*
X719545Y742850D02*
Y743300D01*
X718145Y742850D02*
X719545D01*
X718145Y741150D02*
Y742850D01*
Y741150D02*
X719545D01*
Y740700D02*
Y741150D01*
Y740700D02*
X720100D01*
Y738300D02*
Y740700D01*
X724900Y743300D02*
Y745700D01*
X725455D01*
Y746150D01*
X726855D01*
Y747850D01*
X724900Y743300D02*
X725455D01*
Y742850D02*
Y743300D01*
Y742850D02*
X726855D01*
Y741150D02*
Y742850D01*
X725455Y741150D02*
X726855D01*
X725455Y740700D02*
Y741150D01*
X724900Y740700D02*
X725455D01*
X724900Y738300D02*
Y740700D01*
X719545Y738300D02*
X720100D01*
X719545Y737850D02*
Y738300D01*
X718145Y737844D02*
X719545D01*
X724900Y738300D02*
X725455D01*
Y737850D02*
Y738300D01*
Y737850D02*
X726855D01*
X725900Y732850D02*
Y736150D01*
Y727850D02*
Y731150D01*
X719100Y727850D02*
Y731150D01*
Y732850D02*
Y736150D01*
X716855D02*
Y737850D01*
X715455Y736150D02*
X716855D01*
X715455Y735700D02*
Y736150D01*
X714900Y735700D02*
X715455D01*
X714900Y733300D02*
Y735700D01*
Y733300D02*
X715455D01*
Y732850D02*
Y733300D01*
Y732850D02*
X716855D01*
Y731150D02*
Y732850D01*
X715455Y731150D02*
X716855D01*
X715455Y730700D02*
Y731150D01*
X714900Y730700D02*
X715455D01*
X714900Y728300D02*
Y730700D01*
Y728300D02*
X715455D01*
Y727850D02*
Y728300D01*
Y727850D02*
X716855D01*
X715900Y732850D02*
Y736150D01*
Y727850D02*
Y731150D01*
X718145Y736150D02*
Y737850D01*
Y736150D02*
X719545D01*
Y735700D02*
Y736150D01*
Y735700D02*
X720100D01*
Y733300D02*
Y735700D01*
X719545Y733300D02*
X720100D01*
X719545Y732850D02*
Y733300D01*
X718145Y732850D02*
X719545D01*
X718145Y731150D02*
Y732850D01*
Y731150D02*
X719545D01*
Y730700D02*
Y731150D01*
Y730700D02*
X720100D01*
Y728300D02*
Y730700D01*
X724900Y733300D02*
Y735700D01*
X725455D01*
Y736150D01*
X726855D01*
Y737850D01*
X724900Y733300D02*
X725455D01*
Y732850D02*
Y733300D01*
Y732850D02*
X726855D01*
Y731150D02*
Y732850D01*
X725455Y731150D02*
X726855D01*
X725455Y730700D02*
Y731150D01*
X724900Y730700D02*
X725455D01*
X724900Y728300D02*
Y730700D01*
X719545Y728300D02*
X720100D01*
X719545Y727850D02*
Y728300D01*
X718145Y727844D02*
X719545D01*
X724900Y728300D02*
X725455D01*
Y727850D02*
Y728300D01*
Y727850D02*
X726855D01*
X725900Y722850D02*
Y726150D01*
Y717850D02*
Y721150D01*
X719100Y717850D02*
Y721150D01*
Y722850D02*
Y726150D01*
X716855D02*
Y727850D01*
X715455Y726150D02*
X716855D01*
X715455Y725700D02*
Y726150D01*
X714900Y725700D02*
X715455D01*
X714900Y723300D02*
Y725700D01*
Y723300D02*
X715455D01*
Y722850D02*
Y723300D01*
Y722850D02*
X716855D01*
Y721150D02*
Y722850D01*
X715455Y721150D02*
X716855D01*
X715455Y720700D02*
Y721150D01*
X714900Y720700D02*
X715455D01*
X714900Y718300D02*
Y720700D01*
Y718300D02*
X715455D01*
Y717850D02*
Y718300D01*
Y717850D02*
X716855D01*
X715900Y722850D02*
Y726150D01*
Y717850D02*
Y721150D01*
X718145Y726150D02*
Y727850D01*
Y726150D02*
X719545D01*
Y725700D02*
Y726150D01*
Y725700D02*
X720100D01*
Y723300D02*
Y725700D01*
X719545Y723300D02*
X720100D01*
X719545Y722850D02*
Y723300D01*
X718145Y722850D02*
X719545D01*
X718145Y721150D02*
Y722850D01*
Y721150D02*
X719545D01*
Y720700D02*
Y721150D01*
Y720700D02*
X720100D01*
Y718300D02*
Y720700D01*
X724900Y723300D02*
Y725700D01*
X725455D01*
Y726150D01*
X726855D01*
Y727850D01*
X724900Y723300D02*
X725455D01*
Y722850D02*
Y723300D01*
Y722850D02*
X726855D01*
Y721150D02*
Y722850D01*
X725455Y721150D02*
X726855D01*
X725455Y720700D02*
Y721150D01*
X724900Y720700D02*
X725455D01*
X724900Y718300D02*
Y720700D01*
X719545Y718300D02*
X720100D01*
X719545Y717850D02*
Y718300D01*
X718145Y717844D02*
X719545D01*
X724900Y718300D02*
X725455D01*
Y717850D02*
Y718300D01*
Y717850D02*
X726855D01*
X725900Y712850D02*
Y716150D01*
Y707850D02*
Y711150D01*
X719100Y707850D02*
Y711150D01*
Y712850D02*
Y716150D01*
X716855D02*
Y717850D01*
X715455Y716150D02*
X716855D01*
X715455Y715700D02*
Y716150D01*
X714900Y715700D02*
X715455D01*
X714900Y713300D02*
Y715700D01*
Y713300D02*
X715455D01*
Y712850D02*
Y713300D01*
Y712850D02*
X716855D01*
Y711150D02*
Y712850D01*
X715455Y711150D02*
X716855D01*
X715455Y710700D02*
Y711150D01*
X714900Y710700D02*
X715455D01*
X714900Y708300D02*
Y710700D01*
Y708300D02*
X715455D01*
Y707850D02*
Y708300D01*
Y707850D02*
X716855D01*
X715900Y712850D02*
Y716150D01*
Y707850D02*
Y711150D01*
X718145Y716150D02*
Y717850D01*
Y716150D02*
X719545D01*
Y715700D02*
Y716150D01*
Y715700D02*
X720100D01*
Y713300D02*
Y715700D01*
X719545Y713300D02*
X720100D01*
X719545Y712850D02*
Y713300D01*
X718145Y712850D02*
X719545D01*
X718145Y711150D02*
Y712850D01*
Y711150D02*
X719545D01*
Y710700D02*
Y711150D01*
Y710700D02*
X720100D01*
Y708300D02*
Y710700D01*
X724900Y713300D02*
Y715700D01*
X725455D01*
Y716150D01*
X726855D01*
Y717850D01*
X724900Y713300D02*
X725455D01*
Y712850D02*
Y713300D01*
Y712850D02*
X726855D01*
Y711150D02*
Y712850D01*
X725455Y711150D02*
X726855D01*
X725455Y710700D02*
Y711150D01*
X724900Y710700D02*
X725455D01*
X724900Y708300D02*
Y710700D01*
X719545Y708300D02*
X720100D01*
X719545Y707850D02*
Y708300D01*
X718145Y707843D02*
X719545D01*
X724900Y708300D02*
X725455D01*
Y707850D02*
Y708300D01*
Y707850D02*
X726855D01*
X725900Y702850D02*
Y706150D01*
Y697850D02*
Y701150D01*
X719100Y697850D02*
Y701150D01*
Y702850D02*
Y706150D01*
X716855D02*
Y707850D01*
X715455Y706150D02*
X716855D01*
X715455Y705700D02*
Y706150D01*
X714900Y705700D02*
X715455D01*
X714900Y703300D02*
Y705700D01*
Y703300D02*
X715455D01*
Y702850D02*
Y703300D01*
Y702850D02*
X716855D01*
Y701150D02*
Y702850D01*
X715455Y701150D02*
X716855D01*
X715455Y700700D02*
Y701150D01*
X714900Y700700D02*
X715455D01*
X714900Y698300D02*
Y700700D01*
Y698300D02*
X715455D01*
Y697850D02*
Y698300D01*
Y697850D02*
X716855D01*
X715900Y702850D02*
Y706150D01*
Y697850D02*
Y701150D01*
X718145Y706150D02*
Y707850D01*
Y706150D02*
X719545D01*
Y705700D02*
Y706150D01*
Y705700D02*
X720100D01*
Y703300D02*
Y705700D01*
X719545Y703300D02*
X720100D01*
X719545Y702850D02*
Y703300D01*
X718145Y702850D02*
X719545D01*
X718145Y701150D02*
Y702850D01*
Y701150D02*
X719545D01*
Y700700D02*
Y701150D01*
Y700700D02*
X720100D01*
Y698300D02*
Y700700D01*
X724900Y703300D02*
Y705700D01*
X725455D01*
Y706150D01*
X726855D01*
Y707850D01*
X724900Y703300D02*
X725455D01*
Y702850D02*
Y703300D01*
Y702850D02*
X726855D01*
Y701150D02*
Y702850D01*
X725455Y701150D02*
X726855D01*
X725455Y700700D02*
Y701150D01*
X724900Y700700D02*
X725455D01*
X724900Y698300D02*
Y700700D01*
X719545Y698300D02*
X720100D01*
X719545Y697850D02*
Y698300D01*
X718145Y697844D02*
X719545D01*
X724900Y698300D02*
X725455D01*
Y697850D02*
Y698300D01*
Y697850D02*
X726855D01*
X725900Y692850D02*
Y696150D01*
Y687850D02*
Y691150D01*
X719100Y687850D02*
Y691150D01*
Y692850D02*
Y696150D01*
X716855D02*
Y697850D01*
X715455Y696150D02*
X716855D01*
X715455Y695700D02*
Y696150D01*
X714900Y695700D02*
X715455D01*
X714900Y693300D02*
Y695700D01*
Y693300D02*
X715455D01*
Y692850D02*
Y693300D01*
Y692850D02*
X716855D01*
Y691150D02*
Y692850D01*
X715455Y691150D02*
X716855D01*
X715455Y690700D02*
Y691150D01*
X714900Y690700D02*
X715455D01*
X714900Y688300D02*
Y690700D01*
Y688300D02*
X715455D01*
Y687850D02*
Y688300D01*
Y687850D02*
X716855D01*
X715900Y692850D02*
Y696150D01*
Y687850D02*
Y691150D01*
X718145Y696150D02*
Y697850D01*
Y696150D02*
X719545D01*
Y695700D02*
Y696150D01*
Y695700D02*
X720100D01*
Y693300D02*
Y695700D01*
X719545Y693300D02*
X720100D01*
X719545Y692850D02*
Y693300D01*
X718145Y692850D02*
X719545D01*
X718145Y691150D02*
Y692850D01*
Y691150D02*
X719545D01*
Y690700D02*
Y691150D01*
Y690700D02*
X720100D01*
Y688300D02*
Y690700D01*
X724900Y693300D02*
Y695700D01*
X725455D01*
Y696150D01*
X726855D01*
Y697850D01*
X724900Y693300D02*
X725455D01*
Y692850D02*
Y693300D01*
Y692850D02*
X726855D01*
Y691150D02*
Y692850D01*
X725455Y691150D02*
X726855D01*
X725455Y690700D02*
Y691150D01*
X724900Y690700D02*
X725455D01*
X724900Y688300D02*
Y690700D01*
X719545Y688300D02*
X720100D01*
X719545Y687850D02*
Y688300D01*
X718145Y687844D02*
X719545D01*
X724900Y688300D02*
X725455D01*
Y687850D02*
Y688300D01*
Y687850D02*
X726855D01*
X725900Y682850D02*
Y686150D01*
Y677850D02*
Y681150D01*
X719100Y677850D02*
Y681150D01*
Y682850D02*
Y686150D01*
X716855D02*
Y687850D01*
X715455Y686150D02*
X716855D01*
X715455Y685700D02*
Y686150D01*
X714900Y685700D02*
X715455D01*
X714900Y683300D02*
Y685700D01*
Y683300D02*
X715455D01*
Y682850D02*
Y683300D01*
Y682850D02*
X716855D01*
Y681150D02*
Y682850D01*
X715455Y681150D02*
X716855D01*
X715455Y680700D02*
Y681150D01*
X714900Y680700D02*
X715455D01*
X714900Y678300D02*
Y680700D01*
Y678300D02*
X715455D01*
Y677850D02*
Y678300D01*
Y677850D02*
X716855D01*
X715900Y682850D02*
Y686150D01*
Y677850D02*
Y681150D01*
X718145Y686150D02*
Y687850D01*
Y686150D02*
X719545D01*
Y685700D02*
Y686150D01*
Y685700D02*
X720100D01*
Y683300D02*
Y685700D01*
X719545Y683300D02*
X720100D01*
X719545Y682850D02*
Y683300D01*
X718145Y682850D02*
X719545D01*
X718145Y681150D02*
Y682850D01*
Y681150D02*
X719545D01*
Y680700D02*
Y681150D01*
Y680700D02*
X720100D01*
Y678300D02*
Y680700D01*
X724900Y683300D02*
Y685700D01*
X725455D01*
Y686150D01*
X726855D01*
Y687850D01*
X724900Y683300D02*
X725455D01*
Y682850D02*
Y683300D01*
Y682850D02*
X726855D01*
Y681150D02*
Y682850D01*
X725455Y681150D02*
X726855D01*
X725455Y680700D02*
Y681150D01*
X724900Y680700D02*
X725455D01*
X724900Y678300D02*
Y680700D01*
X719545Y678300D02*
X720100D01*
X719545Y677850D02*
Y678300D01*
X718145Y677844D02*
X719545D01*
X724900Y678300D02*
X725455D01*
Y677850D02*
Y678300D01*
Y677850D02*
X726855D01*
X725900Y672850D02*
Y676150D01*
Y667850D02*
Y671150D01*
X719100Y667850D02*
Y671150D01*
Y672850D02*
Y676150D01*
X716855D02*
Y677850D01*
X715455Y676150D02*
X716855D01*
X715455Y675700D02*
Y676150D01*
X714900Y675700D02*
X715455D01*
X714900Y673300D02*
Y675700D01*
Y673300D02*
X715455D01*
Y672850D02*
Y673300D01*
Y672850D02*
X716855D01*
Y671150D02*
Y672850D01*
X715455Y671150D02*
X716855D01*
X715455Y670700D02*
Y671150D01*
X714900Y670700D02*
X715455D01*
X714900Y668300D02*
Y670700D01*
Y668300D02*
X715455D01*
Y667850D02*
Y668300D01*
Y667850D02*
X716855D01*
X715900Y672850D02*
Y676150D01*
Y667850D02*
Y671150D01*
X718145Y676150D02*
Y677850D01*
Y676150D02*
X719545D01*
Y675700D02*
Y676150D01*
Y675700D02*
X720100D01*
Y673300D02*
Y675700D01*
X719545Y673300D02*
X720100D01*
X719545Y672850D02*
Y673300D01*
X718145Y672850D02*
X719545D01*
X718145Y671150D02*
Y672850D01*
Y671150D02*
X719545D01*
Y670700D02*
Y671150D01*
Y670700D02*
X720100D01*
Y668300D02*
Y670700D01*
X724900Y673300D02*
Y675700D01*
X725455D01*
Y676150D01*
X726855D01*
Y677850D01*
X724900Y673300D02*
X725455D01*
Y672850D02*
Y673300D01*
Y672850D02*
X726855D01*
Y671150D02*
Y672850D01*
X725455Y671150D02*
X726855D01*
X725455Y670700D02*
Y671150D01*
X724900Y670700D02*
X725455D01*
X724900Y668300D02*
Y670700D01*
X719545Y668300D02*
X720100D01*
X719545Y667850D02*
Y668300D01*
X718145Y667843D02*
X719545D01*
X724900Y668300D02*
X725455D01*
Y667850D02*
Y668300D01*
Y667850D02*
X726855D01*
X725900Y662850D02*
Y666150D01*
Y657850D02*
Y661150D01*
X719100Y657850D02*
Y661150D01*
Y662850D02*
Y666150D01*
X716855D02*
Y667850D01*
X715455Y666150D02*
X716855D01*
X715455Y665700D02*
Y666150D01*
X714900Y665700D02*
X715455D01*
X714900Y663300D02*
Y665700D01*
Y663300D02*
X715455D01*
Y662850D02*
Y663300D01*
Y662850D02*
X716855D01*
Y661150D02*
Y662850D01*
X715455Y661150D02*
X716855D01*
X715455Y660700D02*
Y661150D01*
X714900Y660700D02*
X715455D01*
X714900Y658300D02*
Y660700D01*
Y658300D02*
X715455D01*
Y657850D02*
Y658300D01*
Y657850D02*
X716855D01*
X715900Y662850D02*
Y666150D01*
Y657850D02*
Y661150D01*
X718145Y666150D02*
Y667850D01*
Y666150D02*
X719545D01*
Y665700D02*
Y666150D01*
Y665700D02*
X720100D01*
Y663300D02*
Y665700D01*
X719545Y663300D02*
X720100D01*
X719545Y662850D02*
Y663300D01*
X718145Y662850D02*
X719545D01*
X718145Y661150D02*
Y662850D01*
Y661150D02*
X719545D01*
Y660700D02*
Y661150D01*
Y660700D02*
X720100D01*
Y658300D02*
Y660700D01*
X724900Y663300D02*
Y665700D01*
X725455D01*
Y666150D01*
X726855D01*
Y667850D01*
X724900Y663300D02*
X725455D01*
Y662850D02*
Y663300D01*
Y662850D02*
X726855D01*
Y661150D02*
Y662850D01*
X725455Y661150D02*
X726855D01*
X725455Y660700D02*
Y661150D01*
X724900Y660700D02*
X725455D01*
X724900Y658300D02*
Y660700D01*
X719545Y658300D02*
X720100D01*
X719545Y657850D02*
Y658300D01*
X718145Y657843D02*
X719545D01*
X724900Y658300D02*
X725455D01*
Y657850D02*
Y658300D01*
Y657850D02*
X726855D01*
X725900Y652850D02*
Y656150D01*
Y647850D02*
Y651150D01*
X719100Y647850D02*
Y651150D01*
Y652850D02*
Y656150D01*
X716855D02*
Y657850D01*
X715455Y656150D02*
X716855D01*
X715455Y655700D02*
Y656150D01*
X714900Y655700D02*
X715455D01*
X714900Y653300D02*
Y655700D01*
Y653300D02*
X715455D01*
Y652850D02*
Y653300D01*
Y652850D02*
X716855D01*
Y651150D02*
Y652850D01*
X715455Y651150D02*
X716855D01*
X715455Y650700D02*
Y651150D01*
X714900Y650700D02*
X715455D01*
X714900Y648300D02*
Y650700D01*
Y648300D02*
X715455D01*
Y647850D02*
Y648300D01*
Y647850D02*
X716855D01*
X715900Y652850D02*
Y656150D01*
Y647850D02*
Y651150D01*
X718145Y656150D02*
Y657850D01*
Y656150D02*
X719545D01*
Y655700D02*
Y656150D01*
Y655700D02*
X720100D01*
Y653300D02*
Y655700D01*
X719545Y653300D02*
X720100D01*
X719545Y652850D02*
Y653300D01*
X718145Y652850D02*
X719545D01*
X718145Y651150D02*
Y652850D01*
Y651150D02*
X719545D01*
Y650700D02*
Y651150D01*
Y650700D02*
X720100D01*
Y648300D02*
Y650700D01*
X724900Y653300D02*
Y655700D01*
X725455D01*
Y656150D01*
X726855D01*
Y657850D01*
X724900Y653300D02*
X725455D01*
Y652850D02*
Y653300D01*
Y652850D02*
X726855D01*
Y651150D02*
Y652850D01*
X725455Y651150D02*
X726855D01*
X725455Y650700D02*
Y651150D01*
X724900Y650700D02*
X725455D01*
X724900Y648300D02*
Y650700D01*
X719545Y648300D02*
X720100D01*
X719545Y647850D02*
Y648300D01*
X718145Y647844D02*
X719545D01*
X724900Y648300D02*
X725455D01*
Y647850D02*
Y648300D01*
Y647850D02*
X726855D01*
X725900Y642850D02*
Y646150D01*
Y637850D02*
Y641150D01*
X719100Y637850D02*
Y641150D01*
Y642850D02*
Y646150D01*
X716855D02*
Y647850D01*
X715455Y646150D02*
X716855D01*
X715455Y645700D02*
Y646150D01*
X714900Y645700D02*
X715455D01*
X714900Y643300D02*
Y645700D01*
Y643300D02*
X715455D01*
Y642850D02*
Y643300D01*
Y642850D02*
X716855D01*
Y641150D02*
Y642850D01*
X715455Y641150D02*
X716855D01*
X715455Y640700D02*
Y641150D01*
X714900Y640700D02*
X715455D01*
X714900Y638300D02*
Y640700D01*
Y638300D02*
X715455D01*
Y637850D02*
Y638300D01*
Y637850D02*
X716855D01*
X715900Y642850D02*
Y646150D01*
Y637850D02*
Y641150D01*
X718145Y646150D02*
Y647850D01*
Y646150D02*
X719545D01*
Y645700D02*
Y646150D01*
Y645700D02*
X720100D01*
Y643300D02*
Y645700D01*
X719545Y643300D02*
X720100D01*
X719545Y642850D02*
Y643300D01*
X718145Y642850D02*
X719545D01*
X718145Y641150D02*
Y642850D01*
Y641150D02*
X719545D01*
Y640700D02*
Y641150D01*
Y640700D02*
X720100D01*
Y638300D02*
Y640700D01*
X724900Y643300D02*
Y645700D01*
X725455D01*
Y646150D01*
X726855D01*
Y647850D01*
X724900Y643300D02*
X725455D01*
Y642850D02*
Y643300D01*
Y642850D02*
X726855D01*
Y641150D02*
Y642850D01*
X725455Y641150D02*
X726855D01*
X725455Y640700D02*
Y641150D01*
X724900Y640700D02*
X725455D01*
X724900Y638300D02*
Y640700D01*
X719545Y638300D02*
X720100D01*
X719545Y637850D02*
Y638300D01*
X718145Y637844D02*
X719545D01*
X724900Y638300D02*
X725455D01*
Y637850D02*
Y638300D01*
Y637850D02*
X726855D01*
X725900Y632850D02*
Y636150D01*
Y627850D02*
Y631150D01*
X719100Y627850D02*
Y631150D01*
Y632850D02*
Y636150D01*
X716855D02*
Y637850D01*
X715455Y636150D02*
X716855D01*
X715455Y635700D02*
Y636150D01*
X714900Y635700D02*
X715455D01*
X714900Y633300D02*
Y635700D01*
Y633300D02*
X715455D01*
Y632850D02*
Y633300D01*
Y632850D02*
X716855D01*
Y631150D02*
Y632850D01*
X715455Y631150D02*
X716855D01*
X715455Y630700D02*
Y631150D01*
X714900Y630700D02*
X715455D01*
X714900Y628300D02*
Y630700D01*
Y628300D02*
X715455D01*
Y627850D02*
Y628300D01*
Y627850D02*
X716855D01*
X715900Y632850D02*
Y636150D01*
Y627850D02*
Y631150D01*
X718145Y636150D02*
Y637850D01*
Y636150D02*
X719545D01*
Y635700D02*
Y636150D01*
Y635700D02*
X720100D01*
Y633300D02*
Y635700D01*
X719545Y633300D02*
X720100D01*
X719545Y632850D02*
Y633300D01*
X718145Y632850D02*
X719545D01*
X718145Y631150D02*
Y632850D01*
Y631150D02*
X719545D01*
Y630700D02*
Y631150D01*
Y630700D02*
X720100D01*
Y628300D02*
Y630700D01*
X724900Y633300D02*
Y635700D01*
X725455D01*
Y636150D01*
X726855D01*
Y637850D01*
X724900Y633300D02*
X725455D01*
Y632850D02*
Y633300D01*
Y632850D02*
X726855D01*
Y631150D02*
Y632850D01*
X725455Y631150D02*
X726855D01*
X725455Y630700D02*
Y631150D01*
X724900Y630700D02*
X725455D01*
X724900Y628300D02*
Y630700D01*
X719545Y628300D02*
X720100D01*
X719545Y627850D02*
Y628300D01*
X718145Y627844D02*
X719545D01*
X724900Y628300D02*
X725455D01*
Y627850D02*
Y628300D01*
Y627850D02*
X726855D01*
X725900Y622850D02*
Y626150D01*
Y617850D02*
Y621150D01*
X719100Y617850D02*
Y621150D01*
Y622850D02*
Y626150D01*
X716855D02*
Y627850D01*
X715455Y626150D02*
X716855D01*
X715455Y625700D02*
Y626150D01*
X714900Y625700D02*
X715455D01*
X714900Y623300D02*
Y625700D01*
Y623300D02*
X715455D01*
Y622850D02*
Y623300D01*
Y622850D02*
X716855D01*
Y621150D02*
Y622850D01*
X715455Y621150D02*
X716855D01*
X715455Y620700D02*
Y621150D01*
X714900Y620700D02*
X715455D01*
X714900Y618300D02*
Y620700D01*
Y618300D02*
X715455D01*
Y617850D02*
Y618300D01*
Y617850D02*
X716855D01*
X715900Y622850D02*
Y626150D01*
Y617850D02*
Y621150D01*
X718145Y626150D02*
Y627850D01*
Y626150D02*
X719545D01*
Y625700D02*
Y626150D01*
Y625700D02*
X720100D01*
Y623300D02*
Y625700D01*
X719545Y623300D02*
X720100D01*
X719545Y622850D02*
Y623300D01*
X718145Y622850D02*
X719545D01*
X718145Y621150D02*
Y622850D01*
Y621150D02*
X719545D01*
Y620700D02*
Y621150D01*
Y620700D02*
X720100D01*
Y618300D02*
Y620700D01*
X724900Y623300D02*
Y625700D01*
X725455D01*
Y626150D01*
X726855D01*
Y627850D01*
X724900Y623300D02*
X725455D01*
Y622850D02*
Y623300D01*
Y622850D02*
X726855D01*
Y621150D02*
Y622850D01*
X725455Y621150D02*
X726855D01*
X725455Y620700D02*
Y621150D01*
X724900Y620700D02*
X725455D01*
X724900Y618300D02*
Y620700D01*
X719545Y618300D02*
X720100D01*
X719545Y617850D02*
Y618300D01*
X718145Y617843D02*
X719545D01*
X724900Y618300D02*
X725455D01*
Y617850D02*
Y618300D01*
Y617850D02*
X726855D01*
X725900Y612850D02*
Y616150D01*
Y607850D02*
Y611150D01*
X719100Y607850D02*
Y611150D01*
Y612850D02*
Y616150D01*
X716855D02*
Y617850D01*
X715455Y616150D02*
X716855D01*
X715455Y615700D02*
Y616150D01*
X714900Y615700D02*
X715455D01*
X714900Y613300D02*
Y615700D01*
Y613300D02*
X715455D01*
Y612850D02*
Y613300D01*
Y612850D02*
X716855D01*
Y611150D02*
Y612850D01*
X715455Y611150D02*
X716855D01*
X715455Y610700D02*
Y611150D01*
X714900Y610700D02*
X715455D01*
X714900Y608300D02*
Y610700D01*
Y608300D02*
X715455D01*
Y607850D02*
Y608300D01*
Y607850D02*
X716855D01*
X715900Y612850D02*
Y616150D01*
Y607850D02*
Y611150D01*
X718145Y616150D02*
Y617850D01*
Y616150D02*
X719545D01*
Y615700D02*
Y616150D01*
Y615700D02*
X720100D01*
Y613300D02*
Y615700D01*
X719545Y613300D02*
X720100D01*
X719545Y612850D02*
Y613300D01*
X718145Y612850D02*
X719545D01*
X718145Y611150D02*
Y612850D01*
Y611150D02*
X719545D01*
Y610700D02*
Y611150D01*
Y610700D02*
X720100D01*
Y608300D02*
Y610700D01*
X724900Y613300D02*
Y615700D01*
X725455D01*
Y616150D01*
X726855D01*
Y617850D01*
X724900Y613300D02*
X725455D01*
Y612850D02*
Y613300D01*
Y612850D02*
X726855D01*
Y611150D02*
Y612850D01*
X725455Y611150D02*
X726855D01*
X725455Y610700D02*
Y611150D01*
X724900Y610700D02*
X725455D01*
X724900Y608300D02*
Y610700D01*
X719545Y608300D02*
X720100D01*
X719545Y607850D02*
Y608300D01*
X718145Y607843D02*
X719545D01*
X724900Y608300D02*
X725455D01*
Y607850D02*
Y608300D01*
Y607850D02*
X726855D01*
X725900Y602850D02*
Y606150D01*
Y597850D02*
Y601150D01*
X719100Y597850D02*
Y601150D01*
Y602850D02*
Y606150D01*
X716855D02*
Y607850D01*
X715455Y606150D02*
X716855D01*
X715455Y605700D02*
Y606150D01*
X714900Y605700D02*
X715455D01*
X714900Y603300D02*
Y605700D01*
Y603300D02*
X715455D01*
Y602850D02*
Y603300D01*
Y602850D02*
X716855D01*
Y601150D02*
Y602850D01*
X715455Y601150D02*
X716855D01*
X715455Y600700D02*
Y601150D01*
X714900Y600700D02*
X715455D01*
X714900Y598300D02*
Y600700D01*
Y598300D02*
X715455D01*
Y597850D02*
Y598300D01*
Y597850D02*
X716855D01*
X715900Y602850D02*
Y606150D01*
Y597850D02*
Y601150D01*
X718145Y606150D02*
Y607850D01*
Y606150D02*
X719545D01*
Y605700D02*
Y606150D01*
Y605700D02*
X720100D01*
Y603300D02*
Y605700D01*
X719545Y603300D02*
X720100D01*
X719545Y602850D02*
Y603300D01*
X718145Y602850D02*
X719545D01*
X718145Y601150D02*
Y602850D01*
Y601150D02*
X719545D01*
Y600700D02*
Y601150D01*
Y600700D02*
X720100D01*
Y598300D02*
Y600700D01*
X724900Y603300D02*
Y605700D01*
X725455D01*
Y606150D01*
X726855D01*
Y607850D01*
X724900Y603300D02*
X725455D01*
Y602850D02*
Y603300D01*
Y602850D02*
X726855D01*
Y601150D02*
Y602850D01*
X725455Y601150D02*
X726855D01*
X725455Y600700D02*
Y601150D01*
X724900Y600700D02*
X725455D01*
X724900Y598300D02*
Y600700D01*
X719545Y598300D02*
X720100D01*
X719545Y597850D02*
Y598300D01*
X718145Y597844D02*
X719545D01*
X724900Y598300D02*
X725455D01*
Y597850D02*
Y598300D01*
Y597850D02*
X726855D01*
X719100Y592850D02*
Y596150D01*
X716855D02*
Y597850D01*
X715455Y596150D02*
X716855D01*
X715455Y595700D02*
Y596150D01*
X714900Y595700D02*
X715455D01*
X714900Y593300D02*
Y595700D01*
Y593300D02*
X715455D01*
Y592850D02*
Y593300D01*
Y592850D02*
X716855D01*
X715900D02*
Y596150D01*
X718145D02*
Y597850D01*
Y596150D02*
X719545D01*
Y595700D02*
Y596150D01*
Y595700D02*
X720100D01*
Y593300D02*
Y595700D01*
X719545Y593300D02*
X720100D01*
X719545Y592850D02*
Y593300D01*
X718145Y592843D02*
X719545D01*
X718145Y591150D02*
Y592850D01*
X716855Y591150D02*
Y592850D01*
X715455Y591150D02*
X716855D01*
X715455Y590700D02*
Y591150D01*
X714900Y590700D02*
X715455D01*
X718145Y591150D02*
X719545D01*
Y590700D02*
Y591150D01*
Y590700D02*
X720100D01*
Y588500D02*
Y590700D01*
X719100Y587500D02*
X720100Y588500D01*
X719100Y587500D02*
Y591150D01*
X720100Y588500D02*
X724900D01*
X725900Y587500D01*
X724900Y588500D02*
Y590700D01*
X725900Y587500D02*
Y591150D01*
Y592850D02*
Y596150D01*
X726855D02*
Y597850D01*
X725455Y596150D02*
X726855D01*
X725455Y595700D02*
Y596150D01*
X724900Y595700D02*
X725455D01*
X724900Y593300D02*
Y595700D01*
Y593300D02*
X725455D01*
Y592850D02*
Y593300D01*
Y592850D02*
X726855D01*
Y591150D02*
Y592850D01*
X725455Y591150D02*
X726855D01*
X725455Y590700D02*
Y591150D01*
X724900Y590700D02*
X725455D01*
X729100Y794000D02*
X735900D01*
Y787850D02*
Y794000D01*
Y782850D02*
Y786150D01*
Y777850D02*
Y781150D01*
X729100Y587500D02*
X735900D01*
X729100Y777850D02*
Y781150D01*
Y782850D02*
Y786150D01*
Y787850D02*
Y794000D01*
X730100Y788300D02*
Y793000D01*
X734900D01*
Y788300D02*
Y793000D01*
X729100Y794000D02*
X730100Y793000D01*
X734900D02*
X735900Y794000D01*
X729545Y788300D02*
X730100D01*
X729545Y787850D02*
Y788300D01*
X728145Y787850D02*
X729545D01*
X728145Y786150D02*
Y787850D01*
Y786150D02*
X729545D01*
Y785700D02*
Y786150D01*
Y785700D02*
X730100D01*
Y783300D02*
Y785700D01*
X729545Y783300D02*
X730100D01*
X729545Y782850D02*
Y783300D01*
X728145Y782850D02*
X729545D01*
X728145Y781150D02*
Y782850D01*
Y781150D02*
X729545D01*
Y780700D02*
Y781150D01*
Y780700D02*
X730100D01*
Y778300D02*
Y780700D01*
X734900Y788300D02*
X735455D01*
Y787850D02*
Y788300D01*
X734900Y783300D02*
Y785700D01*
X735455D01*
Y786150D01*
X736855D01*
Y787850D01*
X735455D02*
X736855D01*
X734900Y783300D02*
X735455D01*
Y782850D02*
Y783300D01*
Y782850D02*
X736855D01*
Y781150D02*
Y782850D01*
X735455Y781150D02*
X736855D01*
X735455Y780700D02*
Y781150D01*
X734900Y780700D02*
X735455D01*
X734900Y778300D02*
Y780700D01*
X729545Y778300D02*
X730100D01*
X729545Y777850D02*
Y778300D01*
X728145Y777844D02*
X729545D01*
X734900Y778300D02*
X735455D01*
Y777850D02*
Y778300D01*
Y777850D02*
X736855D01*
X735900Y772850D02*
Y776150D01*
Y767850D02*
Y771150D01*
X729100Y767850D02*
Y771150D01*
Y772850D02*
Y776150D01*
X728145D02*
Y777850D01*
Y776150D02*
X729545D01*
Y775700D02*
Y776150D01*
Y775700D02*
X730100D01*
Y773300D02*
Y775700D01*
X729545Y773300D02*
X730100D01*
X729545Y772850D02*
Y773300D01*
X728145Y772850D02*
X729545D01*
X728145Y771150D02*
Y772850D01*
Y771150D02*
X729545D01*
Y770700D02*
Y771150D01*
Y770700D02*
X730100D01*
Y768300D02*
Y770700D01*
X734900Y773300D02*
Y775700D01*
X735455D01*
Y776150D01*
X736855D01*
Y777850D01*
X734900Y773300D02*
X735455D01*
Y772850D02*
Y773300D01*
Y772850D02*
X736855D01*
Y771150D02*
Y772850D01*
X735455Y771150D02*
X736855D01*
X735455Y770700D02*
Y771150D01*
X734900Y770700D02*
X735455D01*
X734900Y768300D02*
Y770700D01*
X729545Y768300D02*
X730100D01*
X729545Y767850D02*
Y768300D01*
X728145Y767844D02*
X729545D01*
X734900Y768300D02*
X735455D01*
Y767850D02*
Y768300D01*
Y767850D02*
X736855D01*
X735900Y762850D02*
Y766150D01*
Y757850D02*
Y761150D01*
X729100Y757850D02*
Y761150D01*
Y762850D02*
Y766150D01*
X728145D02*
Y767850D01*
Y766150D02*
X729545D01*
Y765700D02*
Y766150D01*
Y765700D02*
X730100D01*
Y763300D02*
Y765700D01*
X729545Y763300D02*
X730100D01*
X729545Y762850D02*
Y763300D01*
X728145Y762850D02*
X729545D01*
X728145Y761150D02*
Y762850D01*
Y761150D02*
X729545D01*
Y760700D02*
Y761150D01*
Y760700D02*
X730100D01*
Y758300D02*
Y760700D01*
X734900Y763300D02*
Y765700D01*
X735455D01*
Y766150D01*
X736855D01*
Y767850D01*
X734900Y763300D02*
X735455D01*
Y762850D02*
Y763300D01*
Y762850D02*
X736855D01*
Y761150D02*
Y762850D01*
X735455Y761150D02*
X736855D01*
X735455Y760700D02*
Y761150D01*
X734900Y760700D02*
X735455D01*
X734900Y758300D02*
Y760700D01*
X729545Y758300D02*
X730100D01*
X729545Y757850D02*
Y758300D01*
X728145Y757844D02*
X729545D01*
X734900Y758300D02*
X735455D01*
Y757850D02*
Y758300D01*
Y757850D02*
X736855D01*
X735900Y752850D02*
Y756150D01*
Y747850D02*
Y751150D01*
X729100Y747850D02*
Y751150D01*
Y752850D02*
Y756150D01*
X728145D02*
Y757850D01*
Y756150D02*
X729545D01*
Y755700D02*
Y756150D01*
Y755700D02*
X730100D01*
Y753300D02*
Y755700D01*
X729545Y753300D02*
X730100D01*
X729545Y752850D02*
Y753300D01*
X728145Y752850D02*
X729545D01*
X728145Y751150D02*
Y752850D01*
Y751150D02*
X729545D01*
Y750700D02*
Y751150D01*
Y750700D02*
X730100D01*
Y748300D02*
Y750700D01*
X734900Y753300D02*
Y755700D01*
X735455D01*
Y756150D01*
X736855D01*
Y757850D01*
X734900Y753300D02*
X735455D01*
Y752850D02*
Y753300D01*
Y752850D02*
X736855D01*
Y751150D02*
Y752850D01*
X735455Y751150D02*
X736855D01*
X735455Y750700D02*
Y751150D01*
X734900Y750700D02*
X735455D01*
X734900Y748300D02*
Y750700D01*
X729545Y748300D02*
X730100D01*
X729545Y747850D02*
Y748300D01*
X728145Y747844D02*
X729545D01*
X734900Y748300D02*
X735455D01*
Y747850D02*
Y748300D01*
Y747850D02*
X736855D01*
X735900Y742850D02*
Y746150D01*
Y737850D02*
Y741150D01*
X729100Y737850D02*
Y741150D01*
Y742850D02*
Y746150D01*
X728145D02*
Y747850D01*
Y746150D02*
X729545D01*
Y745700D02*
Y746150D01*
Y745700D02*
X730100D01*
Y743300D02*
Y745700D01*
X729545Y743300D02*
X730100D01*
X729545Y742850D02*
Y743300D01*
X728145Y742850D02*
X729545D01*
X728145Y741150D02*
Y742850D01*
Y741150D02*
X729545D01*
Y740700D02*
Y741150D01*
Y740700D02*
X730100D01*
Y738300D02*
Y740700D01*
X734900Y743300D02*
Y745700D01*
X735455D01*
Y746150D01*
X736855D01*
Y747850D01*
X734900Y743300D02*
X735455D01*
Y742850D02*
Y743300D01*
Y742850D02*
X736855D01*
Y741150D02*
Y742850D01*
X735455Y741150D02*
X736855D01*
X735455Y740700D02*
Y741150D01*
X734900Y740700D02*
X735455D01*
X734900Y738300D02*
Y740700D01*
X729545Y738300D02*
X730100D01*
X729545Y737850D02*
Y738300D01*
X728145Y737844D02*
X729545D01*
X734900Y738300D02*
X735455D01*
Y737850D02*
Y738300D01*
Y737850D02*
X736855D01*
X735900Y732850D02*
Y736150D01*
Y727850D02*
Y731150D01*
X729100Y727850D02*
Y731150D01*
Y732850D02*
Y736150D01*
X728145D02*
Y737850D01*
Y736150D02*
X729545D01*
Y735700D02*
Y736150D01*
Y735700D02*
X730100D01*
Y733300D02*
Y735700D01*
X729545Y733300D02*
X730100D01*
X729545Y732850D02*
Y733300D01*
X728145Y732850D02*
X729545D01*
X728145Y731150D02*
Y732850D01*
Y731150D02*
X729545D01*
Y730700D02*
Y731150D01*
Y730700D02*
X730100D01*
Y728300D02*
Y730700D01*
X734900Y733300D02*
Y735700D01*
X735455D01*
Y736150D01*
X736855D01*
Y737850D01*
X734900Y733300D02*
X735455D01*
Y732850D02*
Y733300D01*
Y732850D02*
X736855D01*
Y731150D02*
Y732850D01*
X735455Y731150D02*
X736855D01*
X735455Y730700D02*
Y731150D01*
X734900Y730700D02*
X735455D01*
X734900Y728300D02*
Y730700D01*
X729545Y728300D02*
X730100D01*
X729545Y727850D02*
Y728300D01*
X728145Y727844D02*
X729545D01*
X734900Y728300D02*
X735455D01*
Y727850D02*
Y728300D01*
Y727850D02*
X736855D01*
X735900Y722850D02*
Y726150D01*
Y717850D02*
Y721150D01*
X729100Y717850D02*
Y721150D01*
Y722850D02*
Y726150D01*
X728145D02*
Y727850D01*
Y726150D02*
X729545D01*
Y725700D02*
Y726150D01*
Y725700D02*
X730100D01*
Y723300D02*
Y725700D01*
X729545Y723300D02*
X730100D01*
X729545Y722850D02*
Y723300D01*
X728145Y722850D02*
X729545D01*
X728145Y721150D02*
Y722850D01*
Y721150D02*
X729545D01*
Y720700D02*
Y721150D01*
Y720700D02*
X730100D01*
Y718300D02*
Y720700D01*
X734900Y723300D02*
Y725700D01*
X735455D01*
Y726150D01*
X736855D01*
Y727850D01*
X734900Y723300D02*
X735455D01*
Y722850D02*
Y723300D01*
Y722850D02*
X736855D01*
Y721150D02*
Y722850D01*
X735455Y721150D02*
X736855D01*
X735455Y720700D02*
Y721150D01*
X734900Y720700D02*
X735455D01*
X734900Y718300D02*
Y720700D01*
X729545Y718300D02*
X730100D01*
X729545Y717850D02*
Y718300D01*
X728145Y717844D02*
X729545D01*
X734900Y718300D02*
X735455D01*
Y717850D02*
Y718300D01*
Y717850D02*
X736855D01*
X735900Y712850D02*
Y716150D01*
Y707850D02*
Y711150D01*
X729100Y707850D02*
Y711150D01*
Y712850D02*
Y716150D01*
X728145D02*
Y717850D01*
Y716150D02*
X729545D01*
Y715700D02*
Y716150D01*
Y715700D02*
X730100D01*
Y713300D02*
Y715700D01*
X729545Y713300D02*
X730100D01*
X729545Y712850D02*
Y713300D01*
X728145Y712850D02*
X729545D01*
X728145Y711150D02*
Y712850D01*
Y711150D02*
X729545D01*
Y710700D02*
Y711150D01*
Y710700D02*
X730100D01*
Y708300D02*
Y710700D01*
X734900Y713300D02*
Y715700D01*
X735455D01*
Y716150D01*
X736855D01*
Y717850D01*
X734900Y713300D02*
X735455D01*
Y712850D02*
Y713300D01*
Y712850D02*
X736855D01*
Y711150D02*
Y712850D01*
X735455Y711150D02*
X736855D01*
X735455Y710700D02*
Y711150D01*
X734900Y710700D02*
X735455D01*
X734900Y708300D02*
Y710700D01*
X729545Y708300D02*
X730100D01*
X729545Y707850D02*
Y708300D01*
X728145Y707843D02*
X729545D01*
X734900Y708300D02*
X735455D01*
Y707850D02*
Y708300D01*
Y707850D02*
X736855D01*
X735900Y702850D02*
Y706150D01*
Y697850D02*
Y701150D01*
X729100Y697850D02*
Y701150D01*
Y702850D02*
Y706150D01*
X728145D02*
Y707850D01*
Y706150D02*
X729545D01*
Y705700D02*
Y706150D01*
Y705700D02*
X730100D01*
Y703300D02*
Y705700D01*
X729545Y703300D02*
X730100D01*
X729545Y702850D02*
Y703300D01*
X728145Y702850D02*
X729545D01*
X728145Y701150D02*
Y702850D01*
Y701150D02*
X729545D01*
Y700700D02*
Y701150D01*
Y700700D02*
X730100D01*
Y698300D02*
Y700700D01*
X734900Y703300D02*
Y705700D01*
X735455D01*
Y706150D01*
X736855D01*
Y707850D01*
X734900Y703300D02*
X735455D01*
Y702850D02*
Y703300D01*
Y702850D02*
X736855D01*
Y701150D02*
Y702850D01*
X735455Y701150D02*
X736855D01*
X735455Y700700D02*
Y701150D01*
X734900Y700700D02*
X735455D01*
X734900Y698300D02*
Y700700D01*
X729545Y698300D02*
X730100D01*
X729545Y697850D02*
Y698300D01*
X728145Y697844D02*
X729545D01*
X734900Y698300D02*
X735455D01*
Y697850D02*
Y698300D01*
Y697850D02*
X736855D01*
X735900Y692850D02*
Y696150D01*
Y687850D02*
Y691150D01*
X729100Y687850D02*
Y691150D01*
Y692850D02*
Y696150D01*
X728145D02*
Y697850D01*
Y696150D02*
X729545D01*
Y695700D02*
Y696150D01*
Y695700D02*
X730100D01*
Y693300D02*
Y695700D01*
X729545Y693300D02*
X730100D01*
X729545Y692850D02*
Y693300D01*
X728145Y692850D02*
X729545D01*
X728145Y691150D02*
Y692850D01*
Y691150D02*
X729545D01*
Y690700D02*
Y691150D01*
Y690700D02*
X730100D01*
Y688300D02*
Y690700D01*
X734900Y693300D02*
Y695700D01*
X735455D01*
Y696150D01*
X736855D01*
Y697850D01*
X734900Y693300D02*
X735455D01*
Y692850D02*
Y693300D01*
Y692850D02*
X736855D01*
Y691150D02*
Y692850D01*
X735455Y691150D02*
X736855D01*
X735455Y690700D02*
Y691150D01*
X734900Y690700D02*
X735455D01*
X734900Y688300D02*
Y690700D01*
X729545Y688300D02*
X730100D01*
X729545Y687850D02*
Y688300D01*
X728145Y687844D02*
X729545D01*
X734900Y688300D02*
X735455D01*
Y687850D02*
Y688300D01*
Y687850D02*
X736855D01*
X735900Y682850D02*
Y686150D01*
Y677850D02*
Y681150D01*
X729100Y677850D02*
Y681150D01*
Y682850D02*
Y686150D01*
X728145D02*
Y687850D01*
Y686150D02*
X729545D01*
Y685700D02*
Y686150D01*
Y685700D02*
X730100D01*
Y683300D02*
Y685700D01*
X729545Y683300D02*
X730100D01*
X729545Y682850D02*
Y683300D01*
X728145Y682850D02*
X729545D01*
X728145Y681150D02*
Y682850D01*
Y681150D02*
X729545D01*
Y680700D02*
Y681150D01*
Y680700D02*
X730100D01*
Y678300D02*
Y680700D01*
X734900Y683300D02*
Y685700D01*
X735455D01*
Y686150D01*
X736855D01*
Y687850D01*
X734900Y683300D02*
X735455D01*
Y682850D02*
Y683300D01*
Y682850D02*
X736855D01*
Y681150D02*
Y682850D01*
X735455Y681150D02*
X736855D01*
X735455Y680700D02*
Y681150D01*
X734900Y680700D02*
X735455D01*
X734900Y678300D02*
Y680700D01*
X729545Y678300D02*
X730100D01*
X729545Y677850D02*
Y678300D01*
X728145Y677844D02*
X729545D01*
X734900Y678300D02*
X735455D01*
Y677850D02*
Y678300D01*
Y677850D02*
X736855D01*
X735900Y672850D02*
Y676150D01*
Y667850D02*
Y671150D01*
X729100Y667850D02*
Y671150D01*
Y672850D02*
Y676150D01*
X728145D02*
Y677850D01*
Y676150D02*
X729545D01*
Y675700D02*
Y676150D01*
Y675700D02*
X730100D01*
Y673300D02*
Y675700D01*
X729545Y673300D02*
X730100D01*
X729545Y672850D02*
Y673300D01*
X728145Y672850D02*
X729545D01*
X728145Y671150D02*
Y672850D01*
Y671150D02*
X729545D01*
Y670700D02*
Y671150D01*
Y670700D02*
X730100D01*
Y668300D02*
Y670700D01*
X734900Y673300D02*
Y675700D01*
X735455D01*
Y676150D01*
X736855D01*
Y677850D01*
X734900Y673300D02*
X735455D01*
Y672850D02*
Y673300D01*
Y672850D02*
X736855D01*
Y671150D02*
Y672850D01*
X735455Y671150D02*
X736855D01*
X735455Y670700D02*
Y671150D01*
X734900Y670700D02*
X735455D01*
X734900Y668300D02*
Y670700D01*
X729545Y668300D02*
X730100D01*
X729545Y667850D02*
Y668300D01*
X728145Y667843D02*
X729545D01*
X734900Y668300D02*
X735455D01*
Y667850D02*
Y668300D01*
Y667850D02*
X736855D01*
X735900Y662850D02*
Y666150D01*
Y657850D02*
Y661150D01*
X729100Y657850D02*
Y661150D01*
Y662850D02*
Y666150D01*
X728145D02*
Y667850D01*
Y666150D02*
X729545D01*
Y665700D02*
Y666150D01*
Y665700D02*
X730100D01*
Y663300D02*
Y665700D01*
X729545Y663300D02*
X730100D01*
X729545Y662850D02*
Y663300D01*
X728145Y662850D02*
X729545D01*
X728145Y661150D02*
Y662850D01*
Y661150D02*
X729545D01*
Y660700D02*
Y661150D01*
Y660700D02*
X730100D01*
Y658300D02*
Y660700D01*
X734900Y663300D02*
Y665700D01*
X735455D01*
Y666150D01*
X736855D01*
Y667850D01*
X734900Y663300D02*
X735455D01*
Y662850D02*
Y663300D01*
Y662850D02*
X736855D01*
Y661150D02*
Y662850D01*
X735455Y661150D02*
X736855D01*
X735455Y660700D02*
Y661150D01*
X734900Y660700D02*
X735455D01*
X734900Y658300D02*
Y660700D01*
X729545Y658300D02*
X730100D01*
X729545Y657850D02*
Y658300D01*
X728145Y657843D02*
X729545D01*
X734900Y658300D02*
X735455D01*
Y657850D02*
Y658300D01*
Y657850D02*
X736855D01*
X735900Y652850D02*
Y656150D01*
Y647850D02*
Y651150D01*
X729100Y647850D02*
Y651150D01*
Y652850D02*
Y656150D01*
X728145D02*
Y657850D01*
Y656150D02*
X729545D01*
Y655700D02*
Y656150D01*
Y655700D02*
X730100D01*
Y653300D02*
Y655700D01*
X729545Y653300D02*
X730100D01*
X729545Y652850D02*
Y653300D01*
X728145Y652850D02*
X729545D01*
X728145Y651150D02*
Y652850D01*
Y651150D02*
X729545D01*
Y650700D02*
Y651150D01*
Y650700D02*
X730100D01*
Y648300D02*
Y650700D01*
X734900Y653300D02*
Y655700D01*
X735455D01*
Y656150D01*
X736855D01*
Y657850D01*
X734900Y653300D02*
X735455D01*
Y652850D02*
Y653300D01*
Y652850D02*
X736855D01*
Y651150D02*
Y652850D01*
X735455Y651150D02*
X736855D01*
X735455Y650700D02*
Y651150D01*
X734900Y650700D02*
X735455D01*
X734900Y648300D02*
Y650700D01*
X729545Y648300D02*
X730100D01*
X729545Y647850D02*
Y648300D01*
X728145Y647844D02*
X729545D01*
X734900Y648300D02*
X735455D01*
Y647850D02*
Y648300D01*
Y647850D02*
X736855D01*
X735900Y642850D02*
Y646150D01*
Y637850D02*
Y641150D01*
X729100Y637850D02*
Y641150D01*
Y642850D02*
Y646150D01*
X728145D02*
Y647850D01*
Y646150D02*
X729545D01*
Y645700D02*
Y646150D01*
Y645700D02*
X730100D01*
Y643300D02*
Y645700D01*
X729545Y643300D02*
X730100D01*
X729545Y642850D02*
Y643300D01*
X728145Y642850D02*
X729545D01*
X728145Y641150D02*
Y642850D01*
Y641150D02*
X729545D01*
Y640700D02*
Y641150D01*
Y640700D02*
X730100D01*
Y638300D02*
Y640700D01*
X734900Y643300D02*
Y645700D01*
X735455D01*
Y646150D01*
X736855D01*
Y647850D01*
X734900Y643300D02*
X735455D01*
Y642850D02*
Y643300D01*
Y642850D02*
X736855D01*
Y641150D02*
Y642850D01*
X735455Y641150D02*
X736855D01*
X735455Y640700D02*
Y641150D01*
X734900Y640700D02*
X735455D01*
X734900Y638300D02*
Y640700D01*
X729545Y638300D02*
X730100D01*
X729545Y637850D02*
Y638300D01*
X728145Y637844D02*
X729545D01*
X734900Y638300D02*
X735455D01*
Y637850D02*
Y638300D01*
Y637850D02*
X736855D01*
X735900Y632850D02*
Y636150D01*
Y627850D02*
Y631150D01*
X729100Y627850D02*
Y631150D01*
Y632850D02*
Y636150D01*
X728145D02*
Y637850D01*
Y636150D02*
X729545D01*
Y635700D02*
Y636150D01*
Y635700D02*
X730100D01*
Y633300D02*
Y635700D01*
X729545Y633300D02*
X730100D01*
X729545Y632850D02*
Y633300D01*
X728145Y632850D02*
X729545D01*
X728145Y631150D02*
Y632850D01*
Y631150D02*
X729545D01*
Y630700D02*
Y631150D01*
Y630700D02*
X730100D01*
Y628300D02*
Y630700D01*
X734900Y633300D02*
Y635700D01*
X735455D01*
Y636150D01*
X736855D01*
Y637850D01*
X734900Y633300D02*
X735455D01*
Y632850D02*
Y633300D01*
Y632850D02*
X736855D01*
Y631150D02*
Y632850D01*
X735455Y631150D02*
X736855D01*
X735455Y630700D02*
Y631150D01*
X734900Y630700D02*
X735455D01*
X734900Y628300D02*
Y630700D01*
X729545Y628300D02*
X730100D01*
X729545Y627850D02*
Y628300D01*
X728145Y627844D02*
X729545D01*
X734900Y628300D02*
X735455D01*
Y627850D02*
Y628300D01*
Y627850D02*
X736855D01*
X735900Y622850D02*
Y626150D01*
Y617850D02*
Y621150D01*
X729100Y617850D02*
Y621150D01*
Y622850D02*
Y626150D01*
X728145D02*
Y627850D01*
Y626150D02*
X729545D01*
Y625700D02*
Y626150D01*
Y625700D02*
X730100D01*
Y623300D02*
Y625700D01*
X729545Y623300D02*
X730100D01*
X729545Y622850D02*
Y623300D01*
X728145Y622850D02*
X729545D01*
X728145Y621150D02*
Y622850D01*
Y621150D02*
X729545D01*
Y620700D02*
Y621150D01*
Y620700D02*
X730100D01*
Y618300D02*
Y620700D01*
X734900Y623300D02*
Y625700D01*
X735455D01*
Y626150D01*
X736855D01*
Y627850D01*
X734900Y623300D02*
X735455D01*
Y622850D02*
Y623300D01*
Y622850D02*
X736855D01*
Y621150D02*
Y622850D01*
X735455Y621150D02*
X736855D01*
X735455Y620700D02*
Y621150D01*
X734900Y620700D02*
X735455D01*
X734900Y618300D02*
Y620700D01*
X729545Y618300D02*
X730100D01*
X729545Y617850D02*
Y618300D01*
X728145Y617843D02*
X729545D01*
X734900Y618300D02*
X735455D01*
Y617850D02*
Y618300D01*
Y617850D02*
X736855D01*
X735900Y612850D02*
Y616150D01*
Y607850D02*
Y611150D01*
X729100Y607850D02*
Y611150D01*
Y612850D02*
Y616150D01*
X728145D02*
Y617850D01*
Y616150D02*
X729545D01*
Y615700D02*
Y616150D01*
Y615700D02*
X730100D01*
Y613300D02*
Y615700D01*
X729545Y613300D02*
X730100D01*
X729545Y612850D02*
Y613300D01*
X728145Y612850D02*
X729545D01*
X728145Y611150D02*
Y612850D01*
Y611150D02*
X729545D01*
Y610700D02*
Y611150D01*
Y610700D02*
X730100D01*
Y608300D02*
Y610700D01*
X734900Y613300D02*
Y615700D01*
X735455D01*
Y616150D01*
X736855D01*
Y617850D01*
X734900Y613300D02*
X735455D01*
Y612850D02*
Y613300D01*
Y612850D02*
X736855D01*
Y611150D02*
Y612850D01*
X735455Y611150D02*
X736855D01*
X735455Y610700D02*
Y611150D01*
X734900Y610700D02*
X735455D01*
X734900Y608300D02*
Y610700D01*
X729545Y608300D02*
X730100D01*
X729545Y607850D02*
Y608300D01*
X728145Y607843D02*
X729545D01*
X734900Y608300D02*
X735455D01*
Y607850D02*
Y608300D01*
Y607850D02*
X736855D01*
X735900Y602850D02*
Y606150D01*
Y597850D02*
Y601150D01*
X729100Y597850D02*
Y601150D01*
Y602850D02*
Y606150D01*
X728145D02*
Y607850D01*
Y606150D02*
X729545D01*
Y605700D02*
Y606150D01*
Y605700D02*
X730100D01*
Y603300D02*
Y605700D01*
X729545Y603300D02*
X730100D01*
X729545Y602850D02*
Y603300D01*
X728145Y602850D02*
X729545D01*
X728145Y601150D02*
Y602850D01*
Y601150D02*
X729545D01*
Y600700D02*
Y601150D01*
Y600700D02*
X730100D01*
Y598300D02*
Y600700D01*
X734900Y603300D02*
Y605700D01*
X735455D01*
Y606150D01*
X736855D01*
Y607850D01*
X734900Y603300D02*
X735455D01*
Y602850D02*
Y603300D01*
Y602850D02*
X736855D01*
Y601150D02*
Y602850D01*
X735455Y601150D02*
X736855D01*
X735455Y600700D02*
Y601150D01*
X734900Y600700D02*
X735455D01*
X734900Y598300D02*
Y600700D01*
X729545Y598300D02*
X730100D01*
X729545Y597850D02*
Y598300D01*
X728145Y597844D02*
X729545D01*
X734900Y598300D02*
X735455D01*
Y597850D02*
Y598300D01*
Y597850D02*
X736855D01*
X729100Y592850D02*
Y596150D01*
X728145D02*
Y597850D01*
Y596150D02*
X729545D01*
Y595700D02*
Y596150D01*
Y595700D02*
X730100D01*
Y593300D02*
Y595700D01*
X729545Y593300D02*
X730100D01*
X729545Y592850D02*
Y593300D01*
X728145Y592843D02*
X729545D01*
X728145Y591150D02*
Y592850D01*
Y591150D02*
X729545D01*
Y590700D02*
Y591150D01*
Y590700D02*
X730100D01*
Y588500D02*
Y590700D01*
X729100Y587500D02*
X730100Y588500D01*
X729100Y587500D02*
Y591150D01*
X730100Y588500D02*
X734900D01*
X735900Y587500D01*
X734900Y588500D02*
Y590700D01*
X735900Y587500D02*
Y591150D01*
Y592850D02*
Y596150D01*
X736855D02*
Y597850D01*
X735455Y596150D02*
X736855D01*
X735455Y595700D02*
Y596150D01*
X734900Y595700D02*
X735455D01*
X734900Y593300D02*
Y595700D01*
Y593300D02*
X735455D01*
Y592850D02*
Y593300D01*
Y592850D02*
X736855D01*
Y591150D02*
Y592850D01*
X735455Y591150D02*
X736855D01*
X735455Y590700D02*
Y591150D01*
X734900Y590700D02*
X735455D01*
X739100Y791500D02*
X745900D01*
X740100Y790500D02*
X744900D01*
Y788300D02*
Y790500D01*
X740100Y788300D02*
Y790500D01*
X744900Y788300D02*
X745455D01*
Y787850D02*
Y788300D01*
Y787850D02*
X746855D01*
Y786150D02*
Y787850D01*
X745455Y786150D02*
X746855D01*
X745455Y785700D02*
Y786150D01*
X744900Y785700D02*
X745455D01*
X744900Y783300D02*
Y785700D01*
Y783300D02*
X745455D01*
Y782850D02*
Y783300D01*
Y782850D02*
X746855D01*
Y781150D02*
Y782850D01*
X745455Y781150D02*
X746855D01*
X745455Y780700D02*
Y781150D01*
X744900Y780700D02*
X745455D01*
X744900Y778300D02*
Y780700D01*
Y778300D02*
X745455D01*
Y777850D02*
Y778300D01*
Y777850D02*
X746855D01*
X744900Y586000D02*
Y590700D01*
X740100Y586000D02*
X744900D01*
X740100D02*
Y590700D01*
X738145Y776150D02*
Y777850D01*
X739545D01*
Y778300D01*
X740100D01*
Y780700D01*
X739545D02*
X740100D01*
X739545D02*
Y781150D01*
X738145D02*
X739545D01*
X738145D02*
Y782850D01*
X739545D01*
Y783300D01*
X740100D01*
Y785700D01*
X739545D02*
X740100D01*
X739545D02*
Y786150D01*
X738145D02*
X739545D01*
X738145D02*
Y787850D01*
X739545D01*
Y788300D01*
X740100D01*
X739100Y787850D02*
Y791500D01*
Y782850D02*
Y786150D01*
Y777850D02*
Y781150D01*
X740100Y790500D02*
X744900D01*
Y788300D02*
Y790500D01*
X745900Y791500D01*
X739100D02*
X745900D01*
Y787850D02*
Y791500D01*
Y782850D02*
Y786150D01*
Y777850D02*
Y781150D01*
X738145Y766150D02*
Y767850D01*
X739545D01*
Y768300D01*
X740100D01*
Y770700D01*
X739545D02*
X740100D01*
X739545D02*
Y771150D01*
X738145D02*
X739545D01*
X738145D02*
Y772850D01*
X739545D01*
Y773300D01*
X740100D01*
Y775700D01*
X739545D02*
X740100D01*
X739545D02*
Y776150D01*
X738145D02*
X739545D01*
X739100Y772850D02*
Y776150D01*
Y767850D02*
Y771150D01*
X738145Y756150D02*
Y757850D01*
X739545D01*
Y758300D01*
X740100D01*
Y760700D01*
X739545D02*
X740100D01*
X739545D02*
Y761150D01*
X738145D02*
X739545D01*
X738145D02*
Y762850D01*
X739545D01*
Y763300D01*
X740100D01*
Y765700D01*
X739545D02*
X740100D01*
X739545D02*
Y766150D01*
X738145D02*
X739545D01*
X739100Y762850D02*
Y766150D01*
Y757850D02*
Y761150D01*
X738145Y746150D02*
Y747850D01*
X739545D01*
Y748300D01*
X740100D01*
Y750700D01*
X739545D02*
X740100D01*
X739545D02*
Y751150D01*
X738145D02*
X739545D01*
X738145D02*
Y752850D01*
X739545D01*
Y753300D01*
X740100D01*
Y755700D01*
X739545D02*
X740100D01*
X739545D02*
Y756150D01*
X738145D02*
X739545D01*
X739100Y752850D02*
Y756150D01*
Y747850D02*
Y751150D01*
X738145Y736150D02*
Y737850D01*
X739545D01*
Y738300D01*
X740100D01*
Y740700D01*
X739545D02*
X740100D01*
X739545D02*
Y741150D01*
X738145D02*
X739545D01*
X738145D02*
Y742850D01*
X739545D01*
Y743300D01*
X740100D01*
Y745700D01*
X739545D02*
X740100D01*
X739545D02*
Y746150D01*
X738145D02*
X739545D01*
X739100Y742850D02*
Y746150D01*
Y737850D02*
Y741150D01*
X738145Y726150D02*
Y727850D01*
X739545D01*
Y728300D01*
X740100D01*
Y730700D01*
X739545D02*
X740100D01*
X739545D02*
Y731150D01*
X738145D02*
X739545D01*
X738145D02*
Y732850D01*
X739545D01*
Y733300D01*
X740100D01*
Y735700D01*
X739545D02*
X740100D01*
X739545D02*
Y736150D01*
X738145D02*
X739545D01*
X739100Y732850D02*
Y736150D01*
Y727850D02*
Y731150D01*
X738145Y716150D02*
Y717850D01*
X739545D01*
Y718300D01*
X740100D01*
Y720700D01*
X739545D02*
X740100D01*
X739545D02*
Y721150D01*
X738145D02*
X739545D01*
X738145D02*
Y722850D01*
X739545D01*
Y723300D01*
X740100D01*
Y725700D01*
X739545D02*
X740100D01*
X739545D02*
Y726150D01*
X738145D02*
X739545D01*
X739100Y722850D02*
Y726150D01*
Y717850D02*
Y721150D01*
X738145Y706150D02*
Y707850D01*
X739545D01*
Y708300D01*
X740100D01*
Y710700D01*
X739545D02*
X740100D01*
X739545D02*
Y711150D01*
X738145D02*
X739545D01*
X738145D02*
Y712850D01*
X739545D01*
Y713300D01*
X740100D01*
Y715700D01*
X739545D02*
X740100D01*
X739545D02*
Y716150D01*
X738145D02*
X739545D01*
X739100Y712850D02*
Y716150D01*
Y707850D02*
Y711150D01*
X738145Y696150D02*
Y697850D01*
X739545D01*
Y698300D01*
X740100D01*
Y700700D01*
X739545D02*
X740100D01*
X739545D02*
Y701150D01*
X738145D02*
X739545D01*
X738145D02*
Y702850D01*
X739545D01*
Y703300D01*
X740100D01*
Y705700D01*
X739545D02*
X740100D01*
X739545D02*
Y706150D01*
X738145D02*
X739545D01*
X739100Y702850D02*
Y706150D01*
Y697850D02*
Y701150D01*
X738145Y686150D02*
Y687850D01*
X739545D01*
Y688300D01*
X740100D01*
Y690700D01*
X739545D02*
X740100D01*
X739545D02*
Y691150D01*
X738145D02*
X739545D01*
X738145D02*
Y692850D01*
X739545D01*
Y693300D01*
X740100D01*
Y695700D01*
X739545D02*
X740100D01*
X739545D02*
Y696150D01*
X738145D02*
X739545D01*
X739100Y692850D02*
Y696150D01*
Y687850D02*
Y691150D01*
X738145Y676150D02*
Y677850D01*
X739545D01*
Y678300D01*
X740100D01*
Y680700D01*
X739545D02*
X740100D01*
X739545D02*
Y681150D01*
X738145D02*
X739545D01*
X738145D02*
Y682850D01*
X739545D01*
Y683300D01*
X740100D01*
Y685700D01*
X739545D02*
X740100D01*
X739545D02*
Y686150D01*
X738145D02*
X739545D01*
X739100Y682850D02*
Y686150D01*
Y677850D02*
Y681150D01*
X738145Y666150D02*
Y667850D01*
X739545D01*
Y668300D01*
X740100D01*
Y670700D01*
X739545D02*
X740100D01*
X739545D02*
Y671150D01*
X738145D02*
X739545D01*
X738145D02*
Y672850D01*
X739545D01*
Y673300D01*
X740100D01*
Y675700D01*
X739545D02*
X740100D01*
X739545D02*
Y676150D01*
X738145D02*
X739545D01*
X739100Y672850D02*
Y676150D01*
Y667850D02*
Y671150D01*
X738145Y656150D02*
Y657850D01*
X739545D01*
Y658300D01*
X740100D01*
Y660700D01*
X739545D02*
X740100D01*
X739545D02*
Y661150D01*
X738145D02*
X739545D01*
X738145D02*
Y662850D01*
X739545D01*
Y663300D01*
X740100D01*
Y665700D01*
X739545D02*
X740100D01*
X739545D02*
Y666150D01*
X738145D02*
X739545D01*
X739100Y662850D02*
Y666150D01*
Y657850D02*
Y661150D01*
X738145Y646150D02*
Y647850D01*
X739545D01*
Y648300D01*
X740100D01*
Y650700D01*
X739545D02*
X740100D01*
X739545D02*
Y651150D01*
X738145D02*
X739545D01*
X738145D02*
Y652850D01*
X739545D01*
Y653300D01*
X740100D01*
Y655700D01*
X739545D02*
X740100D01*
X739545D02*
Y656150D01*
X738145D02*
X739545D01*
X739100Y652850D02*
Y656150D01*
Y647850D02*
Y651150D01*
X738145Y636150D02*
Y637850D01*
X739545D01*
Y638300D01*
X740100D01*
Y640700D01*
X739545D02*
X740100D01*
X739545D02*
Y641150D01*
X738145D02*
X739545D01*
X738145D02*
Y642850D01*
X739545D01*
Y643300D01*
X740100D01*
Y645700D01*
X739545D02*
X740100D01*
X739545D02*
Y646150D01*
X738145D02*
X739545D01*
X739100Y642850D02*
Y646150D01*
Y637850D02*
Y641150D01*
X738145Y626150D02*
Y627850D01*
X739545D01*
Y628300D01*
X740100D01*
Y630700D01*
X739545D02*
X740100D01*
X739545D02*
Y631150D01*
X738145D02*
X739545D01*
X738145D02*
Y632850D01*
X739545D01*
Y633300D01*
X740100D01*
Y635700D01*
X739545D02*
X740100D01*
X739545D02*
Y636150D01*
X738145D02*
X739545D01*
X739100Y632850D02*
Y636150D01*
Y627850D02*
Y631150D01*
X738145Y616150D02*
Y617850D01*
X739545D01*
Y618300D01*
X740100D01*
Y620700D01*
X739545D02*
X740100D01*
X739545D02*
Y621150D01*
X738145D02*
X739545D01*
X738145D02*
Y622850D01*
X739545D01*
Y623300D01*
X740100D01*
Y625700D01*
X739545D02*
X740100D01*
X739545D02*
Y626150D01*
X738145D02*
X739545D01*
X739100Y622850D02*
Y626150D01*
Y617850D02*
Y621150D01*
X738145Y606150D02*
Y607850D01*
X739545D01*
Y608300D01*
X740100D01*
Y610700D01*
X739545D02*
X740100D01*
X739545D02*
Y611150D01*
X738145D02*
X739545D01*
X738145D02*
Y612850D01*
X739545D01*
Y613300D01*
X740100D01*
Y615700D01*
X739545D02*
X740100D01*
X739545D02*
Y616150D01*
X738145D02*
X739545D01*
X739100Y612850D02*
Y616150D01*
Y607850D02*
Y611150D01*
X738145Y596150D02*
Y597850D01*
X739545D01*
Y598300D01*
X740100D01*
Y600700D01*
X739545D02*
X740100D01*
X739545D02*
Y601150D01*
X738145D02*
X739545D01*
X738145D02*
Y602850D01*
X739545D01*
Y603300D01*
X740100D01*
Y605700D01*
X739545D02*
X740100D01*
X739545D02*
Y606150D01*
X738145D02*
X739545D01*
X739100Y602850D02*
Y606150D01*
Y597850D02*
Y601150D01*
X738145Y591150D02*
Y592850D01*
X739545D01*
Y593300D01*
X740100D01*
Y595700D01*
X739545D02*
X740100D01*
X739545D02*
Y596150D01*
X738145D02*
X739545D01*
X739100Y592850D02*
Y596150D01*
X738145Y591150D02*
X739545D01*
Y590700D02*
Y591150D01*
Y590700D02*
X740100D01*
Y586000D02*
Y590700D01*
X739100Y585000D02*
Y591150D01*
X746855Y776150D02*
Y777850D01*
X745455Y776150D02*
X746855D01*
X745455Y775700D02*
Y776150D01*
X744900Y775700D02*
X745455D01*
X744900Y773300D02*
Y775700D01*
Y773300D02*
X745455D01*
Y772850D02*
Y773300D01*
Y772850D02*
X746855D01*
Y771150D02*
Y772850D01*
X745455Y771150D02*
X746855D01*
X745455Y770700D02*
Y771150D01*
X744900Y770700D02*
X745455D01*
X744900Y768300D02*
Y770700D01*
Y768300D02*
X745455D01*
Y767850D02*
Y768300D01*
Y767850D02*
X746855D01*
X745900Y772850D02*
Y776150D01*
Y767850D02*
Y771150D01*
X746855Y766150D02*
Y767850D01*
X745455Y766150D02*
X746855D01*
X745455Y765700D02*
Y766150D01*
X744900Y765700D02*
X745455D01*
X744900Y763300D02*
Y765700D01*
Y763300D02*
X745455D01*
Y762850D02*
Y763300D01*
Y762850D02*
X746855D01*
Y761150D02*
Y762850D01*
X745455Y761150D02*
X746855D01*
X745455Y760700D02*
Y761150D01*
X744900Y760700D02*
X745455D01*
X744900Y758300D02*
Y760700D01*
Y758300D02*
X745455D01*
Y757850D02*
Y758300D01*
Y757850D02*
X746855D01*
X745900Y762850D02*
Y766150D01*
Y757850D02*
Y761150D01*
X746855Y756150D02*
Y757850D01*
X745455Y756150D02*
X746855D01*
X745455Y755700D02*
Y756150D01*
X744900Y755700D02*
X745455D01*
X744900Y753300D02*
Y755700D01*
Y753300D02*
X745455D01*
Y752850D02*
Y753300D01*
Y752850D02*
X746855D01*
Y751150D02*
Y752850D01*
X745455Y751150D02*
X746855D01*
X745455Y750700D02*
Y751150D01*
X744900Y750700D02*
X745455D01*
X744900Y748300D02*
Y750700D01*
Y748300D02*
X745455D01*
Y747850D02*
Y748300D01*
Y747850D02*
X746855D01*
X745900Y752850D02*
Y756150D01*
Y747850D02*
Y751150D01*
X746855Y746150D02*
Y747850D01*
X745455Y746150D02*
X746855D01*
X745455Y745700D02*
Y746150D01*
X744900Y745700D02*
X745455D01*
X744900Y743300D02*
Y745700D01*
Y743300D02*
X745455D01*
Y742850D02*
Y743300D01*
Y742850D02*
X746855D01*
Y741150D02*
Y742850D01*
X745455Y741150D02*
X746855D01*
X745455Y740700D02*
Y741150D01*
X744900Y740700D02*
X745455D01*
X744900Y738300D02*
Y740700D01*
Y738300D02*
X745455D01*
Y737850D02*
Y738300D01*
Y737850D02*
X746855D01*
X745900Y742850D02*
Y746150D01*
Y737850D02*
Y741150D01*
X746855Y736150D02*
Y737850D01*
X745455Y736150D02*
X746855D01*
X745455Y735700D02*
Y736150D01*
X744900Y735700D02*
X745455D01*
X744900Y733300D02*
Y735700D01*
Y733300D02*
X745455D01*
Y732850D02*
Y733300D01*
Y732850D02*
X746855D01*
Y731150D02*
Y732850D01*
X745455Y731150D02*
X746855D01*
X745455Y730700D02*
Y731150D01*
X744900Y730700D02*
X745455D01*
X744900Y728300D02*
Y730700D01*
Y728300D02*
X745455D01*
Y727850D02*
Y728300D01*
Y727850D02*
X746855D01*
X745900Y732850D02*
Y736150D01*
Y727850D02*
Y731150D01*
X746855Y726150D02*
Y727850D01*
X745455Y726150D02*
X746855D01*
X745455Y725700D02*
Y726150D01*
X744900Y725700D02*
X745455D01*
X744900Y723300D02*
Y725700D01*
Y723300D02*
X745455D01*
Y722850D02*
Y723300D01*
Y722850D02*
X746855D01*
Y721150D02*
Y722850D01*
X745455Y721150D02*
X746855D01*
X745455Y720700D02*
Y721150D01*
X744900Y720700D02*
X745455D01*
X744900Y718300D02*
Y720700D01*
Y718300D02*
X745455D01*
Y717850D02*
Y718300D01*
Y717850D02*
X746855D01*
X745900Y722850D02*
Y726150D01*
Y717850D02*
Y721150D01*
X746855Y716150D02*
Y717850D01*
X745455Y716150D02*
X746855D01*
X745455Y715700D02*
Y716150D01*
X744900Y715700D02*
X745455D01*
X744900Y713300D02*
Y715700D01*
Y713300D02*
X745455D01*
Y712850D02*
Y713300D01*
Y712850D02*
X746855D01*
Y711150D02*
Y712850D01*
X745455Y711150D02*
X746855D01*
X745455Y710700D02*
Y711150D01*
X744900Y710700D02*
X745455D01*
X744900Y708300D02*
Y710700D01*
Y708300D02*
X745455D01*
Y707850D02*
Y708300D01*
Y707850D02*
X746855D01*
X745900Y712850D02*
Y716150D01*
Y707850D02*
Y711150D01*
X746855Y706150D02*
Y707850D01*
X745455Y706150D02*
X746855D01*
X745455Y705700D02*
Y706150D01*
X744900Y705700D02*
X745455D01*
X744900Y703300D02*
Y705700D01*
Y703300D02*
X745455D01*
Y702850D02*
Y703300D01*
Y702850D02*
X746855D01*
Y701150D02*
Y702850D01*
X745455Y701150D02*
X746855D01*
X745455Y700700D02*
Y701150D01*
X744900Y700700D02*
X745455D01*
X744900Y698300D02*
Y700700D01*
Y698300D02*
X745455D01*
Y697850D02*
Y698300D01*
Y697850D02*
X746855D01*
X745900Y702850D02*
Y706150D01*
Y697850D02*
Y701150D01*
X746855Y696150D02*
Y697850D01*
X745455Y696150D02*
X746855D01*
X745455Y695700D02*
Y696150D01*
X744900Y695700D02*
X745455D01*
X744900Y693300D02*
Y695700D01*
Y693300D02*
X745455D01*
Y692850D02*
Y693300D01*
Y692850D02*
X746855D01*
Y691150D02*
Y692850D01*
X745455Y691150D02*
X746855D01*
X745455Y690700D02*
Y691150D01*
X744900Y690700D02*
X745455D01*
X744900Y688300D02*
Y690700D01*
Y688300D02*
X745455D01*
Y687850D02*
Y688300D01*
Y687850D02*
X746855D01*
X745900Y692850D02*
Y696150D01*
Y687850D02*
Y691150D01*
X746855Y686150D02*
Y687850D01*
X745455Y686150D02*
X746855D01*
X745455Y685700D02*
Y686150D01*
X744900Y685700D02*
X745455D01*
X744900Y683300D02*
Y685700D01*
Y683300D02*
X745455D01*
Y682850D02*
Y683300D01*
Y682850D02*
X746855D01*
Y681150D02*
Y682850D01*
X745455Y681150D02*
X746855D01*
X745455Y680700D02*
Y681150D01*
X744900Y680700D02*
X745455D01*
X744900Y678300D02*
Y680700D01*
Y678300D02*
X745455D01*
Y677850D02*
Y678300D01*
Y677850D02*
X746855D01*
X745900Y682850D02*
Y686150D01*
Y677850D02*
Y681150D01*
X746855Y676150D02*
Y677850D01*
X745455Y676150D02*
X746855D01*
X745455Y675700D02*
Y676150D01*
X744900Y675700D02*
X745455D01*
X744900Y673300D02*
Y675700D01*
Y673300D02*
X745455D01*
Y672850D02*
Y673300D01*
Y672850D02*
X746855D01*
Y671150D02*
Y672850D01*
X745455Y671150D02*
X746855D01*
X745455Y670700D02*
Y671150D01*
X744900Y670700D02*
X745455D01*
X744900Y668300D02*
Y670700D01*
Y668300D02*
X745455D01*
Y667850D02*
Y668300D01*
Y667850D02*
X746855D01*
X745900Y672850D02*
Y676150D01*
Y667850D02*
Y671150D01*
X746855Y666150D02*
Y667850D01*
X745455Y666150D02*
X746855D01*
X745455Y665700D02*
Y666150D01*
X744900Y665700D02*
X745455D01*
X744900Y663300D02*
Y665700D01*
Y663300D02*
X745455D01*
Y662850D02*
Y663300D01*
Y662850D02*
X746855D01*
Y661150D02*
Y662850D01*
X745455Y661150D02*
X746855D01*
X745455Y660700D02*
Y661150D01*
X744900Y660700D02*
X745455D01*
X744900Y658300D02*
Y660700D01*
Y658300D02*
X745455D01*
Y657850D02*
Y658300D01*
Y657850D02*
X746855D01*
X745900Y662850D02*
Y666150D01*
Y657850D02*
Y661150D01*
X746855Y656150D02*
Y657850D01*
X745455Y656150D02*
X746855D01*
X745455Y655700D02*
Y656150D01*
X744900Y655700D02*
X745455D01*
X744900Y653300D02*
Y655700D01*
Y653300D02*
X745455D01*
Y652850D02*
Y653300D01*
Y652850D02*
X746855D01*
Y651150D02*
Y652850D01*
X745455Y651150D02*
X746855D01*
X745455Y650700D02*
Y651150D01*
X744900Y650700D02*
X745455D01*
X744900Y648300D02*
Y650700D01*
Y648300D02*
X745455D01*
Y647850D02*
Y648300D01*
Y647850D02*
X746855D01*
X745900Y652850D02*
Y656150D01*
Y647850D02*
Y651150D01*
X746855Y646150D02*
Y647850D01*
X745455Y646150D02*
X746855D01*
X745455Y645700D02*
Y646150D01*
X744900Y645700D02*
X745455D01*
X744900Y643300D02*
Y645700D01*
Y643300D02*
X745455D01*
Y642850D02*
Y643300D01*
Y642850D02*
X746855D01*
Y641150D02*
Y642850D01*
X745455Y641150D02*
X746855D01*
X745455Y640700D02*
Y641150D01*
X744900Y640700D02*
X745455D01*
X744900Y638300D02*
Y640700D01*
Y638300D02*
X745455D01*
Y637850D02*
Y638300D01*
Y637850D02*
X746855D01*
X745900Y642850D02*
Y646150D01*
Y637850D02*
Y641150D01*
X746855Y636150D02*
Y637850D01*
X745455Y636150D02*
X746855D01*
X745455Y635700D02*
Y636150D01*
X744900Y635700D02*
X745455D01*
X744900Y633300D02*
Y635700D01*
Y633300D02*
X745455D01*
Y632850D02*
Y633300D01*
Y632850D02*
X746855D01*
Y631150D02*
Y632850D01*
X745455Y631150D02*
X746855D01*
X745455Y630700D02*
Y631150D01*
X744900Y630700D02*
X745455D01*
X744900Y628300D02*
Y630700D01*
Y628300D02*
X745455D01*
Y627850D02*
Y628300D01*
Y627850D02*
X746855D01*
X745900Y632850D02*
Y636150D01*
Y627850D02*
Y631150D01*
X746855Y626150D02*
Y627850D01*
X745455Y626150D02*
X746855D01*
X745455Y625700D02*
Y626150D01*
X744900Y625700D02*
X745455D01*
X744900Y623300D02*
Y625700D01*
Y623300D02*
X745455D01*
Y622850D02*
Y623300D01*
Y622850D02*
X746855D01*
Y621150D02*
Y622850D01*
X745455Y621150D02*
X746855D01*
X745455Y620700D02*
Y621150D01*
X744900Y620700D02*
X745455D01*
X744900Y618300D02*
Y620700D01*
Y618300D02*
X745455D01*
Y617850D02*
Y618300D01*
Y617850D02*
X746855D01*
X745900Y622850D02*
Y626150D01*
Y617850D02*
Y621150D01*
X746855Y616150D02*
Y617850D01*
X745455Y616150D02*
X746855D01*
X745455Y615700D02*
Y616150D01*
X744900Y615700D02*
X745455D01*
X744900Y613300D02*
Y615700D01*
Y613300D02*
X745455D01*
Y612850D02*
Y613300D01*
Y612850D02*
X746855D01*
Y611150D02*
Y612850D01*
X745455Y611150D02*
X746855D01*
X745455Y610700D02*
Y611150D01*
X744900Y610700D02*
X745455D01*
X744900Y608300D02*
Y610700D01*
Y608300D02*
X745455D01*
Y607850D02*
Y608300D01*
Y607850D02*
X746855D01*
X745900Y612850D02*
Y616150D01*
Y607850D02*
Y611150D01*
X746855Y606150D02*
Y607850D01*
X745455Y606150D02*
X746855D01*
X745455Y605700D02*
Y606150D01*
X744900Y605700D02*
X745455D01*
X744900Y603300D02*
Y605700D01*
Y603300D02*
X745455D01*
Y602850D02*
Y603300D01*
Y602850D02*
X746855D01*
Y601150D02*
Y602850D01*
X745455Y601150D02*
X746855D01*
X745455Y600700D02*
Y601150D01*
X744900Y600700D02*
X745455D01*
X744900Y598300D02*
Y600700D01*
Y598300D02*
X745455D01*
Y597850D02*
Y598300D01*
Y597850D02*
X746855D01*
X745900Y602850D02*
Y606150D01*
Y597850D02*
Y601150D01*
X746855Y596150D02*
Y597850D01*
X745455Y596150D02*
X746855D01*
X745455Y595700D02*
Y596150D01*
X744900Y595700D02*
X745455D01*
X744900Y593300D02*
Y595700D01*
Y593300D02*
X745455D01*
Y592850D02*
Y593300D01*
Y592850D02*
X746855D01*
X745900D02*
Y596150D01*
X746855Y591150D02*
Y592850D01*
X745455Y591150D02*
X746855D01*
X745455Y590700D02*
Y591150D01*
X744900Y590700D02*
X745455D01*
X739100Y585000D02*
X745900D01*
X744900Y586000D02*
X745900Y585000D01*
Y591150D01*
X715900Y585000D02*
Y591150D01*
X749100Y787850D02*
Y794600D01*
X750100Y795600D01*
X749100Y597850D02*
Y601150D01*
Y592850D02*
Y596150D01*
Y584400D02*
Y591150D01*
X750100Y583400D02*
Y590700D01*
Y593300D02*
Y595700D01*
Y598300D02*
Y600700D01*
X749100Y584400D02*
X750100Y583400D01*
X749545Y590700D02*
X750100D01*
X749545D02*
Y591150D01*
X748145D02*
X749545D01*
X748145D02*
Y592850D01*
X749545D01*
Y593300D01*
X750100D01*
Y595700D01*
X749545D02*
X750100D01*
X749545D02*
Y596150D01*
X748145D02*
X749545D01*
X748145D02*
Y597850D01*
X749545D01*
Y598300D01*
X750100D01*
Y600700D01*
X749545D02*
X750100D01*
X749545D02*
Y601150D01*
X748145D02*
X749545D01*
X748145D02*
Y602850D01*
X749100Y584400D02*
Y591150D01*
Y592850D02*
Y596150D01*
Y597850D02*
Y601150D01*
Y607850D02*
Y611150D01*
Y602850D02*
Y606150D01*
X750100Y603300D02*
Y605700D01*
Y608300D02*
Y610700D01*
X748145Y602850D02*
X749545D01*
Y603300D01*
X750100D01*
Y605700D01*
X749545D02*
X750100D01*
X749545D02*
Y606150D01*
X748145D02*
X749545D01*
X748145D02*
Y607850D01*
X749545D01*
Y608300D01*
X750100D01*
Y610700D01*
X749545D02*
X750100D01*
X749545D02*
Y611150D01*
X748145D02*
X749545D01*
X748145D02*
Y612850D01*
X749100Y602850D02*
Y606150D01*
Y607850D02*
Y611150D01*
Y617850D02*
Y621150D01*
Y612850D02*
Y616150D01*
X750100Y613300D02*
Y615700D01*
Y618300D02*
Y620700D01*
X748145Y612850D02*
X749545D01*
Y613300D01*
X750100D01*
Y615700D01*
X749545D02*
X750100D01*
X749545D02*
Y616150D01*
X748145D02*
X749545D01*
X748145D02*
Y617850D01*
X749545D01*
Y618300D01*
X750100D01*
Y620700D01*
X749545D02*
X750100D01*
X749545D02*
Y621150D01*
X748145D02*
X749545D01*
X748145D02*
Y622850D01*
X749100Y612850D02*
Y616150D01*
Y617850D02*
Y621150D01*
Y627850D02*
Y631150D01*
Y622850D02*
Y626150D01*
X750100Y623300D02*
Y625700D01*
Y628300D02*
Y630700D01*
X748145Y622850D02*
X749545D01*
Y623300D01*
X750100D01*
Y625700D01*
X749545D02*
X750100D01*
X749545D02*
Y626150D01*
X748145D02*
X749545D01*
X748145D02*
Y627850D01*
X749545D01*
Y628300D01*
X750100D01*
Y630700D01*
X749545D02*
X750100D01*
X749545D02*
Y631150D01*
X748145D02*
X749545D01*
X748145D02*
Y632850D01*
X749100Y622850D02*
Y626150D01*
Y627850D02*
Y631150D01*
Y637850D02*
Y641150D01*
Y632850D02*
Y636150D01*
X750100Y633300D02*
Y635700D01*
Y638300D02*
Y640700D01*
X748145Y632850D02*
X749545D01*
Y633300D01*
X750100D01*
Y635700D01*
X749545D02*
X750100D01*
X749545D02*
Y636150D01*
X748145D02*
X749545D01*
X748145D02*
Y637850D01*
X749545D01*
Y638300D01*
X750100D01*
Y640700D01*
X749545D02*
X750100D01*
X749545D02*
Y641150D01*
X748145D02*
X749545D01*
X748145D02*
Y642850D01*
X749100Y632850D02*
Y636150D01*
Y637850D02*
Y641150D01*
Y647850D02*
Y651150D01*
Y642850D02*
Y646150D01*
X750100Y643300D02*
Y645700D01*
Y648300D02*
Y650700D01*
X748145Y642850D02*
X749545D01*
Y643300D01*
X750100D01*
Y645700D01*
X749545D02*
X750100D01*
X749545D02*
Y646150D01*
X748145D02*
X749545D01*
X748145D02*
Y647850D01*
X749545D01*
Y648300D01*
X750100D01*
Y650700D01*
X749545D02*
X750100D01*
X749545D02*
Y651150D01*
X748145D02*
X749545D01*
X748145D02*
Y652850D01*
X749100Y642850D02*
Y646150D01*
Y647850D02*
Y651150D01*
Y657850D02*
Y661150D01*
Y652850D02*
Y656150D01*
X750100Y653300D02*
Y655700D01*
Y658300D02*
Y660700D01*
X748145Y652850D02*
X749545D01*
Y653300D01*
X750100D01*
Y655700D01*
X749545D02*
X750100D01*
X749545D02*
Y656150D01*
X748145D02*
X749545D01*
X748145D02*
Y657850D01*
X749545D01*
Y658300D01*
X750100D01*
Y660700D01*
X749545D02*
X750100D01*
X749545D02*
Y661150D01*
X748145D02*
X749545D01*
X748145D02*
Y662850D01*
X749100Y652850D02*
Y656150D01*
Y657850D02*
Y661150D01*
Y667850D02*
Y671150D01*
Y662850D02*
Y666150D01*
X750100Y663300D02*
Y665700D01*
Y668300D02*
Y670700D01*
X748145Y662850D02*
X749545D01*
Y663300D01*
X750100D01*
Y665700D01*
X749545D02*
X750100D01*
X749545D02*
Y666150D01*
X748145D02*
X749545D01*
X748145D02*
Y667850D01*
X749545D01*
Y668300D01*
X750100D01*
Y670700D01*
X749545D02*
X750100D01*
X749545D02*
Y671150D01*
X748145D02*
X749545D01*
X748145D02*
Y672850D01*
X749100Y662850D02*
Y666150D01*
Y667850D02*
Y671150D01*
Y677850D02*
Y681150D01*
Y672850D02*
Y676150D01*
X750100Y673300D02*
Y675700D01*
Y678300D02*
Y680700D01*
X748145Y672850D02*
X749545D01*
Y673300D01*
X750100D01*
Y675700D01*
X749545D02*
X750100D01*
X749545D02*
Y676150D01*
X748145D02*
X749545D01*
X748145D02*
Y677850D01*
X749545D01*
Y678300D01*
X750100D01*
Y680700D01*
X749545D02*
X750100D01*
X749545D02*
Y681150D01*
X748145D02*
X749545D01*
X748145D02*
Y682850D01*
X749100Y672850D02*
Y676150D01*
Y677850D02*
Y681150D01*
Y687850D02*
Y691150D01*
Y682850D02*
Y686150D01*
X750100Y683300D02*
Y685700D01*
Y688300D02*
Y690700D01*
X748145Y682850D02*
X749545D01*
Y683300D01*
X750100D01*
Y685700D01*
X749545D02*
X750100D01*
X749545D02*
Y686150D01*
X748145D02*
X749545D01*
X748145D02*
Y687850D01*
X749545D01*
Y688300D01*
X750100D01*
Y690700D01*
X749545D02*
X750100D01*
X749545D02*
Y691150D01*
X748145D02*
X749545D01*
X748145D02*
Y692850D01*
X749100Y682850D02*
Y686150D01*
Y687850D02*
Y691150D01*
Y697850D02*
Y701150D01*
Y692850D02*
Y696150D01*
X750100Y693300D02*
Y695700D01*
Y698300D02*
Y700700D01*
X748145Y692850D02*
X749545D01*
Y693300D01*
X750100D01*
Y695700D01*
X749545D02*
X750100D01*
X749545D02*
Y696150D01*
X748145D02*
X749545D01*
X748145D02*
Y697850D01*
X749545D01*
Y698300D01*
X750100D01*
Y700700D01*
X749545D02*
X750100D01*
X749545D02*
Y701150D01*
X748145D02*
X749545D01*
X748145D02*
Y702850D01*
X749100Y692850D02*
Y696150D01*
Y697850D02*
Y701150D01*
Y707850D02*
Y711150D01*
Y702850D02*
Y706150D01*
X750100Y703300D02*
Y705700D01*
Y708300D02*
Y710700D01*
X748145Y702850D02*
X749545D01*
Y703300D01*
X750100D01*
Y705700D01*
X749545D02*
X750100D01*
X749545D02*
Y706150D01*
X748145D02*
X749545D01*
X748145D02*
Y707850D01*
X749545D01*
Y708300D01*
X750100D01*
Y710700D01*
X749545D02*
X750100D01*
X749545D02*
Y711150D01*
X748145D02*
X749545D01*
X748145D02*
Y712850D01*
X749100Y702850D02*
Y706150D01*
Y707850D02*
Y711150D01*
Y717850D02*
Y721150D01*
Y712850D02*
Y716150D01*
X750100Y713300D02*
Y715700D01*
Y718300D02*
Y720700D01*
X748145Y712850D02*
X749545D01*
Y713300D01*
X750100D01*
Y715700D01*
X749545D02*
X750100D01*
X749545D02*
Y716150D01*
X748145D02*
X749545D01*
X748145D02*
Y717850D01*
X749545D01*
Y718300D01*
X750100D01*
Y720700D01*
X749545D02*
X750100D01*
X749545D02*
Y721150D01*
X748145D02*
X749545D01*
X748145D02*
Y722850D01*
X749100Y712850D02*
Y716150D01*
Y717850D02*
Y721150D01*
Y727850D02*
Y731150D01*
Y722850D02*
Y726150D01*
X750100Y723300D02*
Y725700D01*
Y728300D02*
Y730700D01*
X748145Y722850D02*
X749545D01*
Y723300D01*
X750100D01*
Y725700D01*
X749545D02*
X750100D01*
X749545D02*
Y726150D01*
X748145D02*
X749545D01*
X748145D02*
Y727850D01*
X749545D01*
Y728300D01*
X750100D01*
Y730700D01*
X749545D02*
X750100D01*
X749545D02*
Y731150D01*
X748145D02*
X749545D01*
X748145D02*
Y732850D01*
X749100Y722850D02*
Y726150D01*
Y727850D02*
Y731150D01*
Y737850D02*
Y741150D01*
Y732850D02*
Y736150D01*
X750100Y733300D02*
Y735700D01*
Y738300D02*
Y740700D01*
X748145Y732850D02*
X749545D01*
Y733300D01*
X750100D01*
Y735700D01*
X749545D02*
X750100D01*
X749545D02*
Y736150D01*
X748145D02*
X749545D01*
X748145D02*
Y737850D01*
X749545D01*
Y738300D01*
X750100D01*
Y740700D01*
X749545D02*
X750100D01*
X749545D02*
Y741150D01*
X748145D02*
X749545D01*
X748145D02*
Y742850D01*
X749100Y732850D02*
Y736150D01*
Y737850D02*
Y741150D01*
Y747850D02*
Y751150D01*
Y742850D02*
Y746150D01*
X750100Y743300D02*
Y745700D01*
Y748300D02*
Y750700D01*
X748145Y742850D02*
X749545D01*
Y743300D01*
X750100D01*
Y745700D01*
X749545D02*
X750100D01*
X749545D02*
Y746150D01*
X748145D02*
X749545D01*
X748145D02*
Y747850D01*
X749545D01*
Y748300D01*
X750100D01*
Y750700D01*
X749545D02*
X750100D01*
X749545D02*
Y751150D01*
X748145D02*
X749545D01*
X748145D02*
Y752850D01*
X749100Y742850D02*
Y746150D01*
Y747850D02*
Y751150D01*
Y757850D02*
Y761150D01*
Y752850D02*
Y756150D01*
X750100Y753300D02*
Y755700D01*
Y758300D02*
Y760700D01*
X748145Y752850D02*
X749545D01*
Y753300D01*
X750100D01*
Y755700D01*
X749545D02*
X750100D01*
X749545D02*
Y756150D01*
X748145D02*
X749545D01*
X748145D02*
Y757850D01*
X749545D01*
Y758300D01*
X750100D01*
Y760700D01*
X749545D02*
X750100D01*
X749545D02*
Y761150D01*
X748145D02*
X749545D01*
X748145D02*
Y762850D01*
X749100Y752850D02*
Y756150D01*
Y757850D02*
Y761150D01*
Y767850D02*
Y771150D01*
Y762850D02*
Y766150D01*
X750100Y763300D02*
Y765700D01*
Y768300D02*
Y770700D01*
X748145Y762850D02*
X749545D01*
Y763300D01*
X750100D01*
Y765700D01*
X749545D02*
X750100D01*
X749545D02*
Y766150D01*
X748145D02*
X749545D01*
X748145D02*
Y767850D01*
X749545D01*
Y768300D01*
X750100D01*
Y770700D01*
X749545D02*
X750100D01*
X749545D02*
Y771150D01*
X748145D02*
X749545D01*
X748145D02*
Y772850D01*
X749100Y762850D02*
Y766150D01*
Y767850D02*
Y771150D01*
Y777850D02*
Y781150D01*
Y772850D02*
Y776150D01*
X750100Y773300D02*
Y775700D01*
Y778300D02*
Y780700D01*
X748145Y772850D02*
X749545D01*
Y773300D01*
X750100D01*
Y775700D01*
X749545D02*
X750100D01*
X749545D02*
Y776150D01*
X748145D02*
X749545D01*
X748145D02*
Y777850D01*
X749545D01*
Y778300D01*
X750100D01*
Y780700D01*
X749545D02*
X750100D01*
X749545D02*
Y781150D01*
X748145D02*
X749545D01*
X748145D02*
Y782850D01*
X749100Y772850D02*
Y776150D01*
Y777850D02*
Y781150D01*
Y782850D02*
Y786150D01*
X750100Y783300D02*
Y785700D01*
X748145Y782850D02*
X749545D01*
Y783300D01*
X750100D01*
Y785700D01*
X749545D02*
X750100D01*
X749545D02*
Y786150D01*
X748145D02*
X749545D01*
X748145D02*
Y787850D01*
X749100Y782850D02*
Y786150D01*
X748145Y787850D02*
X749545D01*
Y788300D01*
X750100D01*
Y795600D01*
M02*
