G04 Layer_Color=32896*
%FSLAX25Y25*%
%MOIN*%
G70*
G01*
G75*
%ADD10C,0.00500*%
%ADD53C,0.01000*%
%ADD63C,0.00787*%
%ADD64C,0.00787*%
%ADD106C,0.00600*%
D10*
X549170Y720700D02*
X555670D01*
X549170Y717700D02*
Y720700D01*
Y717700D02*
X555670D01*
Y720700D01*
X542000Y799000D02*
X548500D01*
Y802000D01*
X542000D02*
X548500D01*
X542000Y799000D02*
Y802000D01*
X549500Y799000D02*
X556000D01*
Y802000D01*
X549500D02*
X556000D01*
X549500Y799000D02*
Y802000D01*
X558950Y720900D02*
X565450D01*
X558950Y717900D02*
Y720900D01*
Y717900D02*
X565450D01*
Y720900D01*
X676117Y690301D02*
Y702899D01*
X653283Y690301D02*
X676117D01*
X653283D02*
Y702899D01*
X676117D01*
X681100Y725050D02*
Y731550D01*
Y725050D02*
X684100D01*
Y731550D01*
X681100D02*
X684100D01*
X681100Y732850D02*
Y739350D01*
Y732850D02*
X684100D01*
Y739350D01*
X681100D02*
X684100D01*
X691779Y744901D02*
Y757499D01*
X668944Y744901D02*
X691779D01*
X668944D02*
Y757499D01*
X691779D01*
X571066Y803433D02*
X571399Y803100D01*
Y802433D01*
X571066Y802100D01*
X569733D01*
X569400Y802433D01*
Y803100D01*
X569733Y803433D01*
X569400Y804099D02*
Y804766D01*
Y804433D01*
X571399D01*
X571066Y804099D01*
X571133Y812233D02*
X571466Y811900D01*
Y811233D01*
X571133Y810900D01*
X569800D01*
X569467Y811233D01*
Y811900D01*
X569800Y812233D01*
X569467Y814232D02*
Y812899D01*
X570799Y814232D01*
X571133D01*
X571466Y813899D01*
Y813233D01*
X571133Y812899D01*
X603867Y821766D02*
X604200Y822099D01*
X604867D01*
X605200Y821766D01*
Y820433D01*
X604867Y820100D01*
X604200D01*
X603867Y820433D01*
X603201Y822099D02*
X601868D01*
Y821766D01*
X603201Y820433D01*
Y820100D01*
X573967Y757466D02*
X574300Y757799D01*
X574967D01*
X575300Y757466D01*
Y756133D01*
X574967Y755800D01*
X574300D01*
X573967Y756133D01*
X573301Y755800D02*
X572634D01*
X572967D01*
Y757799D01*
X573301Y757466D01*
X571634Y757799D02*
X570302D01*
Y757466D01*
X571634Y756133D01*
Y755800D01*
X684667Y711466D02*
X685000Y711799D01*
X685667D01*
X686000Y711466D01*
Y710133D01*
X685667Y709800D01*
X685000D01*
X684667Y710133D01*
X682668Y709800D02*
X684001D01*
X682668Y711133D01*
Y711466D01*
X683001Y711799D01*
X683667D01*
X684001Y711466D01*
X682001Y709800D02*
X681335D01*
X681668D01*
Y711799D01*
X682001Y711466D01*
X681467Y701839D02*
X681800Y702173D01*
X682467D01*
X682800Y701839D01*
Y700506D01*
X682467Y700173D01*
X681800D01*
X681467Y700506D01*
X679468Y700173D02*
X680801D01*
X679468Y701506D01*
Y701839D01*
X679801Y702173D01*
X680467D01*
X680801Y701839D01*
X677468Y700173D02*
X678801D01*
X677468Y701506D01*
Y701839D01*
X677802Y702173D01*
X678468D01*
X678801Y701839D01*
X689567Y678666D02*
X689900Y678999D01*
X690567D01*
X690900Y678666D01*
Y677333D01*
X690567Y677000D01*
X689900D01*
X689567Y677333D01*
X687568Y677000D02*
X688901D01*
X687568Y678333D01*
Y678666D01*
X687901Y678999D01*
X688567D01*
X688901Y678666D01*
X686901D02*
X686568Y678999D01*
X685902D01*
X685568Y678666D01*
Y678333D01*
X685902Y678000D01*
X686235D01*
X685902D01*
X685568Y677666D01*
Y677333D01*
X685902Y677000D01*
X686568D01*
X686901Y677333D01*
X679767Y760566D02*
X680100Y760899D01*
X680767D01*
X681100Y760566D01*
Y759233D01*
X680767Y758900D01*
X680100D01*
X679767Y759233D01*
X677768Y758900D02*
X679101D01*
X677768Y760233D01*
Y760566D01*
X678101Y760899D01*
X678767D01*
X679101Y760566D01*
X676102Y758900D02*
Y760899D01*
X677101Y759900D01*
X675768D01*
X510166Y758033D02*
X510499Y757700D01*
Y757033D01*
X510166Y756700D01*
X508833D01*
X508500Y757033D01*
Y757700D01*
X508833Y758033D01*
X508500Y760032D02*
Y758699D01*
X509833Y760032D01*
X510166D01*
X510499Y759699D01*
Y759033D01*
X510166Y758699D01*
Y760699D02*
X510499Y761032D01*
Y761698D01*
X510166Y762032D01*
X509833D01*
X509500Y761698D01*
X509166Y762032D01*
X508833D01*
X508500Y761698D01*
Y761032D01*
X508833Y760699D01*
X509166D01*
X509500Y761032D01*
X509833Y760699D01*
X510166D01*
X509500Y761032D02*
Y761698D01*
X509766Y769333D02*
X510099Y769000D01*
Y768333D01*
X509766Y768000D01*
X508433D01*
X508100Y768333D01*
Y769000D01*
X508433Y769333D01*
X508100Y771332D02*
Y769999D01*
X509433Y771332D01*
X509766D01*
X510099Y770999D01*
Y770333D01*
X509766Y769999D01*
X508433Y771999D02*
X508100Y772332D01*
Y772998D01*
X508433Y773332D01*
X509766D01*
X510099Y772998D01*
Y772332D01*
X509766Y771999D01*
X509433D01*
X509100Y772332D01*
Y773332D01*
X519467Y719166D02*
X519800Y719499D01*
X520467D01*
X520800Y719166D01*
Y717833D01*
X520467Y717500D01*
X519800D01*
X519467Y717833D01*
X518801Y719166D02*
X518467Y719499D01*
X517801D01*
X517468Y719166D01*
Y718833D01*
X517801Y718500D01*
X518134D01*
X517801D01*
X517468Y718166D01*
Y717833D01*
X517801Y717500D01*
X518467D01*
X518801Y717833D01*
X516801Y719166D02*
X516468Y719499D01*
X515802D01*
X515468Y719166D01*
Y717833D01*
X515802Y717500D01*
X516468D01*
X516801Y717833D01*
Y719166D01*
X517167Y736566D02*
X517500Y736899D01*
X518167D01*
X518500Y736566D01*
Y735233D01*
X518167Y734900D01*
X517500D01*
X517167Y735233D01*
X516501Y736566D02*
X516167Y736899D01*
X515501D01*
X515168Y736566D01*
Y736233D01*
X515501Y735900D01*
X515834D01*
X515501D01*
X515168Y735566D01*
Y735233D01*
X515501Y734900D01*
X516167D01*
X516501Y735233D01*
X514501Y734900D02*
X513835D01*
X514168D01*
Y736899D01*
X514501Y736566D01*
X572567Y636566D02*
X572900Y636899D01*
X573567D01*
X573900Y636566D01*
Y635233D01*
X573567Y634900D01*
X572900D01*
X572567Y635233D01*
X570901Y634900D02*
Y636899D01*
X571901Y635900D01*
X570568D01*
X569901Y636899D02*
X568568D01*
Y636566D01*
X569901Y635233D01*
Y634900D01*
X525167Y810999D02*
X526500D01*
Y810000D01*
X525834D01*
X526500D01*
Y809000D01*
X524501Y810999D02*
X523834D01*
X524167D01*
Y809000D01*
X524501D01*
X523834D01*
X522834Y810999D02*
Y809000D01*
X521835D01*
X521502Y809333D01*
Y810666D01*
X521835Y810999D01*
X522834D01*
X520835Y809000D02*
X520169D01*
X520502D01*
Y810999D01*
X520835Y810666D01*
X767767Y814999D02*
X769100D01*
Y814000D01*
X768434D01*
X769100D01*
Y813000D01*
X767101Y814999D02*
X766434D01*
X766767D01*
Y813000D01*
X767101D01*
X766434D01*
X765435Y814999D02*
Y813000D01*
X764435D01*
X764102Y813333D01*
Y814666D01*
X764435Y814999D01*
X765435D01*
X762102Y813000D02*
X763435D01*
X762102Y814333D01*
Y814666D01*
X762435Y814999D01*
X763102D01*
X763435Y814666D01*
X545367Y573699D02*
X546700D01*
Y572700D01*
X546034D01*
X546700D01*
Y571700D01*
X544701Y573699D02*
X544034D01*
X544367D01*
Y571700D01*
X544701D01*
X544034D01*
X543035Y573699D02*
Y571700D01*
X542035D01*
X541702Y572033D01*
Y573366D01*
X542035Y573699D01*
X543035D01*
X541035Y573366D02*
X540702Y573699D01*
X540035D01*
X539702Y573366D01*
Y573033D01*
X540035Y572700D01*
X540369D01*
X540035D01*
X539702Y572366D01*
Y572033D01*
X540035Y571700D01*
X540702D01*
X541035Y572033D01*
X530300Y780399D02*
Y778400D01*
X528967D01*
X526968Y780399D02*
X528301D01*
Y779400D01*
X527634Y779733D01*
X527301D01*
X526968Y779400D01*
Y778733D01*
X527301Y778400D01*
X527967D01*
X528301Y778733D01*
X531400Y736299D02*
Y734300D01*
X530067D01*
X528068Y736299D02*
X528734Y735966D01*
X529401Y735300D01*
Y734633D01*
X529067Y734300D01*
X528401D01*
X528068Y734633D01*
Y734966D01*
X528401Y735300D01*
X529401D01*
X540987Y796700D02*
Y798699D01*
X539987D01*
X539654Y798366D01*
Y797700D01*
X539987Y797366D01*
X540987D01*
X540320D02*
X539654Y796700D01*
X537988D02*
Y798699D01*
X538987Y797700D01*
X537654D01*
X536700Y796700D02*
Y798699D01*
X535700D01*
X535367Y798366D01*
Y797700D01*
X535700Y797366D01*
X536700D01*
X536034D02*
X535367Y796700D01*
X533368Y798699D02*
X534034Y798366D01*
X534701Y797700D01*
Y797033D01*
X534367Y796700D01*
X533701D01*
X533368Y797033D01*
Y797366D01*
X533701Y797700D01*
X534701D01*
X547300Y718831D02*
Y720830D01*
X546300D01*
X545967Y720497D01*
Y719830D01*
X546300Y719497D01*
X547300D01*
X546634D02*
X545967Y718831D01*
X545301Y720830D02*
X543968D01*
Y720497D01*
X545301Y719164D01*
Y718831D01*
X569800Y718300D02*
Y720299D01*
X568800D01*
X568467Y719966D01*
Y719300D01*
X568800Y718966D01*
X569800D01*
X569134D02*
X568467Y718300D01*
X567801Y718633D02*
X567467Y718300D01*
X566801D01*
X566468Y718633D01*
Y719966D01*
X566801Y720299D01*
X567467D01*
X567801Y719966D01*
Y719633D01*
X567467Y719300D01*
X566468D01*
X685100Y726100D02*
X687099D01*
Y727100D01*
X686766Y727433D01*
X686100D01*
X685766Y727100D01*
Y726100D01*
Y726766D02*
X685100Y727433D01*
Y728099D02*
Y728766D01*
Y728433D01*
X687099D01*
X686766Y728099D01*
Y729766D02*
X687099Y730099D01*
Y730765D01*
X686766Y731098D01*
X685433D01*
X685100Y730765D01*
Y730099D01*
X685433Y729766D01*
X686766D01*
X685100Y732800D02*
X687099D01*
Y733800D01*
X686766Y734133D01*
X686100D01*
X685766Y733800D01*
Y732800D01*
Y733466D02*
X685100Y734133D01*
Y734799D02*
Y735466D01*
Y735133D01*
X687099D01*
X686766Y734799D01*
X685100Y736466D02*
Y737132D01*
Y736799D01*
X687099D01*
X686766Y736466D01*
X614895Y822799D02*
Y821133D01*
X614562Y820800D01*
X613896D01*
X613562Y821133D01*
Y822799D01*
X612896Y820800D02*
X612229D01*
X612563D01*
Y822799D01*
X612896Y822466D01*
X573400Y765899D02*
Y764233D01*
X573067Y763900D01*
X572400D01*
X572067Y764233D01*
Y765899D01*
X570068Y763900D02*
X571401D01*
X570068Y765233D01*
Y765566D01*
X570401Y765899D01*
X571067D01*
X571401Y765566D01*
X541050Y757899D02*
Y756233D01*
X540717Y755900D01*
X540050D01*
X539717Y756233D01*
Y757899D01*
X538051Y755900D02*
Y757899D01*
X539051Y756900D01*
X537718D01*
X662700Y753699D02*
Y752033D01*
X662367Y751700D01*
X661700D01*
X661367Y752033D01*
Y753699D01*
X659368Y751700D02*
X660701D01*
X659368Y753033D01*
Y753366D01*
X659701Y753699D01*
X660367D01*
X660701Y753366D01*
X657368Y753699D02*
X658701D01*
Y752700D01*
X658035Y753033D01*
X657702D01*
X657368Y752700D01*
Y752033D01*
X657702Y751700D01*
X658368D01*
X658701Y752033D01*
X537467Y763966D02*
X537800Y764299D01*
X538467D01*
X538800Y763966D01*
Y762633D01*
X538467Y762300D01*
X537800D01*
X537467Y762633D01*
X536801Y763966D02*
X536467Y764299D01*
X535801D01*
X535468Y763966D01*
Y763633D01*
X535801Y763300D01*
X535468Y762966D01*
Y762633D01*
X535801Y762300D01*
X536467D01*
X536801Y762633D01*
Y762966D01*
X536467Y763300D01*
X536801Y763633D01*
Y763966D01*
X536467Y763300D02*
X535801D01*
X538067Y811266D02*
X538400Y811599D01*
X539067D01*
X539400Y811266D01*
Y809933D01*
X539067Y809600D01*
X538400D01*
X538067Y809933D01*
X537401D02*
X537067Y809600D01*
X536401D01*
X536068Y809933D01*
Y811266D01*
X536401Y811599D01*
X537067D01*
X537401Y811266D01*
Y810933D01*
X537067Y810600D01*
X536068D01*
X581867Y758266D02*
X582200Y758599D01*
X582867D01*
X583200Y758266D01*
Y756933D01*
X582867Y756600D01*
X582200D01*
X581867Y756933D01*
X581201Y756600D02*
X580534D01*
X580867D01*
Y758599D01*
X581201Y758266D01*
X578202Y756600D02*
X579534D01*
X578202Y757933D01*
Y758266D01*
X578535Y758599D01*
X579201D01*
X579534Y758266D01*
X538667Y735766D02*
X539000Y736099D01*
X539667D01*
X540000Y735766D01*
Y734433D01*
X539667Y734100D01*
X539000D01*
X538667Y734433D01*
X538001Y734100D02*
X537334D01*
X537667D01*
Y736099D01*
X538001Y735766D01*
X536335D02*
X536001Y736099D01*
X535335D01*
X535002Y735766D01*
Y735433D01*
X535335Y735100D01*
X535002Y734766D01*
Y734433D01*
X535335Y734100D01*
X536001D01*
X536335Y734433D01*
Y734766D01*
X536001Y735100D01*
X536335Y735433D01*
Y735766D01*
X536001Y735100D02*
X535335D01*
X552867Y708366D02*
X553200Y708699D01*
X553867D01*
X554200Y708366D01*
Y707033D01*
X553867Y706700D01*
X553200D01*
X552867Y707033D01*
X552201Y706700D02*
X551534D01*
X551867D01*
Y708699D01*
X552201Y708366D01*
X550534Y707033D02*
X550201Y706700D01*
X549535D01*
X549202Y707033D01*
Y708366D01*
X549535Y708699D01*
X550201D01*
X550534Y708366D01*
Y708033D01*
X550201Y707700D01*
X549202D01*
X693767Y710366D02*
X694100Y710699D01*
X694767D01*
X695100Y710366D01*
Y709033D01*
X694767Y708700D01*
X694100D01*
X693767Y709033D01*
X691768Y708700D02*
X693101D01*
X691768Y710033D01*
Y710366D01*
X692101Y710699D01*
X692767D01*
X693101Y710366D01*
X691101D02*
X690768Y710699D01*
X690102D01*
X689768Y710366D01*
Y709033D01*
X690102Y708700D01*
X690768D01*
X691101Y709033D01*
Y710366D01*
X682803Y562418D02*
Y560752D01*
X682470Y560419D01*
X681803D01*
X681470Y560752D01*
Y562418D01*
X680803Y562085D02*
X680470Y562418D01*
X679804D01*
X679470Y562085D01*
Y561752D01*
X679804Y561419D01*
X680137D01*
X679804D01*
X679470Y561085D01*
Y560752D01*
X679804Y560419D01*
X680470D01*
X680803Y560752D01*
X621638Y612666D02*
X621971Y612999D01*
X622638D01*
X622971Y612666D01*
Y611333D01*
X622638Y611000D01*
X621971D01*
X621638Y611333D01*
X620971Y611000D02*
X620305D01*
X620638D01*
Y612999D01*
X620971Y612666D01*
X619305D02*
X618972Y612999D01*
X618306D01*
X617973Y612666D01*
Y611333D01*
X618306Y611000D01*
X618972D01*
X619305Y611333D01*
Y612666D01*
D53*
X617000Y773122D02*
Y822622D01*
X691500D01*
Y773122D02*
Y822622D01*
X617000Y773122D02*
X691500D01*
X533700Y765450D02*
Y778550D01*
Y765450D02*
X541300D01*
Y778550D01*
X533700D02*
X541300D01*
X543000Y797500D02*
X568500D01*
X567500D02*
X568500D01*
X567500D02*
X568500D01*
Y762500D02*
Y797500D01*
X543000Y762500D02*
X568500D01*
X543000D02*
Y797500D01*
Y775500D02*
X568500D01*
Y784500D01*
X543000D02*
X568500D01*
X541050Y804000D02*
X554150D01*
Y811600D01*
X541050D02*
X554150D01*
X541050Y804000D02*
Y811600D01*
X526000Y777100D02*
X532000D01*
Y765800D02*
Y777100D01*
X526000Y765800D02*
X532000D01*
X526000D02*
Y777100D01*
X543000Y723500D02*
X568500D01*
X543000D02*
X544000D01*
X543000D02*
X544000D01*
X543000D02*
Y758500D01*
X568500D01*
Y723500D02*
Y758500D01*
X543000Y745500D02*
X568500D01*
X543000Y736500D02*
Y745500D01*
Y736500D02*
X568500D01*
X584900Y742100D02*
Y755200D01*
X577300D02*
X584900D01*
X577300Y742100D02*
Y755200D01*
Y742100D02*
X584900D01*
X545300Y709716D02*
X558400D01*
Y717316D01*
X545300D02*
X558400D01*
X545300Y709716D02*
Y717316D01*
X541300Y719950D02*
Y733050D01*
X533700D02*
X541300D01*
X533700Y719950D02*
Y733050D01*
Y719950D02*
X541300D01*
X526500Y721300D02*
X532500D01*
X526500D02*
Y732600D01*
X532500D01*
Y721300D02*
Y732600D01*
X569400Y620500D02*
X577000D01*
X569400D02*
Y633600D01*
X577000D01*
Y620500D02*
Y633600D01*
X689200Y712200D02*
Y725300D01*
Y712200D02*
X696800D01*
Y725300D01*
X689200D02*
X696800D01*
X615600Y705500D02*
Y750500D01*
Y705500D02*
X662600D01*
Y714000D01*
X679100D01*
Y742000D01*
X662600D02*
X679100D01*
X662600D02*
Y750500D01*
X615600D02*
X662600D01*
D63*
X573913Y816362D02*
Y825122D01*
X569681Y820693D02*
X578146D01*
X580409Y818232D02*
X587102D01*
X572634Y810457D02*
X580311Y818134D01*
X572634Y778075D02*
Y810457D01*
X572732Y778075D02*
X586905D01*
X599898Y818134D02*
X606591D01*
X614268Y810457D01*
Y778075D02*
Y810457D01*
X600095Y778075D02*
X614268D01*
X645213Y680734D02*
Y689494D01*
X640981Y685065D02*
X649446D01*
X651710Y682604D02*
X658402D01*
X643934Y674829D02*
X651611Y682506D01*
X643934Y642447D02*
Y674829D01*
X644032Y642447D02*
X658206D01*
X671198Y682506D02*
X677890D01*
X685568Y674829D01*
Y642447D02*
Y674829D01*
X671394Y642447D02*
X685568D01*
X569578Y573013D02*
X578338D01*
X574007Y568781D02*
Y577246D01*
X576468Y579509D02*
Y586202D01*
X576566Y579411D02*
X584243Y571734D01*
X616625D01*
X616625Y571832D02*
Y586005D01*
X576566Y598998D02*
Y605690D01*
X584243Y613368D01*
X616625D01*
Y599194D02*
Y613368D01*
D64*
X556850Y806500D02*
X568150D01*
Y812500D01*
X556850D02*
X568150D01*
X556850Y806500D02*
Y812500D01*
Y799000D02*
X568150D01*
Y805000D01*
X556850D02*
X568150D01*
X556850Y799000D02*
Y805000D01*
X511350Y773000D02*
X522650D01*
X511350Y767000D02*
Y773000D01*
Y767000D02*
X522650D01*
Y773000D01*
X511400Y766000D02*
X522700D01*
X511400Y760000D02*
Y766000D01*
Y760000D02*
X522700D01*
Y766000D01*
X575900Y743300D02*
Y754600D01*
X569900D02*
X575900D01*
X569900Y743300D02*
Y754600D01*
Y743300D02*
X575900D01*
X511050Y727900D02*
X522350D01*
Y733900D01*
X511050D02*
X522350D01*
X511050Y727900D02*
Y733900D01*
X512739Y721000D02*
X524039D01*
Y727000D01*
X512739D02*
X524039D01*
X512739Y721000D02*
Y727000D01*
X681000Y712850D02*
Y724150D01*
Y712850D02*
X687000D01*
Y724150D01*
X681000D02*
X687000D01*
D106*
X668700Y705600D02*
X671700D01*
X670200Y704100D02*
Y707100D01*
X684361Y760200D02*
X687361D01*
X685861Y758700D02*
Y761700D01*
M02*
