G04 Layer_Physical_Order=8*
G04 Layer_Color=16711935*
%FSLAX25Y25*%
%MOIN*%
G70*
G01*
G75*
%ADD10C,0.00500*%
%ADD11C,0.00400*%
%ADD39C,0.03937*%
%ADD40C,0.08000*%
%ADD43C,0.02000*%
D10*
X683700Y645192D02*
X688192D01*
X712500Y669500D01*
X684061Y648395D02*
X706817Y671150D01*
X713183D02*
X714150Y670183D01*
Y666250D02*
Y670183D01*
X712600Y664700D02*
X714150Y666250D01*
X747300Y646967D02*
Y649300D01*
X650450Y595750D02*
X681000Y626300D01*
X592871Y606570D02*
X592900Y606600D01*
X726933Y636600D02*
X747300Y656967D01*
Y659300D01*
X703654Y638321D02*
X719250Y653917D01*
X717600Y659300D02*
X719250Y657650D01*
Y653917D02*
Y657650D01*
X696100Y640767D02*
X717700Y662367D01*
Y664700D01*
X654541Y638321D02*
X703654D01*
X652800Y636600D02*
X726933D01*
X706817Y671150D02*
X713183D01*
X656439Y640767D02*
X696100D01*
X593484Y595750D02*
X650450D01*
X587000Y602421D02*
X591150Y606570D01*
X592871D01*
X587000Y599689D02*
Y602421D01*
X590413Y598821D02*
X593484Y595750D01*
X590413Y598821D02*
Y603500D01*
X588650Y599311D02*
Y601300D01*
X646998Y580400D02*
X680733D01*
X747300Y646967D01*
X587000Y599689D02*
X611789Y574900D01*
X641498D01*
X646998Y580400D01*
X683700Y623000D02*
Y631087D01*
X588650Y599311D02*
X612062Y575900D01*
X636600D01*
X683700Y623000D01*
D11*
X690615Y717100D02*
G03*
X691365Y717850I0J750D01*
G01*
X692865D02*
G03*
X691365Y717850I-750J0D01*
G01*
X692865D02*
G03*
X693615Y717100I750J0D01*
G01*
X693885Y718850D02*
G03*
X693135Y719600I-750J0D01*
G01*
X693885Y718850D02*
G03*
X695385Y718850I750J0D01*
G01*
X696135Y719600D02*
G03*
X695385Y718850I0J-750D01*
G01*
X628242Y664150D02*
G03*
X627492Y664900I-750J0D01*
G01*
X628242Y664150D02*
G03*
X629742Y664150I750J0D01*
G01*
X630492Y664900D02*
G03*
X629742Y664150I0J-750D01*
G01*
X692857Y702600D02*
G03*
X693607Y703350I0J750D01*
G01*
X695107D02*
G03*
X693607Y703350I-750J0D01*
G01*
X695107D02*
G03*
X695857Y702600I750J0D01*
G01*
X626254Y661400D02*
G03*
X627004Y662150I0J750D01*
G01*
X628504D02*
G03*
X627004Y662150I-750J0D01*
G01*
X628504D02*
G03*
X629254Y661400I750J0D01*
G01*
X694187Y700450D02*
G03*
X693437Y701200I-750J0D01*
G01*
X694187Y700450D02*
G03*
X695687Y700450I750J0D01*
G01*
X696437Y701200D02*
G03*
X695687Y700450I0J-750D01*
G01*
X700543Y697600D02*
G03*
X701293Y698350I0J750D01*
G01*
X702793D02*
G03*
X701293Y698350I-750J0D01*
G01*
X702793D02*
G03*
X703543Y697600I750J0D01*
G01*
X625200Y641574D02*
G03*
X625950Y642324I0J750D01*
G01*
X627450D02*
G03*
X625950Y642324I-750J0D01*
G01*
X627450D02*
G03*
X628200Y641574I750J0D01*
G01*
X624845Y639300D02*
G03*
X625595Y640050I0J750D01*
G01*
X627095D02*
G03*
X625595Y640050I-750J0D01*
G01*
X627095D02*
G03*
X627845Y639300I750J0D01*
G01*
X701873Y695450D02*
G03*
X701123Y696200I-750J0D01*
G01*
X701873Y695450D02*
G03*
X703373Y695450I750J0D01*
G01*
X704123Y696200D02*
G03*
X703373Y695450I0J-750D01*
G01*
X613087Y672950D02*
G03*
X614587Y672950I750J0D01*
G01*
X613087D02*
G03*
X612337Y673700I-750J0D01*
G01*
X615337D02*
G03*
X614587Y672950I0J-750D01*
G01*
X691024Y722600D02*
G03*
X691774Y723350I0J750D01*
G01*
X693274D02*
G03*
X691774Y723350I-750J0D01*
G01*
X693274D02*
G03*
X694024Y722600I750J0D01*
G01*
X644017Y641574D02*
X700043Y697600D01*
X710399Y763600D02*
X710999Y763000D01*
X556334Y631250D02*
X557134Y630450D01*
X744200Y763937D02*
Y766008D01*
X726050Y763000D02*
X726150Y763100D01*
X743263Y763000D02*
X744200Y763937D01*
X731837Y763100D02*
X731937Y763000D01*
X747366Y768000D02*
X747600Y768234D01*
X577100Y652550D02*
X600950Y676400D01*
X744200Y766008D02*
X746192Y768000D01*
X747366D01*
X747600Y768234D02*
Y769600D01*
X727300Y714600D02*
Y717163D01*
X577100Y649987D02*
Y652550D01*
X558350Y628550D02*
X579000Y649200D01*
X690400Y746563D02*
X705537Y761700D01*
X720672Y761100D02*
X726837D01*
X557134Y630450D02*
X557563D01*
X577100Y649987D01*
X556334Y627750D02*
X557134Y628550D01*
X556100Y627750D02*
X556334D01*
X579000Y651763D02*
X601737Y674500D01*
X579000Y649200D02*
Y651763D01*
X726937Y761200D02*
X744008D01*
X746937Y766200D02*
X747366D01*
X744008Y761200D02*
X746000Y763192D01*
X747366Y766200D02*
X747600Y765966D01*
Y764600D02*
Y765966D01*
X726837Y761100D02*
X726937Y761200D01*
X716550D02*
X720572D01*
X746000Y765263D02*
X746937Y766200D01*
X716450Y761100D02*
X716550Y761200D01*
X746000Y763192D02*
Y765263D01*
X627063Y676400D02*
X688500Y737837D01*
X556100Y631250D02*
X556334D01*
X688500Y747350D02*
X704750Y763600D01*
X557134Y628550D02*
X558350D01*
X627850Y674500D02*
X690400Y737050D01*
X723263Y721200D02*
X727300Y717163D01*
X599037Y660900D02*
X611837Y673700D01*
X642204Y672300D02*
X691104Y721200D01*
X617200Y671500D02*
X642535D01*
X719700Y717100D02*
X722300Y714500D01*
X602843Y654306D02*
X618637Y670100D01*
X606271Y654706D02*
X620865Y669300D01*
X605200Y654400D02*
X605506Y654706D01*
X644026Y667900D02*
X687526Y711400D01*
X642535Y671500D02*
X690635Y719600D01*
X601300Y654000D02*
X601606Y654306D01*
X644937Y665700D02*
X685637Y706400D01*
X737366D01*
X622444Y665700D02*
X644937D01*
X608800Y654036D02*
X621865Y667100D01*
X687526Y711400D02*
X732366D01*
X612700Y650400D02*
Y650608D01*
X615554Y651200D02*
X625754Y661400D01*
X601606Y654306D02*
X602843D01*
X599037Y659337D02*
Y660900D01*
X603084Y657384D02*
X617200Y671500D01*
X643115Y670100D02*
X690115Y717100D01*
X618637Y670100D02*
X643115D01*
X686946Y712800D02*
X732366D01*
X621445Y667900D02*
X644026D01*
X644357Y667100D02*
X685057Y707800D01*
X621865Y667100D02*
X644357D01*
X610510Y652590D02*
Y653766D01*
X623219Y639174D02*
X623345Y639300D01*
X643723D02*
X700623Y696200D01*
X700585Y692800D02*
X737366D01*
X608800Y650300D02*
Y654036D01*
X726150Y763100D02*
X731837D01*
X721459Y763000D02*
X726050D01*
X599240Y656000D02*
X615540Y672300D01*
X620865Y669300D02*
X643446D01*
X607108Y652797D02*
X607414Y653103D01*
X615540Y672300D02*
X642204D01*
X641624Y673700D02*
X690524Y722600D01*
X691104Y721200D02*
X723263D01*
X724600Y722600D02*
X727600Y719600D01*
X599000Y659300D02*
X599037Y659337D01*
X721000Y696200D02*
X722600Y694600D01*
X612700Y650608D02*
X626992Y664900D01*
X720600Y697600D02*
X722600Y699600D01*
X701165Y691400D02*
X737366D01*
X625139Y637431D02*
X625971Y636600D01*
X644965Y635200D02*
X701165Y691400D01*
X625971Y636600D02*
X644385D01*
X654657Y664900D02*
X692357Y702600D01*
X725600D02*
X727600Y704600D01*
X726000Y701200D02*
X727600Y699600D01*
X653137Y661400D02*
X692937Y701200D01*
X690115Y717100D02*
X690615D01*
X693615D02*
X719700D01*
X690635Y719600D02*
X693135D01*
X696135D02*
X722600D01*
X605506Y654706D02*
X606271D01*
X643446Y669300D02*
X686946Y712800D01*
X607414Y653869D02*
X621445Y667900D01*
X607414Y653103D02*
Y653869D01*
X685057Y707800D02*
X737366D01*
X737600Y708034D01*
X610510Y652590D02*
X610700Y652400D01*
X610510Y653766D02*
X622444Y665700D01*
X626992Y664900D02*
X627492D01*
X630492D02*
X654657D01*
X692357Y702600D02*
X692857D01*
X695857D02*
X725600D01*
X625754Y661400D02*
X626254D01*
X629254D02*
X653137D01*
X692937Y701200D02*
X693437D01*
X696437D02*
X726000D01*
X700043Y697600D02*
X700543D01*
X703543D02*
X720600D01*
X623700Y641574D02*
X625200D01*
X628200D02*
X644017D01*
X623345Y639300D02*
X624845D01*
X627845D02*
X643723D01*
X700623Y696200D02*
X701123D01*
X704123D02*
X721000D01*
X625139Y637431D02*
Y637700D01*
X644385Y636600D02*
X700585Y692800D01*
X624006Y635362D02*
X625229D01*
X625391Y635200D02*
X644965D01*
X623700Y635669D02*
X624006Y635362D01*
X625229D02*
X625391Y635200D01*
X710999Y763000D02*
X715663D01*
X715763Y763100D01*
X721359D01*
X721459Y763000D01*
X704750Y763600D02*
X710399D01*
X600950Y676400D02*
X627063D01*
X688500Y737837D02*
Y747350D01*
X690400Y737050D02*
Y746563D01*
X709612Y761700D02*
X710212Y761100D01*
X705537Y761700D02*
X709612D01*
X720572Y761200D02*
X720672Y761100D01*
X710212D02*
X716450D01*
X601737Y674500D02*
X627850D01*
X732366Y712800D02*
X732600Y713034D01*
Y714600D01*
X732366Y711400D02*
X732600Y711166D01*
Y709600D02*
Y711166D01*
X737600Y708034D02*
Y709600D01*
X737366Y706400D02*
X737600Y706166D01*
Y704600D02*
Y706166D01*
X737366Y692800D02*
X737600Y693034D01*
Y694600D01*
X737366Y691400D02*
X737600Y691166D01*
Y689600D02*
Y691166D01*
X731937Y763000D02*
X743263D01*
X611837Y673700D02*
X612337D01*
X615337D02*
X641624D01*
X690524Y722600D02*
X691024D01*
X694024D02*
X724600D01*
D39*
X530500Y807500D02*
D03*
X534000Y572500D02*
D03*
X768500Y818500D02*
D03*
X530500Y807500D02*
D03*
X768500Y818500D02*
D03*
X739500Y582450D02*
D03*
X727500Y796550D02*
D03*
X534000Y572500D02*
D03*
D40*
X727500Y796500D02*
D03*
X739000Y582000D02*
D03*
D43*
X747300Y649300D02*
D03*
X712500Y669500D02*
D03*
X712600Y664700D02*
D03*
X722600Y699600D02*
D03*
X747600Y769600D02*
D03*
X683700Y631087D02*
D03*
Y645192D02*
D03*
X684061Y648395D02*
D03*
X681000Y626300D02*
D03*
X727300Y714600D02*
D03*
X727600Y719600D02*
D03*
X556100Y631250D02*
D03*
Y627750D02*
D03*
X747600Y764600D02*
D03*
X722600Y719600D02*
D03*
X722300Y714500D02*
D03*
X732600Y709600D02*
D03*
Y714600D02*
D03*
X737600Y704600D02*
D03*
Y709600D02*
D03*
X727600Y704600D02*
D03*
Y699600D02*
D03*
X747300Y659300D02*
D03*
X717600D02*
D03*
X717700Y664700D02*
D03*
X652800Y636600D02*
D03*
X654521Y638321D02*
D03*
X656439Y640767D02*
D03*
X722600Y694600D02*
D03*
X737600Y689600D02*
D03*
Y694600D02*
D03*
X608800Y650300D02*
D03*
X580190Y615905D02*
D03*
X623700Y635669D02*
D03*
X599240Y656000D02*
D03*
X607108Y652797D02*
D03*
X580321Y623779D02*
D03*
X580190Y643464D02*
D03*
X623219Y639174D02*
D03*
X592900Y606600D02*
D03*
X612700Y650400D02*
D03*
X599000Y659300D02*
D03*
X580190Y613936D02*
D03*
X623700Y641574D02*
D03*
X610700Y652400D02*
D03*
X615554Y651200D02*
D03*
X601300Y654000D02*
D03*
X580190Y621810D02*
D03*
X603084Y657384D02*
D03*
X605200Y654400D02*
D03*
X580190Y641495D02*
D03*
X625139Y637700D02*
D03*
X590413Y603500D02*
D03*
X588650Y601300D02*
D03*
M02*
