G04 Layer_Color=8388736*
%FSLAX26Y26*%
%MOIN*%
%TF.FileFunction,Mechanical*%
%TF.Part,Single*%
G01*
G75*
%TA.AperFunction,NonConductor*%
%ADD55C,0.010000*%
%ADD89C,0.004724*%
%ADD109C,0.003937*%
D55*
X4740000Y5650000D02*
Y8050000D01*
X5190000D01*
Y8135000D01*
X5615000D01*
Y8250000D01*
X7750000D01*
Y5535000D02*
Y8250000D01*
X5805000Y5535000D02*
X7750000D01*
X4740000Y5650000D02*
X5805000D01*
Y5535000D02*
Y5650000D01*
D89*
X7592824Y7895669D02*
X7579705D01*
X7586264D01*
Y7856311D01*
X7592824Y7862871D01*
X7555000Y5839678D02*
X7515643D01*
X7535321Y5819999D01*
Y5846238D01*
X7522202Y5859357D02*
X7515643Y5865917D01*
Y5879036D01*
X7522202Y5885595D01*
X7548440D01*
X7555000Y5879036D01*
Y5865917D01*
X7548440Y5859357D01*
X7522202D01*
X7507824Y8075669D02*
Y8036311D01*
Y8062550D02*
X7488145Y8049431D01*
X7507824Y8062550D02*
X7488145Y8075669D01*
X7462824Y8083788D02*
X7456264D01*
X7449705Y8077228D01*
Y8044431D01*
X7349705Y8083788D02*
X7343145D01*
X7336586Y8077228D01*
Y8044431D01*
X7356264D01*
X7362824Y8050990D01*
Y8064109D01*
X7356264Y8070669D01*
X7336586D01*
X7415000Y8035642D02*
Y8074999D01*
Y8055321D01*
X7408440Y8048761D01*
X7395321D01*
X7388762Y8055321D01*
Y8074999D01*
X7306264Y8080669D02*
Y8047871D01*
Y8060990D01*
X7312824D01*
X7299705D01*
X7306264D01*
Y8047871D01*
X7299705Y8041311D01*
X7243244Y8074107D02*
X7256363D01*
X7262923Y8067547D01*
Y8054428D01*
X7256363Y8047869D01*
X7243244D01*
X7236685Y8054428D01*
Y8060988D01*
X7262923D01*
X7187948Y8036311D02*
Y8075669D01*
X7207627D01*
X7214187Y8069109D01*
Y8055990D01*
X7207627Y8049431D01*
X7187948D01*
X7133762Y8048761D02*
X7153440D01*
X7160000Y8055321D01*
Y8068440D01*
X7153440Y8074999D01*
X7133762D01*
X7110000Y8035642D02*
Y8074999D01*
X7090321D01*
X7083762Y8068440D01*
Y8061880D01*
Y8055321D01*
X7090321Y8048761D01*
X7110000D01*
X7053440D02*
X7040321D01*
X7033762Y8055321D01*
Y8074999D01*
X7053440D01*
X7060000Y8068440D01*
X7053440Y8061880D01*
X7033762D01*
D109*
X7564000Y5963999D02*
G03*
X7554000Y5973999I-10000J0D01*
G01*
Y7816000D02*
G03*
X7564000Y7826000I0J10000D01*
G01*
X7518000Y5983999D02*
G03*
X7528000Y5973999I10000J0D01*
G01*
Y7816000D02*
G03*
X7518000Y7806000I0J-10000D01*
G01*
X7528000Y6015999D02*
G03*
X7518000Y6005999I0J-10000D01*
G01*
Y7784000D02*
G03*
X7528000Y7774000I10000J0D01*
G01*
X7554000Y6015999D02*
G03*
X7564000Y6025999I0J10000D01*
G01*
Y7764000D02*
G03*
X7554000Y7774000I-10000J0D01*
G01*
X7564000Y6063999D02*
G03*
X7554000Y6073999I-10000J0D01*
G01*
Y7716000D02*
G03*
X7564000Y7726000I0J10000D01*
G01*
X7518000Y6083999D02*
G03*
X7528000Y6073999I10000J0D01*
G01*
Y7716000D02*
G03*
X7518000Y7706000I0J-10000D01*
G01*
X7528000Y6115999D02*
G03*
X7518000Y6105999I0J-10000D01*
G01*
Y7684000D02*
G03*
X7528000Y7674000I10000J0D01*
G01*
X7554000Y6115999D02*
G03*
X7564000Y6125999I0J10000D01*
G01*
Y7664000D02*
G03*
X7554000Y7674000I-10000J0D01*
G01*
X7564000Y6163999D02*
G03*
X7554000Y6173999I-10000J0D01*
G01*
Y7616000D02*
G03*
X7564000Y7626000I0J10000D01*
G01*
X7518000Y6183999D02*
G03*
X7528000Y6173999I10000J0D01*
G01*
Y7616000D02*
G03*
X7518000Y7606000I0J-10000D01*
G01*
X7528000Y6215999D02*
G03*
X7518000Y6205999I0J-10000D01*
G01*
Y7584000D02*
G03*
X7528000Y7574000I10000J0D01*
G01*
X7554000Y6215999D02*
G03*
X7564000Y6225999I0J10000D01*
G01*
Y7564000D02*
G03*
X7554000Y7574000I-10000J0D01*
G01*
X7564000Y6263999D02*
G03*
X7554000Y6273999I-10000J0D01*
G01*
Y7516000D02*
G03*
X7564000Y7526000I0J10000D01*
G01*
X7518000Y6283999D02*
G03*
X7528000Y6273999I10000J0D01*
G01*
Y7516000D02*
G03*
X7518000Y7506000I0J-10000D01*
G01*
X7528000Y6315999D02*
G03*
X7518000Y6305999I0J-10000D01*
G01*
Y7484000D02*
G03*
X7528000Y7474000I10000J0D01*
G01*
X7554000Y6315999D02*
G03*
X7564000Y6325999I0J10000D01*
G01*
Y7464000D02*
G03*
X7554000Y7474000I-10000J0D01*
G01*
X7564000Y6363999D02*
G03*
X7554000Y6373999I-10000J0D01*
G01*
Y7416000D02*
G03*
X7564000Y7426000I0J10000D01*
G01*
X7518000Y6383999D02*
G03*
X7528000Y6373999I10000J0D01*
G01*
Y7416000D02*
G03*
X7518000Y7406000I0J-10000D01*
G01*
X7528000Y6415999D02*
G03*
X7518000Y6405999I0J-10000D01*
G01*
Y7384000D02*
G03*
X7528000Y7374000I10000J0D01*
G01*
X7554000Y6415999D02*
G03*
X7564000Y6425999I0J10000D01*
G01*
Y7364000D02*
G03*
X7554000Y7374000I-10000J0D01*
G01*
X7564000Y6463999D02*
G03*
X7554000Y6473999I-10000J0D01*
G01*
Y7316000D02*
G03*
X7564000Y7326000I0J10000D01*
G01*
X7518000Y6483999D02*
G03*
X7528000Y6473999I10000J0D01*
G01*
Y7316000D02*
G03*
X7518000Y7306000I0J-10000D01*
G01*
X7528000Y6515999D02*
G03*
X7518000Y6505999I0J-10000D01*
G01*
Y7284000D02*
G03*
X7528000Y7274000I10000J0D01*
G01*
X7554000Y6515999D02*
G03*
X7564000Y6525999I0J10000D01*
G01*
Y7264000D02*
G03*
X7554000Y7274000I-10000J0D01*
G01*
X7564000Y6563999D02*
G03*
X7554000Y6573999I-10000J0D01*
G01*
Y7216000D02*
G03*
X7564000Y7226000I0J10000D01*
G01*
X7518000Y6583999D02*
G03*
X7528000Y6573999I10000J0D01*
G01*
Y7216000D02*
G03*
X7518000Y7206000I0J-10000D01*
G01*
X7528000Y6615999D02*
G03*
X7518000Y6605999I0J-10000D01*
G01*
Y7184000D02*
G03*
X7528000Y7174000I10000J0D01*
G01*
X7554000Y6615999D02*
G03*
X7564000Y6625999I0J10000D01*
G01*
Y7164000D02*
G03*
X7554000Y7174000I-10000J0D01*
G01*
X7564000Y6663999D02*
G03*
X7554000Y6673999I-10000J0D01*
G01*
Y7116000D02*
G03*
X7564000Y7126000I0J10000D01*
G01*
X7518000Y6683999D02*
G03*
X7528000Y6673999I10000J0D01*
G01*
Y7116000D02*
G03*
X7518000Y7106000I0J-10000D01*
G01*
X7528000Y6715999D02*
G03*
X7518000Y6705999I0J-10000D01*
G01*
Y7084000D02*
G03*
X7528000Y7074000I10000J0D01*
G01*
X7554000Y6715999D02*
G03*
X7564000Y6725999I0J10000D01*
G01*
Y7064000D02*
G03*
X7554000Y7074000I-10000J0D01*
G01*
X7564000Y6763999D02*
G03*
X7554000Y6773999I-10000J0D01*
G01*
Y7016000D02*
G03*
X7564000Y7026000I0J10000D01*
G01*
X7518000Y6783999D02*
G03*
X7528000Y6773999I10000J0D01*
G01*
Y7016000D02*
G03*
X7518000Y7006000I0J-10000D01*
G01*
X7528000Y6815999D02*
G03*
X7518000Y6805999I0J-10000D01*
G01*
Y6983999D02*
G03*
X7528000Y6973999I10000J0D01*
G01*
X7554000Y6815999D02*
G03*
X7564000Y6825999I0J10000D01*
G01*
Y6963999D02*
G03*
X7554000Y6973999I-10000J0D01*
G01*
X7564000Y6863999D02*
G03*
X7554000Y6873999I-10000J0D01*
G01*
Y6915999D02*
G03*
X7564000Y6925999I0J10000D01*
G01*
X7518000Y6883999D02*
G03*
X7528000Y6873999I10000J0D01*
G01*
Y6915999D02*
G03*
X7518000Y6905999I0J-10000D01*
G01*
X6986000Y7826000D02*
G03*
X6996000Y7816000I10000J0D01*
G01*
X7032000Y7806000D02*
G03*
X7022000Y7816000I-10000J0D01*
G01*
Y7774000D02*
G03*
X7032000Y7784000I0J10000D01*
G01*
X6996000Y5973999D02*
G03*
X6986000Y5963999I0J-10000D01*
G01*
X6996000Y7774000D02*
G03*
X6986000Y7764000I0J-10000D01*
G01*
X7022000Y5973999D02*
G03*
X7032000Y5983999I0J10000D01*
G01*
X6986000Y7726000D02*
G03*
X6996000Y7716000I10000J0D01*
G01*
X7032000Y6005999D02*
G03*
X7022000Y6015999I-10000J0D01*
G01*
X7032000Y7706000D02*
G03*
X7022000Y7716000I-10000J0D01*
G01*
X6986000Y6025999D02*
G03*
X6996000Y6015999I10000J0D01*
G01*
X7022000Y7674000D02*
G03*
X7032000Y7684000I0J10000D01*
G01*
X6996000Y6073999D02*
G03*
X6986000Y6063999I0J-10000D01*
G01*
X6996000Y7674000D02*
G03*
X6986000Y7664000I0J-10000D01*
G01*
X7022000Y6073999D02*
G03*
X7032000Y6083999I0J10000D01*
G01*
X6986000Y7626000D02*
G03*
X6996000Y7616000I10000J0D01*
G01*
X7032000Y6105999D02*
G03*
X7022000Y6115999I-10000J0D01*
G01*
X7032000Y7606000D02*
G03*
X7022000Y7616000I-10000J0D01*
G01*
X6986000Y6125999D02*
G03*
X6996000Y6115999I10000J0D01*
G01*
X7022000Y7574000D02*
G03*
X7032000Y7584000I0J10000D01*
G01*
X6996000Y6173999D02*
G03*
X6986000Y6163999I0J-10000D01*
G01*
X6996000Y7574000D02*
G03*
X6986000Y7564000I0J-10000D01*
G01*
X7022000Y6173999D02*
G03*
X7032000Y6183999I0J10000D01*
G01*
X6986000Y7526000D02*
G03*
X6996000Y7516000I10000J0D01*
G01*
X7032000Y6205999D02*
G03*
X7022000Y6215999I-10000J0D01*
G01*
X7032000Y7506000D02*
G03*
X7022000Y7516000I-10000J0D01*
G01*
X6986000Y6225999D02*
G03*
X6996000Y6215999I10000J0D01*
G01*
X7022000Y7474000D02*
G03*
X7032000Y7484000I0J10000D01*
G01*
X6996000Y6273999D02*
G03*
X6986000Y6263999I0J-10000D01*
G01*
X6996000Y7474000D02*
G03*
X6986000Y7464000I0J-10000D01*
G01*
X7022000Y6273999D02*
G03*
X7032000Y6283999I0J10000D01*
G01*
X6986000Y7426000D02*
G03*
X6996000Y7416000I10000J0D01*
G01*
X7032000Y6305999D02*
G03*
X7022000Y6315999I-10000J0D01*
G01*
X7032000Y7406000D02*
G03*
X7022000Y7416000I-10000J0D01*
G01*
X6986000Y6325999D02*
G03*
X6996000Y6315999I10000J0D01*
G01*
X7022000Y7374000D02*
G03*
X7032000Y7384000I0J10000D01*
G01*
X6996000Y6373999D02*
G03*
X6986000Y6363999I0J-10000D01*
G01*
X6996000Y7374000D02*
G03*
X6986000Y7364000I0J-10000D01*
G01*
X7022000Y6373999D02*
G03*
X7032000Y6383999I0J10000D01*
G01*
X6986000Y7326000D02*
G03*
X6996000Y7316000I10000J0D01*
G01*
X7032000Y6405999D02*
G03*
X7022000Y6415999I-10000J0D01*
G01*
X7032000Y7306000D02*
G03*
X7022000Y7316000I-10000J0D01*
G01*
X6986000Y6425999D02*
G03*
X6996000Y6415999I10000J0D01*
G01*
X7022000Y7274000D02*
G03*
X7032000Y7284000I0J10000D01*
G01*
X6996000Y6473999D02*
G03*
X6986000Y6463999I0J-10000D01*
G01*
X6996000Y7274000D02*
G03*
X6986000Y7264000I0J-10000D01*
G01*
X7022000Y6473999D02*
G03*
X7032000Y6483999I0J10000D01*
G01*
X6986000Y7226000D02*
G03*
X6996000Y7216000I10000J0D01*
G01*
X7032000Y6505999D02*
G03*
X7022000Y6515999I-10000J0D01*
G01*
X7032000Y7206000D02*
G03*
X7022000Y7216000I-10000J0D01*
G01*
X6986000Y6525999D02*
G03*
X6996000Y6515999I10000J0D01*
G01*
X7022000Y7174000D02*
G03*
X7032000Y7184000I0J10000D01*
G01*
X6996000Y6573999D02*
G03*
X6986000Y6563999I0J-10000D01*
G01*
X6996000Y7174000D02*
G03*
X6986000Y7164000I0J-10000D01*
G01*
X7022000Y6573999D02*
G03*
X7032000Y6583999I0J10000D01*
G01*
X6986000Y7126000D02*
G03*
X6996000Y7116000I10000J0D01*
G01*
X7032000Y6605999D02*
G03*
X7022000Y6615999I-10000J0D01*
G01*
X7032000Y7106000D02*
G03*
X7022000Y7116000I-10000J0D01*
G01*
X6986000Y6625999D02*
G03*
X6996000Y6615999I10000J0D01*
G01*
X7022000Y7074000D02*
G03*
X7032000Y7084000I0J10000D01*
G01*
X6996000Y6673999D02*
G03*
X6986000Y6663999I0J-10000D01*
G01*
X6996000Y7074000D02*
G03*
X6986000Y7064000I0J-10000D01*
G01*
X7022000Y6673999D02*
G03*
X7032000Y6683999I0J10000D01*
G01*
X6986000Y7026000D02*
G03*
X6996000Y7016000I10000J0D01*
G01*
X7032000Y6705999D02*
G03*
X7022000Y6715999I-10000J0D01*
G01*
X7032000Y7006000D02*
G03*
X7022000Y7016000I-10000J0D01*
G01*
X6986000Y6725999D02*
G03*
X6996000Y6715999I10000J0D01*
G01*
X7022000Y6973999D02*
G03*
X7032000Y6983999I0J10000D01*
G01*
X6996000Y6773999D02*
G03*
X6986000Y6763999I0J-10000D01*
G01*
X6996000Y6973999D02*
G03*
X6986000Y6963999I0J-10000D01*
G01*
X7022000Y6773999D02*
G03*
X7032000Y6783999I0J10000D01*
G01*
X6986000Y6925999D02*
G03*
X6996000Y6915999I10000J0D01*
G01*
X7032000Y6805999D02*
G03*
X7022000Y6815999I-10000J0D01*
G01*
X7032000Y6905999D02*
G03*
X7022000Y6915999I-10000J0D01*
G01*
X6986000Y6825999D02*
G03*
X6996000Y6815999I10000J0D01*
G01*
X7022000Y6873999D02*
G03*
X7032000Y6883999I0J10000D01*
G01*
X6996000Y6873999D02*
G03*
X6986000Y6863999I0J-10000D01*
G01*
X7022000Y7774000D02*
G03*
X7032000Y7784000I0J10000D01*
G01*
Y7806000D02*
G03*
X7022000Y7816000I-10000J0D01*
G01*
X7518000Y7784000D02*
G03*
X7528000Y7774000I10000J0D01*
G01*
Y7816000D02*
G03*
X7518000Y7806000I0J-10000D01*
G01*
X7022000Y7674000D02*
G03*
X7032000Y7684000I0J10000D01*
G01*
Y7706000D02*
G03*
X7022000Y7716000I-10000J0D01*
G01*
X7518000Y7684000D02*
G03*
X7528000Y7674000I10000J0D01*
G01*
Y7716000D02*
G03*
X7518000Y7706000I0J-10000D01*
G01*
X7022000Y7574000D02*
G03*
X7032000Y7584000I0J10000D01*
G01*
Y7606000D02*
G03*
X7022000Y7616000I-10000J0D01*
G01*
X7518000Y7584000D02*
G03*
X7528000Y7574000I10000J0D01*
G01*
Y7616000D02*
G03*
X7518000Y7606000I0J-10000D01*
G01*
X7022000Y7474000D02*
G03*
X7032000Y7484000I0J10000D01*
G01*
Y7506000D02*
G03*
X7022000Y7516000I-10000J0D01*
G01*
X7518000Y7484000D02*
G03*
X7528000Y7474000I10000J0D01*
G01*
Y7516000D02*
G03*
X7518000Y7506000I0J-10000D01*
G01*
X7022000Y7374000D02*
G03*
X7032000Y7384000I0J10000D01*
G01*
Y7406000D02*
G03*
X7022000Y7416000I-10000J0D01*
G01*
X7518000Y7384000D02*
G03*
X7528000Y7374000I10000J0D01*
G01*
Y7416000D02*
G03*
X7518000Y7406000I0J-10000D01*
G01*
X7022000Y7274000D02*
G03*
X7032000Y7284000I0J10000D01*
G01*
Y7306000D02*
G03*
X7022000Y7316000I-10000J0D01*
G01*
X7518000Y7284000D02*
G03*
X7528000Y7274000I10000J0D01*
G01*
Y7316000D02*
G03*
X7518000Y7306000I0J-10000D01*
G01*
X7022000Y7174000D02*
G03*
X7032000Y7184000I0J10000D01*
G01*
Y7206000D02*
G03*
X7022000Y7216000I-10000J0D01*
G01*
X7518000Y7184000D02*
G03*
X7528000Y7174000I10000J0D01*
G01*
Y7216000D02*
G03*
X7518000Y7206000I0J-10000D01*
G01*
X7022000Y7074000D02*
G03*
X7032000Y7084000I0J10000D01*
G01*
Y7106000D02*
G03*
X7022000Y7116000I-10000J0D01*
G01*
X7518000Y7084000D02*
G03*
X7528000Y7074000I10000J0D01*
G01*
Y7116000D02*
G03*
X7518000Y7106000I0J-10000D01*
G01*
X7022000Y6973999D02*
G03*
X7032000Y6983999I0J10000D01*
G01*
Y7006000D02*
G03*
X7022000Y7016000I-10000J0D01*
G01*
X7518000Y6983999D02*
G03*
X7528000Y6973999I10000J0D01*
G01*
Y7016000D02*
G03*
X7518000Y7006000I0J-10000D01*
G01*
X7022000Y6873999D02*
G03*
X7032000Y6883999I0J10000D01*
G01*
Y6905999D02*
G03*
X7022000Y6915999I-10000J0D01*
G01*
X7518000Y6883999D02*
G03*
X7528000Y6873999I10000J0D01*
G01*
Y6915999D02*
G03*
X7518000Y6905999I0J-10000D01*
G01*
X7022000Y6773999D02*
G03*
X7032000Y6783999I0J10000D01*
G01*
Y6805999D02*
G03*
X7022000Y6815999I-10000J0D01*
G01*
X7518000Y6783999D02*
G03*
X7528000Y6773999I10000J0D01*
G01*
Y6815999D02*
G03*
X7518000Y6805999I0J-10000D01*
G01*
X7022000Y6673999D02*
G03*
X7032000Y6683999I0J10000D01*
G01*
Y6705999D02*
G03*
X7022000Y6715999I-10000J0D01*
G01*
X7518000Y6683999D02*
G03*
X7528000Y6673999I10000J0D01*
G01*
Y6715999D02*
G03*
X7518000Y6705999I0J-10000D01*
G01*
X7022000Y6573999D02*
G03*
X7032000Y6583999I0J10000D01*
G01*
Y6605999D02*
G03*
X7022000Y6615999I-10000J0D01*
G01*
X7518000Y6583999D02*
G03*
X7528000Y6573999I10000J0D01*
G01*
Y6615999D02*
G03*
X7518000Y6605999I0J-10000D01*
G01*
X7022000Y6473999D02*
G03*
X7032000Y6483999I0J10000D01*
G01*
Y6505999D02*
G03*
X7022000Y6515999I-10000J0D01*
G01*
X7518000Y6483999D02*
G03*
X7528000Y6473999I10000J0D01*
G01*
Y6515999D02*
G03*
X7518000Y6505999I0J-10000D01*
G01*
X7022000Y6373999D02*
G03*
X7032000Y6383999I0J10000D01*
G01*
Y6405999D02*
G03*
X7022000Y6415999I-10000J0D01*
G01*
X7518000Y6383999D02*
G03*
X7528000Y6373999I10000J0D01*
G01*
Y6415999D02*
G03*
X7518000Y6405999I0J-10000D01*
G01*
X7022000Y6273999D02*
G03*
X7032000Y6283999I0J10000D01*
G01*
Y6305999D02*
G03*
X7022000Y6315999I-10000J0D01*
G01*
X7518000Y6283999D02*
G03*
X7528000Y6273999I10000J0D01*
G01*
Y6315999D02*
G03*
X7518000Y6305999I0J-10000D01*
G01*
X7022000Y6173999D02*
G03*
X7032000Y6183999I0J10000D01*
G01*
Y6205999D02*
G03*
X7022000Y6215999I-10000J0D01*
G01*
X7518000Y6183999D02*
G03*
X7528000Y6173999I10000J0D01*
G01*
Y6215999D02*
G03*
X7518000Y6205999I0J-10000D01*
G01*
X7022000Y6073999D02*
G03*
X7032000Y6083999I0J10000D01*
G01*
Y6105999D02*
G03*
X7022000Y6115999I-10000J0D01*
G01*
X7518000Y6083999D02*
G03*
X7528000Y6073999I10000J0D01*
G01*
Y6115999D02*
G03*
X7518000Y6105999I0J-10000D01*
G01*
X7022000Y5973999D02*
G03*
X7032000Y5983999I0J10000D01*
G01*
Y6005999D02*
G03*
X7022000Y6015999I-10000J0D01*
G01*
X7518000Y5983999D02*
G03*
X7528000Y5973999I10000J0D01*
G01*
Y6015999D02*
G03*
X7518000Y6005999I0J-10000D01*
G01*
X7354000Y7993000D02*
X7534000D01*
Y5796999D02*
X7564000Y5826999D01*
X7534000Y7993000D02*
X7564000Y7963000D01*
Y5826999D02*
Y5963999D01*
Y7826000D02*
Y7963000D01*
X7528000Y5973999D02*
X7554000D01*
X7528000Y7816000D02*
X7554000D01*
X7518000Y5983999D02*
Y6005999D01*
Y7784000D02*
Y7806000D01*
X7528000Y6015999D02*
X7554000D01*
X7528000Y7774000D02*
X7554000D01*
X7564000Y6025999D02*
Y6063999D01*
Y7726000D02*
Y7764000D01*
X7528000Y6073999D02*
X7554000D01*
X7528000Y7716000D02*
X7554000D01*
X7518000Y6083999D02*
Y6105999D01*
Y7684000D02*
Y7706000D01*
X7528000Y6115999D02*
X7554000D01*
X7528000Y7674000D02*
X7554000D01*
X7564000Y6125999D02*
Y6163999D01*
Y7626000D02*
Y7664000D01*
X7528000Y6173999D02*
X7554000D01*
X7528000Y7616000D02*
X7554000D01*
X7518000Y6183999D02*
Y6205999D01*
Y7584000D02*
Y7606000D01*
X7528000Y6215999D02*
X7554000D01*
X7528000Y7574000D02*
X7554000D01*
X7564000Y6225999D02*
Y6263999D01*
Y7526000D02*
Y7564000D01*
X7528000Y6273999D02*
X7554000D01*
X7528000Y7516000D02*
X7554000D01*
X7518000Y6283999D02*
Y6305999D01*
Y7484000D02*
Y7506000D01*
X7528000Y6315999D02*
X7554000D01*
X7528000Y7474000D02*
X7554000D01*
X7564000Y6325999D02*
Y6363999D01*
Y7426000D02*
Y7464000D01*
X7528000Y6373999D02*
X7554000D01*
X7528000Y7416000D02*
X7554000D01*
X7518000Y6383999D02*
Y6405999D01*
Y7384000D02*
Y7406000D01*
X7528000Y6415999D02*
X7554000D01*
X7528000Y7374000D02*
X7554000D01*
X7564000Y6425999D02*
Y6463999D01*
Y7326000D02*
Y7364000D01*
X7528000Y6473999D02*
X7554000D01*
X7528000Y7316000D02*
X7554000D01*
X7518000Y6483999D02*
Y6505999D01*
Y7284000D02*
Y7306000D01*
X7528000Y6515999D02*
X7554000D01*
X7528000Y7274000D02*
X7554000D01*
X7564000Y6525999D02*
Y6563999D01*
Y7226000D02*
Y7264000D01*
X7528000Y6573999D02*
X7554000D01*
X7528000Y7216000D02*
X7554000D01*
X7518000Y6583999D02*
Y6605999D01*
Y7184000D02*
Y7206000D01*
X7528000Y6615999D02*
X7554000D01*
X7528000Y7174000D02*
X7554000D01*
X7564000Y6625999D02*
Y6663999D01*
Y7126000D02*
Y7164000D01*
X7528000Y6673999D02*
X7554000D01*
X7528000Y7116000D02*
X7554000D01*
X7518000Y6683999D02*
Y6705999D01*
Y7084000D02*
Y7106000D01*
X7528000Y6715999D02*
X7554000D01*
X7528000Y7074000D02*
X7554000D01*
X7564000Y6725999D02*
Y6763999D01*
Y7026000D02*
Y7064000D01*
X7528000Y6773999D02*
X7554000D01*
X7528000Y7016000D02*
X7554000D01*
X7518000Y6783999D02*
Y6805999D01*
Y6983999D02*
Y7006000D01*
X7528000Y6815999D02*
X7554000D01*
X7528000Y6973999D02*
X7554000D01*
X7564000Y6825999D02*
Y6863999D01*
Y6925999D02*
Y6963999D01*
X7528000Y6873999D02*
X7554000D01*
X7528000Y6915999D02*
X7554000D01*
X7518000Y6883999D02*
Y6905999D01*
X7016000Y7993000D02*
X7196000D01*
X6986000Y7963000D02*
X7016000Y7993000D01*
X6986000Y7826000D02*
Y7963000D01*
X7095000Y5796999D02*
Y5833999D01*
X6996000Y7816000D02*
X7022000D01*
X7016000Y5796999D02*
X7095000D01*
X6986000Y5826999D02*
X7016000Y5796999D01*
X7032000Y7784000D02*
Y7806000D01*
X6986000Y5826999D02*
Y5963999D01*
X6996000Y7774000D02*
X7022000D01*
X6996000Y5973999D02*
X7022000D01*
X6986000Y7726000D02*
Y7764000D01*
X7032000Y5983999D02*
Y6005999D01*
X6996000Y7716000D02*
X7022000D01*
X6996000Y6015999D02*
X7022000D01*
X7032000Y7684000D02*
Y7706000D01*
X6986000Y6025999D02*
Y6063999D01*
X6996000Y7674000D02*
X7022000D01*
X6996000Y6073999D02*
X7022000D01*
X6986000Y7626000D02*
Y7664000D01*
X7032000Y6083999D02*
Y6105999D01*
X6996000Y7616000D02*
X7022000D01*
X6996000Y6115999D02*
X7022000D01*
X7032000Y7584000D02*
Y7606000D01*
X6986000Y6125999D02*
Y6163999D01*
X6996000Y7574000D02*
X7022000D01*
X6996000Y6173999D02*
X7022000D01*
X6986000Y7526000D02*
Y7564000D01*
X7032000Y6183999D02*
Y6205999D01*
X6996000Y7516000D02*
X7022000D01*
X6996000Y6215999D02*
X7022000D01*
X7032000Y7484000D02*
Y7506000D01*
X6986000Y6225999D02*
Y6263999D01*
X6996000Y7474000D02*
X7022000D01*
X6996000Y6273999D02*
X7022000D01*
X6986000Y7426000D02*
Y7464000D01*
X7032000Y6283999D02*
Y6305999D01*
X6996000Y7416000D02*
X7022000D01*
X6996000Y6315999D02*
X7022000D01*
X7032000Y7384000D02*
Y7406000D01*
X6986000Y6325999D02*
Y6363999D01*
X6996000Y7374000D02*
X7022000D01*
X6996000Y6373999D02*
X7022000D01*
X6986000Y7326000D02*
Y7364000D01*
X7032000Y6383999D02*
Y6405999D01*
X6996000Y7316000D02*
X7022000D01*
X6996000Y6415999D02*
X7022000D01*
X7032000Y7284000D02*
Y7306000D01*
X6986000Y6425999D02*
Y6463999D01*
X6996000Y7274000D02*
X7022000D01*
X6996000Y6473999D02*
X7022000D01*
X6986000Y7226000D02*
Y7264000D01*
X7032000Y6483999D02*
Y6505999D01*
X6996000Y7216000D02*
X7022000D01*
X6996000Y6515999D02*
X7022000D01*
X7032000Y7184000D02*
Y7206000D01*
X6986000Y6525999D02*
Y6563999D01*
X6996000Y7174000D02*
X7022000D01*
X6996000Y6573999D02*
X7022000D01*
X6986000Y7126000D02*
Y7164000D01*
X7032000Y6583999D02*
Y6605999D01*
X6996000Y7116000D02*
X7022000D01*
X6996000Y6615999D02*
X7022000D01*
X7032000Y7084000D02*
Y7106000D01*
X6986000Y6625999D02*
Y6663999D01*
X6996000Y7074000D02*
X7022000D01*
X6996000Y6673999D02*
X7022000D01*
X6986000Y7026000D02*
Y7064000D01*
X7032000Y6683999D02*
Y6705999D01*
X6996000Y7016000D02*
X7022000D01*
X6996000Y6715999D02*
X7022000D01*
X7032000Y6983999D02*
Y7006000D01*
X6986000Y6725999D02*
Y6763999D01*
X6996000Y6973999D02*
X7022000D01*
X6996000Y6773999D02*
X7022000D01*
X6986000Y6925999D02*
Y6963999D01*
X7032000Y6783999D02*
Y6805999D01*
X6996000Y6915999D02*
X7022000D01*
X6996000Y6815999D02*
X7022000D01*
X7032000Y6883999D02*
Y6905999D01*
X6986000Y6825999D02*
Y6863999D01*
X6996000Y6873999D02*
X7022000D01*
X7395000Y5842570D02*
X7420000Y5833999D01*
X7430000D01*
X7455000Y5842570D01*
X7095000D02*
X7120000Y5833999D01*
X7130000D01*
X7155000Y5842570D01*
Y5796999D02*
Y5842570D01*
X7130000Y5821999D02*
X7155000Y5796999D01*
X7095000D02*
X7120000Y5821999D01*
X7130000D01*
X7155000Y5796999D01*
X7095000Y5842570D02*
X7120000Y5833999D01*
X7095000Y5796999D02*
Y5842570D01*
X7120000Y5821999D02*
Y5833999D01*
X7095000Y5796999D02*
X7120000Y5821999D01*
X7430000Y5833999D02*
X7455000Y5842570D01*
X7430000Y5821999D02*
Y5833999D01*
Y5821999D02*
X7455000Y5796999D01*
X7395000D02*
X7420000Y5821999D01*
X7430000D01*
X7455000Y5796999D01*
X7395000Y5842570D02*
X7420000Y5833999D01*
Y5821999D02*
Y5833999D01*
X7395000Y5796999D02*
X7420000Y5821999D01*
X7120000Y5833999D02*
X7130000D01*
X7120000Y5821999D02*
Y5833999D01*
X7130000Y5821999D02*
Y5833999D01*
X7120000Y5821999D02*
X7130000D01*
X7095000Y5796999D02*
Y5843999D01*
Y5796999D02*
Y5833999D01*
X7155000Y5796999D02*
Y5843999D01*
Y5796999D02*
Y5833999D01*
X7420000D02*
X7430000D01*
X7420000Y5821999D02*
Y5833999D01*
X7430000Y5821999D02*
Y5833999D01*
X7420000Y5821999D02*
X7430000D01*
X6996000Y7816000D02*
X7022000D01*
X6996000Y7774000D02*
X7022000D01*
X7032000Y7784000D02*
Y7806000D01*
X7518000Y7784000D02*
Y7806000D01*
X7528000Y7774000D02*
X7554000D01*
X7528000Y7816000D02*
X7554000D01*
X6996000Y7716000D02*
X7022000D01*
X6996000Y7674000D02*
X7022000D01*
X7032000Y7684000D02*
Y7706000D01*
X7518000Y7684000D02*
Y7706000D01*
X7528000Y7674000D02*
X7554000D01*
X7528000Y7716000D02*
X7554000D01*
X6996000Y7616000D02*
X7022000D01*
X6996000Y7574000D02*
X7022000D01*
X7032000Y7584000D02*
Y7606000D01*
X7518000Y7584000D02*
Y7606000D01*
X7528000Y7574000D02*
X7554000D01*
X7528000Y7616000D02*
X7554000D01*
X6996000Y7516000D02*
X7022000D01*
X6996000Y7474000D02*
X7022000D01*
X7032000Y7484000D02*
Y7506000D01*
X7518000Y7484000D02*
Y7506000D01*
X7528000Y7474000D02*
X7554000D01*
X7528000Y7516000D02*
X7554000D01*
X6996000Y7416000D02*
X7022000D01*
X6996000Y7374000D02*
X7022000D01*
X7032000Y7384000D02*
Y7406000D01*
X7518000Y7384000D02*
Y7406000D01*
X7528000Y7374000D02*
X7554000D01*
X7528000Y7416000D02*
X7554000D01*
X6996000Y7316000D02*
X7022000D01*
X6996000Y7274000D02*
X7022000D01*
X7032000Y7284000D02*
Y7306000D01*
X7518000Y7284000D02*
Y7306000D01*
X7528000Y7274000D02*
X7554000D01*
X7528000Y7316000D02*
X7554000D01*
X6996000Y7216000D02*
X7022000D01*
X6996000Y7174000D02*
X7022000D01*
X7032000Y7184000D02*
Y7206000D01*
X7518000Y7184000D02*
Y7206000D01*
X7528000Y7174000D02*
X7554000D01*
X7528000Y7216000D02*
X7554000D01*
X6996000Y7116000D02*
X7022000D01*
X6996000Y7074000D02*
X7022000D01*
X7032000Y7084000D02*
Y7106000D01*
X7518000Y7084000D02*
Y7106000D01*
X7528000Y7074000D02*
X7554000D01*
X7528000Y7116000D02*
X7554000D01*
X6996000Y7016000D02*
X7022000D01*
X6996000Y6973999D02*
X7022000D01*
X7032000Y6983999D02*
Y7006000D01*
X7518000Y6983999D02*
Y7006000D01*
X7528000Y6973999D02*
X7554000D01*
X7528000Y7016000D02*
X7554000D01*
X6996000Y6915999D02*
X7022000D01*
X6996000Y6873999D02*
X7022000D01*
X7032000Y6883999D02*
Y6905999D01*
X7518000Y6883999D02*
Y6905999D01*
X7528000Y6873999D02*
X7554000D01*
X7528000Y6915999D02*
X7554000D01*
X6996000Y6815999D02*
X7022000D01*
X6996000Y6773999D02*
X7022000D01*
X7032000Y6783999D02*
Y6805999D01*
X7518000Y6783999D02*
Y6805999D01*
X7528000Y6773999D02*
X7554000D01*
X7528000Y6815999D02*
X7554000D01*
X6996000Y6715999D02*
X7022000D01*
X6996000Y6673999D02*
X7022000D01*
X7032000Y6683999D02*
Y6705999D01*
X7518000Y6683999D02*
Y6705999D01*
X7528000Y6673999D02*
X7554000D01*
X7528000Y6715999D02*
X7554000D01*
X6996000Y6615999D02*
X7022000D01*
X6996000Y6573999D02*
X7022000D01*
X7032000Y6583999D02*
Y6605999D01*
X7518000Y6583999D02*
Y6605999D01*
X7528000Y6573999D02*
X7554000D01*
X7528000Y6615999D02*
X7554000D01*
X6996000Y6515999D02*
X7022000D01*
X6996000Y6473999D02*
X7022000D01*
X7032000Y6483999D02*
Y6505999D01*
X7518000Y6483999D02*
Y6505999D01*
X7528000Y6473999D02*
X7554000D01*
X7528000Y6515999D02*
X7554000D01*
X6996000Y6415999D02*
X7022000D01*
X6996000Y6373999D02*
X7022000D01*
X7032000Y6383999D02*
Y6405999D01*
X7518000Y6383999D02*
Y6405999D01*
X7528000Y6373999D02*
X7554000D01*
X7528000Y6415999D02*
X7554000D01*
X6996000Y6315999D02*
X7022000D01*
X6996000Y6273999D02*
X7022000D01*
X7032000Y6283999D02*
Y6305999D01*
X7518000Y6283999D02*
Y6305999D01*
X7528000Y6273999D02*
X7554000D01*
X7528000Y6315999D02*
X7554000D01*
X6996000Y6215999D02*
X7022000D01*
X6996000Y6173999D02*
X7022000D01*
X7032000Y6183999D02*
Y6205999D01*
X7518000Y6183999D02*
Y6205999D01*
X7528000Y6173999D02*
X7554000D01*
X7528000Y6215999D02*
X7554000D01*
X6996000Y6115999D02*
X7022000D01*
X6996000Y6073999D02*
X7022000D01*
X7032000Y6083999D02*
Y6105999D01*
X7518000Y6083999D02*
Y6105999D01*
X7528000Y6073999D02*
X7554000D01*
X7528000Y6115999D02*
X7554000D01*
X6996000Y6015999D02*
X7022000D01*
X6996000Y5973999D02*
X7022000D01*
X7032000Y5983999D02*
Y6005999D01*
X7518000Y5983999D02*
Y6005999D01*
X7528000Y5973999D02*
X7554000D01*
X7528000Y6015999D02*
X7554000D01*
X7534000Y7993000D02*
X7564000Y7963000D01*
X6986000D02*
X7016000Y7993000D01*
X6986000Y5826999D02*
X7016000Y5796999D01*
X7534000D02*
X7564000Y5826999D01*
X6986000Y7826000D02*
Y7963000D01*
X7564000Y5826999D02*
Y5963999D01*
X7059000Y5843999D02*
Y5911499D01*
X7016000Y7993000D02*
X7196000D01*
X7354000D02*
X7534000D01*
X7095000Y5796999D02*
X7155000D01*
X7016000D02*
X7534000D01*
X7564000Y6025999D02*
Y6063999D01*
X6986000Y5826999D02*
Y5963999D01*
X7564000Y6125999D02*
Y6163999D01*
X6986000Y6025999D02*
Y6063999D01*
X7564000Y6225999D02*
Y6263999D01*
X6986000Y6125999D02*
Y6163999D01*
X7564000Y6325999D02*
Y6363999D01*
X6986000Y6225999D02*
Y6263999D01*
X7564000Y6425999D02*
Y6463999D01*
X6986000Y6325999D02*
Y6363999D01*
X7564000Y6525999D02*
Y6563999D01*
X6986000Y6425999D02*
Y6463999D01*
X7564000Y6625999D02*
Y6663999D01*
X6986000Y6525999D02*
Y6563999D01*
X7564000Y6725999D02*
Y6763999D01*
X6986000Y6625999D02*
Y6663999D01*
X7564000Y6825999D02*
Y6863999D01*
X6986000Y6725999D02*
Y6763999D01*
X7564000Y6925999D02*
Y6963999D01*
X6986000Y6825999D02*
Y6863999D01*
X7564000Y7026000D02*
Y7064000D01*
X6986000Y6925999D02*
Y6963999D01*
X7564000Y7126000D02*
Y7164000D01*
X6986000Y7026000D02*
Y7064000D01*
X7564000Y7226000D02*
Y7264000D01*
X6986000Y7126000D02*
Y7164000D01*
X7564000Y7326000D02*
Y7364000D01*
X6986000Y7226000D02*
Y7264000D01*
X7564000Y7426000D02*
Y7464000D01*
X6986000Y7326000D02*
Y7364000D01*
X7564000Y7526000D02*
Y7564000D01*
X6986000Y7426000D02*
Y7464000D01*
X7564000Y7626000D02*
Y7664000D01*
X6986000Y7526000D02*
Y7564000D01*
X7564000Y7726000D02*
Y7764000D01*
X6986000Y7626000D02*
Y7664000D01*
X7564000Y7826000D02*
Y7963000D01*
X6986000Y7726000D02*
Y7764000D01*
X7455000Y5833999D02*
X7501000D01*
X7049000D02*
X7059000Y5843999D01*
X7491000D01*
X7049000Y5833999D02*
X7095000D01*
X7155000D02*
X7395000D01*
X7155000Y5796999D02*
Y5833999D01*
X7455000Y5796999D02*
Y5843999D01*
X7395000Y5796999D02*
Y5843999D01*
X7059000Y7778500D02*
Y7811500D01*
Y7828500D02*
Y7861500D01*
Y7878500D02*
Y7946000D01*
X7049000Y7883000D02*
Y7956000D01*
Y7833000D02*
Y7857000D01*
Y7783000D02*
Y7807000D01*
X7354000Y7956000D02*
X7501000D01*
X7302500Y7946000D02*
X7491000D01*
X7354000D02*
Y7993000D01*
X7329000Y7968000D02*
X7354000Y7993000D01*
X7329000Y7956000D02*
Y7968000D01*
Y7956000D02*
X7354000Y7947429D01*
X7302500Y7968000D02*
X7329000D01*
X7302500Y7956000D02*
X7329000D01*
X7302500Y7946000D02*
Y7993000D01*
X7245000D02*
Y8028000D01*
X7305000D01*
Y7993000D02*
Y8028000D01*
X7247500Y7946000D02*
Y7993000D01*
X7059000Y7946000D02*
X7247500D01*
X7049000Y7956000D02*
X7059000Y7946000D01*
X7049000Y7956000D02*
X7196000D01*
Y7946000D02*
Y7993000D01*
Y7947429D02*
X7221000Y7956000D01*
Y7968000D01*
X7196000Y7993000D02*
X7221000Y7968000D01*
Y7956000D02*
X7247500D01*
X7221000Y7968000D02*
X7247500D01*
X7091000Y7915000D02*
X7159000D01*
X7091000Y5849999D02*
X7159000D01*
X7101000Y7905000D02*
X7149000D01*
Y7883000D02*
Y7905000D01*
X7101000Y7883000D02*
Y7905000D01*
X7191000Y7940000D02*
X7259000D01*
Y7878500D02*
Y7940000D01*
Y7828500D02*
Y7861500D01*
Y7778500D02*
Y7811500D01*
X7191000Y5874999D02*
X7259000D01*
X7191000Y7778500D02*
Y7811500D01*
Y7828500D02*
Y7861500D01*
Y7878500D02*
Y7940000D01*
X7149000Y7883000D02*
X7154550D01*
Y7878500D02*
Y7883000D01*
Y7878500D02*
X7168550D01*
Y7861500D02*
Y7878500D01*
X7154550Y7861500D02*
X7168550D01*
X7154550Y7857000D02*
Y7861500D01*
X7149000Y7857000D02*
X7154550D01*
X7149000Y7833000D02*
Y7857000D01*
Y7833000D02*
X7154550D01*
Y7828500D02*
Y7833000D01*
Y7828500D02*
X7168550D01*
Y7811500D02*
Y7828500D01*
X7154550Y7811500D02*
X7168550D01*
X7154550Y7807000D02*
Y7811500D01*
X7149000Y7807000D02*
X7154550D01*
X7149000Y7783000D02*
Y7807000D01*
Y7783000D02*
X7154550D01*
Y7778500D02*
Y7783000D01*
Y7778500D02*
X7168550D01*
X7149000Y5859999D02*
Y5906999D01*
X7101000Y5859999D02*
X7149000D01*
X7101000D02*
Y5906999D01*
X7081450Y7761500D02*
Y7778500D01*
X7095450D01*
Y7783000D01*
X7101000D01*
Y7807000D01*
X7095450D02*
X7101000D01*
X7095450D02*
Y7811500D01*
X7081450D02*
X7095450D01*
X7081450D02*
Y7828500D01*
X7095450D01*
Y7833000D01*
X7101000D01*
Y7857000D01*
X7095450D02*
X7101000D01*
X7095450D02*
Y7861500D01*
X7081450D02*
X7095450D01*
X7081450D02*
Y7878500D01*
X7095450D01*
Y7883000D01*
X7101000D01*
X7049000D02*
X7054550D01*
Y7878500D02*
Y7883000D01*
Y7878500D02*
X7068550D01*
Y7861500D02*
Y7878500D01*
X7054550Y7861500D02*
X7068550D01*
X7054550Y7857000D02*
Y7861500D01*
X7049000Y7857000D02*
X7054550D01*
X7049000Y7833000D02*
Y7857000D01*
Y7833000D02*
X7054550D01*
Y7828500D02*
Y7833000D01*
Y7828500D02*
X7068550D01*
Y7811500D02*
Y7828500D01*
X7054550Y7811500D02*
X7068550D01*
X7054550Y7807000D02*
Y7811500D01*
X7049000Y7807000D02*
X7054550D01*
X7049000Y7783000D02*
Y7807000D01*
Y7783000D02*
X7054550D01*
Y7778500D02*
Y7783000D01*
Y7778500D02*
X7068550D01*
Y7761500D02*
Y7778500D01*
X7091000Y7878500D02*
Y7915000D01*
Y7828500D02*
Y7861500D01*
Y7778500D02*
Y7811500D01*
X7059000Y7878500D02*
Y7946000D01*
Y7828500D02*
Y7861500D01*
Y7778500D02*
Y7811500D01*
X7101000Y7905000D02*
X7149000D01*
Y7883000D02*
Y7905000D01*
X7159000Y7915000D01*
X7091000D02*
X7159000D01*
Y7878500D02*
Y7915000D01*
Y7828500D02*
Y7861500D01*
Y7778500D02*
Y7811500D01*
X7201000Y7883000D02*
Y7930000D01*
X7249000D01*
Y7883000D02*
Y7930000D01*
X7191000Y7940000D02*
X7201000Y7930000D01*
X7249000D02*
X7259000Y7940000D01*
X7195450Y7883000D02*
X7201000D01*
X7195450Y7878500D02*
Y7883000D01*
X7181450Y7878500D02*
X7195450D01*
X7181450Y7861500D02*
Y7878500D01*
Y7861500D02*
X7195450D01*
Y7857000D02*
Y7861500D01*
Y7857000D02*
X7201000D01*
Y7833000D02*
Y7857000D01*
X7195450Y7833000D02*
X7201000D01*
X7195450Y7828500D02*
Y7833000D01*
X7181450Y7828500D02*
X7195450D01*
X7181450Y7811500D02*
Y7828500D01*
Y7811500D02*
X7195450D01*
Y7807000D02*
Y7811500D01*
Y7807000D02*
X7201000D01*
Y7783000D02*
Y7807000D01*
X7249000Y7883000D02*
X7254550D01*
Y7878500D02*
Y7883000D01*
X7249000Y7833000D02*
Y7857000D01*
X7254550D01*
Y7861500D01*
X7268550D01*
Y7878500D01*
X7254550D02*
X7268550D01*
X7249000Y7833000D02*
X7254550D01*
Y7828500D02*
Y7833000D01*
Y7828500D02*
X7268550D01*
Y7811500D02*
Y7828500D01*
X7254550Y7811500D02*
X7268550D01*
X7254550Y7807000D02*
Y7811500D01*
X7249000Y7807000D02*
X7254550D01*
X7249000Y7783000D02*
Y7807000D01*
X7059000Y7678500D02*
Y7711500D01*
Y7728500D02*
Y7761500D01*
X7049000Y7733000D02*
Y7757000D01*
Y7683000D02*
Y7707000D01*
X7081450Y7661500D02*
Y7678500D01*
X7095450D01*
Y7683000D01*
X7101000D01*
Y7707000D01*
X7095450D02*
X7101000D01*
X7095450D02*
Y7711500D01*
X7081450D02*
X7095450D01*
X7081450D02*
Y7728500D01*
X7095450D01*
Y7733000D01*
X7101000D01*
Y7757000D01*
X7095450D02*
X7101000D01*
X7095450D02*
Y7761500D01*
X7081450D02*
X7095450D01*
X7054550D02*
X7068550D01*
X7054550Y7757000D02*
Y7761500D01*
X7049000Y7757000D02*
X7054550D01*
X7049000Y7733000D02*
Y7757000D01*
Y7733000D02*
X7054550D01*
Y7728500D02*
Y7733000D01*
Y7728500D02*
X7068550D01*
Y7711500D02*
Y7728500D01*
X7054550Y7711500D02*
X7068550D01*
X7054550Y7707000D02*
Y7711500D01*
X7049000Y7707000D02*
X7054550D01*
X7049000Y7683000D02*
Y7707000D01*
Y7683000D02*
X7054550D01*
Y7678500D02*
Y7683000D01*
Y7678500D02*
X7068550D01*
Y7661500D02*
Y7678500D01*
X7091000Y7728500D02*
Y7761500D01*
Y7678500D02*
Y7711500D01*
X7059000Y7728500D02*
Y7761500D01*
Y7678500D02*
Y7711500D01*
Y7578500D02*
Y7611500D01*
Y7628500D02*
Y7661500D01*
X7049000Y7633000D02*
Y7657000D01*
Y7583000D02*
Y7607000D01*
X7081450Y7561500D02*
Y7578500D01*
X7095450D01*
Y7583000D01*
X7101000D01*
Y7607000D01*
X7095450D02*
X7101000D01*
X7095450D02*
Y7611500D01*
X7081450D02*
X7095450D01*
X7081450D02*
Y7628500D01*
X7095450D01*
Y7633000D01*
X7101000D01*
Y7657000D01*
X7095450D02*
X7101000D01*
X7095450D02*
Y7661500D01*
X7081450D02*
X7095450D01*
X7054550D02*
X7068550D01*
X7054550Y7657000D02*
Y7661500D01*
X7049000Y7657000D02*
X7054550D01*
X7049000Y7633000D02*
Y7657000D01*
Y7633000D02*
X7054550D01*
Y7628500D02*
Y7633000D01*
Y7628500D02*
X7068550D01*
Y7611500D02*
Y7628500D01*
X7054550Y7611500D02*
X7068550D01*
X7054550Y7607000D02*
Y7611500D01*
X7049000Y7607000D02*
X7054550D01*
X7049000Y7583000D02*
Y7607000D01*
Y7583000D02*
X7054550D01*
Y7578500D02*
Y7583000D01*
Y7578500D02*
X7068550D01*
Y7561500D02*
Y7578500D01*
X7091000Y7628500D02*
Y7661500D01*
Y7578500D02*
Y7611500D01*
X7059000Y7628500D02*
Y7661500D01*
Y7578500D02*
Y7611500D01*
Y7478500D02*
Y7511500D01*
Y7528500D02*
Y7561500D01*
X7049000Y7533000D02*
Y7557000D01*
Y7483000D02*
Y7507000D01*
X7081450Y7461500D02*
Y7478500D01*
X7095450D01*
Y7483000D01*
X7101000D01*
Y7507000D01*
X7095450D02*
X7101000D01*
X7095450D02*
Y7511500D01*
X7081450D02*
X7095450D01*
X7081450D02*
Y7528500D01*
X7095450D01*
Y7533000D01*
X7101000D01*
Y7557000D01*
X7095450D02*
X7101000D01*
X7095450D02*
Y7561500D01*
X7081450D02*
X7095450D01*
X7054550D02*
X7068550D01*
X7054550Y7557000D02*
Y7561500D01*
X7049000Y7557000D02*
X7054550D01*
X7049000Y7533000D02*
Y7557000D01*
Y7533000D02*
X7054550D01*
Y7528500D02*
Y7533000D01*
Y7528500D02*
X7068550D01*
Y7511500D02*
Y7528500D01*
X7054550Y7511500D02*
X7068550D01*
X7054550Y7507000D02*
Y7511500D01*
X7049000Y7507000D02*
X7054550D01*
X7049000Y7483000D02*
Y7507000D01*
Y7483000D02*
X7054550D01*
Y7478500D02*
Y7483000D01*
Y7478500D02*
X7068550D01*
Y7461500D02*
Y7478500D01*
X7091000Y7528500D02*
Y7561500D01*
Y7478500D02*
Y7511500D01*
X7059000Y7528500D02*
Y7561500D01*
Y7478500D02*
Y7511500D01*
Y7378500D02*
Y7411500D01*
Y7428500D02*
Y7461500D01*
X7049000Y7433000D02*
Y7457000D01*
Y7383000D02*
Y7407000D01*
X7081450Y7361500D02*
Y7378500D01*
X7095450D01*
Y7383000D01*
X7101000D01*
Y7407000D01*
X7095450D02*
X7101000D01*
X7095450D02*
Y7411500D01*
X7081450D02*
X7095450D01*
X7081450D02*
Y7428500D01*
X7095450D01*
Y7433000D01*
X7101000D01*
Y7457000D01*
X7095450D02*
X7101000D01*
X7095450D02*
Y7461500D01*
X7081450D02*
X7095450D01*
X7054550D02*
X7068550D01*
X7054550Y7457000D02*
Y7461500D01*
X7049000Y7457000D02*
X7054550D01*
X7049000Y7433000D02*
Y7457000D01*
Y7433000D02*
X7054550D01*
Y7428500D02*
Y7433000D01*
Y7428500D02*
X7068550D01*
Y7411500D02*
Y7428500D01*
X7054550Y7411500D02*
X7068550D01*
X7054550Y7407000D02*
Y7411500D01*
X7049000Y7407000D02*
X7054550D01*
X7049000Y7383000D02*
Y7407000D01*
Y7383000D02*
X7054550D01*
Y7378500D02*
Y7383000D01*
Y7378500D02*
X7068550D01*
Y7361500D02*
Y7378500D01*
X7091000Y7428500D02*
Y7461500D01*
Y7378500D02*
Y7411500D01*
X7059000Y7428500D02*
Y7461500D01*
Y7378500D02*
Y7411500D01*
Y7278500D02*
Y7311500D01*
Y7328500D02*
Y7361500D01*
X7049000Y7333000D02*
Y7357000D01*
Y7283000D02*
Y7307000D01*
X7081450Y7261500D02*
Y7278500D01*
X7095450D01*
Y7283000D01*
X7101000D01*
Y7307000D01*
X7095450D02*
X7101000D01*
X7095450D02*
Y7311500D01*
X7081450D02*
X7095450D01*
X7081450D02*
Y7328500D01*
X7095450D01*
Y7333000D01*
X7101000D01*
Y7357000D01*
X7095450D02*
X7101000D01*
X7095450D02*
Y7361500D01*
X7081450D02*
X7095450D01*
X7054550D02*
X7068550D01*
X7054550Y7357000D02*
Y7361500D01*
X7049000Y7357000D02*
X7054550D01*
X7049000Y7333000D02*
Y7357000D01*
Y7333000D02*
X7054550D01*
Y7328500D02*
Y7333000D01*
Y7328500D02*
X7068550D01*
Y7311500D02*
Y7328500D01*
X7054550Y7311500D02*
X7068550D01*
X7054550Y7307000D02*
Y7311500D01*
X7049000Y7307000D02*
X7054550D01*
X7049000Y7283000D02*
Y7307000D01*
Y7283000D02*
X7054550D01*
Y7278500D02*
Y7283000D01*
Y7278500D02*
X7068550D01*
Y7261500D02*
Y7278500D01*
X7091000Y7328500D02*
Y7361500D01*
Y7278500D02*
Y7311500D01*
X7059000Y7328500D02*
Y7361500D01*
Y7278500D02*
Y7311500D01*
Y7178500D02*
Y7211500D01*
Y7228500D02*
Y7261500D01*
X7049000Y7233000D02*
Y7257000D01*
Y7183000D02*
Y7207000D01*
X7081450Y7161500D02*
Y7178500D01*
X7095450D01*
Y7183000D01*
X7101000D01*
Y7207000D01*
X7095450D02*
X7101000D01*
X7095450D02*
Y7211500D01*
X7081450D02*
X7095450D01*
X7081450D02*
Y7228500D01*
X7095450D01*
Y7233000D01*
X7101000D01*
Y7257000D01*
X7095450D02*
X7101000D01*
X7095450D02*
Y7261500D01*
X7081450D02*
X7095450D01*
X7054550D02*
X7068550D01*
X7054550Y7257000D02*
Y7261500D01*
X7049000Y7257000D02*
X7054550D01*
X7049000Y7233000D02*
Y7257000D01*
Y7233000D02*
X7054550D01*
Y7228500D02*
Y7233000D01*
Y7228500D02*
X7068550D01*
Y7211500D02*
Y7228500D01*
X7054550Y7211500D02*
X7068550D01*
X7054550Y7207000D02*
Y7211500D01*
X7049000Y7207000D02*
X7054550D01*
X7049000Y7183000D02*
Y7207000D01*
Y7183000D02*
X7054550D01*
Y7178500D02*
Y7183000D01*
Y7178500D02*
X7068550D01*
Y7161500D02*
Y7178500D01*
X7091000Y7228500D02*
Y7261500D01*
Y7178500D02*
Y7211500D01*
X7059000Y7228500D02*
Y7261500D01*
Y7178500D02*
Y7211500D01*
Y7078500D02*
Y7111500D01*
Y7128500D02*
Y7161500D01*
X7049000Y7133000D02*
Y7157000D01*
Y7083000D02*
Y7107000D01*
X7081450Y7061500D02*
Y7078500D01*
X7095450D01*
Y7083000D01*
X7101000D01*
Y7107000D01*
X7095450D02*
X7101000D01*
X7095450D02*
Y7111500D01*
X7081450D02*
X7095450D01*
X7081450D02*
Y7128500D01*
X7095450D01*
Y7133000D01*
X7101000D01*
Y7157000D01*
X7095450D02*
X7101000D01*
X7095450D02*
Y7161500D01*
X7081450D02*
X7095450D01*
X7054550D02*
X7068550D01*
X7054550Y7157000D02*
Y7161500D01*
X7049000Y7157000D02*
X7054550D01*
X7049000Y7133000D02*
Y7157000D01*
Y7133000D02*
X7054550D01*
Y7128500D02*
Y7133000D01*
Y7128500D02*
X7068550D01*
Y7111500D02*
Y7128500D01*
X7054550Y7111500D02*
X7068550D01*
X7054550Y7107000D02*
Y7111500D01*
X7049000Y7107000D02*
X7054550D01*
X7049000Y7083000D02*
Y7107000D01*
Y7083000D02*
X7054550D01*
Y7078500D02*
Y7083000D01*
Y7078500D02*
X7068550D01*
Y7061500D02*
Y7078500D01*
X7091000Y7128500D02*
Y7161500D01*
Y7078500D02*
Y7111500D01*
X7059000Y7128500D02*
Y7161500D01*
Y7078500D02*
Y7111500D01*
Y6978499D02*
Y7011500D01*
Y7028500D02*
Y7061500D01*
X7049000Y7033000D02*
Y7057000D01*
Y6982999D02*
Y7007000D01*
X7081450Y6961499D02*
Y6978499D01*
X7095450D01*
Y6982999D01*
X7101000D01*
Y7007000D01*
X7095450D02*
X7101000D01*
X7095450D02*
Y7011500D01*
X7081450D02*
X7095450D01*
X7081450D02*
Y7028500D01*
X7095450D01*
Y7033000D01*
X7101000D01*
Y7057000D01*
X7095450D02*
X7101000D01*
X7095450D02*
Y7061500D01*
X7081450D02*
X7095450D01*
X7054550D02*
X7068550D01*
X7054550Y7057000D02*
Y7061500D01*
X7049000Y7057000D02*
X7054550D01*
X7049000Y7033000D02*
Y7057000D01*
Y7033000D02*
X7054550D01*
Y7028500D02*
Y7033000D01*
Y7028500D02*
X7068550D01*
Y7011500D02*
Y7028500D01*
X7054550Y7011500D02*
X7068550D01*
X7054550Y7007000D02*
Y7011500D01*
X7049000Y7007000D02*
X7054550D01*
X7049000Y6982999D02*
Y7007000D01*
Y6982999D02*
X7054550D01*
Y6978499D02*
Y6982999D01*
Y6978499D02*
X7068550D01*
Y6961499D02*
Y6978499D01*
X7091000Y7028500D02*
Y7061500D01*
Y6978499D02*
Y7011500D01*
X7059000Y7028500D02*
Y7061500D01*
Y6978499D02*
Y7011500D01*
Y6878499D02*
Y6911499D01*
Y6928499D02*
Y6961499D01*
X7049000Y6932999D02*
Y6956999D01*
Y6882999D02*
Y6906999D01*
X7081450Y6861499D02*
Y6878499D01*
X7095450D01*
Y6882999D01*
X7101000D01*
Y6906999D01*
X7095450D02*
X7101000D01*
X7095450D02*
Y6911499D01*
X7081450D02*
X7095450D01*
X7081450D02*
Y6928499D01*
X7095450D01*
Y6932999D01*
X7101000D01*
Y6956999D01*
X7095450D02*
X7101000D01*
X7095450D02*
Y6961499D01*
X7081450D02*
X7095450D01*
X7054550D02*
X7068550D01*
X7054550Y6956999D02*
Y6961499D01*
X7049000Y6956999D02*
X7054550D01*
X7049000Y6932999D02*
Y6956999D01*
Y6932999D02*
X7054550D01*
Y6928499D02*
Y6932999D01*
Y6928499D02*
X7068550D01*
Y6911499D02*
Y6928499D01*
X7054550Y6911499D02*
X7068550D01*
X7054550Y6906999D02*
Y6911499D01*
X7049000Y6906999D02*
X7054550D01*
X7049000Y6882999D02*
Y6906999D01*
Y6882999D02*
X7054550D01*
Y6878499D02*
Y6882999D01*
Y6878499D02*
X7068550D01*
Y6861499D02*
Y6878499D01*
X7091000Y6928499D02*
Y6961499D01*
Y6878499D02*
Y6911499D01*
X7059000Y6928499D02*
Y6961499D01*
Y6878499D02*
Y6911499D01*
Y6778499D02*
Y6811499D01*
Y6828499D02*
Y6861499D01*
X7049000Y6832999D02*
Y6856999D01*
Y6782999D02*
Y6806999D01*
X7081450Y6761499D02*
Y6778499D01*
X7095450D01*
Y6782999D01*
X7101000D01*
Y6806999D01*
X7095450D02*
X7101000D01*
X7095450D02*
Y6811499D01*
X7081450D02*
X7095450D01*
X7081450D02*
Y6828499D01*
X7095450D01*
Y6832999D01*
X7101000D01*
Y6856999D01*
X7095450D02*
X7101000D01*
X7095450D02*
Y6861499D01*
X7081450D02*
X7095450D01*
X7054550D02*
X7068550D01*
X7054550Y6856999D02*
Y6861499D01*
X7049000Y6856999D02*
X7054550D01*
X7049000Y6832999D02*
Y6856999D01*
Y6832999D02*
X7054550D01*
Y6828499D02*
Y6832999D01*
Y6828499D02*
X7068550D01*
Y6811499D02*
Y6828499D01*
X7054550Y6811499D02*
X7068550D01*
X7054550Y6806999D02*
Y6811499D01*
X7049000Y6806999D02*
X7054550D01*
X7049000Y6782999D02*
Y6806999D01*
Y6782999D02*
X7054550D01*
Y6778499D02*
Y6782999D01*
Y6778499D02*
X7068550D01*
Y6761499D02*
Y6778499D01*
X7091000Y6828499D02*
Y6861499D01*
Y6778499D02*
Y6811499D01*
X7059000Y6828499D02*
Y6861499D01*
Y6778499D02*
Y6811499D01*
Y6678499D02*
Y6711499D01*
Y6728499D02*
Y6761499D01*
X7049000Y6732999D02*
Y6756999D01*
Y6682999D02*
Y6706999D01*
X7081450Y6661499D02*
Y6678499D01*
X7095450D01*
Y6682999D01*
X7101000D01*
Y6706999D01*
X7095450D02*
X7101000D01*
X7095450D02*
Y6711499D01*
X7081450D02*
X7095450D01*
X7081450D02*
Y6728499D01*
X7095450D01*
Y6732999D01*
X7101000D01*
Y6756999D01*
X7095450D02*
X7101000D01*
X7095450D02*
Y6761499D01*
X7081450D02*
X7095450D01*
X7054550D02*
X7068550D01*
X7054550Y6756999D02*
Y6761499D01*
X7049000Y6756999D02*
X7054550D01*
X7049000Y6732999D02*
Y6756999D01*
Y6732999D02*
X7054550D01*
Y6728499D02*
Y6732999D01*
Y6728499D02*
X7068550D01*
Y6711499D02*
Y6728499D01*
X7054550Y6711499D02*
X7068550D01*
X7054550Y6706999D02*
Y6711499D01*
X7049000Y6706999D02*
X7054550D01*
X7049000Y6682999D02*
Y6706999D01*
Y6682999D02*
X7054550D01*
Y6678499D02*
Y6682999D01*
Y6678499D02*
X7068550D01*
Y6661499D02*
Y6678499D01*
X7091000Y6728499D02*
Y6761499D01*
Y6678499D02*
Y6711499D01*
X7059000Y6728499D02*
Y6761499D01*
Y6678499D02*
Y6711499D01*
Y6578499D02*
Y6611499D01*
Y6628499D02*
Y6661499D01*
X7049000Y6632999D02*
Y6656999D01*
Y6582999D02*
Y6606999D01*
X7081450Y6561499D02*
Y6578499D01*
X7095450D01*
Y6582999D01*
X7101000D01*
Y6606999D01*
X7095450D02*
X7101000D01*
X7095450D02*
Y6611499D01*
X7081450D02*
X7095450D01*
X7081450D02*
Y6628499D01*
X7095450D01*
Y6632999D01*
X7101000D01*
Y6656999D01*
X7095450D02*
X7101000D01*
X7095450D02*
Y6661499D01*
X7081450D02*
X7095450D01*
X7054550D02*
X7068550D01*
X7054550Y6656999D02*
Y6661499D01*
X7049000Y6656999D02*
X7054550D01*
X7049000Y6632999D02*
Y6656999D01*
Y6632999D02*
X7054550D01*
Y6628499D02*
Y6632999D01*
Y6628499D02*
X7068550D01*
Y6611499D02*
Y6628499D01*
X7054550Y6611499D02*
X7068550D01*
X7054550Y6606999D02*
Y6611499D01*
X7049000Y6606999D02*
X7054550D01*
X7049000Y6582999D02*
Y6606999D01*
Y6582999D02*
X7054550D01*
Y6578499D02*
Y6582999D01*
Y6578499D02*
X7068550D01*
Y6561499D02*
Y6578499D01*
X7091000Y6628499D02*
Y6661499D01*
Y6578499D02*
Y6611499D01*
X7059000Y6628499D02*
Y6661499D01*
Y6578499D02*
Y6611499D01*
Y6478499D02*
Y6511499D01*
Y6528499D02*
Y6561499D01*
X7049000Y6532999D02*
Y6556999D01*
Y6482999D02*
Y6506999D01*
X7081450Y6461499D02*
Y6478499D01*
X7095450D01*
Y6482999D01*
X7101000D01*
Y6506999D01*
X7095450D02*
X7101000D01*
X7095450D02*
Y6511499D01*
X7081450D02*
X7095450D01*
X7081450D02*
Y6528499D01*
X7095450D01*
Y6532999D01*
X7101000D01*
Y6556999D01*
X7095450D02*
X7101000D01*
X7095450D02*
Y6561499D01*
X7081450D02*
X7095450D01*
X7054550D02*
X7068550D01*
X7054550Y6556999D02*
Y6561499D01*
X7049000Y6556999D02*
X7054550D01*
X7049000Y6532999D02*
Y6556999D01*
Y6532999D02*
X7054550D01*
Y6528499D02*
Y6532999D01*
Y6528499D02*
X7068550D01*
Y6511499D02*
Y6528499D01*
X7054550Y6511499D02*
X7068550D01*
X7054550Y6506999D02*
Y6511499D01*
X7049000Y6506999D02*
X7054550D01*
X7049000Y6482999D02*
Y6506999D01*
Y6482999D02*
X7054550D01*
Y6478499D02*
Y6482999D01*
Y6478499D02*
X7068550D01*
Y6461499D02*
Y6478499D01*
X7091000Y6528499D02*
Y6561499D01*
Y6478499D02*
Y6511499D01*
X7059000Y6528499D02*
Y6561499D01*
Y6478499D02*
Y6511499D01*
Y6378499D02*
Y6411499D01*
Y6428499D02*
Y6461499D01*
X7049000Y6432999D02*
Y6456999D01*
Y6382999D02*
Y6406999D01*
X7081450Y6361499D02*
Y6378499D01*
X7095450D01*
Y6382999D01*
X7101000D01*
Y6406999D01*
X7095450D02*
X7101000D01*
X7095450D02*
Y6411499D01*
X7081450D02*
X7095450D01*
X7081450D02*
Y6428499D01*
X7095450D01*
Y6432999D01*
X7101000D01*
Y6456999D01*
X7095450D02*
X7101000D01*
X7095450D02*
Y6461499D01*
X7081450D02*
X7095450D01*
X7054550D02*
X7068550D01*
X7054550Y6456999D02*
Y6461499D01*
X7049000Y6456999D02*
X7054550D01*
X7049000Y6432999D02*
Y6456999D01*
Y6432999D02*
X7054550D01*
Y6428499D02*
Y6432999D01*
Y6428499D02*
X7068550D01*
Y6411499D02*
Y6428499D01*
X7054550Y6411499D02*
X7068550D01*
X7054550Y6406999D02*
Y6411499D01*
X7049000Y6406999D02*
X7054550D01*
X7049000Y6382999D02*
Y6406999D01*
Y6382999D02*
X7054550D01*
Y6378499D02*
Y6382999D01*
Y6378499D02*
X7068550D01*
Y6361499D02*
Y6378499D01*
X7091000Y6428499D02*
Y6461499D01*
Y6378499D02*
Y6411499D01*
X7059000Y6428499D02*
Y6461499D01*
Y6378499D02*
Y6411499D01*
Y6278499D02*
Y6311499D01*
Y6328499D02*
Y6361499D01*
X7049000Y6332999D02*
Y6356999D01*
Y6282999D02*
Y6306999D01*
X7081450Y6261499D02*
Y6278499D01*
X7095450D01*
Y6282999D01*
X7101000D01*
Y6306999D01*
X7095450D02*
X7101000D01*
X7095450D02*
Y6311499D01*
X7081450D02*
X7095450D01*
X7081450D02*
Y6328499D01*
X7095450D01*
Y6332999D01*
X7101000D01*
Y6356999D01*
X7095450D02*
X7101000D01*
X7095450D02*
Y6361499D01*
X7081450D02*
X7095450D01*
X7054550D02*
X7068550D01*
X7054550Y6356999D02*
Y6361499D01*
X7049000Y6356999D02*
X7054550D01*
X7049000Y6332999D02*
Y6356999D01*
Y6332999D02*
X7054550D01*
Y6328499D02*
Y6332999D01*
Y6328499D02*
X7068550D01*
Y6311499D02*
Y6328499D01*
X7054550Y6311499D02*
X7068550D01*
X7054550Y6306999D02*
Y6311499D01*
X7049000Y6306999D02*
X7054550D01*
X7049000Y6282999D02*
Y6306999D01*
Y6282999D02*
X7054550D01*
Y6278499D02*
Y6282999D01*
Y6278499D02*
X7068550D01*
Y6261499D02*
Y6278499D01*
X7091000Y6328499D02*
Y6361499D01*
Y6278499D02*
Y6311499D01*
X7059000Y6328499D02*
Y6361499D01*
Y6278499D02*
Y6311499D01*
Y6178499D02*
Y6211499D01*
Y6228499D02*
Y6261499D01*
X7049000Y6232999D02*
Y6256999D01*
Y6182999D02*
Y6206999D01*
X7081450Y6161499D02*
Y6178499D01*
X7095450D01*
Y6182999D01*
X7101000D01*
Y6206999D01*
X7095450D02*
X7101000D01*
X7095450D02*
Y6211499D01*
X7081450D02*
X7095450D01*
X7081450D02*
Y6228499D01*
X7095450D01*
Y6232999D01*
X7101000D01*
Y6256999D01*
X7095450D02*
X7101000D01*
X7095450D02*
Y6261499D01*
X7081450D02*
X7095450D01*
X7054550D02*
X7068550D01*
X7054550Y6256999D02*
Y6261499D01*
X7049000Y6256999D02*
X7054550D01*
X7049000Y6232999D02*
Y6256999D01*
Y6232999D02*
X7054550D01*
Y6228499D02*
Y6232999D01*
Y6228499D02*
X7068550D01*
Y6211499D02*
Y6228499D01*
X7054550Y6211499D02*
X7068550D01*
X7054550Y6206999D02*
Y6211499D01*
X7049000Y6206999D02*
X7054550D01*
X7049000Y6182999D02*
Y6206999D01*
Y6182999D02*
X7054550D01*
Y6178499D02*
Y6182999D01*
Y6178499D02*
X7068550D01*
Y6161499D02*
Y6178499D01*
X7091000Y6228499D02*
Y6261499D01*
Y6178499D02*
Y6211499D01*
X7059000Y6228499D02*
Y6261499D01*
Y6178499D02*
Y6211499D01*
Y6078499D02*
Y6111499D01*
Y6128499D02*
Y6161499D01*
X7049000Y6132999D02*
Y6156999D01*
Y6082999D02*
Y6106999D01*
X7081450Y6061499D02*
Y6078499D01*
X7095450D01*
Y6082999D01*
X7101000D01*
Y6106999D01*
X7095450D02*
X7101000D01*
X7095450D02*
Y6111499D01*
X7081450D02*
X7095450D01*
X7081450D02*
Y6128499D01*
X7095450D01*
Y6132999D01*
X7101000D01*
Y6156999D01*
X7095450D02*
X7101000D01*
X7095450D02*
Y6161499D01*
X7081450D02*
X7095450D01*
X7054550D02*
X7068550D01*
X7054550Y6156999D02*
Y6161499D01*
X7049000Y6156999D02*
X7054550D01*
X7049000Y6132999D02*
Y6156999D01*
Y6132999D02*
X7054550D01*
Y6128499D02*
Y6132999D01*
Y6128499D02*
X7068550D01*
Y6111499D02*
Y6128499D01*
X7054550Y6111499D02*
X7068550D01*
X7054550Y6106999D02*
Y6111499D01*
X7049000Y6106999D02*
X7054550D01*
X7049000Y6082999D02*
Y6106999D01*
Y6082999D02*
X7054550D01*
Y6078499D02*
Y6082999D01*
Y6078499D02*
X7068550D01*
Y6061499D02*
Y6078499D01*
X7091000Y6128499D02*
Y6161499D01*
Y6078499D02*
Y6111499D01*
X7059000Y6128499D02*
Y6161499D01*
Y6078499D02*
Y6111499D01*
Y5978499D02*
Y6011499D01*
Y6028499D02*
Y6061499D01*
X7049000Y6032999D02*
Y6056999D01*
Y5982999D02*
Y6006999D01*
X7081450Y5961499D02*
Y5978499D01*
X7095450D01*
Y5982999D01*
X7101000D01*
Y6006999D01*
X7095450D02*
X7101000D01*
X7095450D02*
Y6011499D01*
X7081450D02*
X7095450D01*
X7081450D02*
Y6028499D01*
X7095450D01*
Y6032999D01*
X7101000D01*
Y6056999D01*
X7095450D02*
X7101000D01*
X7095450D02*
Y6061499D01*
X7081450D02*
X7095450D01*
X7054550D02*
X7068550D01*
X7054550Y6056999D02*
Y6061499D01*
X7049000Y6056999D02*
X7054550D01*
X7049000Y6032999D02*
Y6056999D01*
Y6032999D02*
X7054550D01*
Y6028499D02*
Y6032999D01*
Y6028499D02*
X7068550D01*
Y6011499D02*
Y6028499D01*
X7054550Y6011499D02*
X7068550D01*
X7054550Y6006999D02*
Y6011499D01*
X7049000Y6006999D02*
X7054550D01*
X7049000Y5982999D02*
Y6006999D01*
Y5982999D02*
X7054550D01*
Y5978499D02*
Y5982999D01*
Y5978499D02*
X7068550D01*
Y5961499D02*
Y5978499D01*
X7091000Y6028499D02*
Y6061499D01*
Y5978499D02*
Y6011499D01*
X7059000Y6028499D02*
Y6061499D01*
Y5978499D02*
Y6011499D01*
Y5928499D02*
Y5961499D01*
X7049000Y5932999D02*
Y5956999D01*
X7081450Y5911499D02*
Y5928499D01*
X7095450D01*
Y5932999D01*
X7101000D01*
Y5956999D01*
X7095450D02*
X7101000D01*
X7095450D02*
Y5961499D01*
X7081450D02*
X7095450D01*
X7054550D02*
X7068550D01*
X7054550Y5956999D02*
Y5961499D01*
X7049000Y5956999D02*
X7054550D01*
X7049000Y5932999D02*
Y5956999D01*
Y5932999D02*
X7054550D01*
Y5928499D02*
Y5932999D01*
Y5928499D02*
X7068550D01*
Y5911499D02*
Y5928499D01*
X7091000D02*
Y5961499D01*
X7059000Y5928499D02*
Y5961499D01*
X7054550Y5911499D02*
X7068550D01*
X7054550Y5906999D02*
Y5911499D01*
X7049000Y5906999D02*
X7054550D01*
X7049000Y5833999D02*
Y5906999D01*
X7081450Y5911499D02*
X7095450D01*
Y5906999D02*
Y5911499D01*
Y5906999D02*
X7101000D01*
Y5859999D02*
Y5906999D01*
X7091000Y5849999D02*
Y5911499D01*
X7195450Y7783000D02*
X7201000D01*
X7195450Y7778500D02*
Y7783000D01*
X7181450Y7778436D02*
X7195450D01*
X7249000Y7783000D02*
X7254550D01*
Y7778500D02*
Y7783000D01*
Y7778500D02*
X7268550D01*
X7259000Y7728500D02*
Y7761500D01*
Y7678500D02*
Y7711500D01*
X7191000Y7678500D02*
Y7711500D01*
Y7728500D02*
Y7761500D01*
X7168550D02*
Y7778500D01*
X7154550Y7761500D02*
X7168550D01*
X7154550Y7757000D02*
Y7761500D01*
X7149000Y7757000D02*
X7154550D01*
X7149000Y7733000D02*
Y7757000D01*
Y7733000D02*
X7154550D01*
Y7728500D02*
Y7733000D01*
Y7728500D02*
X7168550D01*
Y7711500D02*
Y7728500D01*
X7154550Y7711500D02*
X7168550D01*
X7154550Y7707000D02*
Y7711500D01*
X7149000Y7707000D02*
X7154550D01*
X7149000Y7683000D02*
Y7707000D01*
Y7683000D02*
X7154550D01*
Y7678500D02*
Y7683000D01*
Y7678500D02*
X7168550D01*
X7159000Y7728500D02*
Y7761500D01*
Y7678500D02*
Y7711500D01*
X7181450Y7761500D02*
Y7778500D01*
Y7761500D02*
X7195450D01*
Y7757000D02*
Y7761500D01*
Y7757000D02*
X7201000D01*
Y7733000D02*
Y7757000D01*
X7195450Y7733000D02*
X7201000D01*
X7195450Y7728500D02*
Y7733000D01*
X7181450Y7728500D02*
X7195450D01*
X7181450Y7711500D02*
Y7728500D01*
Y7711500D02*
X7195450D01*
Y7707000D02*
Y7711500D01*
Y7707000D02*
X7201000D01*
Y7683000D02*
Y7707000D01*
X7249000Y7733000D02*
Y7757000D01*
X7254550D01*
Y7761500D01*
X7268550D01*
Y7778500D01*
X7249000Y7733000D02*
X7254550D01*
Y7728500D02*
Y7733000D01*
Y7728500D02*
X7268550D01*
Y7711500D02*
Y7728500D01*
X7254550Y7711500D02*
X7268550D01*
X7254550Y7707000D02*
Y7711500D01*
X7249000Y7707000D02*
X7254550D01*
X7249000Y7683000D02*
Y7707000D01*
X7195450Y7683000D02*
X7201000D01*
X7195450Y7678500D02*
Y7683000D01*
X7181450Y7678436D02*
X7195450D01*
X7249000Y7683000D02*
X7254550D01*
Y7678500D02*
Y7683000D01*
Y7678500D02*
X7268550D01*
X7259000Y7628500D02*
Y7661500D01*
Y7578500D02*
Y7611500D01*
X7191000Y7578500D02*
Y7611500D01*
Y7628500D02*
Y7661500D01*
X7168550D02*
Y7678500D01*
X7154550Y7661500D02*
X7168550D01*
X7154550Y7657000D02*
Y7661500D01*
X7149000Y7657000D02*
X7154550D01*
X7149000Y7633000D02*
Y7657000D01*
Y7633000D02*
X7154550D01*
Y7628500D02*
Y7633000D01*
Y7628500D02*
X7168550D01*
Y7611500D02*
Y7628500D01*
X7154550Y7611500D02*
X7168550D01*
X7154550Y7607000D02*
Y7611500D01*
X7149000Y7607000D02*
X7154550D01*
X7149000Y7583000D02*
Y7607000D01*
Y7583000D02*
X7154550D01*
Y7578500D02*
Y7583000D01*
Y7578500D02*
X7168550D01*
X7159000Y7628500D02*
Y7661500D01*
Y7578500D02*
Y7611500D01*
X7181450Y7661500D02*
Y7678500D01*
Y7661500D02*
X7195450D01*
Y7657000D02*
Y7661500D01*
Y7657000D02*
X7201000D01*
Y7633000D02*
Y7657000D01*
X7195450Y7633000D02*
X7201000D01*
X7195450Y7628500D02*
Y7633000D01*
X7181450Y7628500D02*
X7195450D01*
X7181450Y7611500D02*
Y7628500D01*
Y7611500D02*
X7195450D01*
Y7607000D02*
Y7611500D01*
Y7607000D02*
X7201000D01*
Y7583000D02*
Y7607000D01*
X7249000Y7633000D02*
Y7657000D01*
X7254550D01*
Y7661500D01*
X7268550D01*
Y7678500D01*
X7249000Y7633000D02*
X7254550D01*
Y7628500D02*
Y7633000D01*
Y7628500D02*
X7268550D01*
Y7611500D02*
Y7628500D01*
X7254550Y7611500D02*
X7268550D01*
X7254550Y7607000D02*
Y7611500D01*
X7249000Y7607000D02*
X7254550D01*
X7249000Y7583000D02*
Y7607000D01*
X7195450Y7583000D02*
X7201000D01*
X7195450Y7578500D02*
Y7583000D01*
X7181450Y7578436D02*
X7195450D01*
X7249000Y7583000D02*
X7254550D01*
Y7578500D02*
Y7583000D01*
Y7578500D02*
X7268550D01*
X7259000Y7528500D02*
Y7561500D01*
Y7478500D02*
Y7511500D01*
X7191000Y7478500D02*
Y7511500D01*
Y7528500D02*
Y7561500D01*
X7168550D02*
Y7578500D01*
X7154550Y7561500D02*
X7168550D01*
X7154550Y7557000D02*
Y7561500D01*
X7149000Y7557000D02*
X7154550D01*
X7149000Y7533000D02*
Y7557000D01*
Y7533000D02*
X7154550D01*
Y7528500D02*
Y7533000D01*
Y7528500D02*
X7168550D01*
Y7511500D02*
Y7528500D01*
X7154550Y7511500D02*
X7168550D01*
X7154550Y7507000D02*
Y7511500D01*
X7149000Y7507000D02*
X7154550D01*
X7149000Y7483000D02*
Y7507000D01*
Y7483000D02*
X7154550D01*
Y7478500D02*
Y7483000D01*
Y7478500D02*
X7168550D01*
X7159000Y7528500D02*
Y7561500D01*
Y7478500D02*
Y7511500D01*
X7181450Y7561500D02*
Y7578500D01*
Y7561500D02*
X7195450D01*
Y7557000D02*
Y7561500D01*
Y7557000D02*
X7201000D01*
Y7533000D02*
Y7557000D01*
X7195450Y7533000D02*
X7201000D01*
X7195450Y7528500D02*
Y7533000D01*
X7181450Y7528500D02*
X7195450D01*
X7181450Y7511500D02*
Y7528500D01*
Y7511500D02*
X7195450D01*
Y7507000D02*
Y7511500D01*
Y7507000D02*
X7201000D01*
Y7483000D02*
Y7507000D01*
X7249000Y7533000D02*
Y7557000D01*
X7254550D01*
Y7561500D01*
X7268550D01*
Y7578500D01*
X7249000Y7533000D02*
X7254550D01*
Y7528500D02*
Y7533000D01*
Y7528500D02*
X7268550D01*
Y7511500D02*
Y7528500D01*
X7254550Y7511500D02*
X7268550D01*
X7254550Y7507000D02*
Y7511500D01*
X7249000Y7507000D02*
X7254550D01*
X7249000Y7483000D02*
Y7507000D01*
X7195450Y7483000D02*
X7201000D01*
X7195450Y7478500D02*
Y7483000D01*
X7181450Y7478436D02*
X7195450D01*
X7249000Y7483000D02*
X7254550D01*
Y7478500D02*
Y7483000D01*
Y7478500D02*
X7268550D01*
X7259000Y7428500D02*
Y7461500D01*
Y7378500D02*
Y7411500D01*
X7191000Y7378500D02*
Y7411500D01*
Y7428500D02*
Y7461500D01*
X7168550D02*
Y7478500D01*
X7154550Y7461500D02*
X7168550D01*
X7154550Y7457000D02*
Y7461500D01*
X7149000Y7457000D02*
X7154550D01*
X7149000Y7433000D02*
Y7457000D01*
Y7433000D02*
X7154550D01*
Y7428500D02*
Y7433000D01*
Y7428500D02*
X7168550D01*
Y7411500D02*
Y7428500D01*
X7154550Y7411500D02*
X7168550D01*
X7154550Y7407000D02*
Y7411500D01*
X7149000Y7407000D02*
X7154550D01*
X7149000Y7383000D02*
Y7407000D01*
Y7383000D02*
X7154550D01*
Y7378500D02*
Y7383000D01*
Y7378500D02*
X7168550D01*
X7159000Y7428500D02*
Y7461500D01*
Y7378500D02*
Y7411500D01*
X7181450Y7461500D02*
Y7478500D01*
Y7461500D02*
X7195450D01*
Y7457000D02*
Y7461500D01*
Y7457000D02*
X7201000D01*
Y7433000D02*
Y7457000D01*
X7195450Y7433000D02*
X7201000D01*
X7195450Y7428500D02*
Y7433000D01*
X7181450Y7428500D02*
X7195450D01*
X7181450Y7411500D02*
Y7428500D01*
Y7411500D02*
X7195450D01*
Y7407000D02*
Y7411500D01*
Y7407000D02*
X7201000D01*
Y7383000D02*
Y7407000D01*
X7249000Y7433000D02*
Y7457000D01*
X7254550D01*
Y7461500D01*
X7268550D01*
Y7478500D01*
X7249000Y7433000D02*
X7254550D01*
Y7428500D02*
Y7433000D01*
Y7428500D02*
X7268550D01*
Y7411500D02*
Y7428500D01*
X7254550Y7411500D02*
X7268550D01*
X7254550Y7407000D02*
Y7411500D01*
X7249000Y7407000D02*
X7254550D01*
X7249000Y7383000D02*
Y7407000D01*
X7195450Y7383000D02*
X7201000D01*
X7195450Y7378500D02*
Y7383000D01*
X7181450Y7378436D02*
X7195450D01*
X7249000Y7383000D02*
X7254550D01*
Y7378500D02*
Y7383000D01*
Y7378500D02*
X7268550D01*
X7259000Y7328500D02*
Y7361500D01*
Y7278500D02*
Y7311500D01*
X7191000Y7278500D02*
Y7311500D01*
Y7328500D02*
Y7361500D01*
X7168550D02*
Y7378500D01*
X7154550Y7361500D02*
X7168550D01*
X7154550Y7357000D02*
Y7361500D01*
X7149000Y7357000D02*
X7154550D01*
X7149000Y7333000D02*
Y7357000D01*
Y7333000D02*
X7154550D01*
Y7328500D02*
Y7333000D01*
Y7328500D02*
X7168550D01*
Y7311500D02*
Y7328500D01*
X7154550Y7311500D02*
X7168550D01*
X7154550Y7307000D02*
Y7311500D01*
X7149000Y7307000D02*
X7154550D01*
X7149000Y7283000D02*
Y7307000D01*
Y7283000D02*
X7154550D01*
Y7278500D02*
Y7283000D01*
Y7278500D02*
X7168550D01*
X7159000Y7328500D02*
Y7361500D01*
Y7278500D02*
Y7311500D01*
X7181450Y7361500D02*
Y7378500D01*
Y7361500D02*
X7195450D01*
Y7357000D02*
Y7361500D01*
Y7357000D02*
X7201000D01*
Y7333000D02*
Y7357000D01*
X7195450Y7333000D02*
X7201000D01*
X7195450Y7328500D02*
Y7333000D01*
X7181450Y7328500D02*
X7195450D01*
X7181450Y7311500D02*
Y7328500D01*
Y7311500D02*
X7195450D01*
Y7307000D02*
Y7311500D01*
Y7307000D02*
X7201000D01*
Y7283000D02*
Y7307000D01*
X7249000Y7333000D02*
Y7357000D01*
X7254550D01*
Y7361500D01*
X7268550D01*
Y7378500D01*
X7249000Y7333000D02*
X7254550D01*
Y7328500D02*
Y7333000D01*
Y7328500D02*
X7268550D01*
Y7311500D02*
Y7328500D01*
X7254550Y7311500D02*
X7268550D01*
X7254550Y7307000D02*
Y7311500D01*
X7249000Y7307000D02*
X7254550D01*
X7249000Y7283000D02*
Y7307000D01*
X7195450Y7283000D02*
X7201000D01*
X7195450Y7278500D02*
Y7283000D01*
X7181450Y7278436D02*
X7195450D01*
X7249000Y7283000D02*
X7254550D01*
Y7278500D02*
Y7283000D01*
Y7278500D02*
X7268550D01*
X7259000Y7228500D02*
Y7261500D01*
Y7178500D02*
Y7211500D01*
X7191000Y7178500D02*
Y7211500D01*
Y7228500D02*
Y7261500D01*
X7168550D02*
Y7278500D01*
X7154550Y7261500D02*
X7168550D01*
X7154550Y7257000D02*
Y7261500D01*
X7149000Y7257000D02*
X7154550D01*
X7149000Y7233000D02*
Y7257000D01*
Y7233000D02*
X7154550D01*
Y7228500D02*
Y7233000D01*
Y7228500D02*
X7168550D01*
Y7211500D02*
Y7228500D01*
X7154550Y7211500D02*
X7168550D01*
X7154550Y7207000D02*
Y7211500D01*
X7149000Y7207000D02*
X7154550D01*
X7149000Y7183000D02*
Y7207000D01*
Y7183000D02*
X7154550D01*
Y7178500D02*
Y7183000D01*
Y7178500D02*
X7168550D01*
X7159000Y7228500D02*
Y7261500D01*
Y7178500D02*
Y7211500D01*
X7181450Y7261500D02*
Y7278500D01*
Y7261500D02*
X7195450D01*
Y7257000D02*
Y7261500D01*
Y7257000D02*
X7201000D01*
Y7233000D02*
Y7257000D01*
X7195450Y7233000D02*
X7201000D01*
X7195450Y7228500D02*
Y7233000D01*
X7181450Y7228500D02*
X7195450D01*
X7181450Y7211500D02*
Y7228500D01*
Y7211500D02*
X7195450D01*
Y7207000D02*
Y7211500D01*
Y7207000D02*
X7201000D01*
Y7183000D02*
Y7207000D01*
X7249000Y7233000D02*
Y7257000D01*
X7254550D01*
Y7261500D01*
X7268550D01*
Y7278500D01*
X7249000Y7233000D02*
X7254550D01*
Y7228500D02*
Y7233000D01*
Y7228500D02*
X7268550D01*
Y7211500D02*
Y7228500D01*
X7254550Y7211500D02*
X7268550D01*
X7254550Y7207000D02*
Y7211500D01*
X7249000Y7207000D02*
X7254550D01*
X7249000Y7183000D02*
Y7207000D01*
X7195450Y7183000D02*
X7201000D01*
X7195450Y7178500D02*
Y7183000D01*
X7181450Y7178436D02*
X7195450D01*
X7249000Y7183000D02*
X7254550D01*
Y7178500D02*
Y7183000D01*
Y7178500D02*
X7268550D01*
X7259000Y7128500D02*
Y7161500D01*
Y7078500D02*
Y7111500D01*
X7191000Y7078500D02*
Y7111500D01*
Y7128500D02*
Y7161500D01*
X7168550D02*
Y7178500D01*
X7154550Y7161500D02*
X7168550D01*
X7154550Y7157000D02*
Y7161500D01*
X7149000Y7157000D02*
X7154550D01*
X7149000Y7133000D02*
Y7157000D01*
Y7133000D02*
X7154550D01*
Y7128500D02*
Y7133000D01*
Y7128500D02*
X7168550D01*
Y7111500D02*
Y7128500D01*
X7154550Y7111500D02*
X7168550D01*
X7154550Y7107000D02*
Y7111500D01*
X7149000Y7107000D02*
X7154550D01*
X7149000Y7083000D02*
Y7107000D01*
Y7083000D02*
X7154550D01*
Y7078500D02*
Y7083000D01*
Y7078500D02*
X7168550D01*
X7159000Y7128500D02*
Y7161500D01*
Y7078500D02*
Y7111500D01*
X7181450Y7161500D02*
Y7178500D01*
Y7161500D02*
X7195450D01*
Y7157000D02*
Y7161500D01*
Y7157000D02*
X7201000D01*
Y7133000D02*
Y7157000D01*
X7195450Y7133000D02*
X7201000D01*
X7195450Y7128500D02*
Y7133000D01*
X7181450Y7128500D02*
X7195450D01*
X7181450Y7111500D02*
Y7128500D01*
Y7111500D02*
X7195450D01*
Y7107000D02*
Y7111500D01*
Y7107000D02*
X7201000D01*
Y7083000D02*
Y7107000D01*
X7249000Y7133000D02*
Y7157000D01*
X7254550D01*
Y7161500D01*
X7268550D01*
Y7178500D01*
X7249000Y7133000D02*
X7254550D01*
Y7128500D02*
Y7133000D01*
Y7128500D02*
X7268550D01*
Y7111500D02*
Y7128500D01*
X7254550Y7111500D02*
X7268550D01*
X7254550Y7107000D02*
Y7111500D01*
X7249000Y7107000D02*
X7254550D01*
X7249000Y7083000D02*
Y7107000D01*
X7195450Y7083000D02*
X7201000D01*
X7195450Y7078500D02*
Y7083000D01*
X7181450Y7078435D02*
X7195450D01*
X7249000Y7083000D02*
X7254550D01*
Y7078500D02*
Y7083000D01*
Y7078500D02*
X7268550D01*
X7259000Y7028500D02*
Y7061500D01*
Y6978499D02*
Y7011500D01*
X7191000Y6978499D02*
Y7011500D01*
Y7028500D02*
Y7061500D01*
X7168550D02*
Y7078500D01*
X7154550Y7061500D02*
X7168550D01*
X7154550Y7057000D02*
Y7061500D01*
X7149000Y7057000D02*
X7154550D01*
X7149000Y7033000D02*
Y7057000D01*
Y7033000D02*
X7154550D01*
Y7028500D02*
Y7033000D01*
Y7028500D02*
X7168550D01*
Y7011500D02*
Y7028500D01*
X7154550Y7011500D02*
X7168550D01*
X7154550Y7007000D02*
Y7011500D01*
X7149000Y7007000D02*
X7154550D01*
X7149000Y6982999D02*
Y7007000D01*
Y6982999D02*
X7154550D01*
Y6978499D02*
Y6982999D01*
Y6978499D02*
X7168550D01*
X7159000Y7028500D02*
Y7061500D01*
Y6978499D02*
Y7011500D01*
X7181450Y7061500D02*
Y7078500D01*
Y7061500D02*
X7195450D01*
Y7057000D02*
Y7061500D01*
Y7057000D02*
X7201000D01*
Y7033000D02*
Y7057000D01*
X7195450Y7033000D02*
X7201000D01*
X7195450Y7028500D02*
Y7033000D01*
X7181450Y7028500D02*
X7195450D01*
X7181450Y7011500D02*
Y7028500D01*
Y7011500D02*
X7195450D01*
Y7007000D02*
Y7011500D01*
Y7007000D02*
X7201000D01*
Y6982999D02*
Y7007000D01*
X7249000Y7033000D02*
Y7057000D01*
X7254550D01*
Y7061500D01*
X7268550D01*
Y7078500D01*
X7249000Y7033000D02*
X7254550D01*
Y7028500D02*
Y7033000D01*
Y7028500D02*
X7268550D01*
Y7011500D02*
Y7028500D01*
X7254550Y7011500D02*
X7268550D01*
X7254550Y7007000D02*
Y7011500D01*
X7249000Y7007000D02*
X7254550D01*
X7249000Y6982999D02*
Y7007000D01*
X7195450Y6982999D02*
X7201000D01*
X7195450Y6978499D02*
Y6982999D01*
X7181450Y6978435D02*
X7195450D01*
X7249000Y6982999D02*
X7254550D01*
Y6978499D02*
Y6982999D01*
Y6978499D02*
X7268550D01*
X7259000Y6928499D02*
Y6961499D01*
Y6878499D02*
Y6911499D01*
X7191000Y6878499D02*
Y6911499D01*
Y6928499D02*
Y6961499D01*
X7168550D02*
Y6978499D01*
X7154550Y6961499D02*
X7168550D01*
X7154550Y6956999D02*
Y6961499D01*
X7149000Y6956999D02*
X7154550D01*
X7149000Y6932999D02*
Y6956999D01*
Y6932999D02*
X7154550D01*
Y6928499D02*
Y6932999D01*
Y6928499D02*
X7168550D01*
Y6911499D02*
Y6928499D01*
X7154550Y6911499D02*
X7168550D01*
X7154550Y6906999D02*
Y6911499D01*
X7149000Y6906999D02*
X7154550D01*
X7149000Y6882999D02*
Y6906999D01*
Y6882999D02*
X7154550D01*
Y6878499D02*
Y6882999D01*
Y6878499D02*
X7168550D01*
X7159000Y6928499D02*
Y6961499D01*
Y6878499D02*
Y6911499D01*
X7181450Y6961499D02*
Y6978499D01*
Y6961499D02*
X7195450D01*
Y6956999D02*
Y6961499D01*
Y6956999D02*
X7201000D01*
Y6932999D02*
Y6956999D01*
X7195450Y6932999D02*
X7201000D01*
X7195450Y6928499D02*
Y6932999D01*
X7181450Y6928499D02*
X7195450D01*
X7181450Y6911499D02*
Y6928499D01*
Y6911499D02*
X7195450D01*
Y6906999D02*
Y6911499D01*
Y6906999D02*
X7201000D01*
Y6882999D02*
Y6906999D01*
X7249000Y6932999D02*
Y6956999D01*
X7254550D01*
Y6961499D01*
X7268550D01*
Y6978499D01*
X7249000Y6932999D02*
X7254550D01*
Y6928499D02*
Y6932999D01*
Y6928499D02*
X7268550D01*
Y6911499D02*
Y6928499D01*
X7254550Y6911499D02*
X7268550D01*
X7254550Y6906999D02*
Y6911499D01*
X7249000Y6906999D02*
X7254550D01*
X7249000Y6882999D02*
Y6906999D01*
X7195450Y6882999D02*
X7201000D01*
X7195450Y6878499D02*
Y6882999D01*
X7181450Y6878435D02*
X7195450D01*
X7249000Y6882999D02*
X7254550D01*
Y6878499D02*
Y6882999D01*
Y6878499D02*
X7268550D01*
X7259000Y6828499D02*
Y6861499D01*
Y6778499D02*
Y6811499D01*
X7191000Y6778499D02*
Y6811499D01*
Y6828499D02*
Y6861499D01*
X7168550D02*
Y6878499D01*
X7154550Y6861499D02*
X7168550D01*
X7154550Y6856999D02*
Y6861499D01*
X7149000Y6856999D02*
X7154550D01*
X7149000Y6832999D02*
Y6856999D01*
Y6832999D02*
X7154550D01*
Y6828499D02*
Y6832999D01*
Y6828499D02*
X7168550D01*
Y6811499D02*
Y6828499D01*
X7154550Y6811499D02*
X7168550D01*
X7154550Y6806999D02*
Y6811499D01*
X7149000Y6806999D02*
X7154550D01*
X7149000Y6782999D02*
Y6806999D01*
Y6782999D02*
X7154550D01*
Y6778499D02*
Y6782999D01*
Y6778499D02*
X7168550D01*
X7159000Y6828499D02*
Y6861499D01*
Y6778499D02*
Y6811499D01*
X7181450Y6861499D02*
Y6878499D01*
Y6861499D02*
X7195450D01*
Y6856999D02*
Y6861499D01*
Y6856999D02*
X7201000D01*
Y6832999D02*
Y6856999D01*
X7195450Y6832999D02*
X7201000D01*
X7195450Y6828499D02*
Y6832999D01*
X7181450Y6828499D02*
X7195450D01*
X7181450Y6811499D02*
Y6828499D01*
Y6811499D02*
X7195450D01*
Y6806999D02*
Y6811499D01*
Y6806999D02*
X7201000D01*
Y6782999D02*
Y6806999D01*
X7249000Y6832999D02*
Y6856999D01*
X7254550D01*
Y6861499D01*
X7268550D01*
Y6878499D01*
X7249000Y6832999D02*
X7254550D01*
Y6828499D02*
Y6832999D01*
Y6828499D02*
X7268550D01*
Y6811499D02*
Y6828499D01*
X7254550Y6811499D02*
X7268550D01*
X7254550Y6806999D02*
Y6811499D01*
X7249000Y6806999D02*
X7254550D01*
X7249000Y6782999D02*
Y6806999D01*
X7195450Y6782999D02*
X7201000D01*
X7195450Y6778499D02*
Y6782999D01*
X7181450Y6778435D02*
X7195450D01*
X7249000Y6782999D02*
X7254550D01*
Y6778499D02*
Y6782999D01*
Y6778499D02*
X7268550D01*
X7259000Y6728499D02*
Y6761499D01*
Y6678499D02*
Y6711499D01*
X7191000Y6678499D02*
Y6711499D01*
Y6728499D02*
Y6761499D01*
X7168550D02*
Y6778499D01*
X7154550Y6761499D02*
X7168550D01*
X7154550Y6756999D02*
Y6761499D01*
X7149000Y6756999D02*
X7154550D01*
X7149000Y6732999D02*
Y6756999D01*
Y6732999D02*
X7154550D01*
Y6728499D02*
Y6732999D01*
Y6728499D02*
X7168550D01*
Y6711499D02*
Y6728499D01*
X7154550Y6711499D02*
X7168550D01*
X7154550Y6706999D02*
Y6711499D01*
X7149000Y6706999D02*
X7154550D01*
X7149000Y6682999D02*
Y6706999D01*
Y6682999D02*
X7154550D01*
Y6678499D02*
Y6682999D01*
Y6678499D02*
X7168550D01*
X7159000Y6728499D02*
Y6761499D01*
Y6678499D02*
Y6711499D01*
X7181450Y6761499D02*
Y6778499D01*
Y6761499D02*
X7195450D01*
Y6756999D02*
Y6761499D01*
Y6756999D02*
X7201000D01*
Y6732999D02*
Y6756999D01*
X7195450Y6732999D02*
X7201000D01*
X7195450Y6728499D02*
Y6732999D01*
X7181450Y6728499D02*
X7195450D01*
X7181450Y6711499D02*
Y6728499D01*
Y6711499D02*
X7195450D01*
Y6706999D02*
Y6711499D01*
Y6706999D02*
X7201000D01*
Y6682999D02*
Y6706999D01*
X7249000Y6732999D02*
Y6756999D01*
X7254550D01*
Y6761499D01*
X7268550D01*
Y6778499D01*
X7249000Y6732999D02*
X7254550D01*
Y6728499D02*
Y6732999D01*
Y6728499D02*
X7268550D01*
Y6711499D02*
Y6728499D01*
X7254550Y6711499D02*
X7268550D01*
X7254550Y6706999D02*
Y6711499D01*
X7249000Y6706999D02*
X7254550D01*
X7249000Y6682999D02*
Y6706999D01*
X7195450Y6682999D02*
X7201000D01*
X7195450Y6678499D02*
Y6682999D01*
X7181450Y6678435D02*
X7195450D01*
X7249000Y6682999D02*
X7254550D01*
Y6678499D02*
Y6682999D01*
Y6678499D02*
X7268550D01*
X7259000Y6628499D02*
Y6661499D01*
Y6578499D02*
Y6611499D01*
X7191000Y6578499D02*
Y6611499D01*
Y6628499D02*
Y6661499D01*
X7168550D02*
Y6678499D01*
X7154550Y6661499D02*
X7168550D01*
X7154550Y6656999D02*
Y6661499D01*
X7149000Y6656999D02*
X7154550D01*
X7149000Y6632999D02*
Y6656999D01*
Y6632999D02*
X7154550D01*
Y6628499D02*
Y6632999D01*
Y6628499D02*
X7168550D01*
Y6611499D02*
Y6628499D01*
X7154550Y6611499D02*
X7168550D01*
X7154550Y6606999D02*
Y6611499D01*
X7149000Y6606999D02*
X7154550D01*
X7149000Y6582999D02*
Y6606999D01*
Y6582999D02*
X7154550D01*
Y6578499D02*
Y6582999D01*
Y6578499D02*
X7168550D01*
X7159000Y6628499D02*
Y6661499D01*
Y6578499D02*
Y6611499D01*
X7181450Y6661499D02*
Y6678499D01*
Y6661499D02*
X7195450D01*
Y6656999D02*
Y6661499D01*
Y6656999D02*
X7201000D01*
Y6632999D02*
Y6656999D01*
X7195450Y6632999D02*
X7201000D01*
X7195450Y6628499D02*
Y6632999D01*
X7181450Y6628499D02*
X7195450D01*
X7181450Y6611499D02*
Y6628499D01*
Y6611499D02*
X7195450D01*
Y6606999D02*
Y6611499D01*
Y6606999D02*
X7201000D01*
Y6582999D02*
Y6606999D01*
X7249000Y6632999D02*
Y6656999D01*
X7254550D01*
Y6661499D01*
X7268550D01*
Y6678499D01*
X7249000Y6632999D02*
X7254550D01*
Y6628499D02*
Y6632999D01*
Y6628499D02*
X7268550D01*
Y6611499D02*
Y6628499D01*
X7254550Y6611499D02*
X7268550D01*
X7254550Y6606999D02*
Y6611499D01*
X7249000Y6606999D02*
X7254550D01*
X7249000Y6582999D02*
Y6606999D01*
X7195450Y6582999D02*
X7201000D01*
X7195450Y6578499D02*
Y6582999D01*
X7181450Y6578435D02*
X7195450D01*
X7249000Y6582999D02*
X7254550D01*
Y6578499D02*
Y6582999D01*
Y6578499D02*
X7268550D01*
X7259000Y6528499D02*
Y6561499D01*
Y6478499D02*
Y6511499D01*
X7191000Y6478499D02*
Y6511499D01*
Y6528499D02*
Y6561499D01*
X7168550D02*
Y6578499D01*
X7154550Y6561499D02*
X7168550D01*
X7154550Y6556999D02*
Y6561499D01*
X7149000Y6556999D02*
X7154550D01*
X7149000Y6532999D02*
Y6556999D01*
Y6532999D02*
X7154550D01*
Y6528499D02*
Y6532999D01*
Y6528499D02*
X7168550D01*
Y6511499D02*
Y6528499D01*
X7154550Y6511499D02*
X7168550D01*
X7154550Y6506999D02*
Y6511499D01*
X7149000Y6506999D02*
X7154550D01*
X7149000Y6482999D02*
Y6506999D01*
Y6482999D02*
X7154550D01*
Y6478499D02*
Y6482999D01*
Y6478499D02*
X7168550D01*
X7159000Y6528499D02*
Y6561499D01*
Y6478499D02*
Y6511499D01*
X7181450Y6561499D02*
Y6578499D01*
Y6561499D02*
X7195450D01*
Y6556999D02*
Y6561499D01*
Y6556999D02*
X7201000D01*
Y6532999D02*
Y6556999D01*
X7195450Y6532999D02*
X7201000D01*
X7195450Y6528499D02*
Y6532999D01*
X7181450Y6528499D02*
X7195450D01*
X7181450Y6511499D02*
Y6528499D01*
Y6511499D02*
X7195450D01*
Y6506999D02*
Y6511499D01*
Y6506999D02*
X7201000D01*
Y6482999D02*
Y6506999D01*
X7249000Y6532999D02*
Y6556999D01*
X7254550D01*
Y6561499D01*
X7268550D01*
Y6578499D01*
X7249000Y6532999D02*
X7254550D01*
Y6528499D02*
Y6532999D01*
Y6528499D02*
X7268550D01*
Y6511499D02*
Y6528499D01*
X7254550Y6511499D02*
X7268550D01*
X7254550Y6506999D02*
Y6511499D01*
X7249000Y6506999D02*
X7254550D01*
X7249000Y6482999D02*
Y6506999D01*
X7195450Y6482999D02*
X7201000D01*
X7195450Y6478499D02*
Y6482999D01*
X7181450Y6478435D02*
X7195450D01*
X7249000Y6482999D02*
X7254550D01*
Y6478499D02*
Y6482999D01*
Y6478499D02*
X7268550D01*
X7259000Y6428499D02*
Y6461499D01*
Y6378499D02*
Y6411499D01*
X7191000Y6378499D02*
Y6411499D01*
Y6428499D02*
Y6461499D01*
X7168550D02*
Y6478499D01*
X7154550Y6461499D02*
X7168550D01*
X7154550Y6456999D02*
Y6461499D01*
X7149000Y6456999D02*
X7154550D01*
X7149000Y6432999D02*
Y6456999D01*
Y6432999D02*
X7154550D01*
Y6428499D02*
Y6432999D01*
Y6428499D02*
X7168550D01*
Y6411499D02*
Y6428499D01*
X7154550Y6411499D02*
X7168550D01*
X7154550Y6406999D02*
Y6411499D01*
X7149000Y6406999D02*
X7154550D01*
X7149000Y6382999D02*
Y6406999D01*
Y6382999D02*
X7154550D01*
Y6378499D02*
Y6382999D01*
Y6378499D02*
X7168550D01*
X7159000Y6428499D02*
Y6461499D01*
Y6378499D02*
Y6411499D01*
X7181450Y6461499D02*
Y6478499D01*
Y6461499D02*
X7195450D01*
Y6456999D02*
Y6461499D01*
Y6456999D02*
X7201000D01*
Y6432999D02*
Y6456999D01*
X7195450Y6432999D02*
X7201000D01*
X7195450Y6428499D02*
Y6432999D01*
X7181450Y6428499D02*
X7195450D01*
X7181450Y6411499D02*
Y6428499D01*
Y6411499D02*
X7195450D01*
Y6406999D02*
Y6411499D01*
Y6406999D02*
X7201000D01*
Y6382999D02*
Y6406999D01*
X7249000Y6432999D02*
Y6456999D01*
X7254550D01*
Y6461499D01*
X7268550D01*
Y6478499D01*
X7249000Y6432999D02*
X7254550D01*
Y6428499D02*
Y6432999D01*
Y6428499D02*
X7268550D01*
Y6411499D02*
Y6428499D01*
X7254550Y6411499D02*
X7268550D01*
X7254550Y6406999D02*
Y6411499D01*
X7249000Y6406999D02*
X7254550D01*
X7249000Y6382999D02*
Y6406999D01*
X7195450Y6382999D02*
X7201000D01*
X7195450Y6378499D02*
Y6382999D01*
X7181450Y6378435D02*
X7195450D01*
X7249000Y6382999D02*
X7254550D01*
Y6378499D02*
Y6382999D01*
Y6378499D02*
X7268550D01*
X7259000Y6328499D02*
Y6361499D01*
Y6278499D02*
Y6311499D01*
X7191000Y6278499D02*
Y6311499D01*
Y6328499D02*
Y6361499D01*
X7168550D02*
Y6378499D01*
X7154550Y6361499D02*
X7168550D01*
X7154550Y6356999D02*
Y6361499D01*
X7149000Y6356999D02*
X7154550D01*
X7149000Y6332999D02*
Y6356999D01*
Y6332999D02*
X7154550D01*
Y6328499D02*
Y6332999D01*
Y6328499D02*
X7168550D01*
Y6311499D02*
Y6328499D01*
X7154550Y6311499D02*
X7168550D01*
X7154550Y6306999D02*
Y6311499D01*
X7149000Y6306999D02*
X7154550D01*
X7149000Y6282999D02*
Y6306999D01*
Y6282999D02*
X7154550D01*
Y6278499D02*
Y6282999D01*
Y6278499D02*
X7168550D01*
X7159000Y6328499D02*
Y6361499D01*
Y6278499D02*
Y6311499D01*
X7181450Y6361499D02*
Y6378499D01*
Y6361499D02*
X7195450D01*
Y6356999D02*
Y6361499D01*
Y6356999D02*
X7201000D01*
Y6332999D02*
Y6356999D01*
X7195450Y6332999D02*
X7201000D01*
X7195450Y6328499D02*
Y6332999D01*
X7181450Y6328499D02*
X7195450D01*
X7181450Y6311499D02*
Y6328499D01*
Y6311499D02*
X7195450D01*
Y6306999D02*
Y6311499D01*
Y6306999D02*
X7201000D01*
Y6282999D02*
Y6306999D01*
X7249000Y6332999D02*
Y6356999D01*
X7254550D01*
Y6361499D01*
X7268550D01*
Y6378499D01*
X7249000Y6332999D02*
X7254550D01*
Y6328499D02*
Y6332999D01*
Y6328499D02*
X7268550D01*
Y6311499D02*
Y6328499D01*
X7254550Y6311499D02*
X7268550D01*
X7254550Y6306999D02*
Y6311499D01*
X7249000Y6306999D02*
X7254550D01*
X7249000Y6282999D02*
Y6306999D01*
X7195450Y6282999D02*
X7201000D01*
X7195450Y6278499D02*
Y6282999D01*
X7181450Y6278435D02*
X7195450D01*
X7249000Y6282999D02*
X7254550D01*
Y6278499D02*
Y6282999D01*
Y6278499D02*
X7268550D01*
X7259000Y6228499D02*
Y6261499D01*
Y6178499D02*
Y6211499D01*
X7191000Y6178499D02*
Y6211499D01*
Y6228499D02*
Y6261499D01*
X7168550D02*
Y6278499D01*
X7154550Y6261499D02*
X7168550D01*
X7154550Y6256999D02*
Y6261499D01*
X7149000Y6256999D02*
X7154550D01*
X7149000Y6232999D02*
Y6256999D01*
Y6232999D02*
X7154550D01*
Y6228499D02*
Y6232999D01*
Y6228499D02*
X7168550D01*
Y6211499D02*
Y6228499D01*
X7154550Y6211499D02*
X7168550D01*
X7154550Y6206999D02*
Y6211499D01*
X7149000Y6206999D02*
X7154550D01*
X7149000Y6182999D02*
Y6206999D01*
Y6182999D02*
X7154550D01*
Y6178499D02*
Y6182999D01*
Y6178499D02*
X7168550D01*
X7159000Y6228499D02*
Y6261499D01*
Y6178499D02*
Y6211499D01*
X7181450Y6261499D02*
Y6278499D01*
Y6261499D02*
X7195450D01*
Y6256999D02*
Y6261499D01*
Y6256999D02*
X7201000D01*
Y6232999D02*
Y6256999D01*
X7195450Y6232999D02*
X7201000D01*
X7195450Y6228499D02*
Y6232999D01*
X7181450Y6228499D02*
X7195450D01*
X7181450Y6211499D02*
Y6228499D01*
Y6211499D02*
X7195450D01*
Y6206999D02*
Y6211499D01*
Y6206999D02*
X7201000D01*
Y6182999D02*
Y6206999D01*
X7249000Y6232999D02*
Y6256999D01*
X7254550D01*
Y6261499D01*
X7268550D01*
Y6278499D01*
X7249000Y6232999D02*
X7254550D01*
Y6228499D02*
Y6232999D01*
Y6228499D02*
X7268550D01*
Y6211499D02*
Y6228499D01*
X7254550Y6211499D02*
X7268550D01*
X7254550Y6206999D02*
Y6211499D01*
X7249000Y6206999D02*
X7254550D01*
X7249000Y6182999D02*
Y6206999D01*
X7195450Y6182999D02*
X7201000D01*
X7195450Y6178499D02*
Y6182999D01*
X7181450Y6178435D02*
X7195450D01*
X7249000Y6182999D02*
X7254550D01*
Y6178499D02*
Y6182999D01*
Y6178499D02*
X7268550D01*
X7259000Y6128499D02*
Y6161499D01*
Y6078499D02*
Y6111499D01*
X7191000Y6078499D02*
Y6111499D01*
Y6128499D02*
Y6161499D01*
X7168550D02*
Y6178499D01*
X7154550Y6161499D02*
X7168550D01*
X7154550Y6156999D02*
Y6161499D01*
X7149000Y6156999D02*
X7154550D01*
X7149000Y6132999D02*
Y6156999D01*
Y6132999D02*
X7154550D01*
Y6128499D02*
Y6132999D01*
Y6128499D02*
X7168550D01*
Y6111499D02*
Y6128499D01*
X7154550Y6111499D02*
X7168550D01*
X7154550Y6106999D02*
Y6111499D01*
X7149000Y6106999D02*
X7154550D01*
X7149000Y6082999D02*
Y6106999D01*
Y6082999D02*
X7154550D01*
Y6078499D02*
Y6082999D01*
Y6078499D02*
X7168550D01*
X7159000Y6128499D02*
Y6161499D01*
Y6078499D02*
Y6111499D01*
X7181450Y6161499D02*
Y6178499D01*
Y6161499D02*
X7195450D01*
Y6156999D02*
Y6161499D01*
Y6156999D02*
X7201000D01*
Y6132999D02*
Y6156999D01*
X7195450Y6132999D02*
X7201000D01*
X7195450Y6128499D02*
Y6132999D01*
X7181450Y6128499D02*
X7195450D01*
X7181450Y6111499D02*
Y6128499D01*
Y6111499D02*
X7195450D01*
Y6106999D02*
Y6111499D01*
Y6106999D02*
X7201000D01*
Y6082999D02*
Y6106999D01*
X7249000Y6132999D02*
Y6156999D01*
X7254550D01*
Y6161499D01*
X7268550D01*
Y6178499D01*
X7249000Y6132999D02*
X7254550D01*
Y6128499D02*
Y6132999D01*
Y6128499D02*
X7268550D01*
Y6111499D02*
Y6128499D01*
X7254550Y6111499D02*
X7268550D01*
X7254550Y6106999D02*
Y6111499D01*
X7249000Y6106999D02*
X7254550D01*
X7249000Y6082999D02*
Y6106999D01*
X7195450Y6082999D02*
X7201000D01*
X7195450Y6078499D02*
Y6082999D01*
X7181450Y6078435D02*
X7195450D01*
X7249000Y6082999D02*
X7254550D01*
Y6078499D02*
Y6082999D01*
Y6078499D02*
X7268550D01*
X7259000Y6028499D02*
Y6061499D01*
Y5978499D02*
Y6011499D01*
X7191000Y5978499D02*
Y6011499D01*
Y6028499D02*
Y6061499D01*
X7168550D02*
Y6078499D01*
X7154550Y6061499D02*
X7168550D01*
X7154550Y6056999D02*
Y6061499D01*
X7149000Y6056999D02*
X7154550D01*
X7149000Y6032999D02*
Y6056999D01*
Y6032999D02*
X7154550D01*
Y6028499D02*
Y6032999D01*
Y6028499D02*
X7168550D01*
Y6011499D02*
Y6028499D01*
X7154550Y6011499D02*
X7168550D01*
X7154550Y6006999D02*
Y6011499D01*
X7149000Y6006999D02*
X7154550D01*
X7149000Y5982999D02*
Y6006999D01*
Y5982999D02*
X7154550D01*
Y5978499D02*
Y5982999D01*
Y5978499D02*
X7168550D01*
X7159000Y6028499D02*
Y6061499D01*
Y5978499D02*
Y6011499D01*
X7181450Y6061499D02*
Y6078499D01*
Y6061499D02*
X7195450D01*
Y6056999D02*
Y6061499D01*
Y6056999D02*
X7201000D01*
Y6032999D02*
Y6056999D01*
X7195450Y6032999D02*
X7201000D01*
X7195450Y6028499D02*
Y6032999D01*
X7181450Y6028499D02*
X7195450D01*
X7181450Y6011499D02*
Y6028499D01*
Y6011499D02*
X7195450D01*
Y6006999D02*
Y6011499D01*
Y6006999D02*
X7201000D01*
Y5982999D02*
Y6006999D01*
X7249000Y6032999D02*
Y6056999D01*
X7254550D01*
Y6061499D01*
X7268550D01*
Y6078499D01*
X7249000Y6032999D02*
X7254550D01*
Y6028499D02*
Y6032999D01*
Y6028499D02*
X7268550D01*
Y6011499D02*
Y6028499D01*
X7254550Y6011499D02*
X7268550D01*
X7254550Y6006999D02*
Y6011499D01*
X7249000Y6006999D02*
X7254550D01*
X7249000Y5982999D02*
Y6006999D01*
X7195450Y5982999D02*
X7201000D01*
X7195450Y5978499D02*
Y5982999D01*
X7181450Y5978435D02*
X7195450D01*
X7249000Y5982999D02*
X7254550D01*
Y5978499D02*
Y5982999D01*
Y5978499D02*
X7268550D01*
X7191000Y5928499D02*
Y5961499D01*
X7168550D02*
Y5978499D01*
X7154550Y5961499D02*
X7168550D01*
X7154550Y5956999D02*
Y5961499D01*
X7149000Y5956999D02*
X7154550D01*
X7149000Y5932999D02*
Y5956999D01*
Y5932999D02*
X7154550D01*
Y5928499D02*
Y5932999D01*
Y5928499D02*
X7168550D01*
X7159000D02*
Y5961499D01*
X7181450D02*
Y5978499D01*
Y5961499D02*
X7195450D01*
Y5956999D02*
Y5961499D01*
Y5956999D02*
X7201000D01*
Y5932999D02*
Y5956999D01*
X7195450Y5932999D02*
X7201000D01*
X7195450Y5928499D02*
Y5932999D01*
X7181450Y5928435D02*
X7195450D01*
X7181450Y5911499D02*
Y5928499D01*
X7168550Y5911499D02*
Y5928499D01*
X7154550Y5911499D02*
X7168550D01*
X7154550Y5906999D02*
Y5911499D01*
X7149000Y5906999D02*
X7154550D01*
X7181450Y5911499D02*
X7195450D01*
Y5906999D02*
Y5911499D01*
Y5906999D02*
X7201000D01*
Y5884999D02*
Y5906999D01*
X7191000Y5874999D02*
X7201000Y5884999D01*
X7191000Y5874999D02*
Y5911499D01*
X7201000Y5884999D02*
X7249000D01*
X7259000Y5874999D01*
X7249000Y5884999D02*
Y5906999D01*
X7259000Y5874999D02*
Y5911499D01*
Y5928499D02*
Y5961499D01*
X7268550D02*
Y5978499D01*
X7254550Y5961499D02*
X7268550D01*
X7254550Y5956999D02*
Y5961499D01*
X7249000Y5956999D02*
X7254550D01*
X7249000Y5932999D02*
Y5956999D01*
Y5932999D02*
X7254550D01*
Y5928499D02*
Y5932999D01*
Y5928499D02*
X7268550D01*
Y5911499D02*
Y5928499D01*
X7254550Y5911499D02*
X7268550D01*
X7254550Y5906999D02*
Y5911499D01*
X7249000Y5906999D02*
X7254550D01*
X7291000Y7940000D02*
X7359000D01*
Y7878500D02*
Y7940000D01*
Y7828500D02*
Y7861500D01*
Y7778500D02*
Y7811500D01*
X7291000Y5874999D02*
X7359000D01*
X7291000Y7778500D02*
Y7811500D01*
Y7828500D02*
Y7861500D01*
Y7878500D02*
Y7940000D01*
X7301000Y7883000D02*
Y7930000D01*
X7349000D01*
Y7883000D02*
Y7930000D01*
X7291000Y7940000D02*
X7301000Y7930000D01*
X7349000D02*
X7359000Y7940000D01*
X7295450Y7883000D02*
X7301000D01*
X7295450Y7878500D02*
Y7883000D01*
X7281450Y7878500D02*
X7295450D01*
X7281450Y7861500D02*
Y7878500D01*
Y7861500D02*
X7295450D01*
Y7857000D02*
Y7861500D01*
Y7857000D02*
X7301000D01*
Y7833000D02*
Y7857000D01*
X7295450Y7833000D02*
X7301000D01*
X7295450Y7828500D02*
Y7833000D01*
X7281450Y7828500D02*
X7295450D01*
X7281450Y7811500D02*
Y7828500D01*
Y7811500D02*
X7295450D01*
Y7807000D02*
Y7811500D01*
Y7807000D02*
X7301000D01*
Y7783000D02*
Y7807000D01*
X7349000Y7883000D02*
X7354550D01*
Y7878500D02*
Y7883000D01*
X7349000Y7833000D02*
Y7857000D01*
X7354550D01*
Y7861500D01*
X7368550D01*
Y7878500D01*
X7354550D02*
X7368550D01*
X7349000Y7833000D02*
X7354550D01*
Y7828500D02*
Y7833000D01*
Y7828500D02*
X7368550D01*
Y7811500D02*
Y7828500D01*
X7354550Y7811500D02*
X7368550D01*
X7354550Y7807000D02*
Y7811500D01*
X7349000Y7807000D02*
X7354550D01*
X7349000Y7783000D02*
Y7807000D01*
X7295450Y7783000D02*
X7301000D01*
X7295450Y7778500D02*
Y7783000D01*
X7281450Y7778436D02*
X7295450D01*
X7349000Y7783000D02*
X7354550D01*
Y7778500D02*
Y7783000D01*
Y7778500D02*
X7368550D01*
X7359000Y7728500D02*
Y7761500D01*
Y7678500D02*
Y7711500D01*
X7291000Y7678500D02*
Y7711500D01*
Y7728500D02*
Y7761500D01*
X7281450D02*
Y7778500D01*
Y7761500D02*
X7295450D01*
Y7757000D02*
Y7761500D01*
Y7757000D02*
X7301000D01*
Y7733000D02*
Y7757000D01*
X7295450Y7733000D02*
X7301000D01*
X7295450Y7728500D02*
Y7733000D01*
X7281450Y7728500D02*
X7295450D01*
X7281450Y7711500D02*
Y7728500D01*
Y7711500D02*
X7295450D01*
Y7707000D02*
Y7711500D01*
Y7707000D02*
X7301000D01*
Y7683000D02*
Y7707000D01*
X7349000Y7733000D02*
Y7757000D01*
X7354550D01*
Y7761500D01*
X7368550D01*
Y7778500D01*
X7349000Y7733000D02*
X7354550D01*
Y7728500D02*
Y7733000D01*
Y7728500D02*
X7368550D01*
Y7711500D02*
Y7728500D01*
X7354550Y7711500D02*
X7368550D01*
X7354550Y7707000D02*
Y7711500D01*
X7349000Y7707000D02*
X7354550D01*
X7349000Y7683000D02*
Y7707000D01*
X7295450Y7683000D02*
X7301000D01*
X7295450Y7678500D02*
Y7683000D01*
X7281450Y7678436D02*
X7295450D01*
X7349000Y7683000D02*
X7354550D01*
Y7678500D02*
Y7683000D01*
Y7678500D02*
X7368550D01*
X7359000Y7628500D02*
Y7661500D01*
Y7578500D02*
Y7611500D01*
X7291000Y7578500D02*
Y7611500D01*
Y7628500D02*
Y7661500D01*
X7281450D02*
Y7678500D01*
Y7661500D02*
X7295450D01*
Y7657000D02*
Y7661500D01*
Y7657000D02*
X7301000D01*
Y7633000D02*
Y7657000D01*
X7295450Y7633000D02*
X7301000D01*
X7295450Y7628500D02*
Y7633000D01*
X7281450Y7628500D02*
X7295450D01*
X7281450Y7611500D02*
Y7628500D01*
Y7611500D02*
X7295450D01*
Y7607000D02*
Y7611500D01*
Y7607000D02*
X7301000D01*
Y7583000D02*
Y7607000D01*
X7349000Y7633000D02*
Y7657000D01*
X7354550D01*
Y7661500D01*
X7368550D01*
Y7678500D01*
X7349000Y7633000D02*
X7354550D01*
Y7628500D02*
Y7633000D01*
Y7628500D02*
X7368550D01*
Y7611500D02*
Y7628500D01*
X7354550Y7611500D02*
X7368550D01*
X7354550Y7607000D02*
Y7611500D01*
X7349000Y7607000D02*
X7354550D01*
X7349000Y7583000D02*
Y7607000D01*
X7295450Y7583000D02*
X7301000D01*
X7295450Y7578500D02*
Y7583000D01*
X7281450Y7578436D02*
X7295450D01*
X7349000Y7583000D02*
X7354550D01*
Y7578500D02*
Y7583000D01*
Y7578500D02*
X7368550D01*
X7359000Y7528500D02*
Y7561500D01*
Y7478500D02*
Y7511500D01*
X7291000Y7478500D02*
Y7511500D01*
Y7528500D02*
Y7561500D01*
X7281450D02*
Y7578500D01*
Y7561500D02*
X7295450D01*
Y7557000D02*
Y7561500D01*
Y7557000D02*
X7301000D01*
Y7533000D02*
Y7557000D01*
X7295450Y7533000D02*
X7301000D01*
X7295450Y7528500D02*
Y7533000D01*
X7281450Y7528500D02*
X7295450D01*
X7281450Y7511500D02*
Y7528500D01*
Y7511500D02*
X7295450D01*
Y7507000D02*
Y7511500D01*
Y7507000D02*
X7301000D01*
Y7483000D02*
Y7507000D01*
X7349000Y7533000D02*
Y7557000D01*
X7354550D01*
Y7561500D01*
X7368550D01*
Y7578500D01*
X7349000Y7533000D02*
X7354550D01*
Y7528500D02*
Y7533000D01*
Y7528500D02*
X7368550D01*
Y7511500D02*
Y7528500D01*
X7354550Y7511500D02*
X7368550D01*
X7354550Y7507000D02*
Y7511500D01*
X7349000Y7507000D02*
X7354550D01*
X7349000Y7483000D02*
Y7507000D01*
X7295450Y7483000D02*
X7301000D01*
X7295450Y7478500D02*
Y7483000D01*
X7281450Y7478436D02*
X7295450D01*
X7349000Y7483000D02*
X7354550D01*
Y7478500D02*
Y7483000D01*
Y7478500D02*
X7368550D01*
X7359000Y7428500D02*
Y7461500D01*
Y7378500D02*
Y7411500D01*
X7291000Y7378500D02*
Y7411500D01*
Y7428500D02*
Y7461500D01*
X7281450D02*
Y7478500D01*
Y7461500D02*
X7295450D01*
Y7457000D02*
Y7461500D01*
Y7457000D02*
X7301000D01*
Y7433000D02*
Y7457000D01*
X7295450Y7433000D02*
X7301000D01*
X7295450Y7428500D02*
Y7433000D01*
X7281450Y7428500D02*
X7295450D01*
X7281450Y7411500D02*
Y7428500D01*
Y7411500D02*
X7295450D01*
Y7407000D02*
Y7411500D01*
Y7407000D02*
X7301000D01*
Y7383000D02*
Y7407000D01*
X7349000Y7433000D02*
Y7457000D01*
X7354550D01*
Y7461500D01*
X7368550D01*
Y7478500D01*
X7349000Y7433000D02*
X7354550D01*
Y7428500D02*
Y7433000D01*
Y7428500D02*
X7368550D01*
Y7411500D02*
Y7428500D01*
X7354550Y7411500D02*
X7368550D01*
X7354550Y7407000D02*
Y7411500D01*
X7349000Y7407000D02*
X7354550D01*
X7349000Y7383000D02*
Y7407000D01*
X7295450Y7383000D02*
X7301000D01*
X7295450Y7378500D02*
Y7383000D01*
X7281450Y7378436D02*
X7295450D01*
X7349000Y7383000D02*
X7354550D01*
Y7378500D02*
Y7383000D01*
Y7378500D02*
X7368550D01*
X7359000Y7328500D02*
Y7361500D01*
Y7278500D02*
Y7311500D01*
X7291000Y7278500D02*
Y7311500D01*
Y7328500D02*
Y7361500D01*
X7281450D02*
Y7378500D01*
Y7361500D02*
X7295450D01*
Y7357000D02*
Y7361500D01*
Y7357000D02*
X7301000D01*
Y7333000D02*
Y7357000D01*
X7295450Y7333000D02*
X7301000D01*
X7295450Y7328500D02*
Y7333000D01*
X7281450Y7328500D02*
X7295450D01*
X7281450Y7311500D02*
Y7328500D01*
Y7311500D02*
X7295450D01*
Y7307000D02*
Y7311500D01*
Y7307000D02*
X7301000D01*
Y7283000D02*
Y7307000D01*
X7349000Y7333000D02*
Y7357000D01*
X7354550D01*
Y7361500D01*
X7368550D01*
Y7378500D01*
X7349000Y7333000D02*
X7354550D01*
Y7328500D02*
Y7333000D01*
Y7328500D02*
X7368550D01*
Y7311500D02*
Y7328500D01*
X7354550Y7311500D02*
X7368550D01*
X7354550Y7307000D02*
Y7311500D01*
X7349000Y7307000D02*
X7354550D01*
X7349000Y7283000D02*
Y7307000D01*
X7295450Y7283000D02*
X7301000D01*
X7295450Y7278500D02*
Y7283000D01*
X7281450Y7278436D02*
X7295450D01*
X7349000Y7283000D02*
X7354550D01*
Y7278500D02*
Y7283000D01*
Y7278500D02*
X7368550D01*
X7359000Y7228500D02*
Y7261500D01*
Y7178500D02*
Y7211500D01*
X7291000Y7178500D02*
Y7211500D01*
Y7228500D02*
Y7261500D01*
X7281450D02*
Y7278500D01*
Y7261500D02*
X7295450D01*
Y7257000D02*
Y7261500D01*
Y7257000D02*
X7301000D01*
Y7233000D02*
Y7257000D01*
X7295450Y7233000D02*
X7301000D01*
X7295450Y7228500D02*
Y7233000D01*
X7281450Y7228500D02*
X7295450D01*
X7281450Y7211500D02*
Y7228500D01*
Y7211500D02*
X7295450D01*
Y7207000D02*
Y7211500D01*
Y7207000D02*
X7301000D01*
Y7183000D02*
Y7207000D01*
X7349000Y7233000D02*
Y7257000D01*
X7354550D01*
Y7261500D01*
X7368550D01*
Y7278500D01*
X7349000Y7233000D02*
X7354550D01*
Y7228500D02*
Y7233000D01*
Y7228500D02*
X7368550D01*
Y7211500D02*
Y7228500D01*
X7354550Y7211500D02*
X7368550D01*
X7354550Y7207000D02*
Y7211500D01*
X7349000Y7207000D02*
X7354550D01*
X7349000Y7183000D02*
Y7207000D01*
X7295450Y7183000D02*
X7301000D01*
X7295450Y7178500D02*
Y7183000D01*
X7281450Y7178436D02*
X7295450D01*
X7349000Y7183000D02*
X7354550D01*
Y7178500D02*
Y7183000D01*
Y7178500D02*
X7368550D01*
X7359000Y7128500D02*
Y7161500D01*
Y7078500D02*
Y7111500D01*
X7291000Y7078500D02*
Y7111500D01*
Y7128500D02*
Y7161500D01*
X7281450D02*
Y7178500D01*
Y7161500D02*
X7295450D01*
Y7157000D02*
Y7161500D01*
Y7157000D02*
X7301000D01*
Y7133000D02*
Y7157000D01*
X7295450Y7133000D02*
X7301000D01*
X7295450Y7128500D02*
Y7133000D01*
X7281450Y7128500D02*
X7295450D01*
X7281450Y7111500D02*
Y7128500D01*
Y7111500D02*
X7295450D01*
Y7107000D02*
Y7111500D01*
Y7107000D02*
X7301000D01*
Y7083000D02*
Y7107000D01*
X7349000Y7133000D02*
Y7157000D01*
X7354550D01*
Y7161500D01*
X7368550D01*
Y7178500D01*
X7349000Y7133000D02*
X7354550D01*
Y7128500D02*
Y7133000D01*
Y7128500D02*
X7368550D01*
Y7111500D02*
Y7128500D01*
X7354550Y7111500D02*
X7368550D01*
X7354550Y7107000D02*
Y7111500D01*
X7349000Y7107000D02*
X7354550D01*
X7349000Y7083000D02*
Y7107000D01*
X7295450Y7083000D02*
X7301000D01*
X7295450Y7078500D02*
Y7083000D01*
X7281450Y7078435D02*
X7295450D01*
X7349000Y7083000D02*
X7354550D01*
Y7078500D02*
Y7083000D01*
Y7078500D02*
X7368550D01*
X7359000Y7028500D02*
Y7061500D01*
Y6978499D02*
Y7011500D01*
X7291000Y6978499D02*
Y7011500D01*
Y7028500D02*
Y7061500D01*
X7281450D02*
Y7078500D01*
Y7061500D02*
X7295450D01*
Y7057000D02*
Y7061500D01*
Y7057000D02*
X7301000D01*
Y7033000D02*
Y7057000D01*
X7295450Y7033000D02*
X7301000D01*
X7295450Y7028500D02*
Y7033000D01*
X7281450Y7028500D02*
X7295450D01*
X7281450Y7011500D02*
Y7028500D01*
Y7011500D02*
X7295450D01*
Y7007000D02*
Y7011500D01*
Y7007000D02*
X7301000D01*
Y6982999D02*
Y7007000D01*
X7349000Y7033000D02*
Y7057000D01*
X7354550D01*
Y7061500D01*
X7368550D01*
Y7078500D01*
X7349000Y7033000D02*
X7354550D01*
Y7028500D02*
Y7033000D01*
Y7028500D02*
X7368550D01*
Y7011500D02*
Y7028500D01*
X7354550Y7011500D02*
X7368550D01*
X7354550Y7007000D02*
Y7011500D01*
X7349000Y7007000D02*
X7354550D01*
X7349000Y6982999D02*
Y7007000D01*
X7295450Y6982999D02*
X7301000D01*
X7295450Y6978499D02*
Y6982999D01*
X7281450Y6978435D02*
X7295450D01*
X7349000Y6982999D02*
X7354550D01*
Y6978499D02*
Y6982999D01*
Y6978499D02*
X7368550D01*
X7359000Y6928499D02*
Y6961499D01*
Y6878499D02*
Y6911499D01*
X7291000Y6878499D02*
Y6911499D01*
Y6928499D02*
Y6961499D01*
X7281450D02*
Y6978499D01*
Y6961499D02*
X7295450D01*
Y6956999D02*
Y6961499D01*
Y6956999D02*
X7301000D01*
Y6932999D02*
Y6956999D01*
X7295450Y6932999D02*
X7301000D01*
X7295450Y6928499D02*
Y6932999D01*
X7281450Y6928499D02*
X7295450D01*
X7281450Y6911499D02*
Y6928499D01*
Y6911499D02*
X7295450D01*
Y6906999D02*
Y6911499D01*
Y6906999D02*
X7301000D01*
Y6882999D02*
Y6906999D01*
X7349000Y6932999D02*
Y6956999D01*
X7354550D01*
Y6961499D01*
X7368550D01*
Y6978499D01*
X7349000Y6932999D02*
X7354550D01*
Y6928499D02*
Y6932999D01*
Y6928499D02*
X7368550D01*
Y6911499D02*
Y6928499D01*
X7354550Y6911499D02*
X7368550D01*
X7354550Y6906999D02*
Y6911499D01*
X7349000Y6906999D02*
X7354550D01*
X7349000Y6882999D02*
Y6906999D01*
X7295450Y6882999D02*
X7301000D01*
X7295450Y6878499D02*
Y6882999D01*
X7281450Y6878435D02*
X7295450D01*
X7349000Y6882999D02*
X7354550D01*
Y6878499D02*
Y6882999D01*
Y6878499D02*
X7368550D01*
X7359000Y6828499D02*
Y6861499D01*
Y6778499D02*
Y6811499D01*
X7291000Y6778499D02*
Y6811499D01*
Y6828499D02*
Y6861499D01*
X7281450D02*
Y6878499D01*
Y6861499D02*
X7295450D01*
Y6856999D02*
Y6861499D01*
Y6856999D02*
X7301000D01*
Y6832999D02*
Y6856999D01*
X7295450Y6832999D02*
X7301000D01*
X7295450Y6828499D02*
Y6832999D01*
X7281450Y6828499D02*
X7295450D01*
X7281450Y6811499D02*
Y6828499D01*
Y6811499D02*
X7295450D01*
Y6806999D02*
Y6811499D01*
Y6806999D02*
X7301000D01*
Y6782999D02*
Y6806999D01*
X7349000Y6832999D02*
Y6856999D01*
X7354550D01*
Y6861499D01*
X7368550D01*
Y6878499D01*
X7349000Y6832999D02*
X7354550D01*
Y6828499D02*
Y6832999D01*
Y6828499D02*
X7368550D01*
Y6811499D02*
Y6828499D01*
X7354550Y6811499D02*
X7368550D01*
X7354550Y6806999D02*
Y6811499D01*
X7349000Y6806999D02*
X7354550D01*
X7349000Y6782999D02*
Y6806999D01*
X7295450Y6782999D02*
X7301000D01*
X7295450Y6778499D02*
Y6782999D01*
X7281450Y6778435D02*
X7295450D01*
X7349000Y6782999D02*
X7354550D01*
Y6778499D02*
Y6782999D01*
Y6778499D02*
X7368550D01*
X7359000Y6728499D02*
Y6761499D01*
Y6678499D02*
Y6711499D01*
X7291000Y6678499D02*
Y6711499D01*
Y6728499D02*
Y6761499D01*
X7281450D02*
Y6778499D01*
Y6761499D02*
X7295450D01*
Y6756999D02*
Y6761499D01*
Y6756999D02*
X7301000D01*
Y6732999D02*
Y6756999D01*
X7295450Y6732999D02*
X7301000D01*
X7295450Y6728499D02*
Y6732999D01*
X7281450Y6728499D02*
X7295450D01*
X7281450Y6711499D02*
Y6728499D01*
Y6711499D02*
X7295450D01*
Y6706999D02*
Y6711499D01*
Y6706999D02*
X7301000D01*
Y6682999D02*
Y6706999D01*
X7349000Y6732999D02*
Y6756999D01*
X7354550D01*
Y6761499D01*
X7368550D01*
Y6778499D01*
X7349000Y6732999D02*
X7354550D01*
Y6728499D02*
Y6732999D01*
Y6728499D02*
X7368550D01*
Y6711499D02*
Y6728499D01*
X7354550Y6711499D02*
X7368550D01*
X7354550Y6706999D02*
Y6711499D01*
X7349000Y6706999D02*
X7354550D01*
X7349000Y6682999D02*
Y6706999D01*
X7295450Y6682999D02*
X7301000D01*
X7295450Y6678499D02*
Y6682999D01*
X7281450Y6678435D02*
X7295450D01*
X7349000Y6682999D02*
X7354550D01*
Y6678499D02*
Y6682999D01*
Y6678499D02*
X7368550D01*
X7359000Y6628499D02*
Y6661499D01*
Y6578499D02*
Y6611499D01*
X7291000Y6578499D02*
Y6611499D01*
Y6628499D02*
Y6661499D01*
X7281450D02*
Y6678499D01*
Y6661499D02*
X7295450D01*
Y6656999D02*
Y6661499D01*
Y6656999D02*
X7301000D01*
Y6632999D02*
Y6656999D01*
X7295450Y6632999D02*
X7301000D01*
X7295450Y6628499D02*
Y6632999D01*
X7281450Y6628499D02*
X7295450D01*
X7281450Y6611499D02*
Y6628499D01*
Y6611499D02*
X7295450D01*
Y6606999D02*
Y6611499D01*
Y6606999D02*
X7301000D01*
Y6582999D02*
Y6606999D01*
X7349000Y6632999D02*
Y6656999D01*
X7354550D01*
Y6661499D01*
X7368550D01*
Y6678499D01*
X7349000Y6632999D02*
X7354550D01*
Y6628499D02*
Y6632999D01*
Y6628499D02*
X7368550D01*
Y6611499D02*
Y6628499D01*
X7354550Y6611499D02*
X7368550D01*
X7354550Y6606999D02*
Y6611499D01*
X7349000Y6606999D02*
X7354550D01*
X7349000Y6582999D02*
Y6606999D01*
X7295450Y6582999D02*
X7301000D01*
X7295450Y6578499D02*
Y6582999D01*
X7281450Y6578435D02*
X7295450D01*
X7349000Y6582999D02*
X7354550D01*
Y6578499D02*
Y6582999D01*
Y6578499D02*
X7368550D01*
X7359000Y6528499D02*
Y6561499D01*
Y6478499D02*
Y6511499D01*
X7291000Y6478499D02*
Y6511499D01*
Y6528499D02*
Y6561499D01*
X7281450D02*
Y6578499D01*
Y6561499D02*
X7295450D01*
Y6556999D02*
Y6561499D01*
Y6556999D02*
X7301000D01*
Y6532999D02*
Y6556999D01*
X7295450Y6532999D02*
X7301000D01*
X7295450Y6528499D02*
Y6532999D01*
X7281450Y6528499D02*
X7295450D01*
X7281450Y6511499D02*
Y6528499D01*
Y6511499D02*
X7295450D01*
Y6506999D02*
Y6511499D01*
Y6506999D02*
X7301000D01*
Y6482999D02*
Y6506999D01*
X7349000Y6532999D02*
Y6556999D01*
X7354550D01*
Y6561499D01*
X7368550D01*
Y6578499D01*
X7349000Y6532999D02*
X7354550D01*
Y6528499D02*
Y6532999D01*
Y6528499D02*
X7368550D01*
Y6511499D02*
Y6528499D01*
X7354550Y6511499D02*
X7368550D01*
X7354550Y6506999D02*
Y6511499D01*
X7349000Y6506999D02*
X7354550D01*
X7349000Y6482999D02*
Y6506999D01*
X7295450Y6482999D02*
X7301000D01*
X7295450Y6478499D02*
Y6482999D01*
X7281450Y6478435D02*
X7295450D01*
X7349000Y6482999D02*
X7354550D01*
Y6478499D02*
Y6482999D01*
Y6478499D02*
X7368550D01*
X7359000Y6428499D02*
Y6461499D01*
Y6378499D02*
Y6411499D01*
X7291000Y6378499D02*
Y6411499D01*
Y6428499D02*
Y6461499D01*
X7281450D02*
Y6478499D01*
Y6461499D02*
X7295450D01*
Y6456999D02*
Y6461499D01*
Y6456999D02*
X7301000D01*
Y6432999D02*
Y6456999D01*
X7295450Y6432999D02*
X7301000D01*
X7295450Y6428499D02*
Y6432999D01*
X7281450Y6428499D02*
X7295450D01*
X7281450Y6411499D02*
Y6428499D01*
Y6411499D02*
X7295450D01*
Y6406999D02*
Y6411499D01*
Y6406999D02*
X7301000D01*
Y6382999D02*
Y6406999D01*
X7349000Y6432999D02*
Y6456999D01*
X7354550D01*
Y6461499D01*
X7368550D01*
Y6478499D01*
X7349000Y6432999D02*
X7354550D01*
Y6428499D02*
Y6432999D01*
Y6428499D02*
X7368550D01*
Y6411499D02*
Y6428499D01*
X7354550Y6411499D02*
X7368550D01*
X7354550Y6406999D02*
Y6411499D01*
X7349000Y6406999D02*
X7354550D01*
X7349000Y6382999D02*
Y6406999D01*
X7295450Y6382999D02*
X7301000D01*
X7295450Y6378499D02*
Y6382999D01*
X7281450Y6378435D02*
X7295450D01*
X7349000Y6382999D02*
X7354550D01*
Y6378499D02*
Y6382999D01*
Y6378499D02*
X7368550D01*
X7359000Y6328499D02*
Y6361499D01*
Y6278499D02*
Y6311499D01*
X7291000Y6278499D02*
Y6311499D01*
Y6328499D02*
Y6361499D01*
X7281450D02*
Y6378499D01*
Y6361499D02*
X7295450D01*
Y6356999D02*
Y6361499D01*
Y6356999D02*
X7301000D01*
Y6332999D02*
Y6356999D01*
X7295450Y6332999D02*
X7301000D01*
X7295450Y6328499D02*
Y6332999D01*
X7281450Y6328499D02*
X7295450D01*
X7281450Y6311499D02*
Y6328499D01*
Y6311499D02*
X7295450D01*
Y6306999D02*
Y6311499D01*
Y6306999D02*
X7301000D01*
Y6282999D02*
Y6306999D01*
X7349000Y6332999D02*
Y6356999D01*
X7354550D01*
Y6361499D01*
X7368550D01*
Y6378499D01*
X7349000Y6332999D02*
X7354550D01*
Y6328499D02*
Y6332999D01*
Y6328499D02*
X7368550D01*
Y6311499D02*
Y6328499D01*
X7354550Y6311499D02*
X7368550D01*
X7354550Y6306999D02*
Y6311499D01*
X7349000Y6306999D02*
X7354550D01*
X7349000Y6282999D02*
Y6306999D01*
X7295450Y6282999D02*
X7301000D01*
X7295450Y6278499D02*
Y6282999D01*
X7281450Y6278435D02*
X7295450D01*
X7349000Y6282999D02*
X7354550D01*
Y6278499D02*
Y6282999D01*
Y6278499D02*
X7368550D01*
X7359000Y6228499D02*
Y6261499D01*
Y6178499D02*
Y6211499D01*
X7291000Y6178499D02*
Y6211499D01*
Y6228499D02*
Y6261499D01*
X7281450D02*
Y6278499D01*
Y6261499D02*
X7295450D01*
Y6256999D02*
Y6261499D01*
Y6256999D02*
X7301000D01*
Y6232999D02*
Y6256999D01*
X7295450Y6232999D02*
X7301000D01*
X7295450Y6228499D02*
Y6232999D01*
X7281450Y6228499D02*
X7295450D01*
X7281450Y6211499D02*
Y6228499D01*
Y6211499D02*
X7295450D01*
Y6206999D02*
Y6211499D01*
Y6206999D02*
X7301000D01*
Y6182999D02*
Y6206999D01*
X7349000Y6232999D02*
Y6256999D01*
X7354550D01*
Y6261499D01*
X7368550D01*
Y6278499D01*
X7349000Y6232999D02*
X7354550D01*
Y6228499D02*
Y6232999D01*
Y6228499D02*
X7368550D01*
Y6211499D02*
Y6228499D01*
X7354550Y6211499D02*
X7368550D01*
X7354550Y6206999D02*
Y6211499D01*
X7349000Y6206999D02*
X7354550D01*
X7349000Y6182999D02*
Y6206999D01*
X7295450Y6182999D02*
X7301000D01*
X7295450Y6178499D02*
Y6182999D01*
X7281450Y6178435D02*
X7295450D01*
X7349000Y6182999D02*
X7354550D01*
Y6178499D02*
Y6182999D01*
Y6178499D02*
X7368550D01*
X7359000Y6128499D02*
Y6161499D01*
Y6078499D02*
Y6111499D01*
X7291000Y6078499D02*
Y6111499D01*
Y6128499D02*
Y6161499D01*
X7281450D02*
Y6178499D01*
Y6161499D02*
X7295450D01*
Y6156999D02*
Y6161499D01*
Y6156999D02*
X7301000D01*
Y6132999D02*
Y6156999D01*
X7295450Y6132999D02*
X7301000D01*
X7295450Y6128499D02*
Y6132999D01*
X7281450Y6128499D02*
X7295450D01*
X7281450Y6111499D02*
Y6128499D01*
Y6111499D02*
X7295450D01*
Y6106999D02*
Y6111499D01*
Y6106999D02*
X7301000D01*
Y6082999D02*
Y6106999D01*
X7349000Y6132999D02*
Y6156999D01*
X7354550D01*
Y6161499D01*
X7368550D01*
Y6178499D01*
X7349000Y6132999D02*
X7354550D01*
Y6128499D02*
Y6132999D01*
Y6128499D02*
X7368550D01*
Y6111499D02*
Y6128499D01*
X7354550Y6111499D02*
X7368550D01*
X7354550Y6106999D02*
Y6111499D01*
X7349000Y6106999D02*
X7354550D01*
X7349000Y6082999D02*
Y6106999D01*
X7295450Y6082999D02*
X7301000D01*
X7295450Y6078499D02*
Y6082999D01*
X7281450Y6078435D02*
X7295450D01*
X7349000Y6082999D02*
X7354550D01*
Y6078499D02*
Y6082999D01*
Y6078499D02*
X7368550D01*
X7359000Y6028499D02*
Y6061499D01*
Y5978499D02*
Y6011499D01*
X7291000Y5978499D02*
Y6011499D01*
Y6028499D02*
Y6061499D01*
X7281450D02*
Y6078499D01*
Y6061499D02*
X7295450D01*
Y6056999D02*
Y6061499D01*
Y6056999D02*
X7301000D01*
Y6032999D02*
Y6056999D01*
X7295450Y6032999D02*
X7301000D01*
X7295450Y6028499D02*
Y6032999D01*
X7281450Y6028499D02*
X7295450D01*
X7281450Y6011499D02*
Y6028499D01*
Y6011499D02*
X7295450D01*
Y6006999D02*
Y6011499D01*
Y6006999D02*
X7301000D01*
Y5982999D02*
Y6006999D01*
X7349000Y6032999D02*
Y6056999D01*
X7354550D01*
Y6061499D01*
X7368550D01*
Y6078499D01*
X7349000Y6032999D02*
X7354550D01*
Y6028499D02*
Y6032999D01*
Y6028499D02*
X7368550D01*
Y6011499D02*
Y6028499D01*
X7354550Y6011499D02*
X7368550D01*
X7354550Y6006999D02*
Y6011499D01*
X7349000Y6006999D02*
X7354550D01*
X7349000Y5982999D02*
Y6006999D01*
X7295450Y5982999D02*
X7301000D01*
X7295450Y5978499D02*
Y5982999D01*
X7281450Y5978435D02*
X7295450D01*
X7349000Y5982999D02*
X7354550D01*
Y5978499D02*
Y5982999D01*
Y5978499D02*
X7368550D01*
X7291000Y5928499D02*
Y5961499D01*
X7281450D02*
Y5978499D01*
Y5961499D02*
X7295450D01*
Y5956999D02*
Y5961499D01*
Y5956999D02*
X7301000D01*
Y5932999D02*
Y5956999D01*
X7295450Y5932999D02*
X7301000D01*
X7295450Y5928499D02*
Y5932999D01*
X7281450Y5928435D02*
X7295450D01*
X7281450Y5911499D02*
Y5928499D01*
Y5911499D02*
X7295450D01*
Y5906999D02*
Y5911499D01*
Y5906999D02*
X7301000D01*
Y5884999D02*
Y5906999D01*
X7291000Y5874999D02*
X7301000Y5884999D01*
X7291000Y5874999D02*
Y5911499D01*
X7301000Y5884999D02*
X7349000D01*
X7359000Y5874999D01*
X7349000Y5884999D02*
Y5906999D01*
X7359000Y5874999D02*
Y5911499D01*
Y5928499D02*
Y5961499D01*
X7368550D02*
Y5978499D01*
X7354550Y5961499D02*
X7368550D01*
X7354550Y5956999D02*
Y5961499D01*
X7349000Y5956999D02*
X7354550D01*
X7349000Y5932999D02*
Y5956999D01*
Y5932999D02*
X7354550D01*
Y5928499D02*
Y5932999D01*
Y5928499D02*
X7368550D01*
Y5911499D02*
Y5928499D01*
X7354550Y5911499D02*
X7368550D01*
X7354550Y5906999D02*
Y5911499D01*
X7349000Y5906999D02*
X7354550D01*
X7391000Y7915000D02*
X7459000D01*
X7401000Y7905000D02*
X7449000D01*
Y7883000D02*
Y7905000D01*
X7401000Y7883000D02*
Y7905000D01*
X7449000Y7883000D02*
X7454550D01*
Y7878500D02*
Y7883000D01*
Y7878500D02*
X7468550D01*
Y7861500D02*
Y7878500D01*
X7454550Y7861500D02*
X7468550D01*
X7454550Y7857000D02*
Y7861500D01*
X7449000Y7857000D02*
X7454550D01*
X7449000Y7833000D02*
Y7857000D01*
Y7833000D02*
X7454550D01*
Y7828500D02*
Y7833000D01*
Y7828500D02*
X7468550D01*
Y7811500D02*
Y7828500D01*
X7454550Y7811500D02*
X7468550D01*
X7454550Y7807000D02*
Y7811500D01*
X7449000Y7807000D02*
X7454550D01*
X7449000Y7783000D02*
Y7807000D01*
Y7783000D02*
X7454550D01*
Y7778500D02*
Y7783000D01*
Y7778500D02*
X7468550D01*
X7449000Y5859999D02*
Y5906999D01*
X7401000Y5859999D02*
X7449000D01*
X7401000D02*
Y5906999D01*
X7381450Y7761500D02*
Y7778500D01*
X7395450D01*
Y7783000D01*
X7401000D01*
Y7807000D01*
X7395450D02*
X7401000D01*
X7395450D02*
Y7811500D01*
X7381450D02*
X7395450D01*
X7381450D02*
Y7828500D01*
X7395450D01*
Y7833000D01*
X7401000D01*
Y7857000D01*
X7395450D02*
X7401000D01*
X7395450D02*
Y7861500D01*
X7381450D02*
X7395450D01*
X7381450D02*
Y7878500D01*
X7395450D01*
Y7883000D01*
X7401000D01*
X7391000Y7878500D02*
Y7915000D01*
Y7828500D02*
Y7861500D01*
Y7778500D02*
Y7811500D01*
X7401000Y7905000D02*
X7449000D01*
Y7883000D02*
Y7905000D01*
X7459000Y7915000D01*
X7391000D02*
X7459000D01*
Y7878500D02*
Y7915000D01*
Y7828500D02*
Y7861500D01*
Y7778500D02*
Y7811500D01*
X7381450Y7661500D02*
Y7678500D01*
X7395450D01*
Y7683000D01*
X7401000D01*
Y7707000D01*
X7395450D02*
X7401000D01*
X7395450D02*
Y7711500D01*
X7381450D02*
X7395450D01*
X7381450D02*
Y7728500D01*
X7395450D01*
Y7733000D01*
X7401000D01*
Y7757000D01*
X7395450D02*
X7401000D01*
X7395450D02*
Y7761500D01*
X7381450D02*
X7395450D01*
X7391000Y7728500D02*
Y7761500D01*
Y7678500D02*
Y7711500D01*
X7381450Y7561500D02*
Y7578500D01*
X7395450D01*
Y7583000D01*
X7401000D01*
Y7607000D01*
X7395450D02*
X7401000D01*
X7395450D02*
Y7611500D01*
X7381450D02*
X7395450D01*
X7381450D02*
Y7628500D01*
X7395450D01*
Y7633000D01*
X7401000D01*
Y7657000D01*
X7395450D02*
X7401000D01*
X7395450D02*
Y7661500D01*
X7381450D02*
X7395450D01*
X7391000Y7628500D02*
Y7661500D01*
Y7578500D02*
Y7611500D01*
X7381450Y7461500D02*
Y7478500D01*
X7395450D01*
Y7483000D01*
X7401000D01*
Y7507000D01*
X7395450D02*
X7401000D01*
X7395450D02*
Y7511500D01*
X7381450D02*
X7395450D01*
X7381450D02*
Y7528500D01*
X7395450D01*
Y7533000D01*
X7401000D01*
Y7557000D01*
X7395450D02*
X7401000D01*
X7395450D02*
Y7561500D01*
X7381450D02*
X7395450D01*
X7391000Y7528500D02*
Y7561500D01*
Y7478500D02*
Y7511500D01*
X7381450Y7361500D02*
Y7378500D01*
X7395450D01*
Y7383000D01*
X7401000D01*
Y7407000D01*
X7395450D02*
X7401000D01*
X7395450D02*
Y7411500D01*
X7381450D02*
X7395450D01*
X7381450D02*
Y7428500D01*
X7395450D01*
Y7433000D01*
X7401000D01*
Y7457000D01*
X7395450D02*
X7401000D01*
X7395450D02*
Y7461500D01*
X7381450D02*
X7395450D01*
X7391000Y7428500D02*
Y7461500D01*
Y7378500D02*
Y7411500D01*
X7381450Y7261500D02*
Y7278500D01*
X7395450D01*
Y7283000D01*
X7401000D01*
Y7307000D01*
X7395450D02*
X7401000D01*
X7395450D02*
Y7311500D01*
X7381450D02*
X7395450D01*
X7381450D02*
Y7328500D01*
X7395450D01*
Y7333000D01*
X7401000D01*
Y7357000D01*
X7395450D02*
X7401000D01*
X7395450D02*
Y7361500D01*
X7381450D02*
X7395450D01*
X7391000Y7328500D02*
Y7361500D01*
Y7278500D02*
Y7311500D01*
X7381450Y7161500D02*
Y7178500D01*
X7395450D01*
Y7183000D01*
X7401000D01*
Y7207000D01*
X7395450D02*
X7401000D01*
X7395450D02*
Y7211500D01*
X7381450D02*
X7395450D01*
X7381450D02*
Y7228500D01*
X7395450D01*
Y7233000D01*
X7401000D01*
Y7257000D01*
X7395450D02*
X7401000D01*
X7395450D02*
Y7261500D01*
X7381450D02*
X7395450D01*
X7391000Y7228500D02*
Y7261500D01*
Y7178500D02*
Y7211500D01*
X7381450Y7061500D02*
Y7078500D01*
X7395450D01*
Y7083000D01*
X7401000D01*
Y7107000D01*
X7395450D02*
X7401000D01*
X7395450D02*
Y7111500D01*
X7381450D02*
X7395450D01*
X7381450D02*
Y7128500D01*
X7395450D01*
Y7133000D01*
X7401000D01*
Y7157000D01*
X7395450D02*
X7401000D01*
X7395450D02*
Y7161500D01*
X7381450D02*
X7395450D01*
X7391000Y7128500D02*
Y7161500D01*
Y7078500D02*
Y7111500D01*
X7381450Y6961499D02*
Y6978499D01*
X7395450D01*
Y6982999D01*
X7401000D01*
Y7007000D01*
X7395450D02*
X7401000D01*
X7395450D02*
Y7011500D01*
X7381450D02*
X7395450D01*
X7381450D02*
Y7028500D01*
X7395450D01*
Y7033000D01*
X7401000D01*
Y7057000D01*
X7395450D02*
X7401000D01*
X7395450D02*
Y7061500D01*
X7381450D02*
X7395450D01*
X7391000Y7028500D02*
Y7061500D01*
Y6978499D02*
Y7011500D01*
X7381450Y6861499D02*
Y6878499D01*
X7395450D01*
Y6882999D01*
X7401000D01*
Y6906999D01*
X7395450D02*
X7401000D01*
X7395450D02*
Y6911499D01*
X7381450D02*
X7395450D01*
X7381450D02*
Y6928499D01*
X7395450D01*
Y6932999D01*
X7401000D01*
Y6956999D01*
X7395450D02*
X7401000D01*
X7395450D02*
Y6961499D01*
X7381450D02*
X7395450D01*
X7391000Y6928499D02*
Y6961499D01*
Y6878499D02*
Y6911499D01*
X7381450Y6761499D02*
Y6778499D01*
X7395450D01*
Y6782999D01*
X7401000D01*
Y6806999D01*
X7395450D02*
X7401000D01*
X7395450D02*
Y6811499D01*
X7381450D02*
X7395450D01*
X7381450D02*
Y6828499D01*
X7395450D01*
Y6832999D01*
X7401000D01*
Y6856999D01*
X7395450D02*
X7401000D01*
X7395450D02*
Y6861499D01*
X7381450D02*
X7395450D01*
X7391000Y6828499D02*
Y6861499D01*
Y6778499D02*
Y6811499D01*
X7381450Y6661499D02*
Y6678499D01*
X7395450D01*
Y6682999D01*
X7401000D01*
Y6706999D01*
X7395450D02*
X7401000D01*
X7395450D02*
Y6711499D01*
X7381450D02*
X7395450D01*
X7381450D02*
Y6728499D01*
X7395450D01*
Y6732999D01*
X7401000D01*
Y6756999D01*
X7395450D02*
X7401000D01*
X7395450D02*
Y6761499D01*
X7381450D02*
X7395450D01*
X7391000Y6728499D02*
Y6761499D01*
Y6678499D02*
Y6711499D01*
X7381450Y6561499D02*
Y6578499D01*
X7395450D01*
Y6582999D01*
X7401000D01*
Y6606999D01*
X7395450D02*
X7401000D01*
X7395450D02*
Y6611499D01*
X7381450D02*
X7395450D01*
X7381450D02*
Y6628499D01*
X7395450D01*
Y6632999D01*
X7401000D01*
Y6656999D01*
X7395450D02*
X7401000D01*
X7395450D02*
Y6661499D01*
X7381450D02*
X7395450D01*
X7391000Y6628499D02*
Y6661499D01*
Y6578499D02*
Y6611499D01*
X7381450Y6461499D02*
Y6478499D01*
X7395450D01*
Y6482999D01*
X7401000D01*
Y6506999D01*
X7395450D02*
X7401000D01*
X7395450D02*
Y6511499D01*
X7381450D02*
X7395450D01*
X7381450D02*
Y6528499D01*
X7395450D01*
Y6532999D01*
X7401000D01*
Y6556999D01*
X7395450D02*
X7401000D01*
X7395450D02*
Y6561499D01*
X7381450D02*
X7395450D01*
X7391000Y6528499D02*
Y6561499D01*
Y6478499D02*
Y6511499D01*
X7381450Y6361499D02*
Y6378499D01*
X7395450D01*
Y6382999D01*
X7401000D01*
Y6406999D01*
X7395450D02*
X7401000D01*
X7395450D02*
Y6411499D01*
X7381450D02*
X7395450D01*
X7381450D02*
Y6428499D01*
X7395450D01*
Y6432999D01*
X7401000D01*
Y6456999D01*
X7395450D02*
X7401000D01*
X7395450D02*
Y6461499D01*
X7381450D02*
X7395450D01*
X7391000Y6428499D02*
Y6461499D01*
Y6378499D02*
Y6411499D01*
X7381450Y6261499D02*
Y6278499D01*
X7395450D01*
Y6282999D01*
X7401000D01*
Y6306999D01*
X7395450D02*
X7401000D01*
X7395450D02*
Y6311499D01*
X7381450D02*
X7395450D01*
X7381450D02*
Y6328499D01*
X7395450D01*
Y6332999D01*
X7401000D01*
Y6356999D01*
X7395450D02*
X7401000D01*
X7395450D02*
Y6361499D01*
X7381450D02*
X7395450D01*
X7391000Y6328499D02*
Y6361499D01*
Y6278499D02*
Y6311499D01*
X7381450Y6161499D02*
Y6178499D01*
X7395450D01*
Y6182999D01*
X7401000D01*
Y6206999D01*
X7395450D02*
X7401000D01*
X7395450D02*
Y6211499D01*
X7381450D02*
X7395450D01*
X7381450D02*
Y6228499D01*
X7395450D01*
Y6232999D01*
X7401000D01*
Y6256999D01*
X7395450D02*
X7401000D01*
X7395450D02*
Y6261499D01*
X7381450D02*
X7395450D01*
X7391000Y6228499D02*
Y6261499D01*
Y6178499D02*
Y6211499D01*
X7381450Y6061499D02*
Y6078499D01*
X7395450D01*
Y6082999D01*
X7401000D01*
Y6106999D01*
X7395450D02*
X7401000D01*
X7395450D02*
Y6111499D01*
X7381450D02*
X7395450D01*
X7381450D02*
Y6128499D01*
X7395450D01*
Y6132999D01*
X7401000D01*
Y6156999D01*
X7395450D02*
X7401000D01*
X7395450D02*
Y6161499D01*
X7381450D02*
X7395450D01*
X7391000Y6128499D02*
Y6161499D01*
Y6078499D02*
Y6111499D01*
X7381450Y5961499D02*
Y5978499D01*
X7395450D01*
Y5982999D01*
X7401000D01*
Y6006999D01*
X7395450D02*
X7401000D01*
X7395450D02*
Y6011499D01*
X7381450D02*
X7395450D01*
X7381450D02*
Y6028499D01*
X7395450D01*
Y6032999D01*
X7401000D01*
Y6056999D01*
X7395450D02*
X7401000D01*
X7395450D02*
Y6061499D01*
X7381450D02*
X7395450D01*
X7391000Y6028499D02*
Y6061499D01*
Y5978499D02*
Y6011499D01*
X7381450Y5911499D02*
Y5928499D01*
X7395450D01*
Y5932999D01*
X7401000D01*
Y5956999D01*
X7395450D02*
X7401000D01*
X7395450D02*
Y5961499D01*
X7381450D02*
X7395450D01*
X7391000Y5928499D02*
Y5961499D01*
X7381450Y5911499D02*
X7395450D01*
Y5906999D02*
Y5911499D01*
Y5906999D02*
X7401000D01*
Y5859999D02*
Y5906999D01*
X7391000Y5849999D02*
Y5911499D01*
X7468550Y7761500D02*
Y7778500D01*
X7454550Y7761500D02*
X7468550D01*
X7454550Y7757000D02*
Y7761500D01*
X7449000Y7757000D02*
X7454550D01*
X7449000Y7733000D02*
Y7757000D01*
Y7733000D02*
X7454550D01*
Y7728500D02*
Y7733000D01*
Y7728500D02*
X7468550D01*
Y7711500D02*
Y7728500D01*
X7454550Y7711500D02*
X7468550D01*
X7454550Y7707000D02*
Y7711500D01*
X7449000Y7707000D02*
X7454550D01*
X7449000Y7683000D02*
Y7707000D01*
Y7683000D02*
X7454550D01*
Y7678500D02*
Y7683000D01*
Y7678500D02*
X7468550D01*
X7459000Y7728500D02*
Y7761500D01*
Y7678500D02*
Y7711500D01*
X7468550Y7661500D02*
Y7678500D01*
X7454550Y7661500D02*
X7468550D01*
X7454550Y7657000D02*
Y7661500D01*
X7449000Y7657000D02*
X7454550D01*
X7449000Y7633000D02*
Y7657000D01*
Y7633000D02*
X7454550D01*
Y7628500D02*
Y7633000D01*
Y7628500D02*
X7468550D01*
Y7611500D02*
Y7628500D01*
X7454550Y7611500D02*
X7468550D01*
X7454550Y7607000D02*
Y7611500D01*
X7449000Y7607000D02*
X7454550D01*
X7449000Y7583000D02*
Y7607000D01*
Y7583000D02*
X7454550D01*
Y7578500D02*
Y7583000D01*
Y7578500D02*
X7468550D01*
X7459000Y7628500D02*
Y7661500D01*
Y7578500D02*
Y7611500D01*
X7468550Y7561500D02*
Y7578500D01*
X7454550Y7561500D02*
X7468550D01*
X7454550Y7557000D02*
Y7561500D01*
X7449000Y7557000D02*
X7454550D01*
X7449000Y7533000D02*
Y7557000D01*
Y7533000D02*
X7454550D01*
Y7528500D02*
Y7533000D01*
Y7528500D02*
X7468550D01*
Y7511500D02*
Y7528500D01*
X7454550Y7511500D02*
X7468550D01*
X7454550Y7507000D02*
Y7511500D01*
X7449000Y7507000D02*
X7454550D01*
X7449000Y7483000D02*
Y7507000D01*
Y7483000D02*
X7454550D01*
Y7478500D02*
Y7483000D01*
Y7478500D02*
X7468550D01*
X7459000Y7528500D02*
Y7561500D01*
Y7478500D02*
Y7511500D01*
X7468550Y7461500D02*
Y7478500D01*
X7454550Y7461500D02*
X7468550D01*
X7454550Y7457000D02*
Y7461500D01*
X7449000Y7457000D02*
X7454550D01*
X7449000Y7433000D02*
Y7457000D01*
Y7433000D02*
X7454550D01*
Y7428500D02*
Y7433000D01*
Y7428500D02*
X7468550D01*
Y7411500D02*
Y7428500D01*
X7454550Y7411500D02*
X7468550D01*
X7454550Y7407000D02*
Y7411500D01*
X7449000Y7407000D02*
X7454550D01*
X7449000Y7383000D02*
Y7407000D01*
Y7383000D02*
X7454550D01*
Y7378500D02*
Y7383000D01*
Y7378500D02*
X7468550D01*
X7459000Y7428500D02*
Y7461500D01*
Y7378500D02*
Y7411500D01*
X7468550Y7361500D02*
Y7378500D01*
X7454550Y7361500D02*
X7468550D01*
X7454550Y7357000D02*
Y7361500D01*
X7449000Y7357000D02*
X7454550D01*
X7449000Y7333000D02*
Y7357000D01*
Y7333000D02*
X7454550D01*
Y7328500D02*
Y7333000D01*
Y7328500D02*
X7468550D01*
Y7311500D02*
Y7328500D01*
X7454550Y7311500D02*
X7468550D01*
X7454550Y7307000D02*
Y7311500D01*
X7449000Y7307000D02*
X7454550D01*
X7449000Y7283000D02*
Y7307000D01*
Y7283000D02*
X7454550D01*
Y7278500D02*
Y7283000D01*
Y7278500D02*
X7468550D01*
X7459000Y7328500D02*
Y7361500D01*
Y7278500D02*
Y7311500D01*
X7468550Y7261500D02*
Y7278500D01*
X7454550Y7261500D02*
X7468550D01*
X7454550Y7257000D02*
Y7261500D01*
X7449000Y7257000D02*
X7454550D01*
X7449000Y7233000D02*
Y7257000D01*
Y7233000D02*
X7454550D01*
Y7228500D02*
Y7233000D01*
Y7228500D02*
X7468550D01*
Y7211500D02*
Y7228500D01*
X7454550Y7211500D02*
X7468550D01*
X7454550Y7207000D02*
Y7211500D01*
X7449000Y7207000D02*
X7454550D01*
X7449000Y7183000D02*
Y7207000D01*
Y7183000D02*
X7454550D01*
Y7178500D02*
Y7183000D01*
Y7178500D02*
X7468550D01*
X7459000Y7228500D02*
Y7261500D01*
Y7178500D02*
Y7211500D01*
X7468550Y7161500D02*
Y7178500D01*
X7454550Y7161500D02*
X7468550D01*
X7454550Y7157000D02*
Y7161500D01*
X7449000Y7157000D02*
X7454550D01*
X7449000Y7133000D02*
Y7157000D01*
Y7133000D02*
X7454550D01*
Y7128500D02*
Y7133000D01*
Y7128500D02*
X7468550D01*
Y7111500D02*
Y7128500D01*
X7454550Y7111500D02*
X7468550D01*
X7454550Y7107000D02*
Y7111500D01*
X7449000Y7107000D02*
X7454550D01*
X7449000Y7083000D02*
Y7107000D01*
Y7083000D02*
X7454550D01*
Y7078500D02*
Y7083000D01*
Y7078500D02*
X7468550D01*
X7459000Y7128500D02*
Y7161500D01*
Y7078500D02*
Y7111500D01*
X7468550Y7061500D02*
Y7078500D01*
X7454550Y7061500D02*
X7468550D01*
X7454550Y7057000D02*
Y7061500D01*
X7449000Y7057000D02*
X7454550D01*
X7449000Y7033000D02*
Y7057000D01*
Y7033000D02*
X7454550D01*
Y7028500D02*
Y7033000D01*
Y7028500D02*
X7468550D01*
Y7011500D02*
Y7028500D01*
X7454550Y7011500D02*
X7468550D01*
X7454550Y7007000D02*
Y7011500D01*
X7449000Y7007000D02*
X7454550D01*
X7449000Y6982999D02*
Y7007000D01*
Y6982999D02*
X7454550D01*
Y6978499D02*
Y6982999D01*
Y6978499D02*
X7468550D01*
X7459000Y7028500D02*
Y7061500D01*
Y6978499D02*
Y7011500D01*
X7468550Y6961499D02*
Y6978499D01*
X7454550Y6961499D02*
X7468550D01*
X7454550Y6956999D02*
Y6961499D01*
X7449000Y6956999D02*
X7454550D01*
X7449000Y6932999D02*
Y6956999D01*
Y6932999D02*
X7454550D01*
Y6928499D02*
Y6932999D01*
Y6928499D02*
X7468550D01*
Y6911499D02*
Y6928499D01*
X7454550Y6911499D02*
X7468550D01*
X7454550Y6906999D02*
Y6911499D01*
X7449000Y6906999D02*
X7454550D01*
X7449000Y6882999D02*
Y6906999D01*
Y6882999D02*
X7454550D01*
Y6878499D02*
Y6882999D01*
Y6878499D02*
X7468550D01*
X7459000Y6928499D02*
Y6961499D01*
Y6878499D02*
Y6911499D01*
X7468550Y6861499D02*
Y6878499D01*
X7454550Y6861499D02*
X7468550D01*
X7454550Y6856999D02*
Y6861499D01*
X7449000Y6856999D02*
X7454550D01*
X7449000Y6832999D02*
Y6856999D01*
Y6832999D02*
X7454550D01*
Y6828499D02*
Y6832999D01*
Y6828499D02*
X7468550D01*
Y6811499D02*
Y6828499D01*
X7454550Y6811499D02*
X7468550D01*
X7454550Y6806999D02*
Y6811499D01*
X7449000Y6806999D02*
X7454550D01*
X7449000Y6782999D02*
Y6806999D01*
Y6782999D02*
X7454550D01*
Y6778499D02*
Y6782999D01*
Y6778499D02*
X7468550D01*
X7459000Y6828499D02*
Y6861499D01*
Y6778499D02*
Y6811499D01*
X7468550Y6761499D02*
Y6778499D01*
X7454550Y6761499D02*
X7468550D01*
X7454550Y6756999D02*
Y6761499D01*
X7449000Y6756999D02*
X7454550D01*
X7449000Y6732999D02*
Y6756999D01*
Y6732999D02*
X7454550D01*
Y6728499D02*
Y6732999D01*
Y6728499D02*
X7468550D01*
Y6711499D02*
Y6728499D01*
X7454550Y6711499D02*
X7468550D01*
X7454550Y6706999D02*
Y6711499D01*
X7449000Y6706999D02*
X7454550D01*
X7449000Y6682999D02*
Y6706999D01*
Y6682999D02*
X7454550D01*
Y6678499D02*
Y6682999D01*
Y6678499D02*
X7468550D01*
X7459000Y6728499D02*
Y6761499D01*
Y6678499D02*
Y6711499D01*
X7468550Y6661499D02*
Y6678499D01*
X7454550Y6661499D02*
X7468550D01*
X7454550Y6656999D02*
Y6661499D01*
X7449000Y6656999D02*
X7454550D01*
X7449000Y6632999D02*
Y6656999D01*
Y6632999D02*
X7454550D01*
Y6628499D02*
Y6632999D01*
Y6628499D02*
X7468550D01*
Y6611499D02*
Y6628499D01*
X7454550Y6611499D02*
X7468550D01*
X7454550Y6606999D02*
Y6611499D01*
X7449000Y6606999D02*
X7454550D01*
X7449000Y6582999D02*
Y6606999D01*
Y6582999D02*
X7454550D01*
Y6578499D02*
Y6582999D01*
Y6578499D02*
X7468550D01*
X7459000Y6628499D02*
Y6661499D01*
Y6578499D02*
Y6611499D01*
X7468550Y6561499D02*
Y6578499D01*
X7454550Y6561499D02*
X7468550D01*
X7454550Y6556999D02*
Y6561499D01*
X7449000Y6556999D02*
X7454550D01*
X7449000Y6532999D02*
Y6556999D01*
Y6532999D02*
X7454550D01*
Y6528499D02*
Y6532999D01*
Y6528499D02*
X7468550D01*
Y6511499D02*
Y6528499D01*
X7454550Y6511499D02*
X7468550D01*
X7454550Y6506999D02*
Y6511499D01*
X7449000Y6506999D02*
X7454550D01*
X7449000Y6482999D02*
Y6506999D01*
Y6482999D02*
X7454550D01*
Y6478499D02*
Y6482999D01*
Y6478499D02*
X7468550D01*
X7459000Y6528499D02*
Y6561499D01*
Y6478499D02*
Y6511499D01*
X7468550Y6461499D02*
Y6478499D01*
X7454550Y6461499D02*
X7468550D01*
X7454550Y6456999D02*
Y6461499D01*
X7449000Y6456999D02*
X7454550D01*
X7449000Y6432999D02*
Y6456999D01*
Y6432999D02*
X7454550D01*
Y6428499D02*
Y6432999D01*
Y6428499D02*
X7468550D01*
Y6411499D02*
Y6428499D01*
X7454550Y6411499D02*
X7468550D01*
X7454550Y6406999D02*
Y6411499D01*
X7449000Y6406999D02*
X7454550D01*
X7449000Y6382999D02*
Y6406999D01*
Y6382999D02*
X7454550D01*
Y6378499D02*
Y6382999D01*
Y6378499D02*
X7468550D01*
X7459000Y6428499D02*
Y6461499D01*
Y6378499D02*
Y6411499D01*
X7468550Y6361499D02*
Y6378499D01*
X7454550Y6361499D02*
X7468550D01*
X7454550Y6356999D02*
Y6361499D01*
X7449000Y6356999D02*
X7454550D01*
X7449000Y6332999D02*
Y6356999D01*
Y6332999D02*
X7454550D01*
Y6328499D02*
Y6332999D01*
Y6328499D02*
X7468550D01*
Y6311499D02*
Y6328499D01*
X7454550Y6311499D02*
X7468550D01*
X7454550Y6306999D02*
Y6311499D01*
X7449000Y6306999D02*
X7454550D01*
X7449000Y6282999D02*
Y6306999D01*
Y6282999D02*
X7454550D01*
Y6278499D02*
Y6282999D01*
Y6278499D02*
X7468550D01*
X7459000Y6328499D02*
Y6361499D01*
Y6278499D02*
Y6311499D01*
X7468550Y6261499D02*
Y6278499D01*
X7454550Y6261499D02*
X7468550D01*
X7454550Y6256999D02*
Y6261499D01*
X7449000Y6256999D02*
X7454550D01*
X7449000Y6232999D02*
Y6256999D01*
Y6232999D02*
X7454550D01*
Y6228499D02*
Y6232999D01*
Y6228499D02*
X7468550D01*
Y6211499D02*
Y6228499D01*
X7454550Y6211499D02*
X7468550D01*
X7454550Y6206999D02*
Y6211499D01*
X7449000Y6206999D02*
X7454550D01*
X7449000Y6182999D02*
Y6206999D01*
Y6182999D02*
X7454550D01*
Y6178499D02*
Y6182999D01*
Y6178499D02*
X7468550D01*
X7459000Y6228499D02*
Y6261499D01*
Y6178499D02*
Y6211499D01*
X7468550Y6161499D02*
Y6178499D01*
X7454550Y6161499D02*
X7468550D01*
X7454550Y6156999D02*
Y6161499D01*
X7449000Y6156999D02*
X7454550D01*
X7449000Y6132999D02*
Y6156999D01*
Y6132999D02*
X7454550D01*
Y6128499D02*
Y6132999D01*
Y6128499D02*
X7468550D01*
Y6111499D02*
Y6128499D01*
X7454550Y6111499D02*
X7468550D01*
X7454550Y6106999D02*
Y6111499D01*
X7449000Y6106999D02*
X7454550D01*
X7449000Y6082999D02*
Y6106999D01*
Y6082999D02*
X7454550D01*
Y6078499D02*
Y6082999D01*
Y6078499D02*
X7468550D01*
X7459000Y6128499D02*
Y6161499D01*
Y6078499D02*
Y6111499D01*
X7468550Y6061499D02*
Y6078499D01*
X7454550Y6061499D02*
X7468550D01*
X7454550Y6056999D02*
Y6061499D01*
X7449000Y6056999D02*
X7454550D01*
X7449000Y6032999D02*
Y6056999D01*
Y6032999D02*
X7454550D01*
Y6028499D02*
Y6032999D01*
Y6028499D02*
X7468550D01*
Y6011499D02*
Y6028499D01*
X7454550Y6011499D02*
X7468550D01*
X7454550Y6006999D02*
Y6011499D01*
X7449000Y6006999D02*
X7454550D01*
X7449000Y5982999D02*
Y6006999D01*
Y5982999D02*
X7454550D01*
Y5978499D02*
Y5982999D01*
Y5978499D02*
X7468550D01*
X7459000Y6028499D02*
Y6061499D01*
Y5978499D02*
Y6011499D01*
X7468550Y5961499D02*
Y5978499D01*
X7454550Y5961499D02*
X7468550D01*
X7454550Y5956999D02*
Y5961499D01*
X7449000Y5956999D02*
X7454550D01*
X7449000Y5932999D02*
Y5956999D01*
Y5932999D02*
X7454550D01*
Y5928499D02*
Y5932999D01*
Y5928499D02*
X7468550D01*
X7459000D02*
Y5961499D01*
X7468550Y5911499D02*
Y5928499D01*
X7454550Y5911499D02*
X7468550D01*
X7454550Y5906999D02*
Y5911499D01*
X7449000Y5906999D02*
X7454550D01*
X7391000Y5849999D02*
X7459000D01*
X7449000Y5859999D02*
X7459000Y5849999D01*
Y5911499D01*
X7159000Y5849999D02*
Y5911499D01*
X7491000Y7878500D02*
Y7946000D01*
X7501000Y7956000D01*
X7491000Y5978499D02*
Y6011499D01*
Y5928499D02*
Y5961499D01*
Y5843999D02*
Y5911499D01*
X7501000Y5833999D02*
Y5906999D01*
Y5932999D02*
Y5956999D01*
Y5982999D02*
Y6006999D01*
X7491000Y5843999D02*
X7501000Y5833999D01*
X7495450Y5906999D02*
X7501000D01*
X7495450D02*
Y5911499D01*
X7481450D02*
X7495450D01*
X7481450D02*
Y5928499D01*
X7495450D01*
Y5932999D01*
X7501000D01*
Y5956999D01*
X7495450D02*
X7501000D01*
X7495450D02*
Y5961499D01*
X7481450D02*
X7495450D01*
X7481450D02*
Y5978499D01*
X7495450D01*
Y5982999D01*
X7501000D01*
Y6006999D01*
X7495450D02*
X7501000D01*
X7495450D02*
Y6011499D01*
X7481450D02*
X7495450D01*
X7481450D02*
Y6028499D01*
X7491000Y5843999D02*
Y5911499D01*
Y5928499D02*
Y5961499D01*
Y5978499D02*
Y6011499D01*
Y6078499D02*
Y6111499D01*
Y6028499D02*
Y6061499D01*
X7501000Y6032999D02*
Y6056999D01*
Y6082999D02*
Y6106999D01*
X7481450Y6028499D02*
X7495450D01*
Y6032999D01*
X7501000D01*
Y6056999D01*
X7495450D02*
X7501000D01*
X7495450D02*
Y6061499D01*
X7481450D02*
X7495450D01*
X7481450D02*
Y6078499D01*
X7495450D01*
Y6082999D01*
X7501000D01*
Y6106999D01*
X7495450D02*
X7501000D01*
X7495450D02*
Y6111499D01*
X7481450D02*
X7495450D01*
X7481450D02*
Y6128499D01*
X7491000Y6028499D02*
Y6061499D01*
Y6078499D02*
Y6111499D01*
Y6178499D02*
Y6211499D01*
Y6128499D02*
Y6161499D01*
X7501000Y6132999D02*
Y6156999D01*
Y6182999D02*
Y6206999D01*
X7481450Y6128499D02*
X7495450D01*
Y6132999D01*
X7501000D01*
Y6156999D01*
X7495450D02*
X7501000D01*
X7495450D02*
Y6161499D01*
X7481450D02*
X7495450D01*
X7481450D02*
Y6178499D01*
X7495450D01*
Y6182999D01*
X7501000D01*
Y6206999D01*
X7495450D02*
X7501000D01*
X7495450D02*
Y6211499D01*
X7481450D02*
X7495450D01*
X7481450D02*
Y6228499D01*
X7491000Y6128499D02*
Y6161499D01*
Y6178499D02*
Y6211499D01*
Y6278499D02*
Y6311499D01*
Y6228499D02*
Y6261499D01*
X7501000Y6232999D02*
Y6256999D01*
Y6282999D02*
Y6306999D01*
X7481450Y6228499D02*
X7495450D01*
Y6232999D01*
X7501000D01*
Y6256999D01*
X7495450D02*
X7501000D01*
X7495450D02*
Y6261499D01*
X7481450D02*
X7495450D01*
X7481450D02*
Y6278499D01*
X7495450D01*
Y6282999D01*
X7501000D01*
Y6306999D01*
X7495450D02*
X7501000D01*
X7495450D02*
Y6311499D01*
X7481450D02*
X7495450D01*
X7481450D02*
Y6328499D01*
X7491000Y6228499D02*
Y6261499D01*
Y6278499D02*
Y6311499D01*
Y6378499D02*
Y6411499D01*
Y6328499D02*
Y6361499D01*
X7501000Y6332999D02*
Y6356999D01*
Y6382999D02*
Y6406999D01*
X7481450Y6328499D02*
X7495450D01*
Y6332999D01*
X7501000D01*
Y6356999D01*
X7495450D02*
X7501000D01*
X7495450D02*
Y6361499D01*
X7481450D02*
X7495450D01*
X7481450D02*
Y6378499D01*
X7495450D01*
Y6382999D01*
X7501000D01*
Y6406999D01*
X7495450D02*
X7501000D01*
X7495450D02*
Y6411499D01*
X7481450D02*
X7495450D01*
X7481450D02*
Y6428499D01*
X7491000Y6328499D02*
Y6361499D01*
Y6378499D02*
Y6411499D01*
Y6478499D02*
Y6511499D01*
Y6428499D02*
Y6461499D01*
X7501000Y6432999D02*
Y6456999D01*
Y6482999D02*
Y6506999D01*
X7481450Y6428499D02*
X7495450D01*
Y6432999D01*
X7501000D01*
Y6456999D01*
X7495450D02*
X7501000D01*
X7495450D02*
Y6461499D01*
X7481450D02*
X7495450D01*
X7481450D02*
Y6478499D01*
X7495450D01*
Y6482999D01*
X7501000D01*
Y6506999D01*
X7495450D02*
X7501000D01*
X7495450D02*
Y6511499D01*
X7481450D02*
X7495450D01*
X7481450D02*
Y6528499D01*
X7491000Y6428499D02*
Y6461499D01*
Y6478499D02*
Y6511499D01*
Y6578499D02*
Y6611499D01*
Y6528499D02*
Y6561499D01*
X7501000Y6532999D02*
Y6556999D01*
Y6582999D02*
Y6606999D01*
X7481450Y6528499D02*
X7495450D01*
Y6532999D01*
X7501000D01*
Y6556999D01*
X7495450D02*
X7501000D01*
X7495450D02*
Y6561499D01*
X7481450D02*
X7495450D01*
X7481450D02*
Y6578499D01*
X7495450D01*
Y6582999D01*
X7501000D01*
Y6606999D01*
X7495450D02*
X7501000D01*
X7495450D02*
Y6611499D01*
X7481450D02*
X7495450D01*
X7481450D02*
Y6628499D01*
X7491000Y6528499D02*
Y6561499D01*
Y6578499D02*
Y6611499D01*
Y6678499D02*
Y6711499D01*
Y6628499D02*
Y6661499D01*
X7501000Y6632999D02*
Y6656999D01*
Y6682999D02*
Y6706999D01*
X7481450Y6628499D02*
X7495450D01*
Y6632999D01*
X7501000D01*
Y6656999D01*
X7495450D02*
X7501000D01*
X7495450D02*
Y6661499D01*
X7481450D02*
X7495450D01*
X7481450D02*
Y6678499D01*
X7495450D01*
Y6682999D01*
X7501000D01*
Y6706999D01*
X7495450D02*
X7501000D01*
X7495450D02*
Y6711499D01*
X7481450D02*
X7495450D01*
X7481450D02*
Y6728499D01*
X7491000Y6628499D02*
Y6661499D01*
Y6678499D02*
Y6711499D01*
Y6778499D02*
Y6811499D01*
Y6728499D02*
Y6761499D01*
X7501000Y6732999D02*
Y6756999D01*
Y6782999D02*
Y6806999D01*
X7481450Y6728499D02*
X7495450D01*
Y6732999D01*
X7501000D01*
Y6756999D01*
X7495450D02*
X7501000D01*
X7495450D02*
Y6761499D01*
X7481450D02*
X7495450D01*
X7481450D02*
Y6778499D01*
X7495450D01*
Y6782999D01*
X7501000D01*
Y6806999D01*
X7495450D02*
X7501000D01*
X7495450D02*
Y6811499D01*
X7481450D02*
X7495450D01*
X7481450D02*
Y6828499D01*
X7491000Y6728499D02*
Y6761499D01*
Y6778499D02*
Y6811499D01*
Y6878499D02*
Y6911499D01*
Y6828499D02*
Y6861499D01*
X7501000Y6832999D02*
Y6856999D01*
Y6882999D02*
Y6906999D01*
X7481450Y6828499D02*
X7495450D01*
Y6832999D01*
X7501000D01*
Y6856999D01*
X7495450D02*
X7501000D01*
X7495450D02*
Y6861499D01*
X7481450D02*
X7495450D01*
X7481450D02*
Y6878499D01*
X7495450D01*
Y6882999D01*
X7501000D01*
Y6906999D01*
X7495450D02*
X7501000D01*
X7495450D02*
Y6911499D01*
X7481450D02*
X7495450D01*
X7481450D02*
Y6928499D01*
X7491000Y6828499D02*
Y6861499D01*
Y6878499D02*
Y6911499D01*
Y6978499D02*
Y7011500D01*
Y6928499D02*
Y6961499D01*
X7501000Y6932999D02*
Y6956999D01*
Y6982999D02*
Y7007000D01*
X7481450Y6928499D02*
X7495450D01*
Y6932999D01*
X7501000D01*
Y6956999D01*
X7495450D02*
X7501000D01*
X7495450D02*
Y6961499D01*
X7481450D02*
X7495450D01*
X7481450D02*
Y6978499D01*
X7495450D01*
Y6982999D01*
X7501000D01*
Y7007000D01*
X7495450D02*
X7501000D01*
X7495450D02*
Y7011500D01*
X7481450D02*
X7495450D01*
X7481450D02*
Y7028500D01*
X7491000Y6928499D02*
Y6961499D01*
Y6978499D02*
Y7011500D01*
Y7078500D02*
Y7111500D01*
Y7028500D02*
Y7061500D01*
X7501000Y7033000D02*
Y7057000D01*
Y7083000D02*
Y7107000D01*
X7481450Y7028500D02*
X7495450D01*
Y7033000D01*
X7501000D01*
Y7057000D01*
X7495450D02*
X7501000D01*
X7495450D02*
Y7061500D01*
X7481450D02*
X7495450D01*
X7481450D02*
Y7078500D01*
X7495450D01*
Y7083000D01*
X7501000D01*
Y7107000D01*
X7495450D02*
X7501000D01*
X7495450D02*
Y7111500D01*
X7481450D02*
X7495450D01*
X7481450D02*
Y7128500D01*
X7491000Y7028500D02*
Y7061500D01*
Y7078500D02*
Y7111500D01*
Y7178500D02*
Y7211500D01*
Y7128500D02*
Y7161500D01*
X7501000Y7133000D02*
Y7157000D01*
Y7183000D02*
Y7207000D01*
X7481450Y7128500D02*
X7495450D01*
Y7133000D01*
X7501000D01*
Y7157000D01*
X7495450D02*
X7501000D01*
X7495450D02*
Y7161500D01*
X7481450D02*
X7495450D01*
X7481450D02*
Y7178500D01*
X7495450D01*
Y7183000D01*
X7501000D01*
Y7207000D01*
X7495450D02*
X7501000D01*
X7495450D02*
Y7211500D01*
X7481450D02*
X7495450D01*
X7481450D02*
Y7228500D01*
X7491000Y7128500D02*
Y7161500D01*
Y7178500D02*
Y7211500D01*
Y7278500D02*
Y7311500D01*
Y7228500D02*
Y7261500D01*
X7501000Y7233000D02*
Y7257000D01*
Y7283000D02*
Y7307000D01*
X7481450Y7228500D02*
X7495450D01*
Y7233000D01*
X7501000D01*
Y7257000D01*
X7495450D02*
X7501000D01*
X7495450D02*
Y7261500D01*
X7481450D02*
X7495450D01*
X7481450D02*
Y7278500D01*
X7495450D01*
Y7283000D01*
X7501000D01*
Y7307000D01*
X7495450D02*
X7501000D01*
X7495450D02*
Y7311500D01*
X7481450D02*
X7495450D01*
X7481450D02*
Y7328500D01*
X7491000Y7228500D02*
Y7261500D01*
Y7278500D02*
Y7311500D01*
Y7378500D02*
Y7411500D01*
Y7328500D02*
Y7361500D01*
X7501000Y7333000D02*
Y7357000D01*
Y7383000D02*
Y7407000D01*
X7481450Y7328500D02*
X7495450D01*
Y7333000D01*
X7501000D01*
Y7357000D01*
X7495450D02*
X7501000D01*
X7495450D02*
Y7361500D01*
X7481450D02*
X7495450D01*
X7481450D02*
Y7378500D01*
X7495450D01*
Y7383000D01*
X7501000D01*
Y7407000D01*
X7495450D02*
X7501000D01*
X7495450D02*
Y7411500D01*
X7481450D02*
X7495450D01*
X7481450D02*
Y7428500D01*
X7491000Y7328500D02*
Y7361500D01*
Y7378500D02*
Y7411500D01*
Y7478500D02*
Y7511500D01*
Y7428500D02*
Y7461500D01*
X7501000Y7433000D02*
Y7457000D01*
Y7483000D02*
Y7507000D01*
X7481450Y7428500D02*
X7495450D01*
Y7433000D01*
X7501000D01*
Y7457000D01*
X7495450D02*
X7501000D01*
X7495450D02*
Y7461500D01*
X7481450D02*
X7495450D01*
X7481450D02*
Y7478500D01*
X7495450D01*
Y7483000D01*
X7501000D01*
Y7507000D01*
X7495450D02*
X7501000D01*
X7495450D02*
Y7511500D01*
X7481450D02*
X7495450D01*
X7481450D02*
Y7528500D01*
X7491000Y7428500D02*
Y7461500D01*
Y7478500D02*
Y7511500D01*
Y7578500D02*
Y7611500D01*
Y7528500D02*
Y7561500D01*
X7501000Y7533000D02*
Y7557000D01*
Y7583000D02*
Y7607000D01*
X7481450Y7528500D02*
X7495450D01*
Y7533000D01*
X7501000D01*
Y7557000D01*
X7495450D02*
X7501000D01*
X7495450D02*
Y7561500D01*
X7481450D02*
X7495450D01*
X7481450D02*
Y7578500D01*
X7495450D01*
Y7583000D01*
X7501000D01*
Y7607000D01*
X7495450D02*
X7501000D01*
X7495450D02*
Y7611500D01*
X7481450D02*
X7495450D01*
X7481450D02*
Y7628500D01*
X7491000Y7528500D02*
Y7561500D01*
Y7578500D02*
Y7611500D01*
Y7678500D02*
Y7711500D01*
Y7628500D02*
Y7661500D01*
X7501000Y7633000D02*
Y7657000D01*
Y7683000D02*
Y7707000D01*
X7481450Y7628500D02*
X7495450D01*
Y7633000D01*
X7501000D01*
Y7657000D01*
X7495450D02*
X7501000D01*
X7495450D02*
Y7661500D01*
X7481450D02*
X7495450D01*
X7481450D02*
Y7678500D01*
X7495450D01*
Y7683000D01*
X7501000D01*
Y7707000D01*
X7495450D02*
X7501000D01*
X7495450D02*
Y7711500D01*
X7481450D02*
X7495450D01*
X7481450D02*
Y7728500D01*
X7491000Y7628500D02*
Y7661500D01*
Y7678500D02*
Y7711500D01*
Y7778500D02*
Y7811500D01*
Y7728500D02*
Y7761500D01*
X7501000Y7733000D02*
Y7757000D01*
Y7783000D02*
Y7807000D01*
X7481450Y7728500D02*
X7495450D01*
Y7733000D01*
X7501000D01*
Y7757000D01*
X7495450D02*
X7501000D01*
X7495450D02*
Y7761500D01*
X7481450D02*
X7495450D01*
X7481450D02*
Y7778500D01*
X7495450D01*
Y7783000D01*
X7501000D01*
Y7807000D01*
X7495450D02*
X7501000D01*
X7495450D02*
Y7811500D01*
X7481450D02*
X7495450D01*
X7481450D02*
Y7828500D01*
X7491000Y7728500D02*
Y7761500D01*
Y7778500D02*
Y7811500D01*
Y7828500D02*
Y7861500D01*
X7501000Y7833000D02*
Y7857000D01*
X7481450Y7828500D02*
X7495450D01*
Y7833000D01*
X7501000D01*
Y7857000D01*
X7495450D02*
X7501000D01*
X7495450D02*
Y7861500D01*
X7481450D02*
X7495450D01*
X7481450D02*
Y7878500D01*
X7491000Y7828500D02*
Y7861500D01*
X7481450Y7878500D02*
X7495450D01*
Y7883000D01*
X7501000D01*
Y7956000D01*
%TF.MD5,FA1F0573AFB61E63D12E0B6F92A34E9F*%
M02*
