G04 Layer_Color=65535*
%FSLAX26Y26*%
%MOIN*%
%TF.FileFunction,Legend,Top*%
%TF.Part,Single*%
G01*
G75*
%TA.AperFunction,NonConductor*%
%ADD37C,0.005000*%
%ADD55C,0.010000*%
%ADD86C,0.009842*%
%ADD87C,0.007874*%
%ADD88C,0.007870*%
%ADD89C,0.004724*%
D37*
X5217500Y7620000D02*
Y7650000D01*
Y7620000D02*
X5282500D01*
Y7650000D01*
X5217500D02*
X5282500D01*
X5103000Y7710000D02*
Y7740000D01*
Y7710000D02*
X5168000D01*
Y7740000D01*
X5103000D02*
X5168000D01*
X5212500Y7715000D02*
Y7745000D01*
Y7715000D02*
X5277500D01*
Y7745000D01*
X5212500D02*
X5277500D01*
X5412500Y7710000D02*
Y7740000D01*
Y7710000D02*
X5477500D01*
Y7740000D01*
X5412500D02*
X5477500D01*
X5485000Y7710000D02*
X5515000D01*
Y7775000D01*
X5485000D02*
X5515000D01*
X5485000Y7710000D02*
Y7775000D01*
Y7702500D02*
X5515000D01*
X5485000Y7637500D02*
Y7702500D01*
Y7637500D02*
X5515000D01*
Y7702500D01*
X5412500Y7675000D02*
Y7705000D01*
Y7675000D02*
X5477500D01*
Y7705000D01*
X5412500D02*
X5477500D01*
X5215000Y7665000D02*
Y7695000D01*
Y7665000D02*
X5280000D01*
Y7695000D01*
X5215000D02*
X5280000D01*
X5137500Y7605000D02*
Y7635000D01*
Y7605000D02*
X5202500D01*
Y7635000D01*
X5137500D02*
X5202500D01*
X5193000Y7245000D02*
X5258000D01*
Y7215000D02*
Y7245000D01*
X5193000Y7215000D02*
X5258000D01*
X5193000D02*
Y7245000D01*
X5100500Y7200000D02*
X5165500D01*
Y7170000D02*
Y7200000D01*
X5100500Y7170000D02*
X5165500D01*
X5100500D02*
Y7200000D01*
X5193000Y7190000D02*
X5258000D01*
Y7160000D02*
Y7190000D01*
X5193000Y7160000D02*
X5258000D01*
X5193000D02*
Y7190000D01*
X5275000Y7235000D02*
X5305000D01*
X5275000Y7170000D02*
Y7235000D01*
Y7170000D02*
X5305000D01*
Y7235000D01*
X5193000Y7265000D02*
Y7295000D01*
Y7265000D02*
X5258000D01*
Y7295000D01*
X5193000D02*
X5258000D01*
X5402500Y7200000D02*
X5467500D01*
Y7170000D02*
Y7200000D01*
X5402500Y7170000D02*
X5467500D01*
X5402500D02*
Y7200000D01*
X5485000Y7207500D02*
X5515000D01*
Y7272500D01*
X5485000D02*
X5515000D01*
X5485000Y7207500D02*
Y7272500D01*
X5480000Y7201000D02*
X5510000D01*
X5480000Y7136000D02*
Y7201000D01*
Y7136000D02*
X5510000D01*
Y7201000D01*
X5402500Y7235000D02*
X5467500D01*
Y7205000D02*
Y7235000D01*
X5402500Y7205000D02*
X5467500D01*
X5402500D02*
Y7235000D01*
X5117500Y7315000D02*
X5182500D01*
Y7285000D02*
Y7315000D01*
X5117500Y7285000D02*
X5182500D01*
X5117500D02*
Y7315000D01*
X5828500Y6980000D02*
X5893500D01*
Y6950000D02*
Y6980000D01*
X5828500Y6950000D02*
X5893500D01*
X5828500D02*
Y6980000D01*
X5828116Y6986732D02*
Y7051732D01*
X5858116D01*
Y6986732D02*
Y7051732D01*
X5828116Y6986732D02*
X5858116D01*
X5295000Y7675000D02*
Y7740000D01*
X5325000D01*
Y7675000D02*
Y7740000D01*
X5295000Y7675000D02*
X5325000D01*
X5998500Y7382000D02*
X6063500D01*
Y7352000D02*
Y7382000D01*
X5998500Y7352000D02*
X6063500D01*
X5998500D02*
Y7382000D01*
X6040000Y6956000D02*
X6105000D01*
Y6926000D02*
Y6956000D01*
X6040000Y6926000D02*
X6105000D01*
X6040000D02*
Y6956000D01*
X5294000Y6470000D02*
X5324000D01*
Y6535000D01*
X5294000D02*
X5324000D01*
X5294000Y6470000D02*
Y6535000D01*
X5113000Y6551000D02*
X5143000D01*
Y6616000D01*
X5113000D02*
X5143000D01*
X5113000Y6551000D02*
Y6616000D01*
X5358500Y6427000D02*
Y6457000D01*
X5293500D02*
X5358500D01*
X5293500Y6427000D02*
Y6457000D01*
Y6427000D02*
X5358500D01*
X5225000Y6373000D02*
X5255000D01*
X5225000Y6308000D02*
Y6373000D01*
Y6308000D02*
X5255000D01*
Y6373000D01*
X5182000Y6308000D02*
Y6373000D01*
X5212000D01*
Y6308000D02*
Y6373000D01*
X5182000Y6308000D02*
X5212000D01*
X5182000Y6260500D02*
X5212000D01*
X5182000Y6195500D02*
Y6260500D01*
Y6195500D02*
X5212000D01*
Y6260500D01*
X5224000Y6295500D02*
X5254000D01*
X5224000Y6230500D02*
Y6295500D01*
Y6230500D02*
X5254000D01*
Y6295500D01*
X5303500Y6112000D02*
X5368500D01*
X5303500D02*
Y6142000D01*
X5368500D01*
Y6112000D02*
Y6142000D01*
X5303500Y6179000D02*
X5368500D01*
Y6149000D02*
Y6179000D01*
X5303500Y6149000D02*
X5368500D01*
X5303500D02*
Y6179000D01*
X5578500Y6169886D02*
Y6199886D01*
X5513500D02*
X5578500D01*
X5513500Y6169886D02*
Y6199886D01*
Y6169886D02*
X5578500D01*
X5579500Y6102386D02*
Y6132386D01*
X5514500D02*
X5579500D01*
X5514500Y6102386D02*
Y6132386D01*
Y6102386D02*
X5579500D01*
X5366500Y6456929D02*
X5431500D01*
Y6426929D02*
Y6456929D01*
X5366500Y6426929D02*
X5431500D01*
X5366500D02*
Y6456929D01*
X5580000Y6457000D02*
Y6487000D01*
X5515000D02*
X5580000D01*
X5515000Y6457000D02*
Y6487000D01*
Y6457000D02*
X5580000D01*
X5578500Y6392000D02*
Y6422000D01*
X5513500D02*
X5578500D01*
X5513500Y6392000D02*
Y6422000D01*
Y6392000D02*
X5578500D01*
X5114000Y5976500D02*
X5144000D01*
Y6041500D01*
X5114000D02*
X5144000D01*
X5114000Y5976500D02*
Y6041500D01*
X5376000Y6149000D02*
X5441000D01*
X5376000D02*
Y6179000D01*
X5441000D01*
Y6149000D02*
Y6179000D01*
X5814500Y6080000D02*
X5879500D01*
Y6050000D02*
Y6080000D01*
X5814500Y6050000D02*
X5879500D01*
X5814500D02*
Y6080000D01*
X5827500Y6525000D02*
X5892500D01*
Y6495000D02*
Y6525000D01*
X5827500Y6495000D02*
X5892500D01*
X5827500D02*
Y6525000D01*
X6006500Y6050000D02*
Y6080000D01*
X5941500D02*
X6006500D01*
X5941500Y6050000D02*
Y6080000D01*
Y6050000D02*
X6006500D01*
X6185000Y6027000D02*
Y6092000D01*
X6215000D01*
Y6027000D02*
Y6092000D01*
X6185000Y6027000D02*
X6215000D01*
X6175579Y6492000D02*
X6240579D01*
X6175579D02*
Y6522000D01*
X6240579D01*
Y6492000D02*
Y6522000D01*
X6835000Y5750500D02*
X6865000D01*
X6835000Y5685500D02*
Y5750500D01*
Y5685500D02*
X6865000D01*
Y5750500D01*
X6377500Y7776221D02*
Y7806221D01*
X6312500D02*
X6377500D01*
X6312500Y7776221D02*
Y7806221D01*
Y7776221D02*
X6377500D01*
X6201221Y6946700D02*
Y6966693D01*
X6211218D01*
X6214550Y6963361D01*
Y6956697D01*
X6211218Y6953364D01*
X6201221D01*
X6207886D02*
X6214550Y6946700D01*
X6231212D02*
Y6966693D01*
X6221215Y6956697D01*
X6234544D01*
X6251205Y6946700D02*
Y6966693D01*
X6241208Y6956697D01*
X6254537D01*
X6729661Y8038671D02*
X6732993Y8042003D01*
Y8048668D01*
X6729661Y8052000D01*
X6716332D01*
X6713000Y8048668D01*
Y8042003D01*
X6716332Y8038671D01*
X6713000Y8022010D02*
X6732993D01*
X6722997Y8032007D01*
Y8018677D01*
X6888329Y8121661D02*
X6884997Y8124993D01*
X6878332D01*
X6875000Y8121661D01*
Y8108332D01*
X6878332Y8105000D01*
X6884997D01*
X6888329Y8108332D01*
X6908323Y8124993D02*
X6894993D01*
Y8114997D01*
X6901658Y8118329D01*
X6904990D01*
X6908323Y8114997D01*
Y8108332D01*
X6904990Y8105000D01*
X6898326D01*
X6894993Y8108332D01*
X6470661Y5910671D02*
X6473993Y5914003D01*
Y5920668D01*
X6470661Y5924000D01*
X6457332D01*
X6454000Y5920668D01*
Y5914003D01*
X6457332Y5910671D01*
X6454000Y5904007D02*
Y5897342D01*
Y5900674D01*
X6473993D01*
X6470661Y5904007D01*
X6454000Y5877348D02*
X6473993D01*
X6463997Y5887345D01*
Y5874016D01*
X6559661Y5911671D02*
X6562993Y5915003D01*
Y5921668D01*
X6559661Y5925000D01*
X6546332D01*
X6543000Y5921668D01*
Y5915003D01*
X6546332Y5911671D01*
X6543000Y5905007D02*
Y5898342D01*
Y5901674D01*
X6562993D01*
X6559661Y5905007D01*
X6562993Y5875016D02*
Y5888345D01*
X6552997D01*
X6556329Y5881681D01*
Y5878348D01*
X6552997Y5875016D01*
X6546332D01*
X6543000Y5878348D01*
Y5885013D01*
X6546332Y5888345D01*
X6665661Y5908671D02*
X6668993Y5912003D01*
Y5918668D01*
X6665661Y5922000D01*
X6652332D01*
X6649000Y5918668D01*
Y5912003D01*
X6652332Y5908671D01*
X6649000Y5902007D02*
Y5895342D01*
Y5898674D01*
X6668993D01*
X6665661Y5902007D01*
X6668993Y5872016D02*
X6665661Y5878681D01*
X6658997Y5885345D01*
X6652332D01*
X6649000Y5882013D01*
Y5875348D01*
X6652332Y5872016D01*
X6655664D01*
X6658997Y5875348D01*
Y5885345D01*
X5801168Y7229671D02*
X5804500Y7233003D01*
Y7239668D01*
X5801168Y7243000D01*
X5787839D01*
X5784507Y7239668D01*
Y7233003D01*
X5787839Y7229671D01*
X5784507Y7209677D02*
Y7223007D01*
X5797836Y7209677D01*
X5801168D01*
X5804500Y7213010D01*
Y7219674D01*
X5801168Y7223007D01*
X5804500Y7189684D02*
Y7203013D01*
X5794503D01*
X5797836Y7196349D01*
Y7193016D01*
X5794503Y7189684D01*
X5787839D01*
X5784507Y7193016D01*
Y7199681D01*
X5787839Y7203013D01*
X5299559Y7145671D02*
X5302891Y7149003D01*
Y7155668D01*
X5299559Y7159000D01*
X5286230D01*
X5282898Y7155668D01*
Y7149003D01*
X5286230Y7145671D01*
X5282898Y7125677D02*
Y7139007D01*
X5296227Y7125677D01*
X5299559D01*
X5302891Y7129010D01*
Y7135674D01*
X5299559Y7139007D01*
X5302891Y7105684D02*
X5299559Y7112349D01*
X5292894Y7119013D01*
X5286230D01*
X5282898Y7115681D01*
Y7109016D01*
X5286230Y7105684D01*
X5289562D01*
X5292894Y7109016D01*
Y7119013D01*
X5316661Y7786671D02*
X5319993Y7790003D01*
Y7796668D01*
X5316661Y7800000D01*
X5303332D01*
X5300000Y7796668D01*
Y7790003D01*
X5303332Y7786671D01*
X5300000Y7766677D02*
Y7780007D01*
X5313329Y7766677D01*
X5316661D01*
X5319993Y7770010D01*
Y7776674D01*
X5316661Y7780007D01*
X5319993Y7760013D02*
Y7746684D01*
X5316661D01*
X5303332Y7760013D01*
X5300000D01*
X5508329Y6996661D02*
X5504997Y6999993D01*
X5498332D01*
X5495000Y6996661D01*
Y6983332D01*
X5498332Y6980000D01*
X5504997D01*
X5508329Y6983332D01*
X5514993Y6996661D02*
X5518326Y6999993D01*
X5524990D01*
X5528323Y6996661D01*
Y6993329D01*
X5524990Y6989997D01*
X5521658D01*
X5524990D01*
X5528323Y6986664D01*
Y6983332D01*
X5524990Y6980000D01*
X5518326D01*
X5514993Y6983332D01*
X5548316Y6980000D02*
X5534987D01*
X5548316Y6993329D01*
Y6996661D01*
X5544984Y6999993D01*
X5538319D01*
X5534987Y6996661D01*
X5792010Y7112671D02*
X5795342Y7116003D01*
Y7122668D01*
X5792010Y7126000D01*
X5778681D01*
X5775349Y7122668D01*
Y7116003D01*
X5778681Y7112671D01*
X5792010Y7106007D02*
X5795342Y7102674D01*
Y7096010D01*
X5792010Y7092677D01*
X5788678D01*
X5785346Y7096010D01*
Y7099342D01*
Y7096010D01*
X5782014Y7092677D01*
X5778681D01*
X5775349Y7096010D01*
Y7102674D01*
X5778681Y7106007D01*
X5792010Y7086013D02*
X5795342Y7082681D01*
Y7076016D01*
X5792010Y7072684D01*
X5788678D01*
X5785346Y7076016D01*
Y7079349D01*
Y7076016D01*
X5782014Y7072684D01*
X5778681D01*
X5775349Y7076016D01*
Y7082681D01*
X5778681Y7086013D01*
X5853661Y7097671D02*
X5856993Y7101003D01*
Y7107668D01*
X5853661Y7111000D01*
X5840332D01*
X5837000Y7107668D01*
Y7101003D01*
X5840332Y7097671D01*
X5853661Y7091007D02*
X5856993Y7087674D01*
Y7081010D01*
X5853661Y7077677D01*
X5850329D01*
X5846997Y7081010D01*
Y7084342D01*
Y7081010D01*
X5843664Y7077677D01*
X5840332D01*
X5837000Y7081010D01*
Y7087674D01*
X5840332Y7091007D01*
X5837000Y7061016D02*
X5856993D01*
X5846997Y7071013D01*
Y7057684D01*
X6087829Y6645661D02*
X6084497Y6648993D01*
X6077832D01*
X6074500Y6645661D01*
Y6632332D01*
X6077832Y6629000D01*
X6084497D01*
X6087829Y6632332D01*
X6094493Y6645661D02*
X6097826Y6648993D01*
X6104490D01*
X6107823Y6645661D01*
Y6642329D01*
X6104490Y6638997D01*
X6101158D01*
X6104490D01*
X6107823Y6635664D01*
Y6632332D01*
X6104490Y6629000D01*
X6097826D01*
X6094493Y6632332D01*
X6127816Y6648993D02*
X6114487D01*
Y6638997D01*
X6121151Y6642329D01*
X6124484D01*
X6127816Y6638997D01*
Y6632332D01*
X6124484Y6629000D01*
X6117819D01*
X6114487Y6632332D01*
X6180661Y6893671D02*
X6183993Y6897003D01*
Y6903668D01*
X6180661Y6907000D01*
X6167332D01*
X6164000Y6903668D01*
Y6897003D01*
X6167332Y6893671D01*
X6180661Y6887007D02*
X6183993Y6883674D01*
Y6877010D01*
X6180661Y6873677D01*
X6177329D01*
X6173997Y6877010D01*
Y6880342D01*
Y6877010D01*
X6170664Y6873677D01*
X6167332D01*
X6164000Y6877010D01*
Y6883674D01*
X6167332Y6887007D01*
X6183993Y6853684D02*
X6180661Y6860349D01*
X6173997Y6867013D01*
X6167332D01*
X6164000Y6863681D01*
Y6857016D01*
X6167332Y6853684D01*
X6170664D01*
X6173997Y6857016D01*
Y6867013D01*
X6126329Y6948661D02*
X6122997Y6951993D01*
X6116332D01*
X6113000Y6948661D01*
Y6935332D01*
X6116332Y6932000D01*
X6122997D01*
X6126329Y6935332D01*
X6132993Y6948661D02*
X6136326Y6951993D01*
X6142990D01*
X6146323Y6948661D01*
Y6945329D01*
X6142990Y6941997D01*
X6139658D01*
X6142990D01*
X6146323Y6938664D01*
Y6935332D01*
X6142990Y6932000D01*
X6136326D01*
X6132993Y6935332D01*
X6152987Y6951993D02*
X6166316D01*
Y6948661D01*
X6152987Y6935332D01*
Y6932000D01*
X6120661Y7631671D02*
X6123993Y7635003D01*
Y7641668D01*
X6120661Y7645000D01*
X6107332D01*
X6104000Y7641668D01*
Y7635003D01*
X6107332Y7631671D01*
X6120661Y7625007D02*
X6123993Y7621674D01*
Y7615010D01*
X6120661Y7611677D01*
X6117329D01*
X6113997Y7615010D01*
Y7618342D01*
Y7615010D01*
X6110664Y7611677D01*
X6107332D01*
X6104000Y7615010D01*
Y7621674D01*
X6107332Y7625007D01*
X6120661Y7605013D02*
X6123993Y7601681D01*
Y7595016D01*
X6120661Y7591684D01*
X6117329D01*
X6113997Y7595016D01*
X6110664Y7591684D01*
X6107332D01*
X6104000Y7595016D01*
Y7601681D01*
X6107332Y7605013D01*
X6110664D01*
X6113997Y7601681D01*
X6117329Y7605013D01*
X6120661D01*
X6113997Y7601681D02*
Y7595016D01*
X5948329Y7376661D02*
X5944997Y7379993D01*
X5938332D01*
X5935000Y7376661D01*
Y7363332D01*
X5938332Y7360000D01*
X5944997D01*
X5948329Y7363332D01*
X5964990Y7360000D02*
Y7379993D01*
X5954993Y7369997D01*
X5968323D01*
X5974987Y7376661D02*
X5978319Y7379993D01*
X5984984D01*
X5988316Y7376661D01*
Y7363332D01*
X5984984Y7360000D01*
X5978319D01*
X5974987Y7363332D01*
Y7376661D01*
X5711329Y6747661D02*
X5707997Y6750993D01*
X5701332D01*
X5698000Y6747661D01*
Y6734332D01*
X5701332Y6731000D01*
X5707997D01*
X5711329Y6734332D01*
X5727990Y6731000D02*
Y6750993D01*
X5717993Y6740997D01*
X5731323D01*
X5737987Y6731000D02*
X5744651D01*
X5741319D01*
Y6750993D01*
X5737987Y6747661D01*
X5910258Y6936661D02*
X5906926Y6939993D01*
X5900261D01*
X5896929Y6936661D01*
Y6923332D01*
X5900261Y6920000D01*
X5906926D01*
X5910258Y6923332D01*
X5926919Y6920000D02*
Y6939993D01*
X5916923Y6929997D01*
X5930252D01*
X5950245Y6920000D02*
X5936916D01*
X5950245Y6933329D01*
Y6936661D01*
X5946913Y6939993D01*
X5940248D01*
X5936916Y6936661D01*
X5920329Y6968661D02*
X5916997Y6971993D01*
X5910332D01*
X5907000Y6968661D01*
Y6955332D01*
X5910332Y6952000D01*
X5916997D01*
X5920329Y6955332D01*
X5936990Y6952000D02*
Y6971993D01*
X5926993Y6961997D01*
X5940323D01*
X5946987Y6968661D02*
X5950319Y6971993D01*
X5956984D01*
X5960316Y6968661D01*
Y6965329D01*
X5956984Y6961997D01*
X5953651D01*
X5956984D01*
X5960316Y6958664D01*
Y6955332D01*
X5956984Y6952000D01*
X5950319D01*
X5946987Y6955332D01*
X5789661Y6343671D02*
X5792993Y6347003D01*
Y6353668D01*
X5789661Y6357000D01*
X5776332D01*
X5773000Y6353668D01*
Y6347003D01*
X5776332Y6343671D01*
X5773000Y6327010D02*
X5792993D01*
X5782997Y6337007D01*
Y6323677D01*
X5773000Y6307016D02*
X5792993D01*
X5782997Y6317013D01*
Y6303684D01*
X5790661Y6269671D02*
X5793993Y6273003D01*
Y6279668D01*
X5790661Y6283000D01*
X5777332D01*
X5774000Y6279668D01*
Y6273003D01*
X5777332Y6269671D01*
X5774000Y6253010D02*
X5793993D01*
X5783997Y6263007D01*
Y6249677D01*
X5793993Y6229684D02*
Y6243013D01*
X5783997D01*
X5787329Y6236349D01*
Y6233016D01*
X5783997Y6229684D01*
X5777332D01*
X5774000Y6233016D01*
Y6239681D01*
X5777332Y6243013D01*
X5790161Y6488671D02*
X5793493Y6492003D01*
Y6498668D01*
X5790161Y6502000D01*
X5776832D01*
X5773500Y6498668D01*
Y6492003D01*
X5776832Y6488671D01*
X5773500Y6472010D02*
X5793493D01*
X5783497Y6482007D01*
Y6468677D01*
X5793493Y6448684D02*
X5790161Y6455349D01*
X5783497Y6462013D01*
X5776832D01*
X5773500Y6458681D01*
Y6452016D01*
X5776832Y6448684D01*
X5780164D01*
X5783497Y6452016D01*
Y6462013D01*
X5784975Y6120863D02*
X5788307Y6124195D01*
Y6130859D01*
X5784975Y6134192D01*
X5771646D01*
X5768313Y6130859D01*
Y6124195D01*
X5771646Y6120863D01*
X5768313Y6104202D02*
X5788307D01*
X5778310Y6114198D01*
Y6100869D01*
X5784975Y6094205D02*
X5788307Y6090873D01*
Y6084208D01*
X5784975Y6080876D01*
X5781642D01*
X5778310Y6084208D01*
X5774978Y6080876D01*
X5771646D01*
X5768313Y6084208D01*
Y6090873D01*
X5771646Y6094205D01*
X5774978D01*
X5778310Y6090873D01*
X5781642Y6094205D01*
X5784975D01*
X5778310Y6090873D02*
Y6084208D01*
X6207671Y5995339D02*
X6211003Y5992007D01*
X6217668D01*
X6221000Y5995339D01*
Y6008668D01*
X6217668Y6012000D01*
X6211003D01*
X6207671Y6008668D01*
X6187677Y5992007D02*
X6201007D01*
Y6002003D01*
X6194342Y5998671D01*
X6191010D01*
X6187677Y6002003D01*
Y6008668D01*
X6191010Y6012000D01*
X6197674D01*
X6201007Y6008668D01*
X6181013Y6012000D02*
X6174349D01*
X6177681D01*
Y5992007D01*
X6181013Y5995339D01*
X5800837Y5769661D02*
X5797505Y5772993D01*
X5790840D01*
X5787508Y5769661D01*
Y5756332D01*
X5790840Y5753000D01*
X5797505D01*
X5800837Y5756332D01*
X5820831Y5772993D02*
X5807502D01*
Y5762997D01*
X5814166Y5766329D01*
X5817498D01*
X5820831Y5762997D01*
Y5756332D01*
X5817498Y5753000D01*
X5810834D01*
X5807502Y5756332D01*
X5840824Y5753000D02*
X5827495D01*
X5840824Y5766329D01*
Y5769661D01*
X5837492Y5772993D01*
X5830827D01*
X5827495Y5769661D01*
X5752661Y6021671D02*
X5755993Y6025003D01*
Y6031668D01*
X5752661Y6035000D01*
X5739332D01*
X5736000Y6031668D01*
Y6025003D01*
X5739332Y6021671D01*
X5755993Y6001677D02*
Y6015007D01*
X5745997D01*
X5749329Y6008342D01*
Y6005010D01*
X5745997Y6001677D01*
X5739332D01*
X5736000Y6005010D01*
Y6011674D01*
X5739332Y6015007D01*
X5752661Y5995013D02*
X5755993Y5991681D01*
Y5985016D01*
X5752661Y5981684D01*
X5749329D01*
X5745997Y5985016D01*
Y5988349D01*
Y5985016D01*
X5742664Y5981684D01*
X5739332D01*
X5736000Y5985016D01*
Y5991681D01*
X5739332Y5995013D01*
X5761329Y6069661D02*
X5757997Y6072993D01*
X5751332D01*
X5748000Y6069661D01*
Y6056332D01*
X5751332Y6053000D01*
X5757997D01*
X5761329Y6056332D01*
X5781323Y6072993D02*
X5767993D01*
Y6062997D01*
X5774658Y6066329D01*
X5777990D01*
X5781323Y6062997D01*
Y6056332D01*
X5777990Y6053000D01*
X5771326D01*
X5767993Y6056332D01*
X5797984Y6053000D02*
Y6072993D01*
X5787987Y6062997D01*
X5801316D01*
X5602329Y6537079D02*
X5598997Y6540411D01*
X5592332D01*
X5589000Y6537079D01*
Y6523750D01*
X5592332Y6520417D01*
X5598997D01*
X5602329Y6523750D01*
X5622323Y6540411D02*
X5608993D01*
Y6530414D01*
X5615658Y6533746D01*
X5618990D01*
X5622323Y6530414D01*
Y6523750D01*
X5618990Y6520417D01*
X5612326D01*
X5608993Y6523750D01*
X5642316Y6540411D02*
X5628987D01*
Y6530414D01*
X5635651Y6533746D01*
X5638984D01*
X5642316Y6530414D01*
Y6523750D01*
X5638984Y6520417D01*
X5632319D01*
X5628987Y6523750D01*
X5928161Y6632671D02*
X5931493Y6636003D01*
Y6642668D01*
X5928161Y6646000D01*
X5914832D01*
X5911500Y6642668D01*
Y6636003D01*
X5914832Y6632671D01*
X5931493Y6612677D02*
Y6626007D01*
X5921497D01*
X5924829Y6619342D01*
Y6616010D01*
X5921497Y6612677D01*
X5914832D01*
X5911500Y6616010D01*
Y6622674D01*
X5914832Y6626007D01*
X5931493Y6592684D02*
X5928161Y6599349D01*
X5921497Y6606013D01*
X5914832D01*
X5911500Y6602681D01*
Y6596016D01*
X5914832Y6592684D01*
X5918164D01*
X5921497Y6596016D01*
Y6606013D01*
X5917061Y6519394D02*
X5913729Y6522726D01*
X5907065D01*
X5903732Y6519394D01*
Y6506065D01*
X5907065Y6502732D01*
X5913729D01*
X5917061Y6506065D01*
X5937055Y6522726D02*
X5923726D01*
Y6512729D01*
X5930390Y6516061D01*
X5933723D01*
X5937055Y6512729D01*
Y6506065D01*
X5933723Y6502732D01*
X5927058D01*
X5923726Y6506065D01*
X5943719Y6522726D02*
X5957048D01*
Y6519394D01*
X5943719Y6506065D01*
Y6502732D01*
X5955329Y5860661D02*
X5951997Y5863993D01*
X5945332D01*
X5942000Y5860661D01*
Y5847332D01*
X5945332Y5844000D01*
X5951997D01*
X5955329Y5847332D01*
X5975323Y5863993D02*
X5961993D01*
Y5853997D01*
X5968658Y5857329D01*
X5971990D01*
X5975323Y5853997D01*
Y5847332D01*
X5971990Y5844000D01*
X5965326D01*
X5961993Y5847332D01*
X5981987Y5860661D02*
X5985319Y5863993D01*
X5991984D01*
X5995316Y5860661D01*
Y5857329D01*
X5991984Y5853997D01*
X5995316Y5850664D01*
Y5847332D01*
X5991984Y5844000D01*
X5985319D01*
X5981987Y5847332D01*
Y5850664D01*
X5985319Y5853997D01*
X5981987Y5857329D01*
Y5860661D01*
X5985319Y5853997D02*
X5991984D01*
X6059329Y6002661D02*
X6055997Y6005993D01*
X6049332D01*
X6046000Y6002661D01*
Y5989332D01*
X6049332Y5986000D01*
X6055997D01*
X6059329Y5989332D01*
X6079323Y6005993D02*
X6065993D01*
Y5995997D01*
X6072658Y5999329D01*
X6075990D01*
X6079323Y5995997D01*
Y5989332D01*
X6075990Y5986000D01*
X6069326D01*
X6065993Y5989332D01*
X6085987D02*
X6089319Y5986000D01*
X6095984D01*
X6099316Y5989332D01*
Y6002661D01*
X6095984Y6005993D01*
X6089319D01*
X6085987Y6002661D01*
Y5999329D01*
X6089319Y5995997D01*
X6099316D01*
X6242967Y6546661D02*
X6239635Y6549993D01*
X6232970D01*
X6229638Y6546661D01*
Y6533332D01*
X6232970Y6530000D01*
X6239635D01*
X6242967Y6533332D01*
X6262960Y6549993D02*
X6256296Y6546661D01*
X6249631Y6539997D01*
Y6533332D01*
X6252964Y6530000D01*
X6259628D01*
X6262960Y6533332D01*
Y6536664D01*
X6259628Y6539997D01*
X6249631D01*
X6269625Y6546661D02*
X6272957Y6549993D01*
X6279622D01*
X6282954Y6546661D01*
Y6533332D01*
X6279622Y6530000D01*
X6272957D01*
X6269625Y6533332D01*
Y6546661D01*
X5365329Y8083993D02*
X5352000D01*
Y8073997D01*
X5358664D01*
X5352000D01*
Y8064000D01*
X5371993Y8083993D02*
X5378658D01*
X5375326D01*
Y8064000D01*
X5371993D01*
X5378658D01*
X5388655Y8083993D02*
Y8064000D01*
X5398652D01*
X5401984Y8067332D01*
Y8080661D01*
X5398652Y8083993D01*
X5388655D01*
X5418645Y8064000D02*
Y8083993D01*
X5408648Y8073997D01*
X5421977D01*
X7655329Y8145993D02*
X7642000D01*
Y8135997D01*
X7648664D01*
X7642000D01*
Y8126000D01*
X7661993Y8145993D02*
X7668658D01*
X7665326D01*
Y8126000D01*
X7661993D01*
X7668658D01*
X7678655Y8145993D02*
Y8126000D01*
X7688652D01*
X7691984Y8129332D01*
Y8142661D01*
X7688652Y8145993D01*
X7678655D01*
X7711977D02*
X7698648D01*
Y8135997D01*
X7705313Y8139329D01*
X7708645D01*
X7711977Y8135997D01*
Y8129332D01*
X7708645Y8126000D01*
X7701981D01*
X7698648Y8129332D01*
X5409329Y5736993D02*
X5396000D01*
Y5726997D01*
X5402664D01*
X5396000D01*
Y5717000D01*
X5415993Y5736993D02*
X5422658D01*
X5419326D01*
Y5717000D01*
X5415993D01*
X5422658D01*
X5432655Y5736993D02*
Y5717000D01*
X5442652D01*
X5445984Y5720332D01*
Y5733661D01*
X5442652Y5736993D01*
X5432655D01*
X5465977D02*
X5459313Y5733661D01*
X5452648Y5726997D01*
Y5720332D01*
X5455981Y5717000D01*
X5462645D01*
X5465977Y5720332D01*
Y5723664D01*
X5462645Y5726997D01*
X5452648D01*
X4936329Y7365993D02*
X4929664D01*
X4932997D01*
Y7349332D01*
X4929664Y7346000D01*
X4926332D01*
X4923000Y7349332D01*
X4956323Y7346000D02*
X4942993D01*
X4956323Y7359329D01*
Y7362661D01*
X4952990Y7365993D01*
X4946326D01*
X4942993Y7362661D01*
X4929329Y7923993D02*
X4922664D01*
X4925997D01*
Y7907332D01*
X4922664Y7904000D01*
X4919332D01*
X4916000Y7907332D01*
X4935993Y7920661D02*
X4939326Y7923993D01*
X4945990D01*
X4949323Y7920661D01*
Y7917329D01*
X4945990Y7913997D01*
X4942658D01*
X4945990D01*
X4949323Y7910664D01*
Y7907332D01*
X4945990Y7904000D01*
X4939326D01*
X4935993Y7907332D01*
X4932329Y6778993D02*
X4925664D01*
X4928997D01*
Y6762332D01*
X4925664Y6759000D01*
X4922332D01*
X4919000Y6762332D01*
X4948990Y6759000D02*
Y6778993D01*
X4938993Y6768997D01*
X4952323D01*
X4934329Y6206993D02*
X4927664D01*
X4930997D01*
Y6190332D01*
X4927664Y6187000D01*
X4924332D01*
X4921000Y6190332D01*
X4954323Y6206993D02*
X4940993D01*
Y6196997D01*
X4947658Y6200329D01*
X4950990D01*
X4954323Y6196997D01*
Y6190332D01*
X4950990Y6187000D01*
X4944326D01*
X4940993Y6190332D01*
X5346000Y7169993D02*
Y7150000D01*
X5359329D01*
X5365993D02*
X5372658D01*
X5369326D01*
Y7169993D01*
X5365993Y7166661D01*
X5343500Y7252993D02*
Y7233000D01*
X5356829D01*
X5376823D02*
X5363493D01*
X5376823Y7246329D01*
Y7249661D01*
X5373490Y7252993D01*
X5366826D01*
X5363493Y7249661D01*
X5350000Y7763993D02*
Y7744000D01*
X5363329D01*
X5369993Y7760661D02*
X5373326Y7763993D01*
X5379990D01*
X5383323Y7760661D01*
Y7757329D01*
X5379990Y7753997D01*
X5376658D01*
X5379990D01*
X5383323Y7750664D01*
Y7747332D01*
X5379990Y7744000D01*
X5373326D01*
X5369993Y7747332D01*
X5352000Y7671993D02*
Y7652000D01*
X5365329D01*
X5381990D02*
Y7671993D01*
X5371993Y7661997D01*
X5385323D01*
X5582000Y6895493D02*
Y6875500D01*
X5595329D01*
X5601993Y6895493D02*
X5615323D01*
Y6892161D01*
X5601993Y6878832D01*
Y6875500D01*
X6189000Y6739993D02*
Y6720000D01*
X6202329D01*
X6208993Y6736661D02*
X6212326Y6739993D01*
X6218990D01*
X6222323Y6736661D01*
Y6733329D01*
X6218990Y6729997D01*
X6222323Y6726664D01*
Y6723332D01*
X6218990Y6720000D01*
X6212326D01*
X6208993Y6723332D01*
Y6726664D01*
X6212326Y6729997D01*
X6208993Y6733329D01*
Y6736661D01*
X6212326Y6729997D02*
X6218990D01*
X5905000Y7617993D02*
Y7598000D01*
X5918329D01*
X5924993Y7601332D02*
X5928326Y7598000D01*
X5934990D01*
X5938323Y7601332D01*
Y7614661D01*
X5934990Y7617993D01*
X5928326D01*
X5924993Y7614661D01*
Y7611329D01*
X5928326Y7607997D01*
X5938323D01*
X5629993Y6859768D02*
X5610000D01*
Y6846439D01*
Y6839775D02*
Y6833110D01*
Y6836442D01*
X5629993D01*
X5626661Y6839775D01*
Y6823113D02*
X5629993Y6819781D01*
Y6813116D01*
X5626661Y6809784D01*
X5613332D01*
X5610000Y6813116D01*
Y6819781D01*
X5613332Y6823113D01*
X5626661D01*
X5607000Y6510993D02*
Y6491000D01*
X5620329D01*
X5626993D02*
X5633658D01*
X5630326D01*
Y6510993D01*
X5626993Y6507661D01*
X5643655Y6491000D02*
X5650319D01*
X5646987D01*
Y6510993D01*
X5643655Y6507661D01*
X5606000Y6442993D02*
Y6423000D01*
X5619329D01*
X5625993D02*
X5632658D01*
X5629326D01*
Y6442993D01*
X5625993Y6439661D01*
X5655984Y6423000D02*
X5642655D01*
X5655984Y6436329D01*
Y6439661D01*
X5652652Y6442993D01*
X5645987D01*
X5642655Y6439661D01*
X5607000Y6167993D02*
Y6148000D01*
X5620329D01*
X5626993D02*
X5633658D01*
X5630326D01*
Y6167993D01*
X5626993Y6164661D01*
X5643655D02*
X5646987Y6167993D01*
X5653652D01*
X5656984Y6164661D01*
Y6161329D01*
X5653652Y6157997D01*
X5650319D01*
X5653652D01*
X5656984Y6154664D01*
Y6151332D01*
X5653652Y6148000D01*
X5646987D01*
X5643655Y6151332D01*
X5603000Y6096993D02*
Y6077000D01*
X5616329D01*
X5622993D02*
X5629658D01*
X5626326D01*
Y6096993D01*
X5622993Y6093661D01*
X5649652Y6077000D02*
Y6096993D01*
X5639655Y6086997D01*
X5652984D01*
X5684993Y5957000D02*
X5665000D01*
Y5943671D01*
Y5937007D02*
Y5930342D01*
Y5933674D01*
X5684993D01*
X5681661Y5937007D01*
X5684993Y5907016D02*
X5681661Y5913681D01*
X5674997Y5920345D01*
X5668332D01*
X5665000Y5917013D01*
Y5910348D01*
X5668332Y5907016D01*
X5671664D01*
X5674997Y5910348D01*
Y5920345D01*
X5698000Y6723993D02*
Y6704000D01*
X5711329D01*
X5717993D02*
X5724658D01*
X5721326D01*
Y6723993D01*
X5717993Y6720661D01*
X5734655Y6723993D02*
X5747984D01*
Y6720661D01*
X5734655Y6707332D01*
Y6704000D01*
X7164000Y5655000D02*
Y5674993D01*
X7170664Y5668329D01*
X7177329Y5674993D01*
Y5655000D01*
X7183993Y5674993D02*
Y5655000D01*
Y5664997D01*
X7197323D01*
Y5674993D01*
Y5655000D01*
X7203987D02*
X7210651D01*
X7207319D01*
Y5674993D01*
X7203987Y5671661D01*
X7417000Y8108000D02*
Y8127993D01*
X7423664Y8121329D01*
X7430329Y8127993D01*
Y8108000D01*
X7436993Y8127993D02*
Y8108000D01*
Y8117997D01*
X7450323D01*
Y8127993D01*
Y8108000D01*
X7470316D02*
X7456987D01*
X7470316Y8121329D01*
Y8124661D01*
X7466984Y8127993D01*
X7460319D01*
X7456987Y8124661D01*
X5260000Y8008000D02*
Y8027993D01*
X5266664Y8021329D01*
X5273329Y8027993D01*
Y8008000D01*
X5279993Y8027993D02*
Y8008000D01*
Y8017997D01*
X5293323D01*
Y8027993D01*
Y8008000D01*
X5299987Y8024661D02*
X5303319Y8027993D01*
X5309984D01*
X5313316Y8024661D01*
Y8021329D01*
X5309984Y8017997D01*
X5306651D01*
X5309984D01*
X5313316Y8014664D01*
Y8011332D01*
X5309984Y8008000D01*
X5303319D01*
X5299987Y8011332D01*
X5017000Y5741000D02*
Y5760993D01*
X5023664Y5754329D01*
X5030329Y5760993D01*
Y5741000D01*
X5036993Y5760993D02*
Y5741000D01*
Y5750997D01*
X5050323D01*
Y5760993D01*
Y5741000D01*
X5066984D02*
Y5760993D01*
X5056987Y5750997D01*
X5070316D01*
X7234768Y7882000D02*
Y7901993D01*
X7241432Y7895329D01*
X7248097Y7901993D01*
Y7882000D01*
X7254761Y7901993D02*
Y7882000D01*
Y7891997D01*
X7268090D01*
Y7901993D01*
Y7882000D01*
X7288084Y7901993D02*
X7274755D01*
Y7891997D01*
X7281419Y7895329D01*
X7284752D01*
X7288084Y7891997D01*
Y7885332D01*
X7284752Y7882000D01*
X7278087D01*
X7274755Y7885332D01*
X7425000Y5763000D02*
Y5782993D01*
X7431664Y5776329D01*
X7438329Y5782993D01*
Y5763000D01*
X7444993Y5782993D02*
Y5763000D01*
Y5772997D01*
X7458323D01*
Y5782993D01*
Y5763000D01*
X7478316Y5782993D02*
X7471651Y5779661D01*
X7464987Y5772997D01*
Y5766332D01*
X7468319Y5763000D01*
X7474984D01*
X7478316Y5766332D01*
Y5769664D01*
X7474984Y5772997D01*
X7464987D01*
X6984000Y8070669D02*
X7003993D01*
Y8060672D01*
X7000661Y8057340D01*
X6993997D01*
X6990664Y8060672D01*
Y8070669D01*
Y8064004D02*
X6984000Y8057340D01*
Y8050675D02*
Y8044011D01*
Y8047343D01*
X7003993D01*
X7000661Y8050675D01*
X7220000Y8210000D02*
X7239993D01*
Y8200003D01*
X7236661Y8196671D01*
X7229997D01*
X7226664Y8200003D01*
Y8210000D01*
Y8203335D02*
X7220000Y8196671D01*
Y8176677D02*
Y8190007D01*
X7233329Y8176677D01*
X7236661D01*
X7239993Y8180010D01*
Y8186674D01*
X7236661Y8190007D01*
X7066000Y8042000D02*
X7085993D01*
Y8032003D01*
X7082661Y8028671D01*
X7075997D01*
X7072664Y8032003D01*
Y8042000D01*
Y8035336D02*
X7066000Y8028671D01*
X7082661Y8022007D02*
X7085993Y8018674D01*
Y8012010D01*
X7082661Y8008677D01*
X7079329D01*
X7075997Y8012010D01*
Y8015342D01*
Y8012010D01*
X7072664Y8008677D01*
X7069332D01*
X7066000Y8012010D01*
Y8018674D01*
X7069332Y8022007D01*
X6328000Y7806221D02*
Y7826214D01*
X6337997D01*
X6341329Y7822882D01*
Y7816217D01*
X6337997Y7812885D01*
X6328000D01*
X6334664D02*
X6341329Y7806221D01*
X6361323Y7826214D02*
X6347993D01*
Y7816217D01*
X6354658Y7819550D01*
X6357990D01*
X6361323Y7816217D01*
Y7809553D01*
X6357990Y7806221D01*
X6351326D01*
X6347993Y7809553D01*
X6835000Y5750500D02*
Y5770493D01*
X6844997D01*
X6848329Y5767161D01*
Y5760497D01*
X6844997Y5757164D01*
X6835000D01*
X6841664D02*
X6848329Y5750500D01*
X6854993Y5767161D02*
X6858326Y5770493D01*
X6864990D01*
X6868323Y5767161D01*
Y5763829D01*
X6864990Y5760497D01*
X6868323Y5757164D01*
Y5753832D01*
X6864990Y5750500D01*
X6858326D01*
X6854993Y5753832D01*
Y5757164D01*
X6858326Y5760497D01*
X6854993Y5763829D01*
Y5767161D01*
X6858326Y5760497D02*
X6864990D01*
X5630000Y7428000D02*
X5649993D01*
Y7418003D01*
X5646661Y7414671D01*
X5639997D01*
X5636664Y7418003D01*
Y7428000D01*
Y7421336D02*
X5630000Y7414671D01*
Y7408007D02*
Y7401342D01*
Y7404674D01*
X5649993D01*
X5646661Y7408007D01*
X5630000Y7378016D02*
Y7391345D01*
X5643329Y7378016D01*
X5646661D01*
X5649993Y7381348D01*
Y7388013D01*
X5646661Y7391345D01*
X5650685Y7491864D02*
X5670679D01*
Y7481867D01*
X5667346Y7478535D01*
X5660682D01*
X5657350Y7481867D01*
Y7491864D01*
Y7485199D02*
X5650685Y7478535D01*
Y7471870D02*
Y7465206D01*
Y7468538D01*
X5670679D01*
X5667346Y7471870D01*
Y7455209D02*
X5670679Y7451877D01*
Y7445212D01*
X5667346Y7441880D01*
X5664014D01*
X5660682Y7445212D01*
Y7448545D01*
Y7445212D01*
X5657350Y7441880D01*
X5654017D01*
X5650685Y7445212D01*
Y7451877D01*
X5654017Y7455209D01*
X5602421Y7355928D02*
X5622414D01*
Y7345931D01*
X5619082Y7342599D01*
X5612417D01*
X5609085Y7345931D01*
Y7355928D01*
Y7349264D02*
X5602421Y7342599D01*
Y7335935D02*
Y7329270D01*
Y7332602D01*
X5622414D01*
X5619082Y7335935D01*
X5602421Y7309276D02*
X5622414D01*
X5612417Y7319273D01*
Y7305944D01*
X5946000Y6734500D02*
X5965993D01*
Y6724503D01*
X5962661Y6721171D01*
X5955997D01*
X5952664Y6724503D01*
Y6734500D01*
Y6727836D02*
X5946000Y6721171D01*
Y6714507D02*
Y6707842D01*
Y6711174D01*
X5965993D01*
X5962661Y6714507D01*
X5965993Y6684516D02*
Y6697845D01*
X5955997D01*
X5959329Y6691181D01*
Y6687848D01*
X5955997Y6684516D01*
X5949332D01*
X5946000Y6687848D01*
Y6694513D01*
X5949332Y6697845D01*
X6121000Y7464500D02*
Y7484493D01*
X6130997D01*
X6134329Y7481161D01*
Y7474497D01*
X6130997Y7471164D01*
X6121000D01*
X6127664D02*
X6134329Y7464500D01*
X6140993D02*
X6147658D01*
X6144326D01*
Y7484493D01*
X6140993Y7481161D01*
X6170984Y7484493D02*
X6164319Y7481161D01*
X6157655Y7474497D01*
Y7467832D01*
X6160987Y7464500D01*
X6167652D01*
X6170984Y7467832D01*
Y7471164D01*
X6167652Y7474497D01*
X6157655D01*
X5584000Y7097158D02*
Y7117151D01*
X5593997D01*
X5597329Y7113819D01*
Y7107154D01*
X5593997Y7103822D01*
X5584000D01*
X5590664D02*
X5597329Y7097158D01*
X5603993D02*
X5610658D01*
X5607326D01*
Y7117151D01*
X5603993Y7113819D01*
X5620655Y7117151D02*
X5633984D01*
Y7113819D01*
X5620655Y7100490D01*
Y7097158D01*
X5126000Y7259000D02*
Y7278993D01*
X5135997D01*
X5139329Y7275661D01*
Y7268997D01*
X5135997Y7265664D01*
X5126000D01*
X5132664D02*
X5139329Y7259000D01*
X5145993D02*
X5152658D01*
X5149326D01*
Y7278993D01*
X5145993Y7275661D01*
X5162655D02*
X5165987Y7278993D01*
X5172652D01*
X5175984Y7275661D01*
Y7272329D01*
X5172652Y7268997D01*
X5175984Y7265664D01*
Y7262332D01*
X5172652Y7259000D01*
X5165987D01*
X5162655Y7262332D01*
Y7265664D01*
X5165987Y7268997D01*
X5162655Y7272329D01*
Y7275661D01*
X5165987Y7268997D02*
X5172652D01*
X6236000Y7465000D02*
Y7484993D01*
X6245997D01*
X6249329Y7481661D01*
Y7474997D01*
X6245997Y7471664D01*
X6236000D01*
X6242664D02*
X6249329Y7465000D01*
X6255993D02*
X6262658D01*
X6259326D01*
Y7484993D01*
X6255993Y7481661D01*
X6272655Y7468332D02*
X6275987Y7465000D01*
X6282652D01*
X6285984Y7468332D01*
Y7481661D01*
X6282652Y7484993D01*
X6275987D01*
X6272655Y7481661D01*
Y7478329D01*
X6275987Y7474997D01*
X6285984D01*
X5952000Y6826043D02*
Y6846036D01*
X5961997D01*
X5965329Y6842704D01*
Y6836040D01*
X5961997Y6832707D01*
X5952000D01*
X5958664D02*
X5965329Y6826043D01*
X5985323D02*
X5971993D01*
X5985323Y6839372D01*
Y6842704D01*
X5981990Y6846036D01*
X5975326D01*
X5971993Y6842704D01*
X5991987D02*
X5995319Y6846036D01*
X6001984D01*
X6005316Y6842704D01*
Y6829375D01*
X6001984Y6826043D01*
X5995319D01*
X5991987Y6829375D01*
Y6842704D01*
X5401500Y7143000D02*
Y7162993D01*
X5411497D01*
X5414829Y7159661D01*
Y7152997D01*
X5411497Y7149664D01*
X5401500D01*
X5408164D02*
X5414829Y7143000D01*
X5434823D02*
X5421493D01*
X5434823Y7156329D01*
Y7159661D01*
X5431490Y7162993D01*
X5424826D01*
X5421493Y7159661D01*
X5441487Y7143000D02*
X5448151D01*
X5444819D01*
Y7162993D01*
X5441487Y7159661D01*
X5199000Y7130000D02*
Y7149993D01*
X5208997D01*
X5212329Y7146661D01*
Y7139997D01*
X5208997Y7136664D01*
X5199000D01*
X5205664D02*
X5212329Y7130000D01*
X5232323D02*
X5218993D01*
X5232323Y7143329D01*
Y7146661D01*
X5228990Y7149993D01*
X5222326D01*
X5218993Y7146661D01*
X5252316Y7130000D02*
X5238987D01*
X5252316Y7143329D01*
Y7146661D01*
X5248984Y7149993D01*
X5242319D01*
X5238987Y7146661D01*
X5104000Y7139000D02*
Y7158993D01*
X5113997D01*
X5117329Y7155661D01*
Y7148997D01*
X5113997Y7145664D01*
X5104000D01*
X5110664D02*
X5117329Y7139000D01*
X5137323D02*
X5123993D01*
X5137323Y7152329D01*
Y7155661D01*
X5133990Y7158993D01*
X5127326D01*
X5123993Y7155661D01*
X5143987D02*
X5147319Y7158993D01*
X5153984D01*
X5157316Y7155661D01*
Y7152329D01*
X5153984Y7148997D01*
X5150651D01*
X5153984D01*
X5157316Y7145664D01*
Y7142332D01*
X5153984Y7139000D01*
X5147319D01*
X5143987Y7142332D01*
X6240000Y7360000D02*
X6259993D01*
Y7350003D01*
X6256661Y7346671D01*
X6249997D01*
X6246664Y7350003D01*
Y7360000D01*
Y7353336D02*
X6240000Y7346671D01*
Y7326677D02*
Y7340007D01*
X6253329Y7326677D01*
X6256661D01*
X6259993Y7330010D01*
Y7336674D01*
X6256661Y7340007D01*
X6240000Y7310016D02*
X6259993D01*
X6249997Y7320013D01*
Y7306684D01*
X5815000Y7569000D02*
Y7588993D01*
X5824997D01*
X5828329Y7585661D01*
Y7578997D01*
X5824997Y7575664D01*
X5815000D01*
X5821664D02*
X5828329Y7569000D01*
X5848323D02*
X5834993D01*
X5848323Y7582329D01*
Y7585661D01*
X5844990Y7588993D01*
X5838326D01*
X5834993Y7585661D01*
X5868316Y7588993D02*
X5854987D01*
Y7578997D01*
X5861651Y7582329D01*
X5864984D01*
X5868316Y7578997D01*
Y7572332D01*
X5864984Y7569000D01*
X5858319D01*
X5854987Y7572332D01*
X5952000Y6805000D02*
X5971993D01*
Y6795003D01*
X5968661Y6791671D01*
X5961997D01*
X5958664Y6795003D01*
Y6805000D01*
Y6798336D02*
X5952000Y6791671D01*
Y6771677D02*
Y6785007D01*
X5965329Y6771677D01*
X5968661D01*
X5971993Y6775010D01*
Y6781674D01*
X5968661Y6785007D01*
X5971993Y6751684D02*
X5968661Y6758349D01*
X5961997Y6765013D01*
X5955332D01*
X5952000Y6761681D01*
Y6755016D01*
X5955332Y6751684D01*
X5958664D01*
X5961997Y6755016D01*
Y6765013D01*
X5416000Y7244000D02*
Y7263993D01*
X5425997D01*
X5429329Y7260661D01*
Y7253997D01*
X5425997Y7250664D01*
X5416000D01*
X5422664D02*
X5429329Y7244000D01*
X5449323D02*
X5435993D01*
X5449323Y7257329D01*
Y7260661D01*
X5445990Y7263993D01*
X5439326D01*
X5435993Y7260661D01*
X5455987Y7263993D02*
X5469316D01*
Y7260661D01*
X5455987Y7247332D01*
Y7244000D01*
X5137000Y7220000D02*
Y7239993D01*
X5146997D01*
X5150329Y7236661D01*
Y7229997D01*
X5146997Y7226664D01*
X5137000D01*
X5143664D02*
X5150329Y7220000D01*
X5170323D02*
X5156993D01*
X5170323Y7233329D01*
Y7236661D01*
X5166990Y7239993D01*
X5160326D01*
X5156993Y7236661D01*
X5176987D02*
X5180319Y7239993D01*
X5186984D01*
X5190316Y7236661D01*
Y7233329D01*
X5186984Y7229997D01*
X5190316Y7226664D01*
Y7223332D01*
X5186984Y7220000D01*
X5180319D01*
X5176987Y7223332D01*
Y7226664D01*
X5180319Y7229997D01*
X5176987Y7233329D01*
Y7236661D01*
X5180319Y7229997D02*
X5186984D01*
X6414000Y7280157D02*
X6433993D01*
Y7270160D01*
X6430661Y7266828D01*
X6423997D01*
X6420664Y7270160D01*
Y7280157D01*
Y7273492D02*
X6414000Y7266828D01*
Y7246834D02*
Y7260163D01*
X6427329Y7246834D01*
X6430661D01*
X6433993Y7250167D01*
Y7256831D01*
X6430661Y7260163D01*
X6417332Y7240170D02*
X6414000Y7236837D01*
Y7230173D01*
X6417332Y7226841D01*
X6430661D01*
X6433993Y7230173D01*
Y7236837D01*
X6430661Y7240170D01*
X6427329D01*
X6423997Y7236837D01*
Y7226841D01*
X5145000Y7640000D02*
Y7659993D01*
X5154997D01*
X5158329Y7656661D01*
Y7649997D01*
X5154997Y7646664D01*
X5145000D01*
X5151664D02*
X5158329Y7640000D01*
X5164993Y7656661D02*
X5168326Y7659993D01*
X5174990D01*
X5178323Y7656661D01*
Y7653329D01*
X5174990Y7649997D01*
X5171658D01*
X5174990D01*
X5178323Y7646664D01*
Y7643332D01*
X5174990Y7640000D01*
X5168326D01*
X5164993Y7643332D01*
X5184987Y7656661D02*
X5188319Y7659993D01*
X5194984D01*
X5198316Y7656661D01*
Y7643332D01*
X5194984Y7640000D01*
X5188319D01*
X5184987Y7643332D01*
Y7656661D01*
X6240000Y7057000D02*
X6259993D01*
Y7047003D01*
X6256661Y7043671D01*
X6249997D01*
X6246664Y7047003D01*
Y7057000D01*
Y7050336D02*
X6240000Y7043671D01*
X6256661Y7037007D02*
X6259993Y7033674D01*
Y7027010D01*
X6256661Y7023677D01*
X6253329D01*
X6249997Y7027010D01*
Y7030342D01*
Y7027010D01*
X6246664Y7023677D01*
X6243332D01*
X6240000Y7027010D01*
Y7033674D01*
X6243332Y7037007D01*
X6240000Y7017013D02*
Y7010349D01*
Y7013681D01*
X6259993D01*
X6256661Y7017013D01*
X5522000Y7268500D02*
X5541993D01*
Y7258503D01*
X5538661Y7255171D01*
X5531997D01*
X5528664Y7258503D01*
Y7268500D01*
Y7261836D02*
X5522000Y7255171D01*
X5538661Y7248507D02*
X5541993Y7245174D01*
Y7238510D01*
X5538661Y7235177D01*
X5535329D01*
X5531997Y7238510D01*
Y7241842D01*
Y7238510D01*
X5528664Y7235177D01*
X5525332D01*
X5522000Y7238510D01*
Y7245174D01*
X5525332Y7248507D01*
X5522000Y7215184D02*
Y7228513D01*
X5535329Y7215184D01*
X5538661D01*
X5541993Y7218516D01*
Y7225181D01*
X5538661Y7228513D01*
X5519000Y7191000D02*
X5538993D01*
Y7181003D01*
X5535661Y7177671D01*
X5528997D01*
X5525664Y7181003D01*
Y7191000D01*
Y7184336D02*
X5519000Y7177671D01*
X5535661Y7171007D02*
X5538993Y7167674D01*
Y7161010D01*
X5535661Y7157677D01*
X5532329D01*
X5528997Y7161010D01*
Y7164342D01*
Y7161010D01*
X5525664Y7157677D01*
X5522332D01*
X5519000Y7161010D01*
Y7167674D01*
X5522332Y7171007D01*
X5535661Y7151013D02*
X5538993Y7147681D01*
Y7141016D01*
X5535661Y7137684D01*
X5532329D01*
X5528997Y7141016D01*
Y7144349D01*
Y7141016D01*
X5525664Y7137684D01*
X5522332D01*
X5519000Y7141016D01*
Y7147681D01*
X5522332Y7151013D01*
X5265000Y7269500D02*
Y7289493D01*
X5274997D01*
X5278329Y7286161D01*
Y7279497D01*
X5274997Y7276164D01*
X5265000D01*
X5271664D02*
X5278329Y7269500D01*
X5284993Y7286161D02*
X5288326Y7289493D01*
X5294990D01*
X5298323Y7286161D01*
Y7282829D01*
X5294990Y7279497D01*
X5291658D01*
X5294990D01*
X5298323Y7276164D01*
Y7272832D01*
X5294990Y7269500D01*
X5288326D01*
X5284993Y7272832D01*
X5314984Y7269500D02*
Y7289493D01*
X5304987Y7279497D01*
X5318316D01*
X5418000Y7749000D02*
Y7768993D01*
X5427997D01*
X5431329Y7765661D01*
Y7758997D01*
X5427997Y7755664D01*
X5418000D01*
X5424664D02*
X5431329Y7749000D01*
X5437993Y7765661D02*
X5441326Y7768993D01*
X5447990D01*
X5451323Y7765661D01*
Y7762329D01*
X5447990Y7758997D01*
X5444658D01*
X5447990D01*
X5451323Y7755664D01*
Y7752332D01*
X5447990Y7749000D01*
X5441326D01*
X5437993Y7752332D01*
X5471316Y7768993D02*
X5464651Y7765661D01*
X5457987Y7758997D01*
Y7752332D01*
X5461319Y7749000D01*
X5467984D01*
X5471316Y7752332D01*
Y7755664D01*
X5467984Y7758997D01*
X5457987D01*
X5220000Y7753000D02*
Y7772993D01*
X5229997D01*
X5233329Y7769661D01*
Y7762997D01*
X5229997Y7759664D01*
X5220000D01*
X5226664D02*
X5233329Y7753000D01*
X5239993Y7769661D02*
X5243326Y7772993D01*
X5249990D01*
X5253323Y7769661D01*
Y7766329D01*
X5249990Y7762997D01*
X5246658D01*
X5249990D01*
X5253323Y7759664D01*
Y7756332D01*
X5249990Y7753000D01*
X5243326D01*
X5239993Y7756332D01*
X5259987Y7772993D02*
X5273316D01*
Y7769661D01*
X5259987Y7756332D01*
Y7753000D01*
X5112000Y7750000D02*
Y7769993D01*
X5121997D01*
X5125329Y7766661D01*
Y7759997D01*
X5121997Y7756664D01*
X5112000D01*
X5118664D02*
X5125329Y7750000D01*
X5131993Y7766661D02*
X5135326Y7769993D01*
X5141990D01*
X5145323Y7766661D01*
Y7763329D01*
X5141990Y7759997D01*
X5138658D01*
X5141990D01*
X5145323Y7756664D01*
Y7753332D01*
X5141990Y7750000D01*
X5135326D01*
X5131993Y7753332D01*
X5151987Y7766661D02*
X5155319Y7769993D01*
X5161984D01*
X5165316Y7766661D01*
Y7763329D01*
X5161984Y7759997D01*
X5165316Y7756664D01*
Y7753332D01*
X5161984Y7750000D01*
X5155319D01*
X5151987Y7753332D01*
Y7756664D01*
X5155319Y7759997D01*
X5151987Y7763329D01*
Y7766661D01*
X5155319Y7759997D02*
X5161984D01*
X6275000Y6969000D02*
Y6988993D01*
X6284997D01*
X6288329Y6985661D01*
Y6978997D01*
X6284997Y6975664D01*
X6275000D01*
X6281664D02*
X6288329Y6969000D01*
X6294993Y6985661D02*
X6298326Y6988993D01*
X6304990D01*
X6308323Y6985661D01*
Y6982329D01*
X6304990Y6978997D01*
X6301658D01*
X6304990D01*
X6308323Y6975664D01*
Y6972332D01*
X6304990Y6969000D01*
X6298326D01*
X6294993Y6972332D01*
X6314987D02*
X6318319Y6969000D01*
X6324984D01*
X6328316Y6972332D01*
Y6985661D01*
X6324984Y6988993D01*
X6318319D01*
X6314987Y6985661D01*
Y6982329D01*
X6318319Y6978997D01*
X6328316D01*
X5414000Y7645000D02*
Y7664993D01*
X5423997D01*
X5427329Y7661661D01*
Y7654997D01*
X5423997Y7651664D01*
X5414000D01*
X5420664D02*
X5427329Y7645000D01*
X5443990D02*
Y7664993D01*
X5433993Y7654997D01*
X5447323D01*
X5453987Y7661661D02*
X5457319Y7664993D01*
X5463984D01*
X5467316Y7661661D01*
Y7648332D01*
X5463984Y7645000D01*
X5457319D01*
X5453987Y7648332D01*
Y7661661D01*
X5164000Y7670000D02*
Y7689993D01*
X5173997D01*
X5177329Y7686661D01*
Y7679997D01*
X5173997Y7676664D01*
X5164000D01*
X5170664D02*
X5177329Y7670000D01*
X5193990D02*
Y7689993D01*
X5183993Y7679997D01*
X5197323D01*
X5203987Y7670000D02*
X5210651D01*
X5207319D01*
Y7689993D01*
X5203987Y7686661D01*
X5527000Y7694000D02*
X5546993D01*
Y7684003D01*
X5543661Y7680671D01*
X5536997D01*
X5533664Y7684003D01*
Y7694000D01*
Y7687336D02*
X5527000Y7680671D01*
Y7664010D02*
X5546993D01*
X5536997Y7674007D01*
Y7660677D01*
X5527000Y7640684D02*
Y7654013D01*
X5540329Y7640684D01*
X5543661D01*
X5546993Y7644016D01*
Y7650681D01*
X5543661Y7654013D01*
X5526000Y7770000D02*
X5545993D01*
Y7760003D01*
X5542661Y7756671D01*
X5535997D01*
X5532664Y7760003D01*
Y7770000D01*
Y7763336D02*
X5526000Y7756671D01*
Y7740010D02*
X5545993D01*
X5535997Y7750007D01*
Y7736677D01*
X5542661Y7730013D02*
X5545993Y7726681D01*
Y7720016D01*
X5542661Y7716684D01*
X5539329D01*
X5535997Y7720016D01*
Y7723349D01*
Y7720016D01*
X5532664Y7716684D01*
X5529332D01*
X5526000Y7720016D01*
Y7726681D01*
X5529332Y7730013D01*
X5290000Y7624000D02*
Y7643993D01*
X5299997D01*
X5303329Y7640661D01*
Y7633997D01*
X5299997Y7630664D01*
X5290000D01*
X5296664D02*
X5303329Y7624000D01*
X5319990D02*
Y7643993D01*
X5309993Y7633997D01*
X5323323D01*
X5343316Y7643993D02*
X5329987D01*
Y7633997D01*
X5336651Y7637329D01*
X5339984D01*
X5343316Y7633997D01*
Y7627332D01*
X5339984Y7624000D01*
X5333319D01*
X5329987Y7627332D01*
X6417681Y7133000D02*
X6437675D01*
Y7123003D01*
X6434342Y7119671D01*
X6427678D01*
X6424346Y7123003D01*
Y7133000D01*
Y7126336D02*
X6417681Y7119671D01*
Y7103010D02*
X6437675D01*
X6427678Y7113007D01*
Y7099677D01*
X6437675Y7079684D02*
X6434342Y7086349D01*
X6427678Y7093013D01*
X6421013D01*
X6417681Y7089681D01*
Y7083016D01*
X6421013Y7079684D01*
X6424346D01*
X6427678Y7083016D01*
Y7093013D01*
X6236000Y7208555D02*
X6255993D01*
Y7198558D01*
X6252661Y7195226D01*
X6245997D01*
X6242664Y7198558D01*
Y7208555D01*
Y7201891D02*
X6236000Y7195226D01*
Y7178565D02*
X6255993D01*
X6245997Y7188562D01*
Y7175233D01*
X6255993Y7168568D02*
Y7155239D01*
X6252661D01*
X6239332Y7168568D01*
X6236000D01*
X5584000Y6364000D02*
Y6383993D01*
X5593997D01*
X5597329Y6380661D01*
Y6373997D01*
X5593997Y6370664D01*
X5584000D01*
X5590664D02*
X5597329Y6364000D01*
X5613990D02*
Y6383993D01*
X5603993Y6373997D01*
X5617323D01*
X5623987Y6380661D02*
X5627319Y6383993D01*
X5633984D01*
X5637316Y6380661D01*
Y6377329D01*
X5633984Y6373997D01*
X5637316Y6370664D01*
Y6367332D01*
X5633984Y6364000D01*
X5627319D01*
X5623987Y6367332D01*
Y6370664D01*
X5627319Y6373997D01*
X5623987Y6377329D01*
Y6380661D01*
X5627319Y6373997D02*
X5633984D01*
X5230000Y6444000D02*
Y6463993D01*
X5239997D01*
X5243329Y6460661D01*
Y6453997D01*
X5239997Y6450664D01*
X5230000D01*
X5236664D02*
X5243329Y6444000D01*
X5259990D02*
Y6463993D01*
X5249993Y6453997D01*
X5263323D01*
X5269987Y6447332D02*
X5273319Y6444000D01*
X5279984D01*
X5283316Y6447332D01*
Y6460661D01*
X5279984Y6463993D01*
X5273319D01*
X5269987Y6460661D01*
Y6457329D01*
X5273319Y6453997D01*
X5283316D01*
X5264000Y6536000D02*
X5283993D01*
Y6526003D01*
X5280661Y6522671D01*
X5273997D01*
X5270664Y6526003D01*
Y6536000D01*
Y6529336D02*
X5264000Y6522671D01*
X5283993Y6502677D02*
Y6516007D01*
X5273997D01*
X5277329Y6509342D01*
Y6506010D01*
X5273997Y6502677D01*
X5267332D01*
X5264000Y6506010D01*
Y6512674D01*
X5267332Y6516007D01*
X5280661Y6496013D02*
X5283993Y6492681D01*
Y6486016D01*
X5280661Y6482684D01*
X5267332D01*
X5264000Y6486016D01*
Y6492681D01*
X5267332Y6496013D01*
X5280661D01*
X5520000Y6493000D02*
Y6512993D01*
X5529997D01*
X5533329Y6509661D01*
Y6502997D01*
X5529997Y6499664D01*
X5520000D01*
X5526664D02*
X5533329Y6493000D01*
X5553323Y6512993D02*
X5539993D01*
Y6502997D01*
X5546658Y6506329D01*
X5549990D01*
X5553323Y6502997D01*
Y6496332D01*
X5549990Y6493000D01*
X5543326D01*
X5539993Y6496332D01*
X5559987Y6493000D02*
X5566651D01*
X5563319D01*
Y6512993D01*
X5559987Y6509661D01*
X5116000Y6644000D02*
Y6663993D01*
X5125997D01*
X5129329Y6660661D01*
Y6653997D01*
X5125997Y6650664D01*
X5116000D01*
X5122664D02*
X5129329Y6644000D01*
X5149323Y6663993D02*
X5135993D01*
Y6653997D01*
X5142658Y6657329D01*
X5145990D01*
X5149323Y6653997D01*
Y6647332D01*
X5145990Y6644000D01*
X5139326D01*
X5135993Y6647332D01*
X5169316Y6644000D02*
X5155987D01*
X5169316Y6657329D01*
Y6660661D01*
X5165984Y6663993D01*
X5159319D01*
X5155987Y6660661D01*
X5980000Y6726000D02*
Y6745993D01*
X5989997D01*
X5993329Y6742661D01*
Y6735997D01*
X5989997Y6732664D01*
X5980000D01*
X5986664D02*
X5993329Y6726000D01*
X6013323Y6745993D02*
X5999993D01*
Y6735997D01*
X6006658Y6739329D01*
X6009990D01*
X6013323Y6735997D01*
Y6729332D01*
X6009990Y6726000D01*
X6003326D01*
X5999993Y6729332D01*
X6019987Y6742661D02*
X6023319Y6745993D01*
X6029984D01*
X6033316Y6742661D01*
Y6739329D01*
X6029984Y6735997D01*
X6026651D01*
X6029984D01*
X6033316Y6732664D01*
Y6729332D01*
X6029984Y6726000D01*
X6023319D01*
X6019987Y6729332D01*
X5229000Y6432000D02*
X5248993D01*
Y6422003D01*
X5245661Y6418671D01*
X5238997D01*
X5235664Y6422003D01*
Y6432000D01*
Y6425336D02*
X5229000Y6418671D01*
X5248993Y6398677D02*
Y6412007D01*
X5238997D01*
X5242329Y6405342D01*
Y6402010D01*
X5238997Y6398677D01*
X5232332D01*
X5229000Y6402010D01*
Y6408674D01*
X5232332Y6412007D01*
X5229000Y6382016D02*
X5248993D01*
X5238997Y6392013D01*
Y6378684D01*
X5522000Y6431000D02*
Y6450993D01*
X5531997D01*
X5535329Y6447661D01*
Y6440997D01*
X5531997Y6437664D01*
X5522000D01*
X5528664D02*
X5535329Y6431000D01*
X5555323Y6450993D02*
X5541993D01*
Y6440997D01*
X5548658Y6444329D01*
X5551990D01*
X5555323Y6440997D01*
Y6434332D01*
X5551990Y6431000D01*
X5545326D01*
X5541993Y6434332D01*
X5575316Y6450993D02*
X5561987D01*
Y6440997D01*
X5568651Y6444329D01*
X5571984D01*
X5575316Y6440997D01*
Y6434332D01*
X5571984Y6431000D01*
X5565319D01*
X5561987Y6434332D01*
X5189000Y6434638D02*
X5208993D01*
Y6424641D01*
X5205661Y6421309D01*
X5198997D01*
X5195664Y6424641D01*
Y6434638D01*
Y6427973D02*
X5189000Y6421309D01*
X5208993Y6401315D02*
Y6414644D01*
X5198997D01*
X5202329Y6407980D01*
Y6404648D01*
X5198997Y6401315D01*
X5192332D01*
X5189000Y6404648D01*
Y6411312D01*
X5192332Y6414644D01*
X5208993Y6381322D02*
X5205661Y6387986D01*
X5198997Y6394651D01*
X5192332D01*
X5189000Y6391319D01*
Y6384654D01*
X5192332Y6381322D01*
X5195664D01*
X5198997Y6384654D01*
Y6394651D01*
X5228000Y6220000D02*
X5247993D01*
Y6210003D01*
X5244661Y6206671D01*
X5237997D01*
X5234664Y6210003D01*
Y6220000D01*
Y6213336D02*
X5228000Y6206671D01*
X5247993Y6186677D02*
Y6200007D01*
X5237997D01*
X5241329Y6193342D01*
Y6190010D01*
X5237997Y6186677D01*
X5231332D01*
X5228000Y6190010D01*
Y6196674D01*
X5231332Y6200007D01*
X5247993Y6180013D02*
Y6166684D01*
X5244661D01*
X5231332Y6180013D01*
X5228000D01*
X5149000Y6253000D02*
X5168993D01*
Y6243003D01*
X5165661Y6239671D01*
X5158997D01*
X5155664Y6243003D01*
Y6253000D01*
Y6246336D02*
X5149000Y6239671D01*
X5168993Y6219677D02*
Y6233007D01*
X5158997D01*
X5162329Y6226342D01*
Y6223010D01*
X5158997Y6219677D01*
X5152332D01*
X5149000Y6223010D01*
Y6229674D01*
X5152332Y6233007D01*
X5165661Y6213013D02*
X5168993Y6209681D01*
Y6203016D01*
X5165661Y6199684D01*
X5162329D01*
X5158997Y6203016D01*
X5155664Y6199684D01*
X5152332D01*
X5149000Y6203016D01*
Y6209681D01*
X5152332Y6213013D01*
X5155664D01*
X5158997Y6209681D01*
X5162329Y6213013D01*
X5165661D01*
X5158997Y6209681D02*
Y6203016D01*
X5520000Y6205000D02*
Y6224993D01*
X5529997D01*
X5533329Y6221661D01*
Y6214997D01*
X5529997Y6211664D01*
X5520000D01*
X5526664D02*
X5533329Y6205000D01*
X5553323Y6224993D02*
X5539993D01*
Y6214997D01*
X5546658Y6218329D01*
X5549990D01*
X5553323Y6214997D01*
Y6208332D01*
X5549990Y6205000D01*
X5543326D01*
X5539993Y6208332D01*
X5559987D02*
X5563319Y6205000D01*
X5569984D01*
X5573316Y6208332D01*
Y6221661D01*
X5569984Y6224993D01*
X5563319D01*
X5559987Y6221661D01*
Y6218329D01*
X5563319Y6214997D01*
X5573316D01*
X5153000Y6036000D02*
X5172993D01*
Y6026003D01*
X5169661Y6022671D01*
X5162997D01*
X5159664Y6026003D01*
Y6036000D01*
Y6029336D02*
X5153000Y6022671D01*
X5172993Y6002677D02*
X5169661Y6009342D01*
X5162997Y6016007D01*
X5156332D01*
X5153000Y6012674D01*
Y6006010D01*
X5156332Y6002677D01*
X5159664D01*
X5162997Y6006010D01*
Y6016007D01*
X5169661Y5996013D02*
X5172993Y5992681D01*
Y5986016D01*
X5169661Y5982684D01*
X5156332D01*
X5153000Y5986016D01*
Y5992681D01*
X5156332Y5996013D01*
X5169661D01*
X5248000Y6135000D02*
Y6154993D01*
X5257997D01*
X5261329Y6151661D01*
Y6144997D01*
X5257997Y6141664D01*
X5248000D01*
X5254664D02*
X5261329Y6135000D01*
X5281323Y6154993D02*
X5274658Y6151661D01*
X5267993Y6144997D01*
Y6138332D01*
X5271326Y6135000D01*
X5277990D01*
X5281323Y6138332D01*
Y6141664D01*
X5277990Y6144997D01*
X5267993D01*
X5287987Y6135000D02*
X5294651D01*
X5291319D01*
Y6154993D01*
X5287987Y6151661D01*
X5519000Y6140000D02*
Y6159993D01*
X5528997D01*
X5532329Y6156661D01*
Y6149997D01*
X5528997Y6146664D01*
X5519000D01*
X5525664D02*
X5532329Y6140000D01*
X5552323Y6159993D02*
X5545658Y6156661D01*
X5538993Y6149997D01*
Y6143332D01*
X5542326Y6140000D01*
X5548990D01*
X5552323Y6143332D01*
Y6146664D01*
X5548990Y6149997D01*
X5538993D01*
X5572316Y6140000D02*
X5558987D01*
X5572316Y6153329D01*
Y6156661D01*
X5568984Y6159993D01*
X5562319D01*
X5558987Y6156661D01*
X5244000Y6105000D02*
Y6124993D01*
X5253997D01*
X5257329Y6121661D01*
Y6114997D01*
X5253997Y6111664D01*
X5244000D01*
X5250664D02*
X5257329Y6105000D01*
X5277323Y6124993D02*
X5270658Y6121661D01*
X5263993Y6114997D01*
Y6108332D01*
X5267326Y6105000D01*
X5273990D01*
X5277323Y6108332D01*
Y6111664D01*
X5273990Y6114997D01*
X5263993D01*
X5283987Y6121661D02*
X5287319Y6124993D01*
X5293984D01*
X5297316Y6121661D01*
Y6118329D01*
X5293984Y6114997D01*
X5290651D01*
X5293984D01*
X5297316Y6111664D01*
Y6108332D01*
X5293984Y6105000D01*
X5287319D01*
X5283987Y6108332D01*
X5860200Y7331993D02*
Y7315332D01*
X5863532Y7312000D01*
X5870197D01*
X5873529Y7315332D01*
Y7331993D01*
X5893522D02*
X5886858Y7328661D01*
X5880193Y7321997D01*
Y7315332D01*
X5883526Y7312000D01*
X5890190D01*
X5893522Y7315332D01*
Y7318664D01*
X5890190Y7321997D01*
X5880193D01*
X5148000Y7521993D02*
Y7505332D01*
X5151332Y7502000D01*
X5157997D01*
X5161329Y7505332D01*
Y7521993D01*
X5167993D02*
X5181323D01*
Y7518661D01*
X5167993Y7505332D01*
Y7502000D01*
X5494000Y6378993D02*
Y6362332D01*
X5497332Y6359000D01*
X5503997D01*
X5507329Y6362332D01*
Y6378993D01*
X5513993Y6362332D02*
X5517326Y6359000D01*
X5523990D01*
X5527323Y6362332D01*
Y6375661D01*
X5523990Y6378993D01*
X5517326D01*
X5513993Y6375661D01*
Y6372329D01*
X5517326Y6368997D01*
X5527323D01*
X5914329Y7407661D02*
X5910997Y7410993D01*
X5904332D01*
X5901000Y7407661D01*
Y7394332D01*
X5904332Y7391000D01*
X5910997D01*
X5914329Y7394332D01*
X5920993Y7407661D02*
X5924326Y7410993D01*
X5930990D01*
X5934323Y7407661D01*
Y7404329D01*
X5930990Y7400997D01*
X5927658D01*
X5930990D01*
X5934323Y7397664D01*
Y7394332D01*
X5930990Y7391000D01*
X5924326D01*
X5920993Y7394332D01*
X5940987D02*
X5944319Y7391000D01*
X5950984D01*
X5954316Y7394332D01*
Y7407661D01*
X5950984Y7410993D01*
X5944319D01*
X5940987Y7407661D01*
Y7404329D01*
X5944319Y7400997D01*
X5954316D01*
X6414000Y6978000D02*
X6433993D01*
Y6968003D01*
X6430661Y6964671D01*
X6423997D01*
X6420664Y6968003D01*
Y6978000D01*
Y6971336D02*
X6414000Y6964671D01*
X6430661Y6958007D02*
X6433993Y6954674D01*
Y6948010D01*
X6430661Y6944677D01*
X6427329D01*
X6423997Y6948010D01*
Y6951342D01*
Y6948010D01*
X6420664Y6944677D01*
X6417332D01*
X6414000Y6948010D01*
Y6954674D01*
X6417332Y6958007D01*
X6433993Y6924684D02*
Y6938013D01*
X6423997D01*
X6427329Y6931349D01*
Y6928016D01*
X6423997Y6924684D01*
X6417332D01*
X6414000Y6928016D01*
Y6934681D01*
X6417332Y6938013D01*
X5324329Y5995661D02*
X5320997Y5998993D01*
X5314332D01*
X5311000Y5995661D01*
Y5982332D01*
X5314332Y5979000D01*
X5320997D01*
X5324329Y5982332D01*
X5344323Y5998993D02*
X5337658Y5995661D01*
X5330993Y5988997D01*
Y5982332D01*
X5334326Y5979000D01*
X5340990D01*
X5344323Y5982332D01*
Y5985664D01*
X5340990Y5988997D01*
X5330993D01*
X5360984Y5979000D02*
Y5998993D01*
X5350987Y5988997D01*
X5364316D01*
X5321329Y6027661D02*
X5317997Y6030993D01*
X5311332D01*
X5308000Y6027661D01*
Y6014332D01*
X5311332Y6011000D01*
X5317997D01*
X5321329Y6014332D01*
X5341323Y6030993D02*
X5334658Y6027661D01*
X5327993Y6020997D01*
Y6014332D01*
X5331326Y6011000D01*
X5337990D01*
X5341323Y6014332D01*
Y6017664D01*
X5337990Y6020997D01*
X5327993D01*
X5361316Y6030993D02*
X5347987D01*
Y6020997D01*
X5354651Y6024329D01*
X5357984D01*
X5361316Y6020997D01*
Y6014332D01*
X5357984Y6011000D01*
X5351319D01*
X5347987Y6014332D01*
X5320329Y6059661D02*
X5316997Y6062993D01*
X5310332D01*
X5307000Y6059661D01*
Y6046332D01*
X5310332Y6043000D01*
X5316997D01*
X5320329Y6046332D01*
X5340323Y6062993D02*
X5333658Y6059661D01*
X5326993Y6052997D01*
Y6046332D01*
X5330326Y6043000D01*
X5336990D01*
X5340323Y6046332D01*
Y6049664D01*
X5336990Y6052997D01*
X5326993D01*
X5360316Y6062993D02*
X5353651Y6059661D01*
X5346987Y6052997D01*
Y6046332D01*
X5350319Y6043000D01*
X5356984D01*
X5360316Y6046332D01*
Y6049664D01*
X5356984Y6052997D01*
X5346987D01*
X5415329Y6656661D02*
X5411997Y6659993D01*
X5405332D01*
X5402000Y6656661D01*
Y6643332D01*
X5405332Y6640000D01*
X5411997D01*
X5415329Y6643332D01*
X5435323Y6659993D02*
X5428658Y6656661D01*
X5421993Y6649997D01*
Y6643332D01*
X5425326Y6640000D01*
X5431990D01*
X5435323Y6643332D01*
Y6646664D01*
X5431990Y6649997D01*
X5421993D01*
X5441987Y6659993D02*
X5455316D01*
Y6656661D01*
X5441987Y6643332D01*
Y6640000D01*
X5487661Y6506671D02*
X5490993Y6510003D01*
Y6516668D01*
X5487661Y6520000D01*
X5474332D01*
X5471000Y6516668D01*
Y6510003D01*
X5474332Y6506671D01*
X5490993Y6486677D02*
X5487661Y6493342D01*
X5480997Y6500007D01*
X5474332D01*
X5471000Y6496674D01*
Y6490010D01*
X5474332Y6486677D01*
X5477664D01*
X5480997Y6490010D01*
Y6500007D01*
X5487661Y6480013D02*
X5490993Y6476681D01*
Y6470016D01*
X5487661Y6466684D01*
X5484329D01*
X5480997Y6470016D01*
X5477664Y6466684D01*
X5474332D01*
X5471000Y6470016D01*
Y6476681D01*
X5474332Y6480013D01*
X5477664D01*
X5480997Y6476681D01*
X5484329Y6480013D01*
X5487661D01*
X5480997Y6476681D02*
Y6470016D01*
X5453329Y6445661D02*
X5449997Y6448993D01*
X5443332D01*
X5440000Y6445661D01*
Y6432332D01*
X5443332Y6429000D01*
X5449997D01*
X5453329Y6432332D01*
X5473323Y6448993D02*
X5466658Y6445661D01*
X5459993Y6438997D01*
Y6432332D01*
X5463326Y6429000D01*
X5469990D01*
X5473323Y6432332D01*
Y6435664D01*
X5469990Y6438997D01*
X5459993D01*
X5479987Y6432332D02*
X5483319Y6429000D01*
X5489984D01*
X5493316Y6432332D01*
Y6445661D01*
X5489984Y6448993D01*
X5483319D01*
X5479987Y6445661D01*
Y6442329D01*
X5483319Y6438997D01*
X5493316D01*
X5317000Y5944993D02*
Y5925000D01*
X5330329D01*
X5350323Y5944993D02*
X5336993D01*
Y5934997D01*
X5343658Y5938329D01*
X5346990D01*
X5350323Y5934997D01*
Y5928332D01*
X5346990Y5925000D01*
X5340326D01*
X5336993Y5928332D01*
X5356987Y5941661D02*
X5360319Y5944993D01*
X5366984D01*
X5370316Y5941661D01*
Y5928332D01*
X5366984Y5925000D01*
X5360319D01*
X5356987Y5928332D01*
Y5941661D01*
X5544000Y6646993D02*
Y6627000D01*
X5557329D01*
X5577323Y6646993D02*
X5563993D01*
Y6636997D01*
X5570658Y6640329D01*
X5573990D01*
X5577323Y6636997D01*
Y6630332D01*
X5573990Y6627000D01*
X5567326D01*
X5563993Y6630332D01*
X5583987Y6627000D02*
X5590651D01*
X5587319D01*
Y6646993D01*
X5583987Y6643661D01*
X6060329Y6036661D02*
X6056997Y6039993D01*
X6050332D01*
X6047000Y6036661D01*
Y6023332D01*
X6050332Y6020000D01*
X6056997D01*
X6060329Y6023332D01*
X6080323Y6039993D02*
X6073658Y6036661D01*
X6066993Y6029997D01*
Y6023332D01*
X6070326Y6020000D01*
X6076990D01*
X6080323Y6023332D01*
Y6026664D01*
X6076990Y6029997D01*
X6066993D01*
X6086987Y6036661D02*
X6090319Y6039993D01*
X6096984D01*
X6100316Y6036661D01*
Y6033329D01*
X6096984Y6029997D01*
X6093651D01*
X6096984D01*
X6100316Y6026664D01*
Y6023332D01*
X6096984Y6020000D01*
X6090319D01*
X6086987Y6023332D01*
X6223000Y6472993D02*
Y6456332D01*
X6226332Y6453000D01*
X6232997D01*
X6236329Y6456332D01*
Y6472993D01*
X6242993Y6469661D02*
X6246326Y6472993D01*
X6252990D01*
X6256323Y6469661D01*
Y6466329D01*
X6252990Y6462997D01*
X6256323Y6459664D01*
Y6456332D01*
X6252990Y6453000D01*
X6246326D01*
X6242993Y6456332D01*
Y6459664D01*
X6246326Y6462997D01*
X6242993Y6466329D01*
Y6469661D01*
X6246326Y6462997D02*
X6252990D01*
X6964329Y8007993D02*
X6957664D01*
X6960997D01*
Y7991332D01*
X6957664Y7988000D01*
X6954332D01*
X6951000Y7991332D01*
X6970993Y7988000D02*
X6977658D01*
X6974326D01*
Y8007993D01*
X6970993Y8004661D01*
D55*
X5558685Y7067000D02*
X5740685D01*
Y6977000D02*
Y7067000D01*
X5558685Y6977000D02*
X5740685D01*
X5558685D02*
Y7067000D01*
X5645000Y6776000D02*
Y6889000D01*
X5705000D01*
Y6776000D02*
Y6889000D01*
X5645000Y6776000D02*
X5705000D01*
X5578000Y6964456D02*
X5691000D01*
Y6904456D02*
Y6964456D01*
X5578000Y6904456D02*
X5691000D01*
X5578000D02*
Y6964456D01*
X5679500Y6696000D02*
X5792500D01*
Y6636000D02*
Y6696000D01*
X5679500Y6636000D02*
X5792500D01*
X5679500D02*
Y6696000D01*
X5722000Y6758000D02*
Y6940000D01*
X5812000D01*
Y6758000D02*
Y6940000D01*
X5722000Y6758000D02*
X5812000D01*
X5527000Y6551364D02*
X5640000D01*
X5527000D02*
Y6611364D01*
X5640000D01*
Y6551364D02*
Y6611364D01*
X5329000Y6626000D02*
X5511000D01*
Y6536000D02*
Y6626000D01*
X5329000Y6536000D02*
X5511000D01*
X5329000D02*
Y6626000D01*
X5825000Y6810000D02*
X5940000D01*
Y6754000D02*
Y6810000D01*
X5825000Y6754000D02*
X5940000D01*
X5825000D02*
Y6810000D01*
X5916000Y6857000D02*
X6031000D01*
X5916000D02*
Y6913000D01*
X6031000D01*
Y6857000D02*
Y6913000D01*
X5937500Y6685000D02*
Y6741000D01*
X5822500D02*
X5937500D01*
X5822500Y6685000D02*
Y6741000D01*
Y6685000D02*
X5937500D01*
X6031000Y6599500D02*
Y6714500D01*
X5975000Y6599500D02*
X6031000D01*
X5975000D02*
Y6714500D01*
X6031000D01*
X6043000Y6659000D02*
Y6841000D01*
X6133000D01*
Y6659000D02*
Y6841000D01*
X6043000Y6659000D02*
X6133000D01*
X5643000Y7154000D02*
X5758000D01*
Y7098000D02*
Y7154000D01*
X5643000Y7098000D02*
X5758000D01*
X5643000D02*
Y7154000D01*
X5644000Y7168000D02*
Y7244000D01*
Y7168000D02*
X5775000D01*
Y7244000D01*
X5644000D02*
X5775000D01*
X5751000Y7307000D02*
Y7363000D01*
X5636000D02*
X5751000D01*
X5636000Y7307000D02*
Y7363000D01*
Y7307000D02*
X5751000D01*
X5781000Y7374000D02*
Y7430000D01*
X5666000D02*
X5781000D01*
X5666000Y7374000D02*
Y7430000D01*
Y7374000D02*
X5781000D01*
X5799500Y7441000D02*
Y7497000D01*
X5684500D02*
X5799500D01*
X5684500Y7441000D02*
Y7497000D01*
Y7441000D02*
X5799500D01*
X5869000D02*
Y7556000D01*
X5813000Y7441000D02*
X5869000D01*
X5813000D02*
Y7556000D01*
X5869000D01*
X5986000Y7474000D02*
Y7587000D01*
X5926000Y7474000D02*
X5986000D01*
X5926000D02*
Y7587000D01*
X5986000D01*
X6092000Y7467000D02*
Y7649000D01*
X6002000Y7467000D02*
X6092000D01*
X6002000D02*
Y7649000D01*
X6092000D01*
X6086500Y7451000D02*
X6201500D01*
Y7395000D02*
Y7451000D01*
X6086500Y7395000D02*
X6201500D01*
X6086500D02*
Y7451000D01*
X6212500Y7450000D02*
X6327500D01*
Y7394000D02*
Y7450000D01*
X6212500Y7394000D02*
X6327500D01*
X6212500D02*
Y7450000D01*
X6328000Y7268500D02*
Y7383500D01*
X6272000Y7268500D02*
X6328000D01*
X6272000D02*
Y7383500D01*
X6328000D01*
X6402000Y7195179D02*
Y7310179D01*
X6346000Y7195179D02*
X6402000D01*
X6346000D02*
Y7310179D01*
X6402000D01*
X6330929Y6824000D02*
Y6939000D01*
X6274929Y6824000D02*
X6330929D01*
X6274929D02*
Y6939000D01*
X6330929D01*
X6403000Y7046158D02*
Y7161158D01*
X6347000Y7046158D02*
X6403000D01*
X6347000D02*
Y7161158D01*
X6403000D01*
X6329000Y6972000D02*
Y7087000D01*
X6273000Y6972000D02*
X6329000D01*
X6273000D02*
Y7087000D01*
X6329000D01*
X6248000Y6822500D02*
Y6937500D01*
X6192000Y6822500D02*
X6248000D01*
X6192000D02*
Y6937500D01*
X6248000D01*
X6347000Y7012000D02*
X6403000D01*
X6347000Y6897000D02*
Y7012000D01*
Y6897000D02*
X6403000D01*
Y7012000D01*
X6328000Y7121000D02*
Y7236000D01*
X6272000Y7121000D02*
X6328000D01*
X6272000D02*
Y7236000D01*
X6328000D01*
X5651000Y6624000D02*
X5833000D01*
Y6534000D02*
Y6624000D01*
X5651000Y6534000D02*
X5833000D01*
X5651000D02*
Y6624000D01*
X5585000Y6237500D02*
Y6352500D01*
X5641000D01*
Y6237500D02*
Y6352500D01*
X5585000Y6237500D02*
X5641000D01*
X5376000Y5980000D02*
X5558000D01*
X5376000D02*
Y6070000D01*
X5558000D01*
Y5980000D02*
Y6070000D01*
X5381000Y5905000D02*
X5494000D01*
X5381000D02*
Y5965000D01*
X5494000D01*
Y5905000D02*
Y5965000D01*
X5682000Y6085500D02*
X5758000D01*
Y6216500D01*
X5682000D02*
X5758000D01*
X5682000Y6085500D02*
Y6216500D01*
X5688000Y6373500D02*
X5764000D01*
Y6504500D01*
X5688000D02*
X5764000D01*
X5688000Y6373500D02*
Y6504500D01*
X5699000Y5850500D02*
Y5963500D01*
X5759000D01*
Y5850500D02*
Y5963500D01*
X5699000Y5850500D02*
X5759000D01*
X5775000Y5788000D02*
Y5970000D01*
X5865000D01*
Y5788000D02*
Y5970000D01*
X5775000Y5788000D02*
X5865000D01*
X5879000Y5876000D02*
X6061000D01*
X5879000D02*
Y5966000D01*
X6061000D01*
Y5876000D02*
Y5966000D01*
X6143000Y6750000D02*
X6256000D01*
X6143000D02*
Y6810000D01*
X6256000D01*
Y6750000D02*
Y6810000D01*
X6967000Y8096000D02*
Y8211000D01*
X7023000D01*
Y8096000D02*
Y8211000D01*
X6967000Y8096000D02*
X7023000D01*
X7057000Y8097500D02*
Y8212500D01*
X7113000D01*
Y8097500D02*
Y8212500D01*
X7057000Y8097500D02*
X7113000D01*
X7147000Y8096000D02*
Y8211000D01*
X7203000D01*
Y8096000D02*
Y8211000D01*
X7147000Y8096000D02*
X7203000D01*
X6977028Y5627190D02*
Y6122190D01*
X6232028D02*
X6977028D01*
X6232028Y5627190D02*
Y6122190D01*
Y5627190D02*
X6977028D01*
D86*
X5111024Y7373307D02*
G03*
X5111024Y7373307I-4921J0D01*
G01*
X5901850Y6973740D02*
G03*
X5901850Y6973740I-4921J0D01*
G01*
X5282898Y6381449D02*
G03*
X5282898Y6381449I-4921J0D01*
G01*
X6206039Y6498614D02*
G03*
X6206039Y6498614I-4921J0D01*
G01*
D87*
X7564000Y5963999D02*
G03*
X7554000Y5973999I-10000J0D01*
G01*
Y7816000D02*
G03*
X7564000Y7826000I0J10000D01*
G01*
X7518000Y5983999D02*
G03*
X7528000Y5973999I10000J0D01*
G01*
Y7816000D02*
G03*
X7518000Y7806000I0J-10000D01*
G01*
X7528000Y6015999D02*
G03*
X7518000Y6005999I0J-10000D01*
G01*
Y7784000D02*
G03*
X7528000Y7774000I10000J0D01*
G01*
X7554000Y6015999D02*
G03*
X7564000Y6025999I0J10000D01*
G01*
Y7764000D02*
G03*
X7554000Y7774000I-10000J0D01*
G01*
X7564000Y6063999D02*
G03*
X7554000Y6073999I-10000J0D01*
G01*
Y7716000D02*
G03*
X7564000Y7726000I0J10000D01*
G01*
X7518000Y6083999D02*
G03*
X7528000Y6073999I10000J0D01*
G01*
Y7716000D02*
G03*
X7518000Y7706000I0J-10000D01*
G01*
X7528000Y6115999D02*
G03*
X7518000Y6105999I0J-10000D01*
G01*
Y7684000D02*
G03*
X7528000Y7674000I10000J0D01*
G01*
X7554000Y6115999D02*
G03*
X7564000Y6125999I0J10000D01*
G01*
Y7664000D02*
G03*
X7554000Y7674000I-10000J0D01*
G01*
X7564000Y6163999D02*
G03*
X7554000Y6173999I-10000J0D01*
G01*
Y7616000D02*
G03*
X7564000Y7626000I0J10000D01*
G01*
X7518000Y6183999D02*
G03*
X7528000Y6173999I10000J0D01*
G01*
Y7616000D02*
G03*
X7518000Y7606000I0J-10000D01*
G01*
X7528000Y6215999D02*
G03*
X7518000Y6205999I0J-10000D01*
G01*
Y7584000D02*
G03*
X7528000Y7574000I10000J0D01*
G01*
X7554000Y6215999D02*
G03*
X7564000Y6225999I0J10000D01*
G01*
Y7564000D02*
G03*
X7554000Y7574000I-10000J0D01*
G01*
X7564000Y6263999D02*
G03*
X7554000Y6273999I-10000J0D01*
G01*
Y7516000D02*
G03*
X7564000Y7526000I0J10000D01*
G01*
X7518000Y6283999D02*
G03*
X7528000Y6273999I10000J0D01*
G01*
Y7516000D02*
G03*
X7518000Y7506000I0J-10000D01*
G01*
X7528000Y6315999D02*
G03*
X7518000Y6305999I0J-10000D01*
G01*
Y7484000D02*
G03*
X7528000Y7474000I10000J0D01*
G01*
X7554000Y6315999D02*
G03*
X7564000Y6325999I0J10000D01*
G01*
Y7464000D02*
G03*
X7554000Y7474000I-10000J0D01*
G01*
X7564000Y6363999D02*
G03*
X7554000Y6373999I-10000J0D01*
G01*
Y7416000D02*
G03*
X7564000Y7426000I0J10000D01*
G01*
X7518000Y6383999D02*
G03*
X7528000Y6373999I10000J0D01*
G01*
Y7416000D02*
G03*
X7518000Y7406000I0J-10000D01*
G01*
X7528000Y6415999D02*
G03*
X7518000Y6405999I0J-10000D01*
G01*
Y7384000D02*
G03*
X7528000Y7374000I10000J0D01*
G01*
X7554000Y6415999D02*
G03*
X7564000Y6425999I0J10000D01*
G01*
Y7364000D02*
G03*
X7554000Y7374000I-10000J0D01*
G01*
X7564000Y6463999D02*
G03*
X7554000Y6473999I-10000J0D01*
G01*
Y7316000D02*
G03*
X7564000Y7326000I0J10000D01*
G01*
X7518000Y6483999D02*
G03*
X7528000Y6473999I10000J0D01*
G01*
Y7316000D02*
G03*
X7518000Y7306000I0J-10000D01*
G01*
X7528000Y6515999D02*
G03*
X7518000Y6505999I0J-10000D01*
G01*
Y7284000D02*
G03*
X7528000Y7274000I10000J0D01*
G01*
X7554000Y6515999D02*
G03*
X7564000Y6525999I0J10000D01*
G01*
Y7264000D02*
G03*
X7554000Y7274000I-10000J0D01*
G01*
X7564000Y6563999D02*
G03*
X7554000Y6573999I-10000J0D01*
G01*
Y7216000D02*
G03*
X7564000Y7226000I0J10000D01*
G01*
X7518000Y6583999D02*
G03*
X7528000Y6573999I10000J0D01*
G01*
Y7216000D02*
G03*
X7518000Y7206000I0J-10000D01*
G01*
X7528000Y6615999D02*
G03*
X7518000Y6605999I0J-10000D01*
G01*
Y7184000D02*
G03*
X7528000Y7174000I10000J0D01*
G01*
X7554000Y6615999D02*
G03*
X7564000Y6625999I0J10000D01*
G01*
Y7164000D02*
G03*
X7554000Y7174000I-10000J0D01*
G01*
X7564000Y6663999D02*
G03*
X7554000Y6673999I-10000J0D01*
G01*
Y7116000D02*
G03*
X7564000Y7126000I0J10000D01*
G01*
X7518000Y6683999D02*
G03*
X7528000Y6673999I10000J0D01*
G01*
Y7116000D02*
G03*
X7518000Y7106000I0J-10000D01*
G01*
X7528000Y6715999D02*
G03*
X7518000Y6705999I0J-10000D01*
G01*
Y7084000D02*
G03*
X7528000Y7074000I10000J0D01*
G01*
X7554000Y6715999D02*
G03*
X7564000Y6725999I0J10000D01*
G01*
Y7064000D02*
G03*
X7554000Y7074000I-10000J0D01*
G01*
X7564000Y6763999D02*
G03*
X7554000Y6773999I-10000J0D01*
G01*
Y7016000D02*
G03*
X7564000Y7026000I0J10000D01*
G01*
X7518000Y6783999D02*
G03*
X7528000Y6773999I10000J0D01*
G01*
Y7016000D02*
G03*
X7518000Y7006000I0J-10000D01*
G01*
X7528000Y6815999D02*
G03*
X7518000Y6805999I0J-10000D01*
G01*
Y6983999D02*
G03*
X7528000Y6973999I10000J0D01*
G01*
X7554000Y6815999D02*
G03*
X7564000Y6825999I0J10000D01*
G01*
Y6963999D02*
G03*
X7554000Y6973999I-10000J0D01*
G01*
X7564000Y6863999D02*
G03*
X7554000Y6873999I-10000J0D01*
G01*
Y6915999D02*
G03*
X7564000Y6925999I0J10000D01*
G01*
X7518000Y6883999D02*
G03*
X7528000Y6873999I10000J0D01*
G01*
Y6915999D02*
G03*
X7518000Y6905999I0J-10000D01*
G01*
X6986000Y7826000D02*
G03*
X6996000Y7816000I10000J0D01*
G01*
X7032000Y7806000D02*
G03*
X7022000Y7816000I-10000J0D01*
G01*
Y7774000D02*
G03*
X7032000Y7784000I0J10000D01*
G01*
X6996000Y5973999D02*
G03*
X6986000Y5963999I0J-10000D01*
G01*
X6996000Y7774000D02*
G03*
X6986000Y7764000I0J-10000D01*
G01*
X7022000Y5973999D02*
G03*
X7032000Y5983999I0J10000D01*
G01*
X6986000Y7726000D02*
G03*
X6996000Y7716000I10000J0D01*
G01*
X7032000Y6005999D02*
G03*
X7022000Y6015999I-10000J0D01*
G01*
X7032000Y7706000D02*
G03*
X7022000Y7716000I-10000J0D01*
G01*
X6986000Y6025999D02*
G03*
X6996000Y6015999I10000J0D01*
G01*
X7022000Y7674000D02*
G03*
X7032000Y7684000I0J10000D01*
G01*
X6996000Y6073999D02*
G03*
X6986000Y6063999I0J-10000D01*
G01*
X6996000Y7674000D02*
G03*
X6986000Y7664000I0J-10000D01*
G01*
X7022000Y6073999D02*
G03*
X7032000Y6083999I0J10000D01*
G01*
X6986000Y7626000D02*
G03*
X6996000Y7616000I10000J0D01*
G01*
X7032000Y6105999D02*
G03*
X7022000Y6115999I-10000J0D01*
G01*
X7032000Y7606000D02*
G03*
X7022000Y7616000I-10000J0D01*
G01*
X6986000Y6125999D02*
G03*
X6996000Y6115999I10000J0D01*
G01*
X7022000Y7574000D02*
G03*
X7032000Y7584000I0J10000D01*
G01*
X6996000Y6173999D02*
G03*
X6986000Y6163999I0J-10000D01*
G01*
X6996000Y7574000D02*
G03*
X6986000Y7564000I0J-10000D01*
G01*
X7022000Y6173999D02*
G03*
X7032000Y6183999I0J10000D01*
G01*
X6986000Y7526000D02*
G03*
X6996000Y7516000I10000J0D01*
G01*
X7032000Y6205999D02*
G03*
X7022000Y6215999I-10000J0D01*
G01*
X7032000Y7506000D02*
G03*
X7022000Y7516000I-10000J0D01*
G01*
X6986000Y6225999D02*
G03*
X6996000Y6215999I10000J0D01*
G01*
X7022000Y7474000D02*
G03*
X7032000Y7484000I0J10000D01*
G01*
X6996000Y6273999D02*
G03*
X6986000Y6263999I0J-10000D01*
G01*
X6996000Y7474000D02*
G03*
X6986000Y7464000I0J-10000D01*
G01*
X7022000Y6273999D02*
G03*
X7032000Y6283999I0J10000D01*
G01*
X6986000Y7426000D02*
G03*
X6996000Y7416000I10000J0D01*
G01*
X7032000Y6305999D02*
G03*
X7022000Y6315999I-10000J0D01*
G01*
X7032000Y7406000D02*
G03*
X7022000Y7416000I-10000J0D01*
G01*
X6986000Y6325999D02*
G03*
X6996000Y6315999I10000J0D01*
G01*
X7022000Y7374000D02*
G03*
X7032000Y7384000I0J10000D01*
G01*
X6996000Y6373999D02*
G03*
X6986000Y6363999I0J-10000D01*
G01*
X6996000Y7374000D02*
G03*
X6986000Y7364000I0J-10000D01*
G01*
X7022000Y6373999D02*
G03*
X7032000Y6383999I0J10000D01*
G01*
X6986000Y7326000D02*
G03*
X6996000Y7316000I10000J0D01*
G01*
X7032000Y6405999D02*
G03*
X7022000Y6415999I-10000J0D01*
G01*
X7032000Y7306000D02*
G03*
X7022000Y7316000I-10000J0D01*
G01*
X6986000Y6425999D02*
G03*
X6996000Y6415999I10000J0D01*
G01*
X7022000Y7274000D02*
G03*
X7032000Y7284000I0J10000D01*
G01*
X6996000Y6473999D02*
G03*
X6986000Y6463999I0J-10000D01*
G01*
X6996000Y7274000D02*
G03*
X6986000Y7264000I0J-10000D01*
G01*
X7022000Y6473999D02*
G03*
X7032000Y6483999I0J10000D01*
G01*
X6986000Y7226000D02*
G03*
X6996000Y7216000I10000J0D01*
G01*
X7032000Y6505999D02*
G03*
X7022000Y6515999I-10000J0D01*
G01*
X7032000Y7206000D02*
G03*
X7022000Y7216000I-10000J0D01*
G01*
X6986000Y6525999D02*
G03*
X6996000Y6515999I10000J0D01*
G01*
X7022000Y7174000D02*
G03*
X7032000Y7184000I0J10000D01*
G01*
X6996000Y6573999D02*
G03*
X6986000Y6563999I0J-10000D01*
G01*
X6996000Y7174000D02*
G03*
X6986000Y7164000I0J-10000D01*
G01*
X7022000Y6573999D02*
G03*
X7032000Y6583999I0J10000D01*
G01*
X6986000Y7126000D02*
G03*
X6996000Y7116000I10000J0D01*
G01*
X7032000Y6605999D02*
G03*
X7022000Y6615999I-10000J0D01*
G01*
X7032000Y7106000D02*
G03*
X7022000Y7116000I-10000J0D01*
G01*
X6986000Y6625999D02*
G03*
X6996000Y6615999I10000J0D01*
G01*
X7022000Y7074000D02*
G03*
X7032000Y7084000I0J10000D01*
G01*
X6996000Y6673999D02*
G03*
X6986000Y6663999I0J-10000D01*
G01*
X6996000Y7074000D02*
G03*
X6986000Y7064000I0J-10000D01*
G01*
X7022000Y6673999D02*
G03*
X7032000Y6683999I0J10000D01*
G01*
X6986000Y7026000D02*
G03*
X6996000Y7016000I10000J0D01*
G01*
X7032000Y6705999D02*
G03*
X7022000Y6715999I-10000J0D01*
G01*
X7032000Y7006000D02*
G03*
X7022000Y7016000I-10000J0D01*
G01*
X6986000Y6725999D02*
G03*
X6996000Y6715999I10000J0D01*
G01*
X7022000Y6973999D02*
G03*
X7032000Y6983999I0J10000D01*
G01*
X6996000Y6773999D02*
G03*
X6986000Y6763999I0J-10000D01*
G01*
X6996000Y6973999D02*
G03*
X6986000Y6963999I0J-10000D01*
G01*
X7022000Y6773999D02*
G03*
X7032000Y6783999I0J10000D01*
G01*
X6986000Y6925999D02*
G03*
X6996000Y6915999I10000J0D01*
G01*
X7032000Y6805999D02*
G03*
X7022000Y6815999I-10000J0D01*
G01*
X7032000Y6905999D02*
G03*
X7022000Y6915999I-10000J0D01*
G01*
X6986000Y6825999D02*
G03*
X6996000Y6815999I10000J0D01*
G01*
X7022000Y6873999D02*
G03*
X7032000Y6883999I0J10000D01*
G01*
X6996000Y6873999D02*
G03*
X6986000Y6863999I0J-10000D01*
G01*
X7022000Y7774000D02*
G03*
X7032000Y7784000I0J10000D01*
G01*
Y7806000D02*
G03*
X7022000Y7816000I-10000J0D01*
G01*
X7518000Y7784000D02*
G03*
X7528000Y7774000I10000J0D01*
G01*
Y7816000D02*
G03*
X7518000Y7806000I0J-10000D01*
G01*
X7022000Y7674000D02*
G03*
X7032000Y7684000I0J10000D01*
G01*
Y7706000D02*
G03*
X7022000Y7716000I-10000J0D01*
G01*
X7518000Y7684000D02*
G03*
X7528000Y7674000I10000J0D01*
G01*
Y7716000D02*
G03*
X7518000Y7706000I0J-10000D01*
G01*
X7022000Y7574000D02*
G03*
X7032000Y7584000I0J10000D01*
G01*
Y7606000D02*
G03*
X7022000Y7616000I-10000J0D01*
G01*
X7518000Y7584000D02*
G03*
X7528000Y7574000I10000J0D01*
G01*
Y7616000D02*
G03*
X7518000Y7606000I0J-10000D01*
G01*
X7022000Y7474000D02*
G03*
X7032000Y7484000I0J10000D01*
G01*
Y7506000D02*
G03*
X7022000Y7516000I-10000J0D01*
G01*
X7518000Y7484000D02*
G03*
X7528000Y7474000I10000J0D01*
G01*
Y7516000D02*
G03*
X7518000Y7506000I0J-10000D01*
G01*
X7022000Y7374000D02*
G03*
X7032000Y7384000I0J10000D01*
G01*
Y7406000D02*
G03*
X7022000Y7416000I-10000J0D01*
G01*
X7518000Y7384000D02*
G03*
X7528000Y7374000I10000J0D01*
G01*
Y7416000D02*
G03*
X7518000Y7406000I0J-10000D01*
G01*
X7022000Y7274000D02*
G03*
X7032000Y7284000I0J10000D01*
G01*
Y7306000D02*
G03*
X7022000Y7316000I-10000J0D01*
G01*
X7518000Y7284000D02*
G03*
X7528000Y7274000I10000J0D01*
G01*
Y7316000D02*
G03*
X7518000Y7306000I0J-10000D01*
G01*
X7022000Y7174000D02*
G03*
X7032000Y7184000I0J10000D01*
G01*
Y7206000D02*
G03*
X7022000Y7216000I-10000J0D01*
G01*
X7518000Y7184000D02*
G03*
X7528000Y7174000I10000J0D01*
G01*
Y7216000D02*
G03*
X7518000Y7206000I0J-10000D01*
G01*
X7022000Y7074000D02*
G03*
X7032000Y7084000I0J10000D01*
G01*
Y7106000D02*
G03*
X7022000Y7116000I-10000J0D01*
G01*
X7518000Y7084000D02*
G03*
X7528000Y7074000I10000J0D01*
G01*
Y7116000D02*
G03*
X7518000Y7106000I0J-10000D01*
G01*
X7022000Y6973999D02*
G03*
X7032000Y6983999I0J10000D01*
G01*
Y7006000D02*
G03*
X7022000Y7016000I-10000J0D01*
G01*
X7518000Y6983999D02*
G03*
X7528000Y6973999I10000J0D01*
G01*
Y7016000D02*
G03*
X7518000Y7006000I0J-10000D01*
G01*
X7022000Y6873999D02*
G03*
X7032000Y6883999I0J10000D01*
G01*
Y6905999D02*
G03*
X7022000Y6915999I-10000J0D01*
G01*
X7518000Y6883999D02*
G03*
X7528000Y6873999I10000J0D01*
G01*
Y6915999D02*
G03*
X7518000Y6905999I0J-10000D01*
G01*
X7022000Y6773999D02*
G03*
X7032000Y6783999I0J10000D01*
G01*
Y6805999D02*
G03*
X7022000Y6815999I-10000J0D01*
G01*
X7518000Y6783999D02*
G03*
X7528000Y6773999I10000J0D01*
G01*
Y6815999D02*
G03*
X7518000Y6805999I0J-10000D01*
G01*
X7022000Y6673999D02*
G03*
X7032000Y6683999I0J10000D01*
G01*
Y6705999D02*
G03*
X7022000Y6715999I-10000J0D01*
G01*
X7518000Y6683999D02*
G03*
X7528000Y6673999I10000J0D01*
G01*
Y6715999D02*
G03*
X7518000Y6705999I0J-10000D01*
G01*
X7022000Y6573999D02*
G03*
X7032000Y6583999I0J10000D01*
G01*
Y6605999D02*
G03*
X7022000Y6615999I-10000J0D01*
G01*
X7518000Y6583999D02*
G03*
X7528000Y6573999I10000J0D01*
G01*
Y6615999D02*
G03*
X7518000Y6605999I0J-10000D01*
G01*
X7022000Y6473999D02*
G03*
X7032000Y6483999I0J10000D01*
G01*
Y6505999D02*
G03*
X7022000Y6515999I-10000J0D01*
G01*
X7518000Y6483999D02*
G03*
X7528000Y6473999I10000J0D01*
G01*
Y6515999D02*
G03*
X7518000Y6505999I0J-10000D01*
G01*
X7022000Y6373999D02*
G03*
X7032000Y6383999I0J10000D01*
G01*
Y6405999D02*
G03*
X7022000Y6415999I-10000J0D01*
G01*
X7518000Y6383999D02*
G03*
X7528000Y6373999I10000J0D01*
G01*
Y6415999D02*
G03*
X7518000Y6405999I0J-10000D01*
G01*
X7022000Y6273999D02*
G03*
X7032000Y6283999I0J10000D01*
G01*
Y6305999D02*
G03*
X7022000Y6315999I-10000J0D01*
G01*
X7518000Y6283999D02*
G03*
X7528000Y6273999I10000J0D01*
G01*
Y6315999D02*
G03*
X7518000Y6305999I0J-10000D01*
G01*
X7022000Y6173999D02*
G03*
X7032000Y6183999I0J10000D01*
G01*
Y6205999D02*
G03*
X7022000Y6215999I-10000J0D01*
G01*
X7518000Y6183999D02*
G03*
X7528000Y6173999I10000J0D01*
G01*
Y6215999D02*
G03*
X7518000Y6205999I0J-10000D01*
G01*
X7022000Y6073999D02*
G03*
X7032000Y6083999I0J10000D01*
G01*
Y6105999D02*
G03*
X7022000Y6115999I-10000J0D01*
G01*
X7518000Y6083999D02*
G03*
X7528000Y6073999I10000J0D01*
G01*
Y6115999D02*
G03*
X7518000Y6105999I0J-10000D01*
G01*
X7022000Y5973999D02*
G03*
X7032000Y5983999I0J10000D01*
G01*
Y6005999D02*
G03*
X7022000Y6015999I-10000J0D01*
G01*
X7518000Y5983999D02*
G03*
X7528000Y5973999I10000J0D01*
G01*
Y6015999D02*
G03*
X7518000Y6005999I0J-10000D01*
G01*
X4894004Y7310000D02*
X4986996D01*
X4815500Y7138504D02*
Y7231496D01*
X4894004Y7060000D02*
X4986996D01*
X5065500Y7138504D02*
Y7231496D01*
X4894004Y7855000D02*
X4986996D01*
X4815500Y7683504D02*
Y7776496D01*
X4894004Y7605000D02*
X4986996D01*
X5065500Y7683504D02*
Y7776496D01*
X5237992Y7424488D02*
Y7485512D01*
X5112008Y7424488D02*
Y7485512D01*
X5237992D01*
X5112008Y7424488D02*
X5237992D01*
X5320787Y7218032D02*
Y7221968D01*
X5391654Y7183032D02*
Y7186968D01*
X5334567Y7688032D02*
Y7691968D01*
X5405433Y7723031D02*
Y7726968D01*
X5891024Y6999331D02*
X5907756D01*
X5891024D02*
Y7016063D01*
X6165630Y6999331D02*
X6182362D01*
Y7016063D01*
X6165630Y7290669D02*
X6182362D01*
Y7273937D02*
Y7290669D01*
X5891024D02*
X5907756D01*
X5891024Y7273937D02*
Y7290669D01*
X5587014Y6180095D02*
Y6191906D01*
X5672307Y6111480D02*
Y6123291D01*
X5303567Y6371606D02*
Y6387354D01*
X5319315D01*
X5457110D02*
X5472858D01*
Y6371606D02*
Y6387354D01*
Y6218063D02*
Y6233811D01*
X5457110Y6218063D02*
X5472858D01*
X5303567D02*
Y6233811D01*
Y6218063D02*
X5319315D01*
X5587693Y6466095D02*
Y6477906D01*
X5675307Y6401094D02*
Y6412905D01*
X5834976Y6455307D02*
Y6473024D01*
X5852693D01*
X5834976Y6100976D02*
Y6118693D01*
Y6100976D02*
X5852693D01*
X6189307D02*
X6207024D01*
Y6118693D01*
Y6455307D02*
Y6473024D01*
X6189307D02*
X6207024D01*
X7354000Y7993000D02*
X7534000D01*
Y5796999D02*
X7564000Y5826999D01*
X7534000Y7993000D02*
X7564000Y7963000D01*
Y5826999D02*
Y5963999D01*
Y7826000D02*
Y7963000D01*
X7528000Y5973999D02*
X7554000D01*
X7528000Y7816000D02*
X7554000D01*
X7518000Y5983999D02*
Y6005999D01*
Y7784000D02*
Y7806000D01*
X7528000Y6015999D02*
X7554000D01*
X7528000Y7774000D02*
X7554000D01*
X7564000Y6025999D02*
Y6063999D01*
Y7726000D02*
Y7764000D01*
X7528000Y6073999D02*
X7554000D01*
X7528000Y7716000D02*
X7554000D01*
X7518000Y6083999D02*
Y6105999D01*
Y7684000D02*
Y7706000D01*
X7528000Y6115999D02*
X7554000D01*
X7528000Y7674000D02*
X7554000D01*
X7564000Y6125999D02*
Y6163999D01*
Y7626000D02*
Y7664000D01*
X7528000Y6173999D02*
X7554000D01*
X7528000Y7616000D02*
X7554000D01*
X7518000Y6183999D02*
Y6205999D01*
Y7584000D02*
Y7606000D01*
X7528000Y6215999D02*
X7554000D01*
X7528000Y7574000D02*
X7554000D01*
X7564000Y6225999D02*
Y6263999D01*
Y7526000D02*
Y7564000D01*
X7528000Y6273999D02*
X7554000D01*
X7528000Y7516000D02*
X7554000D01*
X7518000Y6283999D02*
Y6305999D01*
Y7484000D02*
Y7506000D01*
X7528000Y6315999D02*
X7554000D01*
X7528000Y7474000D02*
X7554000D01*
X7564000Y6325999D02*
Y6363999D01*
Y7426000D02*
Y7464000D01*
X7528000Y6373999D02*
X7554000D01*
X7528000Y7416000D02*
X7554000D01*
X7518000Y6383999D02*
Y6405999D01*
Y7384000D02*
Y7406000D01*
X7528000Y6415999D02*
X7554000D01*
X7528000Y7374000D02*
X7554000D01*
X7564000Y6425999D02*
Y6463999D01*
Y7326000D02*
Y7364000D01*
X7528000Y6473999D02*
X7554000D01*
X7528000Y7316000D02*
X7554000D01*
X7518000Y6483999D02*
Y6505999D01*
Y7284000D02*
Y7306000D01*
X7528000Y6515999D02*
X7554000D01*
X7528000Y7274000D02*
X7554000D01*
X7564000Y6525999D02*
Y6563999D01*
Y7226000D02*
Y7264000D01*
X7528000Y6573999D02*
X7554000D01*
X7528000Y7216000D02*
X7554000D01*
X7518000Y6583999D02*
Y6605999D01*
Y7184000D02*
Y7206000D01*
X7528000Y6615999D02*
X7554000D01*
X7528000Y7174000D02*
X7554000D01*
X7564000Y6625999D02*
Y6663999D01*
Y7126000D02*
Y7164000D01*
X7528000Y6673999D02*
X7554000D01*
X7528000Y7116000D02*
X7554000D01*
X7518000Y6683999D02*
Y6705999D01*
Y7084000D02*
Y7106000D01*
X7528000Y6715999D02*
X7554000D01*
X7528000Y7074000D02*
X7554000D01*
X7564000Y6725999D02*
Y6763999D01*
Y7026000D02*
Y7064000D01*
X7528000Y6773999D02*
X7554000D01*
X7528000Y7016000D02*
X7554000D01*
X7518000Y6783999D02*
Y6805999D01*
Y6983999D02*
Y7006000D01*
X7528000Y6815999D02*
X7554000D01*
X7528000Y6973999D02*
X7554000D01*
X7564000Y6825999D02*
Y6863999D01*
Y6925999D02*
Y6963999D01*
X7528000Y6873999D02*
X7554000D01*
X7528000Y6915999D02*
X7554000D01*
X7518000Y6883999D02*
Y6905999D01*
X7016000Y7993000D02*
X7196000D01*
X6986000Y7963000D02*
X7016000Y7993000D01*
X6986000Y7826000D02*
Y7963000D01*
X7095000Y5796999D02*
Y5833999D01*
X6996000Y7816000D02*
X7022000D01*
X7016000Y5796999D02*
X7095000D01*
X6986000Y5826999D02*
X7016000Y5796999D01*
X7032000Y7784000D02*
Y7806000D01*
X6986000Y5826999D02*
Y5963999D01*
X6996000Y7774000D02*
X7022000D01*
X6996000Y5973999D02*
X7022000D01*
X6986000Y7726000D02*
Y7764000D01*
X7032000Y5983999D02*
Y6005999D01*
X6996000Y7716000D02*
X7022000D01*
X6996000Y6015999D02*
X7022000D01*
X7032000Y7684000D02*
Y7706000D01*
X6986000Y6025999D02*
Y6063999D01*
X6996000Y7674000D02*
X7022000D01*
X6996000Y6073999D02*
X7022000D01*
X6986000Y7626000D02*
Y7664000D01*
X7032000Y6083999D02*
Y6105999D01*
X6996000Y7616000D02*
X7022000D01*
X6996000Y6115999D02*
X7022000D01*
X7032000Y7584000D02*
Y7606000D01*
X6986000Y6125999D02*
Y6163999D01*
X6996000Y7574000D02*
X7022000D01*
X6996000Y6173999D02*
X7022000D01*
X6986000Y7526000D02*
Y7564000D01*
X7032000Y6183999D02*
Y6205999D01*
X6996000Y7516000D02*
X7022000D01*
X6996000Y6215999D02*
X7022000D01*
X7032000Y7484000D02*
Y7506000D01*
X6986000Y6225999D02*
Y6263999D01*
X6996000Y7474000D02*
X7022000D01*
X6996000Y6273999D02*
X7022000D01*
X6986000Y7426000D02*
Y7464000D01*
X7032000Y6283999D02*
Y6305999D01*
X6996000Y7416000D02*
X7022000D01*
X6996000Y6315999D02*
X7022000D01*
X7032000Y7384000D02*
Y7406000D01*
X6986000Y6325999D02*
Y6363999D01*
X6996000Y7374000D02*
X7022000D01*
X6996000Y6373999D02*
X7022000D01*
X6986000Y7326000D02*
Y7364000D01*
X7032000Y6383999D02*
Y6405999D01*
X6996000Y7316000D02*
X7022000D01*
X6996000Y6415999D02*
X7022000D01*
X7032000Y7284000D02*
Y7306000D01*
X6986000Y6425999D02*
Y6463999D01*
X6996000Y7274000D02*
X7022000D01*
X6996000Y6473999D02*
X7022000D01*
X6986000Y7226000D02*
Y7264000D01*
X7032000Y6483999D02*
Y6505999D01*
X6996000Y7216000D02*
X7022000D01*
X6996000Y6515999D02*
X7022000D01*
X7032000Y7184000D02*
Y7206000D01*
X6986000Y6525999D02*
Y6563999D01*
X6996000Y7174000D02*
X7022000D01*
X6996000Y6573999D02*
X7022000D01*
X6986000Y7126000D02*
Y7164000D01*
X7032000Y6583999D02*
Y6605999D01*
X6996000Y7116000D02*
X7022000D01*
X6996000Y6615999D02*
X7022000D01*
X7032000Y7084000D02*
Y7106000D01*
X6986000Y6625999D02*
Y6663999D01*
X6996000Y7074000D02*
X7022000D01*
X6996000Y6673999D02*
X7022000D01*
X6986000Y7026000D02*
Y7064000D01*
X7032000Y6683999D02*
Y6705999D01*
X6996000Y7016000D02*
X7022000D01*
X6996000Y6715999D02*
X7022000D01*
X7032000Y6983999D02*
Y7006000D01*
X6986000Y6725999D02*
Y6763999D01*
X6996000Y6973999D02*
X7022000D01*
X6996000Y6773999D02*
X7022000D01*
X6986000Y6925999D02*
Y6963999D01*
X7032000Y6783999D02*
Y6805999D01*
X6996000Y6915999D02*
X7022000D01*
X6996000Y6815999D02*
X7022000D01*
X7032000Y6883999D02*
Y6905999D01*
X6986000Y6825999D02*
Y6863999D01*
X6996000Y6873999D02*
X7022000D01*
X7434807Y5835647D02*
X7455000Y5842570D01*
X7095000D02*
X7120000Y5833999D01*
X7130000D01*
X7155000Y5842570D01*
Y5796999D02*
Y5842570D01*
X7130000Y5821999D02*
X7155000Y5796999D01*
X7095000D02*
X7120000Y5821999D01*
X7130000D01*
X7155000Y5796999D01*
X7095000Y5842570D02*
X7120000Y5833999D01*
X7095000Y5796999D02*
Y5842570D01*
X7120000Y5821999D02*
Y5833999D01*
X7095000Y5796999D02*
X7120000Y5821999D01*
X7434807Y5835647D02*
X7455000Y5842570D01*
X7435548Y5816451D02*
X7455000Y5796999D01*
X7435548Y5816451D02*
X7455000Y5796999D01*
X7120000Y5833999D02*
X7130000D01*
X7120000Y5821999D02*
Y5833999D01*
X7130000Y5821999D02*
Y5833999D01*
X7120000Y5821999D02*
X7130000D01*
X7095000Y5796999D02*
Y5843999D01*
Y5796999D02*
Y5833999D01*
X7155000Y5796999D02*
Y5843999D01*
Y5796999D02*
Y5833999D01*
X6996000Y7816000D02*
X7022000D01*
X6996000Y7774000D02*
X7022000D01*
X7032000Y7784000D02*
Y7806000D01*
X7518000Y7784000D02*
Y7806000D01*
X7528000Y7774000D02*
X7554000D01*
X7528000Y7816000D02*
X7554000D01*
X6996000Y7716000D02*
X7022000D01*
X6996000Y7674000D02*
X7022000D01*
X7032000Y7684000D02*
Y7706000D01*
X7518000Y7684000D02*
Y7706000D01*
X7528000Y7674000D02*
X7554000D01*
X7528000Y7716000D02*
X7554000D01*
X6996000Y7616000D02*
X7022000D01*
X6996000Y7574000D02*
X7022000D01*
X7032000Y7584000D02*
Y7606000D01*
X7518000Y7584000D02*
Y7606000D01*
X7528000Y7574000D02*
X7554000D01*
X7528000Y7616000D02*
X7554000D01*
X6996000Y7516000D02*
X7022000D01*
X6996000Y7474000D02*
X7022000D01*
X7032000Y7484000D02*
Y7506000D01*
X7518000Y7484000D02*
Y7506000D01*
X7528000Y7474000D02*
X7554000D01*
X7528000Y7516000D02*
X7554000D01*
X6996000Y7416000D02*
X7022000D01*
X6996000Y7374000D02*
X7022000D01*
X7032000Y7384000D02*
Y7406000D01*
X7518000Y7384000D02*
Y7406000D01*
X7528000Y7374000D02*
X7554000D01*
X7528000Y7416000D02*
X7554000D01*
X6996000Y7316000D02*
X7022000D01*
X6996000Y7274000D02*
X7022000D01*
X7032000Y7284000D02*
Y7306000D01*
X7518000Y7284000D02*
Y7306000D01*
X7528000Y7274000D02*
X7554000D01*
X7528000Y7316000D02*
X7554000D01*
X6996000Y7216000D02*
X7022000D01*
X6996000Y7174000D02*
X7022000D01*
X7032000Y7184000D02*
Y7206000D01*
X7518000Y7184000D02*
Y7206000D01*
X7528000Y7174000D02*
X7554000D01*
X7528000Y7216000D02*
X7554000D01*
X6996000Y7116000D02*
X7022000D01*
X6996000Y7074000D02*
X7022000D01*
X7032000Y7084000D02*
Y7106000D01*
X7518000Y7084000D02*
Y7106000D01*
X7528000Y7074000D02*
X7554000D01*
X7528000Y7116000D02*
X7554000D01*
X6996000Y7016000D02*
X7022000D01*
X6996000Y6973999D02*
X7022000D01*
X7032000Y6983999D02*
Y7006000D01*
X7518000Y6983999D02*
Y7006000D01*
X7528000Y6973999D02*
X7554000D01*
X7528000Y7016000D02*
X7554000D01*
X6996000Y6915999D02*
X7022000D01*
X6996000Y6873999D02*
X7022000D01*
X7032000Y6883999D02*
Y6905999D01*
X7518000Y6883999D02*
Y6905999D01*
X7528000Y6873999D02*
X7554000D01*
X7528000Y6915999D02*
X7554000D01*
X6996000Y6815999D02*
X7022000D01*
X6996000Y6773999D02*
X7022000D01*
X7032000Y6783999D02*
Y6805999D01*
X7518000Y6783999D02*
Y6805999D01*
X7528000Y6773999D02*
X7554000D01*
X7528000Y6815999D02*
X7554000D01*
X6996000Y6715999D02*
X7022000D01*
X6996000Y6673999D02*
X7022000D01*
X7032000Y6683999D02*
Y6705999D01*
X7518000Y6683999D02*
Y6705999D01*
X7528000Y6673999D02*
X7554000D01*
X7528000Y6715999D02*
X7554000D01*
X6996000Y6615999D02*
X7022000D01*
X6996000Y6573999D02*
X7022000D01*
X7032000Y6583999D02*
Y6605999D01*
X7518000Y6583999D02*
Y6605999D01*
X7528000Y6573999D02*
X7554000D01*
X7528000Y6615999D02*
X7554000D01*
X6996000Y6515999D02*
X7022000D01*
X6996000Y6473999D02*
X7022000D01*
X7032000Y6483999D02*
Y6505999D01*
X7518000Y6483999D02*
Y6505999D01*
X7528000Y6473999D02*
X7554000D01*
X7528000Y6515999D02*
X7554000D01*
X6996000Y6415999D02*
X7022000D01*
X6996000Y6373999D02*
X7022000D01*
X7032000Y6383999D02*
Y6405999D01*
X7518000Y6383999D02*
Y6405999D01*
X7528000Y6373999D02*
X7554000D01*
X7528000Y6415999D02*
X7554000D01*
X6996000Y6315999D02*
X7022000D01*
X6996000Y6273999D02*
X7022000D01*
X7032000Y6283999D02*
Y6305999D01*
X7518000Y6283999D02*
Y6305999D01*
X7528000Y6273999D02*
X7554000D01*
X7528000Y6315999D02*
X7554000D01*
X6996000Y6215999D02*
X7022000D01*
X6996000Y6173999D02*
X7022000D01*
X7032000Y6183999D02*
Y6205999D01*
X7518000Y6183999D02*
Y6205999D01*
X7528000Y6173999D02*
X7554000D01*
X7528000Y6215999D02*
X7554000D01*
X6996000Y6115999D02*
X7022000D01*
X6996000Y6073999D02*
X7022000D01*
X7032000Y6083999D02*
Y6105999D01*
X7518000Y6083999D02*
Y6105999D01*
X7528000Y6073999D02*
X7554000D01*
X7528000Y6115999D02*
X7554000D01*
X6996000Y6015999D02*
X7022000D01*
X6996000Y5973999D02*
X7022000D01*
X7032000Y5983999D02*
Y6005999D01*
X7518000Y5983999D02*
Y6005999D01*
X7528000Y5973999D02*
X7554000D01*
X7528000Y6015999D02*
X7554000D01*
X7534000Y7993000D02*
X7564000Y7963000D01*
X6986000D02*
X7016000Y7993000D01*
X6986000Y5826999D02*
X7016000Y5796999D01*
X7534000D02*
X7564000Y5826999D01*
X6986000Y7826000D02*
Y7963000D01*
X7564000Y5826999D02*
Y5963999D01*
X7059000Y5843999D02*
Y5891876D01*
X7016000Y7993000D02*
X7196000D01*
X7354000D02*
X7534000D01*
X7095000Y5796999D02*
X7155000D01*
X7425865D02*
X7534000D01*
X7564000Y6025999D02*
Y6063999D01*
X6986000Y5826999D02*
Y5963999D01*
X7564000Y6125999D02*
Y6163999D01*
X6986000Y6025999D02*
Y6063999D01*
X7564000Y6225999D02*
Y6263999D01*
X6986000Y6125999D02*
Y6163999D01*
X7564000Y6325999D02*
Y6363999D01*
X6986000Y6225999D02*
Y6263999D01*
X7564000Y6425999D02*
Y6463999D01*
X6986000Y6325999D02*
Y6363999D01*
X7564000Y6525999D02*
Y6563999D01*
X6986000Y6425999D02*
Y6463999D01*
X7564000Y6625999D02*
Y6663999D01*
X6986000Y6525999D02*
Y6563999D01*
X7564000Y6725999D02*
Y6763999D01*
X6986000Y6625999D02*
Y6663999D01*
X7564000Y6825999D02*
Y6863999D01*
X6986000Y6725999D02*
Y6763999D01*
X7564000Y6925999D02*
Y6963999D01*
X6986000Y6825999D02*
Y6863999D01*
X7564000Y7026000D02*
Y7064000D01*
X6986000Y6925999D02*
Y6963999D01*
X7564000Y7126000D02*
Y7164000D01*
X6986000Y7026000D02*
Y7064000D01*
X7564000Y7226000D02*
Y7264000D01*
X6986000Y7126000D02*
Y7164000D01*
X7564000Y7326000D02*
Y7364000D01*
X6986000Y7226000D02*
Y7264000D01*
X7564000Y7426000D02*
Y7464000D01*
X6986000Y7326000D02*
Y7364000D01*
X7564000Y7526000D02*
Y7564000D01*
X6986000Y7426000D02*
Y7464000D01*
X7564000Y7626000D02*
Y7664000D01*
X6986000Y7526000D02*
Y7564000D01*
X7564000Y7726000D02*
Y7764000D01*
X6986000Y7626000D02*
Y7664000D01*
X7564000Y7826000D02*
Y7963000D01*
X6986000Y7726000D02*
Y7764000D01*
X7455000Y5833999D02*
X7501000D01*
X7049000D02*
X7059000Y5843999D01*
X7358550D01*
X7049000Y5833999D02*
X7095000D01*
X7155000D02*
X7354768D01*
X7155000Y5796999D02*
Y5833999D01*
X7455000Y5796999D02*
Y5843999D01*
X7354000Y7946000D02*
Y7993000D01*
X7329000Y7968000D02*
X7354000Y7993000D01*
X7329000Y7956000D02*
Y7968000D01*
Y7956000D02*
X7354000Y7947429D01*
X7316263Y7968000D02*
X7329000D01*
X7315232Y7956000D02*
X7329000D01*
X7245000Y7993941D02*
Y8028000D01*
X7305000D01*
Y7993941D02*
Y8028000D01*
X7196000Y7946000D02*
Y7993000D01*
Y7947429D02*
X7221000Y7956000D01*
Y7968000D01*
X7196000Y7993000D02*
X7221000Y7968000D01*
Y7956000D02*
X7234768D01*
X7221000Y7968000D02*
X7233737D01*
X7091000Y5849999D02*
X7159000D01*
X7191000Y5874999D02*
X7259000D01*
X7149000Y5859999D02*
Y5890488D01*
X7101000Y5859999D02*
X7149000D01*
X7101000D02*
Y5890488D01*
X7049000Y5833999D02*
Y5890488D01*
X7101000Y5859999D02*
Y5890488D01*
X7091000Y5849999D02*
Y5891876D01*
X7201000Y5884999D02*
Y5890488D01*
X7191000Y5874999D02*
X7201000Y5884999D01*
X7191000Y5874999D02*
Y5891876D01*
X7201000Y5884999D02*
X7249000D01*
X7259000Y5874999D01*
X7249000Y5884999D02*
Y5890488D01*
X7259000Y5874999D02*
Y5891876D01*
X7291000Y5874999D02*
X7359000D01*
X7301000Y5884999D02*
Y5890488D01*
X7291000Y5874999D02*
X7301000Y5884999D01*
X7291000Y5874999D02*
Y5891876D01*
X7301000Y5884999D02*
X7349000D01*
X7359000Y5874999D01*
X7349000Y5884999D02*
Y5890488D01*
X7359000Y5874999D02*
Y5891876D01*
X7449000Y5859999D02*
Y5890488D01*
X7416181Y5859999D02*
X7449000D01*
X7401000Y5865400D02*
Y5890488D01*
Y5865400D02*
Y5890488D01*
X7391000Y5865644D02*
Y5891876D01*
X7427537Y5849999D02*
X7459000D01*
X7449000Y5859999D02*
X7459000Y5849999D01*
Y5891876D01*
X7159000Y5849999D02*
Y5891876D01*
X7491000Y5843999D02*
Y5891876D01*
X7501000Y5833999D02*
Y5890488D01*
X7491000Y5843999D02*
X7501000Y5833999D01*
X7491000Y5843999D02*
Y5891876D01*
X7016000Y5796999D02*
X7364136D01*
X7431450Y5843999D02*
X7491000D01*
X4893504Y6150000D02*
X4986496D01*
X4815000Y5978504D02*
Y6071496D01*
X4893504Y5900000D02*
X4986496D01*
X5065000Y5978504D02*
Y6071496D01*
X4894004Y6725000D02*
X4986996D01*
X4815500Y6553504D02*
Y6646496D01*
X4894004Y6475000D02*
X4986996D01*
X5065500Y6553504D02*
Y6646496D01*
D88*
X5825000Y6828000D02*
X5885000D01*
Y6941000D01*
X5825000D02*
X5885000D01*
X5825000Y6828000D02*
Y6941000D01*
X5752000Y6955000D02*
X5812000D01*
Y7068000D01*
X5752000D02*
X5812000D01*
X5752000Y6955000D02*
Y7068000D01*
X5843362Y6645000D02*
X5903362D01*
X5843362Y6532000D02*
Y6645000D01*
Y6532000D02*
X5903362D01*
Y6645000D01*
X6043000Y6853440D02*
Y6913440D01*
Y6853440D02*
X6156000D01*
Y6913440D01*
X6043000D02*
X6156000D01*
X5346500Y6466000D02*
Y6526000D01*
Y6466000D02*
X5459500D01*
Y6526000D01*
X5346500D02*
X5459500D01*
X5489000Y6080000D02*
Y6140000D01*
X5376000D02*
X5489000D01*
X5376000Y6080000D02*
Y6140000D01*
Y6080000D02*
X5489000D01*
X5768000Y5983000D02*
Y6043000D01*
Y5983000D02*
X5881000D01*
Y6043000D01*
X5768000D02*
X5881000D01*
X5765000Y6302000D02*
Y6362000D01*
X5652000D02*
X5765000D01*
X5652000Y6302000D02*
Y6362000D01*
Y6302000D02*
X5765000D01*
Y6230000D02*
Y6290000D01*
X5652000D02*
X5765000D01*
X5652000Y6230000D02*
Y6290000D01*
Y6230000D02*
X5765000D01*
X6033630Y5979000D02*
Y6039000D01*
X5920630D02*
X6033630D01*
X5920630Y5979000D02*
Y6039000D01*
Y5979000D02*
X6033630D01*
X6745000Y8096000D02*
X6805000D01*
X6745000Y7983000D02*
Y8096000D01*
Y7983000D02*
X6805000D01*
Y8096000D01*
X6825000D02*
X6885000D01*
X6825000Y7983000D02*
Y8096000D01*
Y7983000D02*
X6885000D01*
Y8096000D01*
X6438000Y5744000D02*
Y5857000D01*
X6498000D01*
Y5744000D02*
Y5857000D01*
X6438000Y5744000D02*
X6498000D01*
X6524000Y5744500D02*
Y5857500D01*
X6584000D01*
Y5744500D02*
Y5857500D01*
X6524000Y5744500D02*
X6584000D01*
X6624000D02*
Y5857500D01*
X6684000D01*
Y5744500D02*
Y5857500D01*
X6624000Y5744500D02*
X6684000D01*
X5961500Y7392000D02*
Y7452000D01*
Y7392000D02*
X6074500D01*
Y7452000D01*
X5961500D02*
X6074500D01*
D89*
X7592824Y7895669D02*
X7579705D01*
X7586264D01*
Y7856311D01*
X7592824Y7862871D01*
X7555000Y5839678D02*
X7515643D01*
X7535321Y5819999D01*
Y5846238D01*
X7522202Y5859357D02*
X7515643Y5865917D01*
Y5879036D01*
X7522202Y5885595D01*
X7548440D01*
X7555000Y5879036D01*
Y5865917D01*
X7548440Y5859357D01*
X7522202D01*
X7507824Y8075669D02*
Y8036311D01*
Y8062550D02*
X7488145Y8049431D01*
X7507824Y8062550D02*
X7488145Y8075669D01*
X7462824Y8083788D02*
X7456264D01*
X7449705Y8077228D01*
Y8044431D01*
X7349705Y8083788D02*
X7343145D01*
X7336586Y8077228D01*
Y8044431D01*
X7356264D01*
X7362824Y8050990D01*
Y8064109D01*
X7356264Y8070669D01*
X7336586D01*
X7415000Y8035642D02*
Y8074999D01*
Y8055321D01*
X7408440Y8048761D01*
X7395321D01*
X7388762Y8055321D01*
Y8074999D01*
X7306264Y8080669D02*
Y8047871D01*
Y8060990D01*
X7312824D01*
X7299705D01*
X7306264D01*
Y8047871D01*
X7299705Y8041311D01*
X7053440Y8048761D02*
X7040321D01*
X7033762Y8055321D01*
Y8074999D01*
X7053440D01*
X7060000Y8068440D01*
X7053440Y8061880D01*
X7033762D01*
X7110000Y8035642D02*
Y8074999D01*
X7090321D01*
X7083762Y8068440D01*
Y8061880D01*
Y8055321D01*
X7090321Y8048761D01*
X7110000D01*
X7133762D02*
X7153440D01*
X7160000Y8055321D01*
Y8068440D01*
X7153440Y8074999D01*
X7133762D01*
X7187948Y8036311D02*
Y8075669D01*
X7207627D01*
X7214187Y8069109D01*
Y8055990D01*
X7207627Y8049431D01*
X7187948D01*
X7243244Y8074107D02*
X7256363D01*
X7262923Y8067547D01*
Y8054428D01*
X7256363Y8047869D01*
X7243244D01*
X7236685Y8054428D01*
Y8060988D01*
X7262923D01*
%TF.MD5,8624EA9FAABFAAB9ADA55B97B76F70CB*%
M02*
