G04 Layer_Color=32896*
%FSLAX26Y26*%
%MOIN*%
%TF.FileFunction,Mechanical*%
%TF.Part,Single*%
G01*
G75*
%TA.AperFunction,NonConductor*%
%ADD109C,0.003937*%
D109*
X7235630Y6894999D02*
X7275000D01*
X7314370D01*
X7275000Y6855629D02*
Y6894999D01*
Y6934370D01*
Y6855629D02*
Y6894999D01*
Y6934370D01*
X7235630Y6894999D02*
X7275000D01*
X7314370D01*
X7460630Y5919999D02*
X7500000D01*
X7539370D01*
X7500000D02*
Y5959369D01*
Y5880629D02*
Y5919999D01*
X7410630D02*
X7450000D01*
X7489370D01*
X7450000D02*
Y5959369D01*
Y5880629D02*
Y5919999D01*
X7360630D02*
X7400000D01*
X7439370D01*
X7400000D02*
Y5959369D01*
Y5880629D02*
Y5919999D01*
X7310630D02*
X7350000D01*
X7389370D01*
X7350000D02*
Y5959369D01*
Y5880629D02*
Y5919999D01*
X7260630D02*
X7300000D01*
X7339370D01*
X7300000D02*
Y5959369D01*
Y5880629D02*
Y5919999D01*
X7210630D02*
X7250000D01*
X7289370D01*
X7250000D02*
Y5959369D01*
Y5880629D02*
Y5919999D01*
X7160630D02*
X7200000D01*
X7239370D01*
X7200000D02*
Y5959369D01*
Y5880629D02*
Y5919999D01*
X7110630D02*
X7150000D01*
X7189370D01*
X7150000D02*
Y5959369D01*
Y5880629D02*
Y5919999D01*
X7060630D02*
X7100000D01*
X7139370D01*
X7100000D02*
Y5959369D01*
Y5880629D02*
Y5919999D01*
X7010630D02*
X7050000D01*
X7089370D01*
X7050000D02*
Y5959369D01*
Y5880629D02*
Y5919999D01*
X7460630Y5969999D02*
X7500000D01*
X7539370D01*
X7500000D02*
Y6009369D01*
Y5930629D02*
Y5969999D01*
X7410630D02*
X7450000D01*
X7489370D01*
X7450000D02*
Y6009369D01*
Y5930629D02*
Y5969999D01*
X7360630D02*
X7400000D01*
X7439370D01*
X7400000D02*
Y6009369D01*
Y5930629D02*
Y5969999D01*
X7310630D02*
X7350000D01*
X7389370D01*
X7350000D02*
Y6009369D01*
Y5930629D02*
Y5969999D01*
X7260630D02*
X7300000D01*
X7339370D01*
X7300000D02*
Y6009369D01*
Y5930629D02*
Y5969999D01*
X7210630D02*
X7250000D01*
X7289370D01*
X7250000D02*
Y6009369D01*
Y5930629D02*
Y5969999D01*
X7160630D02*
X7200000D01*
X7239370D01*
X7200000D02*
Y6009369D01*
Y5930629D02*
Y5969999D01*
X7110630D02*
X7150000D01*
X7189370D01*
X7150000D02*
Y6009369D01*
Y5930629D02*
Y5969999D01*
X7060630D02*
X7100000D01*
X7139370D01*
X7100000D02*
Y6009369D01*
Y5930629D02*
Y5969999D01*
X7010630D02*
X7050000D01*
X7089370D01*
X7050000D02*
Y6009369D01*
Y5930629D02*
Y5969999D01*
X7460630Y6019999D02*
X7500000D01*
X7539370D01*
X7500000D02*
Y6059369D01*
Y5980629D02*
Y6019999D01*
X7410630D02*
X7450000D01*
X7489370D01*
X7450000D02*
Y6059369D01*
Y5980629D02*
Y6019999D01*
X7360630D02*
X7400000D01*
X7439370D01*
X7400000D02*
Y6059369D01*
Y5980629D02*
Y6019999D01*
X7310630D02*
X7350000D01*
X7389370D01*
X7350000D02*
Y6059369D01*
Y5980629D02*
Y6019999D01*
X7260630D02*
X7300000D01*
X7339370D01*
X7300000D02*
Y6059369D01*
Y5980629D02*
Y6019999D01*
X7210630D02*
X7250000D01*
X7289370D01*
X7250000D02*
Y6059369D01*
Y5980629D02*
Y6019999D01*
X7160630D02*
X7200000D01*
X7239370D01*
X7200000D02*
Y6059369D01*
Y5980629D02*
Y6019999D01*
X7110630D02*
X7150000D01*
X7189370D01*
X7150000D02*
Y6059369D01*
Y5980629D02*
Y6019999D01*
X7060630D02*
X7100000D01*
X7139370D01*
X7100000D02*
Y6059369D01*
Y5980629D02*
Y6019999D01*
X7010630D02*
X7050000D01*
X7089370D01*
X7050000D02*
Y6059369D01*
Y5980629D02*
Y6019999D01*
X7460630Y6069999D02*
X7500000D01*
X7539370D01*
X7500000D02*
Y6109369D01*
Y6030629D02*
Y6069999D01*
X7410630D02*
X7450000D01*
X7489370D01*
X7450000D02*
Y6109369D01*
Y6030629D02*
Y6069999D01*
X7360630D02*
X7400000D01*
X7439370D01*
X7400000D02*
Y6109369D01*
Y6030629D02*
Y6069999D01*
X7310630D02*
X7350000D01*
X7389370D01*
X7350000D02*
Y6109369D01*
Y6030629D02*
Y6069999D01*
X7260630D02*
X7300000D01*
X7339370D01*
X7300000D02*
Y6109369D01*
Y6030629D02*
Y6069999D01*
X7210630D02*
X7250000D01*
X7289370D01*
X7250000D02*
Y6109369D01*
Y6030629D02*
Y6069999D01*
X7160630D02*
X7200000D01*
X7239370D01*
X7200000D02*
Y6109369D01*
Y6030629D02*
Y6069999D01*
X7110630D02*
X7150000D01*
X7189370D01*
X7150000D02*
Y6109369D01*
Y6030629D02*
Y6069999D01*
X7060630D02*
X7100000D01*
X7139370D01*
X7100000D02*
Y6109369D01*
Y6030629D02*
Y6069999D01*
X7010630D02*
X7050000D01*
X7089370D01*
X7050000D02*
Y6109369D01*
Y6030629D02*
Y6069999D01*
X7460630Y6119999D02*
X7500000D01*
X7539370D01*
X7500000D02*
Y6159369D01*
Y6080629D02*
Y6119999D01*
X7410630D02*
X7450000D01*
X7489370D01*
X7450000D02*
Y6159369D01*
Y6080629D02*
Y6119999D01*
X7360630D02*
X7400000D01*
X7439370D01*
X7400000D02*
Y6159369D01*
Y6080629D02*
Y6119999D01*
X7310630D02*
X7350000D01*
X7389370D01*
X7350000D02*
Y6159369D01*
Y6080629D02*
Y6119999D01*
X7260630D02*
X7300000D01*
X7339370D01*
X7300000D02*
Y6159369D01*
Y6080629D02*
Y6119999D01*
X7210630D02*
X7250000D01*
X7289370D01*
X7250000D02*
Y6159369D01*
Y6080629D02*
Y6119999D01*
X7160630D02*
X7200000D01*
X7239370D01*
X7200000D02*
Y6159369D01*
Y6080629D02*
Y6119999D01*
X7110630D02*
X7150000D01*
X7189370D01*
X7150000D02*
Y6159369D01*
Y6080629D02*
Y6119999D01*
X7060630D02*
X7100000D01*
X7139370D01*
X7100000D02*
Y6159369D01*
Y6080629D02*
Y6119999D01*
X7010630D02*
X7050000D01*
X7089370D01*
X7050000D02*
Y6159369D01*
Y6080629D02*
Y6119999D01*
X7460630Y6169999D02*
X7500000D01*
X7539370D01*
X7500000D02*
Y6209369D01*
Y6130629D02*
Y6169999D01*
X7410630D02*
X7450000D01*
X7489370D01*
X7450000D02*
Y6209369D01*
Y6130629D02*
Y6169999D01*
X7360630D02*
X7400000D01*
X7439370D01*
X7400000D02*
Y6209369D01*
Y6130629D02*
Y6169999D01*
X7310630D02*
X7350000D01*
X7389370D01*
X7350000D02*
Y6209369D01*
Y6130629D02*
Y6169999D01*
X7260630D02*
X7300000D01*
X7339370D01*
X7300000D02*
Y6209369D01*
Y6130629D02*
Y6169999D01*
X7210630D02*
X7250000D01*
X7289370D01*
X7250000D02*
Y6209369D01*
Y6130629D02*
Y6169999D01*
X7160630D02*
X7200000D01*
X7239370D01*
X7200000D02*
Y6209369D01*
Y6130629D02*
Y6169999D01*
X7110630D02*
X7150000D01*
X7189370D01*
X7150000D02*
Y6209369D01*
Y6130629D02*
Y6169999D01*
X7060630D02*
X7100000D01*
X7139370D01*
X7100000D02*
Y6209369D01*
Y6130629D02*
Y6169999D01*
X7010630D02*
X7050000D01*
X7089370D01*
X7050000D02*
Y6209369D01*
Y6130629D02*
Y6169999D01*
X7460630Y6219999D02*
X7500000D01*
X7539370D01*
X7500000D02*
Y6259369D01*
Y6180629D02*
Y6219999D01*
X7410630D02*
X7450000D01*
X7489370D01*
X7450000D02*
Y6259369D01*
Y6180629D02*
Y6219999D01*
X7360630D02*
X7400000D01*
X7439370D01*
X7400000D02*
Y6259369D01*
Y6180629D02*
Y6219999D01*
X7310630D02*
X7350000D01*
X7389370D01*
X7350000D02*
Y6259369D01*
Y6180629D02*
Y6219999D01*
X7260630D02*
X7300000D01*
X7339370D01*
X7300000D02*
Y6259369D01*
Y6180629D02*
Y6219999D01*
X7210630D02*
X7250000D01*
X7289370D01*
X7250000D02*
Y6259369D01*
Y6180629D02*
Y6219999D01*
X7160630D02*
X7200000D01*
X7239370D01*
X7200000D02*
Y6259369D01*
Y6180629D02*
Y6219999D01*
X7110630D02*
X7150000D01*
X7189370D01*
X7150000D02*
Y6259369D01*
Y6180629D02*
Y6219999D01*
X7060630D02*
X7100000D01*
X7139370D01*
X7100000D02*
Y6259369D01*
Y6180629D02*
Y6219999D01*
X7010630D02*
X7050000D01*
X7089370D01*
X7050000D02*
Y6259369D01*
Y6180629D02*
Y6219999D01*
X7460630Y6269999D02*
X7500000D01*
X7539370D01*
X7500000D02*
Y6309369D01*
Y6230629D02*
Y6269999D01*
X7410630D02*
X7450000D01*
X7489370D01*
X7450000D02*
Y6309369D01*
Y6230629D02*
Y6269999D01*
X7360630D02*
X7400000D01*
X7439370D01*
X7400000D02*
Y6309369D01*
Y6230629D02*
Y6269999D01*
X7310630D02*
X7350000D01*
X7389370D01*
X7350000D02*
Y6309369D01*
Y6230629D02*
Y6269999D01*
X7260630D02*
X7300000D01*
X7339370D01*
X7300000D02*
Y6309369D01*
Y6230629D02*
Y6269999D01*
X7210630D02*
X7250000D01*
X7289370D01*
X7250000D02*
Y6309369D01*
Y6230629D02*
Y6269999D01*
X7160630D02*
X7200000D01*
X7239370D01*
X7200000D02*
Y6309369D01*
Y6230629D02*
Y6269999D01*
X7110630D02*
X7150000D01*
X7189370D01*
X7150000D02*
Y6309369D01*
Y6230629D02*
Y6269999D01*
X7060630D02*
X7100000D01*
X7139370D01*
X7100000D02*
Y6309369D01*
Y6230629D02*
Y6269999D01*
X7010630D02*
X7050000D01*
X7089370D01*
X7050000D02*
Y6309369D01*
Y6230629D02*
Y6269999D01*
X7460630Y6319999D02*
X7500000D01*
X7539370D01*
X7500000D02*
Y6359369D01*
Y6280629D02*
Y6319999D01*
X7410630D02*
X7450000D01*
X7489370D01*
X7450000D02*
Y6359369D01*
Y6280629D02*
Y6319999D01*
X7360630D02*
X7400000D01*
X7439370D01*
X7400000D02*
Y6359369D01*
Y6280629D02*
Y6319999D01*
X7310630D02*
X7350000D01*
X7389370D01*
X7350000D02*
Y6359369D01*
Y6280629D02*
Y6319999D01*
X7260630D02*
X7300000D01*
X7339370D01*
X7300000D02*
Y6359369D01*
Y6280629D02*
Y6319999D01*
X7210630D02*
X7250000D01*
X7289370D01*
X7250000D02*
Y6359369D01*
Y6280629D02*
Y6319999D01*
X7160630D02*
X7200000D01*
X7239370D01*
X7200000D02*
Y6359369D01*
Y6280629D02*
Y6319999D01*
X7110630D02*
X7150000D01*
X7189370D01*
X7150000D02*
Y6359369D01*
Y6280629D02*
Y6319999D01*
X7060630D02*
X7100000D01*
X7139370D01*
X7100000D02*
Y6359369D01*
Y6280629D02*
Y6319999D01*
X7010630D02*
X7050000D01*
X7089370D01*
X7050000D02*
Y6359369D01*
Y6280629D02*
Y6319999D01*
X7460630Y6369999D02*
X7500000D01*
X7539370D01*
X7500000D02*
Y6409369D01*
Y6330629D02*
Y6369999D01*
X7410630D02*
X7450000D01*
X7489370D01*
X7450000D02*
Y6409369D01*
Y6330629D02*
Y6369999D01*
X7360630D02*
X7400000D01*
X7439370D01*
X7400000D02*
Y6409369D01*
Y6330629D02*
Y6369999D01*
X7310630D02*
X7350000D01*
X7389370D01*
X7350000D02*
Y6409369D01*
Y6330629D02*
Y6369999D01*
X7260630D02*
X7300000D01*
X7339370D01*
X7300000D02*
Y6409369D01*
Y6330629D02*
Y6369999D01*
X7210630D02*
X7250000D01*
X7289370D01*
X7250000D02*
Y6409369D01*
Y6330629D02*
Y6369999D01*
X7160630D02*
X7200000D01*
X7239370D01*
X7200000D02*
Y6409369D01*
Y6330629D02*
Y6369999D01*
X7110630D02*
X7150000D01*
X7189370D01*
X7150000D02*
Y6409369D01*
Y6330629D02*
Y6369999D01*
X7060630D02*
X7100000D01*
X7139370D01*
X7100000D02*
Y6409369D01*
Y6330629D02*
Y6369999D01*
X7010630D02*
X7050000D01*
X7089370D01*
X7050000D02*
Y6409369D01*
Y6330629D02*
Y6369999D01*
X7460630Y6419999D02*
X7500000D01*
X7539370D01*
X7500000D02*
Y6459369D01*
Y6380629D02*
Y6419999D01*
X7410630D02*
X7450000D01*
X7489370D01*
X7450000D02*
Y6459369D01*
Y6380629D02*
Y6419999D01*
X7360630D02*
X7400000D01*
X7439370D01*
X7400000D02*
Y6459369D01*
Y6380629D02*
Y6419999D01*
X7310630D02*
X7350000D01*
X7389370D01*
X7350000D02*
Y6459369D01*
Y6380629D02*
Y6419999D01*
X7260630D02*
X7300000D01*
X7339370D01*
X7300000D02*
Y6459369D01*
Y6380629D02*
Y6419999D01*
X7210630D02*
X7250000D01*
X7289370D01*
X7250000D02*
Y6459369D01*
Y6380629D02*
Y6419999D01*
X7160630D02*
X7200000D01*
X7239370D01*
X7200000D02*
Y6459369D01*
Y6380629D02*
Y6419999D01*
X7110630D02*
X7150000D01*
X7189370D01*
X7150000D02*
Y6459369D01*
Y6380629D02*
Y6419999D01*
X7060630D02*
X7100000D01*
X7139370D01*
X7100000D02*
Y6459369D01*
Y6380629D02*
Y6419999D01*
X7010630D02*
X7050000D01*
X7089370D01*
X7050000D02*
Y6459369D01*
Y6380629D02*
Y6419999D01*
X7460630Y6469999D02*
X7500000D01*
X7539370D01*
X7500000D02*
Y6509369D01*
Y6430629D02*
Y6469999D01*
X7410630D02*
X7450000D01*
X7489370D01*
X7450000D02*
Y6509369D01*
Y6430629D02*
Y6469999D01*
X7360630D02*
X7400000D01*
X7439370D01*
X7400000D02*
Y6509369D01*
Y6430629D02*
Y6469999D01*
X7310630D02*
X7350000D01*
X7389370D01*
X7350000D02*
Y6509369D01*
Y6430629D02*
Y6469999D01*
X7260630D02*
X7300000D01*
X7339370D01*
X7300000D02*
Y6509369D01*
Y6430629D02*
Y6469999D01*
X7210630D02*
X7250000D01*
X7289370D01*
X7250000D02*
Y6509369D01*
Y6430629D02*
Y6469999D01*
X7160630D02*
X7200000D01*
X7239370D01*
X7200000D02*
Y6509369D01*
Y6430629D02*
Y6469999D01*
X7110630D02*
X7150000D01*
X7189370D01*
X7150000D02*
Y6509369D01*
Y6430629D02*
Y6469999D01*
X7060630D02*
X7100000D01*
X7139370D01*
X7100000D02*
Y6509369D01*
Y6430629D02*
Y6469999D01*
X7010630D02*
X7050000D01*
X7089370D01*
X7050000D02*
Y6509369D01*
Y6430629D02*
Y6469999D01*
X7460630Y6519999D02*
X7500000D01*
X7539370D01*
X7500000D02*
Y6559369D01*
Y6480629D02*
Y6519999D01*
X7410630D02*
X7450000D01*
X7489370D01*
X7450000D02*
Y6559369D01*
Y6480629D02*
Y6519999D01*
X7360630D02*
X7400000D01*
X7439370D01*
X7400000D02*
Y6559369D01*
Y6480629D02*
Y6519999D01*
X7310630D02*
X7350000D01*
X7389370D01*
X7350000D02*
Y6559369D01*
Y6480629D02*
Y6519999D01*
X7260630D02*
X7300000D01*
X7339370D01*
X7300000D02*
Y6559369D01*
Y6480629D02*
Y6519999D01*
X7210630D02*
X7250000D01*
X7289370D01*
X7250000D02*
Y6559369D01*
Y6480629D02*
Y6519999D01*
X7160630D02*
X7200000D01*
X7239370D01*
X7200000D02*
Y6559369D01*
Y6480629D02*
Y6519999D01*
X7110630D02*
X7150000D01*
X7189370D01*
X7150000D02*
Y6559369D01*
Y6480629D02*
Y6519999D01*
X7060630D02*
X7100000D01*
X7139370D01*
X7100000D02*
Y6559369D01*
Y6480629D02*
Y6519999D01*
X7010630D02*
X7050000D01*
X7089370D01*
X7050000D02*
Y6559369D01*
Y6480629D02*
Y6519999D01*
X7460630Y6569999D02*
X7500000D01*
X7539370D01*
X7500000D02*
Y6609369D01*
Y6530629D02*
Y6569999D01*
X7410630D02*
X7450000D01*
X7489370D01*
X7450000D02*
Y6609369D01*
Y6530629D02*
Y6569999D01*
X7360630D02*
X7400000D01*
X7439370D01*
X7400000D02*
Y6609369D01*
Y6530629D02*
Y6569999D01*
X7310630D02*
X7350000D01*
X7389370D01*
X7350000D02*
Y6609369D01*
Y6530629D02*
Y6569999D01*
X7260630D02*
X7300000D01*
X7339370D01*
X7300000D02*
Y6609369D01*
Y6530629D02*
Y6569999D01*
X7210630D02*
X7250000D01*
X7289370D01*
X7250000D02*
Y6609369D01*
Y6530629D02*
Y6569999D01*
X7160630D02*
X7200000D01*
X7239370D01*
X7200000D02*
Y6609369D01*
Y6530629D02*
Y6569999D01*
X7110630D02*
X7150000D01*
X7189370D01*
X7150000D02*
Y6609369D01*
Y6530629D02*
Y6569999D01*
X7060630D02*
X7100000D01*
X7139370D01*
X7100000D02*
Y6609369D01*
Y6530629D02*
Y6569999D01*
X7010630D02*
X7050000D01*
X7089370D01*
X7050000D02*
Y6609369D01*
Y6530629D02*
Y6569999D01*
X7460630Y6619999D02*
X7500000D01*
X7539370D01*
X7500000D02*
Y6659369D01*
Y6580629D02*
Y6619999D01*
X7410630D02*
X7450000D01*
X7489370D01*
X7450000D02*
Y6659369D01*
Y6580629D02*
Y6619999D01*
X7360630D02*
X7400000D01*
X7439370D01*
X7400000D02*
Y6659369D01*
Y6580629D02*
Y6619999D01*
X7310630D02*
X7350000D01*
X7389370D01*
X7350000D02*
Y6659369D01*
Y6580629D02*
Y6619999D01*
X7260630D02*
X7300000D01*
X7339370D01*
X7300000D02*
Y6659369D01*
Y6580629D02*
Y6619999D01*
X7210630D02*
X7250000D01*
X7289370D01*
X7250000D02*
Y6659369D01*
Y6580629D02*
Y6619999D01*
X7160630D02*
X7200000D01*
X7239370D01*
X7200000D02*
Y6659369D01*
Y6580629D02*
Y6619999D01*
X7110630D02*
X7150000D01*
X7189370D01*
X7150000D02*
Y6659369D01*
Y6580629D02*
Y6619999D01*
X7060630D02*
X7100000D01*
X7139370D01*
X7100000D02*
Y6659369D01*
Y6580629D02*
Y6619999D01*
X7010630D02*
X7050000D01*
X7089370D01*
X7050000D02*
Y6659369D01*
Y6580629D02*
Y6619999D01*
X7460630Y6669999D02*
X7500000D01*
X7539370D01*
X7500000D02*
Y6709369D01*
Y6630629D02*
Y6669999D01*
X7410630D02*
X7450000D01*
X7489370D01*
X7450000D02*
Y6709369D01*
Y6630629D02*
Y6669999D01*
X7360630D02*
X7400000D01*
X7439370D01*
X7400000D02*
Y6709369D01*
Y6630629D02*
Y6669999D01*
X7310630D02*
X7350000D01*
X7389370D01*
X7350000D02*
Y6709369D01*
Y6630629D02*
Y6669999D01*
X7260630D02*
X7300000D01*
X7339370D01*
X7300000D02*
Y6709369D01*
Y6630629D02*
Y6669999D01*
X7210630D02*
X7250000D01*
X7289370D01*
X7250000D02*
Y6709369D01*
Y6630629D02*
Y6669999D01*
X7160630D02*
X7200000D01*
X7239370D01*
X7200000D02*
Y6709369D01*
Y6630629D02*
Y6669999D01*
X7110630D02*
X7150000D01*
X7189370D01*
X7150000D02*
Y6709369D01*
Y6630629D02*
Y6669999D01*
X7060630D02*
X7100000D01*
X7139370D01*
X7100000D02*
Y6709369D01*
Y6630629D02*
Y6669999D01*
X7010630D02*
X7050000D01*
X7089370D01*
X7050000D02*
Y6709369D01*
Y6630629D02*
Y6669999D01*
X7460630Y6719999D02*
X7500000D01*
X7539370D01*
X7500000D02*
Y6759369D01*
Y6680629D02*
Y6719999D01*
X7410630D02*
X7450000D01*
X7489370D01*
X7450000D02*
Y6759369D01*
Y6680629D02*
Y6719999D01*
X7360630D02*
X7400000D01*
X7439370D01*
X7400000D02*
Y6759369D01*
Y6680629D02*
Y6719999D01*
X7310630D02*
X7350000D01*
X7389370D01*
X7350000D02*
Y6759369D01*
Y6680629D02*
Y6719999D01*
X7260630D02*
X7300000D01*
X7339370D01*
X7300000D02*
Y6759369D01*
Y6680629D02*
Y6719999D01*
X7210630D02*
X7250000D01*
X7289370D01*
X7250000D02*
Y6759369D01*
Y6680629D02*
Y6719999D01*
X7160630D02*
X7200000D01*
X7239370D01*
X7200000D02*
Y6759369D01*
Y6680629D02*
Y6719999D01*
X7110630D02*
X7150000D01*
X7189370D01*
X7150000D02*
Y6759369D01*
Y6680629D02*
Y6719999D01*
X7060630D02*
X7100000D01*
X7139370D01*
X7100000D02*
Y6759369D01*
Y6680629D02*
Y6719999D01*
X7010630D02*
X7050000D01*
X7089370D01*
X7050000D02*
Y6759369D01*
Y6680629D02*
Y6719999D01*
X7460630Y6769999D02*
X7500000D01*
X7539370D01*
X7500000D02*
Y6809369D01*
Y6730629D02*
Y6769999D01*
X7410630D02*
X7450000D01*
X7489370D01*
X7450000D02*
Y6809369D01*
Y6730629D02*
Y6769999D01*
X7360630D02*
X7400000D01*
X7439370D01*
X7400000D02*
Y6809369D01*
Y6730629D02*
Y6769999D01*
X7310630D02*
X7350000D01*
X7389370D01*
X7350000D02*
Y6809369D01*
Y6730629D02*
Y6769999D01*
X7260630D02*
X7300000D01*
X7339370D01*
X7300000D02*
Y6809369D01*
Y6730629D02*
Y6769999D01*
X7210630D02*
X7250000D01*
X7289370D01*
X7250000D02*
Y6809369D01*
Y6730629D02*
Y6769999D01*
X7160630D02*
X7200000D01*
X7239370D01*
X7200000D02*
Y6809369D01*
Y6730629D02*
Y6769999D01*
X7110630D02*
X7150000D01*
X7189370D01*
X7150000D02*
Y6809369D01*
Y6730629D02*
Y6769999D01*
X7060630D02*
X7100000D01*
X7139370D01*
X7100000D02*
Y6809369D01*
Y6730629D02*
Y6769999D01*
X7010630D02*
X7050000D01*
X7089370D01*
X7050000D02*
Y6809369D01*
Y6730629D02*
Y6769999D01*
X7460630Y6819999D02*
X7500000D01*
X7539370D01*
X7500000D02*
Y6859370D01*
Y6780629D02*
Y6819999D01*
X7410630D02*
X7450000D01*
X7489370D01*
X7450000D02*
Y6859370D01*
Y6780629D02*
Y6819999D01*
X7360630D02*
X7400000D01*
X7439370D01*
X7400000D02*
Y6859370D01*
Y6780629D02*
Y6819999D01*
X7310630D02*
X7350000D01*
X7389370D01*
X7350000D02*
Y6859370D01*
Y6780629D02*
Y6819999D01*
X7260630D02*
X7300000D01*
X7339370D01*
X7300000D02*
Y6859370D01*
Y6780629D02*
Y6819999D01*
X7210630D02*
X7250000D01*
X7289370D01*
X7250000D02*
Y6859370D01*
Y6780629D02*
Y6819999D01*
X7160630D02*
X7200000D01*
X7239370D01*
X7200000D02*
Y6859370D01*
Y6780629D02*
Y6819999D01*
X7110630D02*
X7150000D01*
X7189370D01*
X7150000D02*
Y6859370D01*
Y6780629D02*
Y6819999D01*
X7060630D02*
X7100000D01*
X7139370D01*
X7100000D02*
Y6859370D01*
Y6780629D02*
Y6819999D01*
X7010630D02*
X7050000D01*
X7089370D01*
X7050000D02*
Y6859370D01*
Y6780629D02*
Y6819999D01*
X7460630Y6869999D02*
X7500000D01*
X7539370D01*
X7500000D02*
Y6909370D01*
Y6830629D02*
Y6869999D01*
X7410630D02*
X7450000D01*
X7489370D01*
X7450000D02*
Y6909370D01*
Y6830629D02*
Y6869999D01*
X7360630D02*
X7400000D01*
X7439370D01*
X7400000D02*
Y6909370D01*
Y6830629D02*
Y6869999D01*
X7310630D02*
X7350000D01*
X7389370D01*
X7350000D02*
Y6909370D01*
Y6830629D02*
Y6869999D01*
X7260630D02*
X7300000D01*
X7339370D01*
X7300000D02*
Y6909370D01*
Y6830629D02*
Y6869999D01*
X7210630D02*
X7250000D01*
X7289370D01*
X7250000D02*
Y6909370D01*
Y6830629D02*
Y6869999D01*
X7160630D02*
X7200000D01*
X7239370D01*
X7200000D02*
Y6909370D01*
Y6830629D02*
Y6869999D01*
X7110630D02*
X7150000D01*
X7189370D01*
X7150000D02*
Y6909370D01*
Y6830629D02*
Y6869999D01*
X7060630D02*
X7100000D01*
X7139370D01*
X7100000D02*
Y6909370D01*
Y6830629D02*
Y6869999D01*
X7010630D02*
X7050000D01*
X7089370D01*
X7050000D02*
Y6909370D01*
Y6830629D02*
Y6869999D01*
X7460630Y6919999D02*
X7500000D01*
X7539370D01*
X7500000D02*
Y6959370D01*
Y6880629D02*
Y6919999D01*
X7410630D02*
X7450000D01*
X7489370D01*
X7450000D02*
Y6959370D01*
Y6880629D02*
Y6919999D01*
X7360630D02*
X7400000D01*
X7439370D01*
X7400000D02*
Y6959370D01*
Y6880629D02*
Y6919999D01*
X7310630D02*
X7350000D01*
X7389370D01*
X7350000D02*
Y6959370D01*
Y6880629D02*
Y6919999D01*
X7260630D02*
X7300000D01*
X7339370D01*
X7300000D02*
Y6959370D01*
Y6880629D02*
Y6919999D01*
X7210630D02*
X7250000D01*
X7289370D01*
X7250000D02*
Y6959370D01*
Y6880629D02*
Y6919999D01*
X7160630D02*
X7200000D01*
X7239370D01*
X7200000D02*
Y6959370D01*
Y6880629D02*
Y6919999D01*
X7110630D02*
X7150000D01*
X7189370D01*
X7150000D02*
Y6959370D01*
Y6880629D02*
Y6919999D01*
X7060630D02*
X7100000D01*
X7139370D01*
X7100000D02*
Y6959370D01*
Y6880629D02*
Y6919999D01*
X7010630D02*
X7050000D01*
X7089370D01*
X7050000D02*
Y6959370D01*
Y6880629D02*
Y6919999D01*
X7460630Y6969999D02*
X7500000D01*
X7539370D01*
X7500000D02*
Y7009370D01*
Y6930629D02*
Y6969999D01*
X7410630D02*
X7450000D01*
X7489370D01*
X7450000D02*
Y7009370D01*
Y6930629D02*
Y6969999D01*
X7360630D02*
X7400000D01*
X7439370D01*
X7400000D02*
Y7009370D01*
Y6930629D02*
Y6969999D01*
X7310630D02*
X7350000D01*
X7389370D01*
X7350000D02*
Y7009370D01*
Y6930629D02*
Y6969999D01*
X7260630D02*
X7300000D01*
X7339370D01*
X7300000D02*
Y7009370D01*
Y6930629D02*
Y6969999D01*
X7210630D02*
X7250000D01*
X7289370D01*
X7250000D02*
Y7009370D01*
Y6930629D02*
Y6969999D01*
X7160630D02*
X7200000D01*
X7239370D01*
X7200000D02*
Y7009370D01*
Y6930629D02*
Y6969999D01*
X7110630D02*
X7150000D01*
X7189370D01*
X7150000D02*
Y7009370D01*
Y6930629D02*
Y6969999D01*
X7060630D02*
X7100000D01*
X7139370D01*
X7100000D02*
Y7009370D01*
Y6930629D02*
Y6969999D01*
X7010630D02*
X7050000D01*
X7089370D01*
X7050000D02*
Y7009370D01*
Y6930629D02*
Y6969999D01*
X7460630Y7020000D02*
X7500000D01*
X7539370D01*
X7500000D02*
Y7059370D01*
Y6980630D02*
Y7020000D01*
X7410630D02*
X7450000D01*
X7489370D01*
X7450000D02*
Y7059370D01*
Y6980630D02*
Y7020000D01*
X7360630D02*
X7400000D01*
X7439370D01*
X7400000D02*
Y7059370D01*
Y6980630D02*
Y7020000D01*
X7310630D02*
X7350000D01*
X7389370D01*
X7350000D02*
Y7059370D01*
Y6980630D02*
Y7020000D01*
X7260630D02*
X7300000D01*
X7339370D01*
X7300000D02*
Y7059370D01*
Y6980630D02*
Y7020000D01*
X7210630D02*
X7250000D01*
X7289370D01*
X7250000D02*
Y7059370D01*
Y6980630D02*
Y7020000D01*
X7160630D02*
X7200000D01*
X7239370D01*
X7200000D02*
Y7059370D01*
Y6980630D02*
Y7020000D01*
X7110630D02*
X7150000D01*
X7189370D01*
X7150000D02*
Y7059370D01*
Y6980630D02*
Y7020000D01*
X7060630D02*
X7100000D01*
X7139370D01*
X7100000D02*
Y7059370D01*
Y6980630D02*
Y7020000D01*
X7010630D02*
X7050000D01*
X7089370D01*
X7050000D02*
Y7059370D01*
Y6980630D02*
Y7020000D01*
X7460630Y7070000D02*
X7500000D01*
X7539370D01*
X7500000D02*
Y7109370D01*
Y7030630D02*
Y7070000D01*
X7410630D02*
X7450000D01*
X7489370D01*
X7450000D02*
Y7109370D01*
Y7030630D02*
Y7070000D01*
X7360630D02*
X7400000D01*
X7439370D01*
X7400000D02*
Y7109370D01*
Y7030630D02*
Y7070000D01*
X7310630D02*
X7350000D01*
X7389370D01*
X7350000D02*
Y7109370D01*
Y7030630D02*
Y7070000D01*
X7260630D02*
X7300000D01*
X7339370D01*
X7300000D02*
Y7109370D01*
Y7030630D02*
Y7070000D01*
X7210630D02*
X7250000D01*
X7289370D01*
X7250000D02*
Y7109370D01*
Y7030630D02*
Y7070000D01*
X7160630D02*
X7200000D01*
X7239370D01*
X7200000D02*
Y7109370D01*
Y7030630D02*
Y7070000D01*
X7110630D02*
X7150000D01*
X7189370D01*
X7150000D02*
Y7109370D01*
Y7030630D02*
Y7070000D01*
X7060630D02*
X7100000D01*
X7139370D01*
X7100000D02*
Y7109370D01*
Y7030630D02*
Y7070000D01*
X7010630D02*
X7050000D01*
X7089370D01*
X7050000D02*
Y7109370D01*
Y7030630D02*
Y7070000D01*
X7460630Y7120000D02*
X7500000D01*
X7539370D01*
X7500000D02*
Y7159370D01*
Y7080630D02*
Y7120000D01*
X7410630D02*
X7450000D01*
X7489370D01*
X7450000D02*
Y7159370D01*
Y7080630D02*
Y7120000D01*
X7360630D02*
X7400000D01*
X7439370D01*
X7400000D02*
Y7159370D01*
Y7080630D02*
Y7120000D01*
X7310630D02*
X7350000D01*
X7389370D01*
X7350000D02*
Y7159370D01*
Y7080630D02*
Y7120000D01*
X7260630D02*
X7300000D01*
X7339370D01*
X7300000D02*
Y7159370D01*
Y7080630D02*
Y7120000D01*
X7210630D02*
X7250000D01*
X7289370D01*
X7250000D02*
Y7159370D01*
Y7080630D02*
Y7120000D01*
X7160630D02*
X7200000D01*
X7239370D01*
X7200000D02*
Y7159370D01*
Y7080630D02*
Y7120000D01*
X7110630D02*
X7150000D01*
X7189370D01*
X7150000D02*
Y7159370D01*
Y7080630D02*
Y7120000D01*
X7060630D02*
X7100000D01*
X7139370D01*
X7100000D02*
Y7159370D01*
Y7080630D02*
Y7120000D01*
X7010630D02*
X7050000D01*
X7089370D01*
X7050000D02*
Y7159370D01*
Y7080630D02*
Y7120000D01*
X7460630Y7170000D02*
X7500000D01*
X7539370D01*
X7500000D02*
Y7209370D01*
Y7130630D02*
Y7170000D01*
X7410630D02*
X7450000D01*
X7489370D01*
X7450000D02*
Y7209370D01*
Y7130630D02*
Y7170000D01*
X7360630D02*
X7400000D01*
X7439370D01*
X7400000D02*
Y7209370D01*
Y7130630D02*
Y7170000D01*
X7310630D02*
X7350000D01*
X7389370D01*
X7350000D02*
Y7209370D01*
Y7130630D02*
Y7170000D01*
X7260630D02*
X7300000D01*
X7339370D01*
X7300000D02*
Y7209370D01*
Y7130630D02*
Y7170000D01*
X7210630D02*
X7250000D01*
X7289370D01*
X7250000D02*
Y7209370D01*
Y7130630D02*
Y7170000D01*
X7160630D02*
X7200000D01*
X7239370D01*
X7200000D02*
Y7209370D01*
Y7130630D02*
Y7170000D01*
X7110630D02*
X7150000D01*
X7189370D01*
X7150000D02*
Y7209370D01*
Y7130630D02*
Y7170000D01*
X7060630D02*
X7100000D01*
X7139370D01*
X7100000D02*
Y7209370D01*
Y7130630D02*
Y7170000D01*
X7010630D02*
X7050000D01*
X7089370D01*
X7050000D02*
Y7209370D01*
Y7130630D02*
Y7170000D01*
X7460630Y7220000D02*
X7500000D01*
X7539370D01*
X7500000D02*
Y7259370D01*
Y7180630D02*
Y7220000D01*
X7410630D02*
X7450000D01*
X7489370D01*
X7450000D02*
Y7259370D01*
Y7180630D02*
Y7220000D01*
X7360630D02*
X7400000D01*
X7439370D01*
X7400000D02*
Y7259370D01*
Y7180630D02*
Y7220000D01*
X7310630D02*
X7350000D01*
X7389370D01*
X7350000D02*
Y7259370D01*
Y7180630D02*
Y7220000D01*
X7260630D02*
X7300000D01*
X7339370D01*
X7300000D02*
Y7259370D01*
Y7180630D02*
Y7220000D01*
X7210630D02*
X7250000D01*
X7289370D01*
X7250000D02*
Y7259370D01*
Y7180630D02*
Y7220000D01*
X7160630D02*
X7200000D01*
X7239370D01*
X7200000D02*
Y7259370D01*
Y7180630D02*
Y7220000D01*
X7110630D02*
X7150000D01*
X7189370D01*
X7150000D02*
Y7259370D01*
Y7180630D02*
Y7220000D01*
X7060630D02*
X7100000D01*
X7139370D01*
X7100000D02*
Y7259370D01*
Y7180630D02*
Y7220000D01*
X7010630D02*
X7050000D01*
X7089370D01*
X7050000D02*
Y7259370D01*
Y7180630D02*
Y7220000D01*
X7460630Y7270000D02*
X7500000D01*
X7539370D01*
X7500000D02*
Y7309370D01*
Y7230630D02*
Y7270000D01*
X7410630D02*
X7450000D01*
X7489370D01*
X7450000D02*
Y7309370D01*
Y7230630D02*
Y7270000D01*
X7360630D02*
X7400000D01*
X7439370D01*
X7400000D02*
Y7309370D01*
Y7230630D02*
Y7270000D01*
X7310630D02*
X7350000D01*
X7389370D01*
X7350000D02*
Y7309370D01*
Y7230630D02*
Y7270000D01*
X7260630D02*
X7300000D01*
X7339370D01*
X7300000D02*
Y7309370D01*
Y7230630D02*
Y7270000D01*
X7210630D02*
X7250000D01*
X7289370D01*
X7250000D02*
Y7309370D01*
Y7230630D02*
Y7270000D01*
X7160630D02*
X7200000D01*
X7239370D01*
X7200000D02*
Y7309370D01*
Y7230630D02*
Y7270000D01*
X7110630D02*
X7150000D01*
X7189370D01*
X7150000D02*
Y7309370D01*
Y7230630D02*
Y7270000D01*
X7060630D02*
X7100000D01*
X7139370D01*
X7100000D02*
Y7309370D01*
Y7230630D02*
Y7270000D01*
X7010630D02*
X7050000D01*
X7089370D01*
X7050000D02*
Y7309370D01*
Y7230630D02*
Y7270000D01*
X7460630Y7320000D02*
X7500000D01*
X7539370D01*
X7500000D02*
Y7359370D01*
Y7280630D02*
Y7320000D01*
X7410630D02*
X7450000D01*
X7489370D01*
X7450000D02*
Y7359370D01*
Y7280630D02*
Y7320000D01*
X7360630D02*
X7400000D01*
X7439370D01*
X7400000D02*
Y7359370D01*
Y7280630D02*
Y7320000D01*
X7310630D02*
X7350000D01*
X7389370D01*
X7350000D02*
Y7359370D01*
Y7280630D02*
Y7320000D01*
X7260630D02*
X7300000D01*
X7339370D01*
X7300000D02*
Y7359370D01*
Y7280630D02*
Y7320000D01*
X7210630D02*
X7250000D01*
X7289370D01*
X7250000D02*
Y7359370D01*
Y7280630D02*
Y7320000D01*
X7160630D02*
X7200000D01*
X7239370D01*
X7200000D02*
Y7359370D01*
Y7280630D02*
Y7320000D01*
X7110630D02*
X7150000D01*
X7189370D01*
X7150000D02*
Y7359370D01*
Y7280630D02*
Y7320000D01*
X7060630D02*
X7100000D01*
X7139370D01*
X7100000D02*
Y7359370D01*
Y7280630D02*
Y7320000D01*
X7010630D02*
X7050000D01*
X7089370D01*
X7050000D02*
Y7359370D01*
Y7280630D02*
Y7320000D01*
X7460630Y7370000D02*
X7500000D01*
X7539370D01*
X7500000D02*
Y7409370D01*
Y7330630D02*
Y7370000D01*
X7410630D02*
X7450000D01*
X7489370D01*
X7450000D02*
Y7409370D01*
Y7330630D02*
Y7370000D01*
X7360630D02*
X7400000D01*
X7439370D01*
X7400000D02*
Y7409370D01*
Y7330630D02*
Y7370000D01*
X7310630D02*
X7350000D01*
X7389370D01*
X7350000D02*
Y7409370D01*
Y7330630D02*
Y7370000D01*
X7260630D02*
X7300000D01*
X7339370D01*
X7300000D02*
Y7409370D01*
Y7330630D02*
Y7370000D01*
X7210630D02*
X7250000D01*
X7289370D01*
X7250000D02*
Y7409370D01*
Y7330630D02*
Y7370000D01*
X7160630D02*
X7200000D01*
X7239370D01*
X7200000D02*
Y7409370D01*
Y7330630D02*
Y7370000D01*
X7110630D02*
X7150000D01*
X7189370D01*
X7150000D02*
Y7409370D01*
Y7330630D02*
Y7370000D01*
X7060630D02*
X7100000D01*
X7139370D01*
X7100000D02*
Y7409370D01*
Y7330630D02*
Y7370000D01*
X7010630D02*
X7050000D01*
X7089370D01*
X7050000D02*
Y7409370D01*
Y7330630D02*
Y7370000D01*
X7460630Y7420000D02*
X7500000D01*
X7539370D01*
X7500000D02*
Y7459370D01*
Y7380630D02*
Y7420000D01*
X7410630D02*
X7450000D01*
X7489370D01*
X7450000D02*
Y7459370D01*
Y7380630D02*
Y7420000D01*
X7360630D02*
X7400000D01*
X7439370D01*
X7400000D02*
Y7459370D01*
Y7380630D02*
Y7420000D01*
X7310630D02*
X7350000D01*
X7389370D01*
X7350000D02*
Y7459370D01*
Y7380630D02*
Y7420000D01*
X7260630D02*
X7300000D01*
X7339370D01*
X7300000D02*
Y7459370D01*
Y7380630D02*
Y7420000D01*
X7210630D02*
X7250000D01*
X7289370D01*
X7250000D02*
Y7459370D01*
Y7380630D02*
Y7420000D01*
X7160630D02*
X7200000D01*
X7239370D01*
X7200000D02*
Y7459370D01*
Y7380630D02*
Y7420000D01*
X7110630D02*
X7150000D01*
X7189370D01*
X7150000D02*
Y7459370D01*
Y7380630D02*
Y7420000D01*
X7060630D02*
X7100000D01*
X7139370D01*
X7100000D02*
Y7459370D01*
Y7380630D02*
Y7420000D01*
X7010630D02*
X7050000D01*
X7089370D01*
X7050000D02*
Y7459370D01*
Y7380630D02*
Y7420000D01*
X7460630Y7470000D02*
X7500000D01*
X7539370D01*
X7500000D02*
Y7509370D01*
Y7430630D02*
Y7470000D01*
X7410630D02*
X7450000D01*
X7489370D01*
X7450000D02*
Y7509370D01*
Y7430630D02*
Y7470000D01*
X7360630D02*
X7400000D01*
X7439370D01*
X7400000D02*
Y7509370D01*
Y7430630D02*
Y7470000D01*
X7310630D02*
X7350000D01*
X7389370D01*
X7350000D02*
Y7509370D01*
Y7430630D02*
Y7470000D01*
X7260630D02*
X7300000D01*
X7339370D01*
X7300000D02*
Y7509370D01*
Y7430630D02*
Y7470000D01*
X7210630D02*
X7250000D01*
X7289370D01*
X7250000D02*
Y7509370D01*
Y7430630D02*
Y7470000D01*
X7160630D02*
X7200000D01*
X7239370D01*
X7200000D02*
Y7509370D01*
Y7430630D02*
Y7470000D01*
X7110630D02*
X7150000D01*
X7189370D01*
X7150000D02*
Y7509370D01*
Y7430630D02*
Y7470000D01*
X7060630D02*
X7100000D01*
X7139370D01*
X7100000D02*
Y7509370D01*
Y7430630D02*
Y7470000D01*
X7010630D02*
X7050000D01*
X7089370D01*
X7050000D02*
Y7509370D01*
Y7430630D02*
Y7470000D01*
X7460630Y7520000D02*
X7500000D01*
X7539370D01*
X7500000D02*
Y7559370D01*
Y7480630D02*
Y7520000D01*
X7410630D02*
X7450000D01*
X7489370D01*
X7450000D02*
Y7559370D01*
Y7480630D02*
Y7520000D01*
X7360630D02*
X7400000D01*
X7439370D01*
X7400000D02*
Y7559370D01*
Y7480630D02*
Y7520000D01*
X7310630D02*
X7350000D01*
X7389370D01*
X7350000D02*
Y7559370D01*
Y7480630D02*
Y7520000D01*
X7260630D02*
X7300000D01*
X7339370D01*
X7300000D02*
Y7559370D01*
Y7480630D02*
Y7520000D01*
X7210630D02*
X7250000D01*
X7289370D01*
X7250000D02*
Y7559370D01*
Y7480630D02*
Y7520000D01*
X7160630D02*
X7200000D01*
X7239370D01*
X7200000D02*
Y7559370D01*
Y7480630D02*
Y7520000D01*
X7110630D02*
X7150000D01*
X7189370D01*
X7150000D02*
Y7559370D01*
Y7480630D02*
Y7520000D01*
X7060630D02*
X7100000D01*
X7139370D01*
X7100000D02*
Y7559370D01*
Y7480630D02*
Y7520000D01*
X7010630D02*
X7050000D01*
X7089370D01*
X7050000D02*
Y7559370D01*
Y7480630D02*
Y7520000D01*
X7460630Y7570000D02*
X7500000D01*
X7539370D01*
X7500000D02*
Y7609370D01*
Y7530630D02*
Y7570000D01*
X7410630D02*
X7450000D01*
X7489370D01*
X7450000D02*
Y7609370D01*
Y7530630D02*
Y7570000D01*
X7360630D02*
X7400000D01*
X7439370D01*
X7400000D02*
Y7609370D01*
Y7530630D02*
Y7570000D01*
X7310630D02*
X7350000D01*
X7389370D01*
X7350000D02*
Y7609370D01*
Y7530630D02*
Y7570000D01*
X7260630D02*
X7300000D01*
X7339370D01*
X7300000D02*
Y7609370D01*
Y7530630D02*
Y7570000D01*
X7210630D02*
X7250000D01*
X7289370D01*
X7250000D02*
Y7609370D01*
Y7530630D02*
Y7570000D01*
X7160630D02*
X7200000D01*
X7239370D01*
X7200000D02*
Y7609370D01*
Y7530630D02*
Y7570000D01*
X7110630D02*
X7150000D01*
X7189370D01*
X7150000D02*
Y7609370D01*
Y7530630D02*
Y7570000D01*
X7060630D02*
X7100000D01*
X7139370D01*
X7100000D02*
Y7609370D01*
Y7530630D02*
Y7570000D01*
X7010630D02*
X7050000D01*
X7089370D01*
X7050000D02*
Y7609370D01*
Y7530630D02*
Y7570000D01*
X7460630Y7620000D02*
X7500000D01*
X7539370D01*
X7500000D02*
Y7659370D01*
Y7580630D02*
Y7620000D01*
X7410630D02*
X7450000D01*
X7489370D01*
X7450000D02*
Y7659370D01*
Y7580630D02*
Y7620000D01*
X7360630D02*
X7400000D01*
X7439370D01*
X7400000D02*
Y7659370D01*
Y7580630D02*
Y7620000D01*
X7310630D02*
X7350000D01*
X7389370D01*
X7350000D02*
Y7659370D01*
Y7580630D02*
Y7620000D01*
X7260630D02*
X7300000D01*
X7339370D01*
X7300000D02*
Y7659370D01*
Y7580630D02*
Y7620000D01*
X7210630D02*
X7250000D01*
X7289370D01*
X7250000D02*
Y7659370D01*
Y7580630D02*
Y7620000D01*
X7160630D02*
X7200000D01*
X7239370D01*
X7200000D02*
Y7659370D01*
Y7580630D02*
Y7620000D01*
X7110630D02*
X7150000D01*
X7189370D01*
X7150000D02*
Y7659370D01*
Y7580630D02*
Y7620000D01*
X7060630D02*
X7100000D01*
X7139370D01*
X7100000D02*
Y7659370D01*
Y7580630D02*
Y7620000D01*
X7010630D02*
X7050000D01*
X7089370D01*
X7050000D02*
Y7659370D01*
Y7580630D02*
Y7620000D01*
X7460630Y7670000D02*
X7500000D01*
X7539370D01*
X7500000D02*
Y7709370D01*
Y7630630D02*
Y7670000D01*
X7410630D02*
X7450000D01*
X7489370D01*
X7450000D02*
Y7709370D01*
Y7630630D02*
Y7670000D01*
X7360630D02*
X7400000D01*
X7439370D01*
X7400000D02*
Y7709370D01*
Y7630630D02*
Y7670000D01*
X7310630D02*
X7350000D01*
X7389370D01*
X7350000D02*
Y7709370D01*
Y7630630D02*
Y7670000D01*
X7260630D02*
X7300000D01*
X7339370D01*
X7300000D02*
Y7709370D01*
Y7630630D02*
Y7670000D01*
X7210630D02*
X7250000D01*
X7289370D01*
X7250000D02*
Y7709370D01*
Y7630630D02*
Y7670000D01*
X7160630D02*
X7200000D01*
X7239370D01*
X7200000D02*
Y7709370D01*
Y7630630D02*
Y7670000D01*
X7110630D02*
X7150000D01*
X7189370D01*
X7150000D02*
Y7709370D01*
Y7630630D02*
Y7670000D01*
X7060630D02*
X7100000D01*
X7139370D01*
X7100000D02*
Y7709370D01*
Y7630630D02*
Y7670000D01*
X7010630D02*
X7050000D01*
X7089370D01*
X7050000D02*
Y7709370D01*
Y7630630D02*
Y7670000D01*
X7460630Y7720000D02*
X7500000D01*
X7539370D01*
X7500000D02*
Y7759370D01*
Y7680630D02*
Y7720000D01*
X7410630D02*
X7450000D01*
X7489370D01*
X7450000D02*
Y7759370D01*
Y7680630D02*
Y7720000D01*
X7360630D02*
X7400000D01*
X7439370D01*
X7400000D02*
Y7759370D01*
Y7680630D02*
Y7720000D01*
X7310630D02*
X7350000D01*
X7389370D01*
X7350000D02*
Y7759370D01*
Y7680630D02*
Y7720000D01*
X7260630D02*
X7300000D01*
X7339370D01*
X7300000D02*
Y7759370D01*
Y7680630D02*
Y7720000D01*
X7210630D02*
X7250000D01*
X7289370D01*
X7250000D02*
Y7759370D01*
Y7680630D02*
Y7720000D01*
X7160630D02*
X7200000D01*
X7239370D01*
X7200000D02*
Y7759370D01*
Y7680630D02*
Y7720000D01*
X7110630D02*
X7150000D01*
X7189370D01*
X7150000D02*
Y7759370D01*
Y7680630D02*
Y7720000D01*
X7060630D02*
X7100000D01*
X7139370D01*
X7100000D02*
Y7759370D01*
Y7680630D02*
Y7720000D01*
X7010630D02*
X7050000D01*
X7089370D01*
X7050000D02*
Y7759370D01*
Y7680630D02*
Y7720000D01*
X7460630Y7770000D02*
X7500000D01*
X7539370D01*
X7500000D02*
Y7809370D01*
Y7730630D02*
Y7770000D01*
X7410630D02*
X7450000D01*
X7489370D01*
X7450000D02*
Y7809370D01*
Y7730630D02*
Y7770000D01*
X7360630D02*
X7400000D01*
X7439370D01*
X7400000D02*
Y7809370D01*
Y7730630D02*
Y7770000D01*
X7310630D02*
X7350000D01*
X7389370D01*
X7350000D02*
Y7809370D01*
Y7730630D02*
Y7770000D01*
X7260630D02*
X7300000D01*
X7339370D01*
X7300000D02*
Y7809370D01*
Y7730630D02*
Y7770000D01*
X7210630D02*
X7250000D01*
X7289370D01*
X7250000D02*
Y7809370D01*
Y7730630D02*
Y7770000D01*
X7160630D02*
X7200000D01*
X7239370D01*
X7200000D02*
Y7809370D01*
Y7730630D02*
Y7770000D01*
X7110630D02*
X7150000D01*
X7189370D01*
X7150000D02*
Y7809370D01*
Y7730630D02*
Y7770000D01*
X7060630D02*
X7100000D01*
X7139370D01*
X7100000D02*
Y7809370D01*
Y7730630D02*
Y7770000D01*
X7010630D02*
X7050000D01*
X7089370D01*
X7050000D02*
Y7809370D01*
Y7730630D02*
Y7770000D01*
X7460630Y7820000D02*
X7500000D01*
X7539370D01*
X7500000D02*
Y7859370D01*
Y7780630D02*
Y7820000D01*
X7410630D02*
X7450000D01*
X7489370D01*
X7450000D02*
Y7859370D01*
Y7780630D02*
Y7820000D01*
X7360630D02*
X7400000D01*
X7439370D01*
X7400000D02*
Y7859370D01*
Y7780630D02*
Y7820000D01*
X7310630D02*
X7350000D01*
X7389370D01*
X7350000D02*
Y7859370D01*
Y7780630D02*
Y7820000D01*
X7260630D02*
X7300000D01*
X7339370D01*
X7300000D02*
Y7859370D01*
Y7780630D02*
Y7820000D01*
X7210630D02*
X7250000D01*
X7289370D01*
X7250000D02*
Y7859370D01*
Y7780630D02*
Y7820000D01*
X7160630D02*
X7200000D01*
X7239370D01*
X7200000D02*
Y7859370D01*
Y7780630D02*
Y7820000D01*
X7110630D02*
X7150000D01*
X7189370D01*
X7150000D02*
Y7859370D01*
Y7780630D02*
Y7820000D01*
X7060630D02*
X7100000D01*
X7139370D01*
X7100000D02*
Y7859370D01*
Y7780630D02*
Y7820000D01*
X7010630D02*
X7050000D01*
X7089370D01*
X7050000D02*
Y7859370D01*
Y7780630D02*
Y7820000D01*
X7460630Y7870000D02*
X7500000D01*
X7539370D01*
X7500000D02*
Y7909370D01*
Y7830630D02*
Y7870000D01*
X7410630D02*
X7450000D01*
X7489370D01*
X7450000D02*
Y7909370D01*
Y7830630D02*
Y7870000D01*
X7360630D02*
X7400000D01*
X7439370D01*
X7400000D02*
Y7909370D01*
Y7830630D02*
Y7870000D01*
X7310630D02*
X7350000D01*
X7389370D01*
X7350000D02*
Y7909370D01*
Y7830630D02*
Y7870000D01*
X7260630D02*
X7300000D01*
X7339370D01*
X7300000D02*
Y7909370D01*
Y7830630D02*
Y7870000D01*
X7210630D02*
X7250000D01*
X7289370D01*
X7250000D02*
Y7909370D01*
Y7830630D02*
Y7870000D01*
X7160630D02*
X7200000D01*
X7239370D01*
X7200000D02*
Y7909370D01*
Y7830630D02*
Y7870000D01*
X7110630D02*
X7150000D01*
X7189370D01*
X7150000D02*
Y7909370D01*
Y7830630D02*
Y7870000D01*
X7060630D02*
X7100000D01*
X7139370D01*
X7100000D02*
Y7909370D01*
Y7830630D02*
Y7870000D01*
X7010630D02*
X7050000D01*
X7089370D01*
X7050000D02*
Y7909370D01*
Y7830630D02*
Y7870000D01*
X7275000Y6844999D02*
Y6884370D01*
X7235630Y6894999D02*
X7275000D01*
X7314370D01*
X7275000D02*
Y6934370D01*
Y6855629D02*
Y6894999D01*
X7225000D02*
X7264370D01*
X7235630Y7965500D02*
X7275000D01*
X7314370D01*
X7275000D02*
Y8004870D01*
Y7926130D02*
Y7965500D01*
X7355630Y5824499D02*
X7395000D01*
X7434370D01*
X7395000D02*
Y5863869D01*
Y5785129D02*
Y5824499D01*
%TF.MD5,23C1A169C7A03424724CD456991971D9*%
M02*
