G04 Layer_Color=255*
%FSLAX26Y26*%
%MOIN*%
%TF.FileFunction,Pads,Bot*%
%TF.Part,Single*%
G01*
G75*
%TA.AperFunction,SMDPad,CuDef*%
G04:AMPARAMS|DCode=12|XSize=20mil|YSize=20mil|CornerRadius=6mil|HoleSize=0mil|Usage=FLASHONLY|Rotation=90.000|XOffset=0mil|YOffset=0mil|HoleType=Round|Shape=RoundedRectangle|*
%AMROUNDEDRECTD12*
21,1,0.020000,0.008000,0,0,90.0*
21,1,0.008000,0.020000,0,0,90.0*
1,1,0.012000,0.004000,0.004000*
1,1,0.012000,0.004000,-0.004000*
1,1,0.012000,-0.004000,-0.004000*
1,1,0.012000,-0.004000,0.004000*
%
%ADD12ROUNDEDRECTD12*%
G04:AMPARAMS|DCode=13|XSize=20mil|YSize=20mil|CornerRadius=6mil|HoleSize=0mil|Usage=FLASHONLY|Rotation=180.000|XOffset=0mil|YOffset=0mil|HoleType=Round|Shape=RoundedRectangle|*
%AMROUNDEDRECTD13*
21,1,0.020000,0.008000,0,0,180.0*
21,1,0.008000,0.020000,0,0,180.0*
1,1,0.012000,-0.004000,0.004000*
1,1,0.012000,0.004000,0.004000*
1,1,0.012000,0.004000,-0.004000*
1,1,0.012000,-0.004000,-0.004000*
%
%ADD13ROUNDEDRECTD13*%
G04:AMPARAMS|DCode=17|XSize=35mil|YSize=34mil|CornerRadius=9.01mil|HoleSize=0mil|Usage=FLASHONLY|Rotation=90.000|XOffset=0mil|YOffset=0mil|HoleType=Round|Shape=RoundedRectangle|*
%AMROUNDEDRECTD17*
21,1,0.035000,0.015980,0,0,90.0*
21,1,0.016980,0.034000,0,0,90.0*
1,1,0.018020,0.007990,0.008490*
1,1,0.018020,0.007990,-0.008490*
1,1,0.018020,-0.007990,-0.008490*
1,1,0.018020,-0.007990,0.008490*
%
%ADD17ROUNDEDRECTD17*%
G04:AMPARAMS|DCode=21|XSize=35mil|YSize=34mil|CornerRadius=5.95mil|HoleSize=0mil|Usage=FLASHONLY|Rotation=90.000|XOffset=0mil|YOffset=0mil|HoleType=Round|Shape=RoundedRectangle|*
%AMROUNDEDRECTD21*
21,1,0.035000,0.022100,0,0,90.0*
21,1,0.023100,0.034000,0,0,90.0*
1,1,0.011900,0.011050,0.011550*
1,1,0.011900,0.011050,-0.011550*
1,1,0.011900,-0.011050,-0.011550*
1,1,0.011900,-0.011050,0.011550*
%
%ADD21ROUNDEDRECTD21*%
G04:AMPARAMS|DCode=23|XSize=55mil|YSize=43mil|CornerRadius=7.955mil|HoleSize=0mil|Usage=FLASHONLY|Rotation=90.000|XOffset=0mil|YOffset=0mil|HoleType=Round|Shape=RoundedRectangle|*
%AMROUNDEDRECTD23*
21,1,0.055000,0.027090,0,0,90.0*
21,1,0.039090,0.043000,0,0,90.0*
1,1,0.015910,0.013545,0.019545*
1,1,0.015910,0.013545,-0.019545*
1,1,0.015910,-0.013545,-0.019545*
1,1,0.015910,-0.013545,0.019545*
%
%ADD23ROUNDEDRECTD23*%
G04:AMPARAMS|DCode=24|XSize=35mil|YSize=34mil|CornerRadius=5.95mil|HoleSize=0mil|Usage=FLASHONLY|Rotation=0.000|XOffset=0mil|YOffset=0mil|HoleType=Round|Shape=RoundedRectangle|*
%AMROUNDEDRECTD24*
21,1,0.035000,0.022100,0,0,0.0*
21,1,0.023100,0.034000,0,0,0.0*
1,1,0.011900,0.011550,-0.011050*
1,1,0.011900,-0.011550,-0.011050*
1,1,0.011900,-0.011550,0.011050*
1,1,0.011900,0.011550,0.011050*
%
%ADD24ROUNDEDRECTD24*%
G04:AMPARAMS|DCode=32|XSize=55mil|YSize=43mil|CornerRadius=7.955mil|HoleSize=0mil|Usage=FLASHONLY|Rotation=180.000|XOffset=0mil|YOffset=0mil|HoleType=Round|Shape=RoundedRectangle|*
%AMROUNDEDRECTD32*
21,1,0.055000,0.027090,0,0,180.0*
21,1,0.039090,0.043000,0,0,180.0*
1,1,0.015910,-0.019545,0.013545*
1,1,0.015910,0.019545,0.013545*
1,1,0.015910,0.019545,-0.013545*
1,1,0.015910,-0.019545,-0.013545*
%
%ADD32ROUNDEDRECTD32*%
%ADD40C,0.039370*%
%TA.AperFunction,ComponentPad*%
%ADD41C,0.080000*%
%ADD42C,0.150000*%
%ADD43C,0.086614*%
%ADD44C,0.039370*%
%TA.AperFunction,SMDPad,CuDef*%
G04:AMPARAMS|DCode=56|XSize=173.228mil|YSize=98.425mil|CornerRadius=24.606mil|HoleSize=0mil|Usage=FLASHONLY|Rotation=90.000|XOffset=0mil|YOffset=0mil|HoleType=Round|Shape=RoundedRectangle|*
%AMROUNDEDRECTD56*
21,1,0.173228,0.049213,0,0,90.0*
21,1,0.124016,0.098425,0,0,90.0*
1,1,0.049213,0.024606,0.062008*
1,1,0.049213,0.024606,-0.062008*
1,1,0.049213,-0.024606,-0.062008*
1,1,0.049213,-0.024606,0.062008*
%
%ADD56ROUNDEDRECTD56*%
%ADD57O,0.037000X0.084000*%
%ADD58O,0.128000X0.085000*%
%ADD59R,0.087008X0.092520*%
%ADD60R,0.275000X0.425000*%
%ADD61O,0.085000X0.042000*%
G04:AMPARAMS|DCode=62|XSize=173.228mil|YSize=98.425mil|CornerRadius=24.606mil|HoleSize=0mil|Usage=FLASHONLY|Rotation=180.000|XOffset=0mil|YOffset=0mil|HoleType=Round|Shape=RoundedRectangle|*
%AMROUNDEDRECTD62*
21,1,0.173228,0.049213,0,0,180.0*
21,1,0.124016,0.098425,0,0,180.0*
1,1,0.049213,-0.062008,0.024606*
1,1,0.049213,0.062008,0.024606*
1,1,0.049213,0.062008,-0.024606*
1,1,0.049213,-0.062008,-0.024606*
%
%ADD62ROUNDEDRECTD62*%
D12*
X5506696Y7192000D02*
D03*
X5541696D02*
D03*
X5470000Y8005000D02*
D03*
X5435000D02*
D03*
X5545000D02*
D03*
X5510000D02*
D03*
X5604500Y7194000D02*
D03*
X5639500D02*
D03*
D13*
X6826000Y7265500D02*
D03*
Y7300500D02*
D03*
Y7343500D02*
D03*
Y7378500D02*
D03*
D17*
X5290000Y7685000D02*
D03*
Y7744000D02*
D03*
X5295000Y7299000D02*
D03*
Y7240000D02*
D03*
D21*
X5729000Y7460000D02*
D03*
Y7519000D02*
D03*
X6840000Y7214500D02*
D03*
Y7155500D02*
D03*
D23*
X5442500Y8078000D02*
D03*
X5509500D02*
D03*
X5485000Y7135158D02*
D03*
X5552000D02*
D03*
D24*
X5595500Y8095000D02*
D03*
X5654500D02*
D03*
X5595500Y8020000D02*
D03*
X5654500D02*
D03*
X5199500Y7700000D02*
D03*
X5140500D02*
D03*
X5200000Y7630000D02*
D03*
X5141000D02*
D03*
X5137500Y7309000D02*
D03*
X5196500D02*
D03*
X5154386Y7240000D02*
D03*
X5213386D02*
D03*
D32*
X5375000Y7753500D02*
D03*
Y7686500D02*
D03*
X5811000Y7453000D02*
D03*
Y7520000D02*
D03*
X5375000Y7231500D02*
D03*
Y7298500D02*
D03*
X5732000Y6304000D02*
D03*
Y6237000D02*
D03*
X6930000Y7221000D02*
D03*
Y7154000D02*
D03*
D40*
X5305000Y8075000D02*
D03*
X5340000Y5725000D02*
D03*
X7685000Y8185000D02*
D03*
X5305000Y8075000D02*
D03*
X7685000Y8185000D02*
D03*
X5340000Y5725000D02*
D03*
D41*
X6855000Y8166221D02*
D03*
Y7916221D02*
D03*
Y7791221D02*
D03*
X6230000D02*
D03*
Y8166221D02*
D03*
X7275000Y7965000D02*
D03*
X7390000Y5820000D02*
D03*
X6292028Y6062190D02*
D03*
Y5812190D02*
D03*
Y5687190D02*
D03*
X6917028D02*
D03*
Y6062190D02*
D03*
D42*
X5175000Y7960000D02*
D03*
X7315000Y8130000D02*
D03*
Y5660000D02*
D03*
X5175000Y5750000D02*
D03*
D43*
X4940500Y7185000D02*
D03*
X5040500Y7085000D02*
D03*
X4840500D02*
D03*
Y7285000D02*
D03*
X5040500D02*
D03*
X4940500Y7730000D02*
D03*
X5040500Y7630000D02*
D03*
X4840500D02*
D03*
Y7830000D02*
D03*
X5040500D02*
D03*
X4940000Y6025000D02*
D03*
X5040000Y5925000D02*
D03*
X4840000D02*
D03*
Y6125000D02*
D03*
X5040000D02*
D03*
X4940500Y6600000D02*
D03*
X5040500Y6500000D02*
D03*
X4840500D02*
D03*
Y6700000D02*
D03*
X5040500D02*
D03*
D44*
X7395000Y5824499D02*
D03*
X7275000Y7965500D02*
D03*
D56*
X5935000Y7809291D02*
D03*
Y8140000D02*
D03*
X6648000Y6453011D02*
D03*
Y6783720D02*
D03*
D57*
X5470000Y7915000D02*
D03*
X5560000D02*
D03*
X5650000D02*
D03*
X5645000Y7295000D02*
D03*
X5555000D02*
D03*
X5465000D02*
D03*
D58*
X5560000Y7690000D02*
D03*
X5555000Y7520000D02*
D03*
D59*
X6585386Y6966000D02*
D03*
X6708614D02*
D03*
X6742000Y7512000D02*
D03*
X6865228D02*
D03*
D60*
X6306000Y7280000D02*
D03*
D61*
X6726000Y7180000D02*
D03*
Y7280000D02*
D03*
Y7380000D02*
D03*
D62*
X6137709Y5926000D02*
D03*
X5807000D02*
D03*
%TF.MD5,8A4A8586D69C0B88BDF66CBAECA5EAAA*%
M02*
