G04 Layer_Color=16711935*
%FSLAX25Y25*%
%MOIN*%
G70*
G01*
G75*
%ADD107C,0.00394*%
%ADD108C,0.00197*%
D107*
X506156Y718500D02*
G03*
X506156Y718500I-12106J0D01*
G01*
X496550D02*
G03*
X496550Y718500I-2500J0D01*
G01*
X482634Y731000D02*
G03*
X481551Y729916I11416J-12500D01*
G01*
X481550Y707084D02*
G03*
X482634Y706001I12500J11416D01*
G01*
X505466Y706000D02*
G03*
X506549Y707084I-11416J12500D01*
G01*
X506550Y729916D02*
G03*
X505466Y730999I-12500J-11416D01*
G01*
X505664Y718500D02*
G03*
X505664Y718500I-11614J0D01*
G01*
X502121D02*
G03*
X502121Y718500I-8071J0D01*
G01*
X506156Y773000D02*
G03*
X506156Y773000I-12106J0D01*
G01*
X496550D02*
G03*
X496550Y773000I-2500J0D01*
G01*
X482634Y785500D02*
G03*
X481551Y784416I11416J-12500D01*
G01*
X481550Y761584D02*
G03*
X482634Y760501I12500J11416D01*
G01*
X505466Y760500D02*
G03*
X506549Y761584I-11416J12500D01*
G01*
X506550Y784416D02*
G03*
X505466Y785499I-12500J-11416D01*
G01*
X505664Y773000D02*
G03*
X505664Y773000I-11614J0D01*
G01*
X502121D02*
G03*
X502121Y773000I-8071J0D01*
G01*
X516713Y742744D02*
G03*
X516713Y742744I-1969J0D01*
G01*
X595205Y704067D02*
G03*
X595205Y704067I-1969J0D01*
G01*
X536459Y634602D02*
G03*
X536459Y634602I-1969J0D01*
G01*
X618537Y643168D02*
G03*
X618537Y643168I-1969J0D01*
G01*
X506106Y602500D02*
G03*
X506106Y602500I-12106J0D01*
G01*
X496500D02*
G03*
X496500Y602500I-2500J0D01*
G01*
X482584Y615000D02*
G03*
X481501Y613916I11416J-12500D01*
G01*
X481500Y591084D02*
G03*
X482584Y590001I12500J11416D01*
G01*
X505416Y590000D02*
G03*
X506499Y591084I-11416J12500D01*
G01*
X506500Y613916D02*
G03*
X505416Y614999I-12500J-11416D01*
G01*
X505614Y602500D02*
G03*
X505614Y602500I-11614J0D01*
G01*
X502071D02*
G03*
X502071Y602500I-8071J0D01*
G01*
X506156Y660000D02*
G03*
X506156Y660000I-12106J0D01*
G01*
X496550D02*
G03*
X496550Y660000I-2500J0D01*
G01*
X482634Y672500D02*
G03*
X481551Y671416I11416J-12500D01*
G01*
X481550Y648584D02*
G03*
X482634Y647501I12500J11416D01*
G01*
X505466Y647500D02*
G03*
X506549Y648584I-11416J12500D01*
G01*
X506550Y671416D02*
G03*
X505466Y672499I-12500J-11416D01*
G01*
X505664Y660000D02*
G03*
X505664Y660000I-11614J0D01*
G01*
X502121D02*
G03*
X502121Y660000I-8071J0D01*
G01*
X502081Y706531D02*
X506018D01*
Y710468D01*
X502081D02*
X506018D01*
X502081Y706531D02*
Y710468D01*
Y726532D02*
X506018D01*
X502081D02*
Y730469D01*
X506018D01*
Y726532D02*
Y730469D01*
X486019Y726532D02*
Y730469D01*
X482082Y726532D02*
X486019D01*
X482082D02*
Y730469D01*
X486019D01*
X482082Y710468D02*
X486019D01*
Y706531D02*
Y710468D01*
X482082Y706531D02*
X486019D01*
X482082D02*
Y710468D01*
X481550Y707063D02*
Y729915D01*
X482613Y706000D02*
X505465D01*
X482635Y731000D02*
X505466D01*
X506550Y707085D02*
Y729916D01*
X481157Y729917D02*
X481550Y729915D01*
X480173Y728933D02*
X481157Y729917D01*
X466394Y728933D02*
X480173D01*
X464327Y731000D02*
X466394Y728933D01*
X453500Y731000D02*
X464327D01*
X451433Y728933D02*
X453500Y731000D01*
X448480Y728933D02*
X451433D01*
X448284Y728736D02*
X448480Y728933D01*
X448284Y727850D02*
Y728736D01*
Y708264D02*
Y709150D01*
Y708264D02*
X448480Y708067D01*
X451433D01*
X453500Y706000D01*
X464327D01*
X466394Y708067D01*
X480173D01*
X481157Y707083D01*
X481550Y707085D01*
X448284Y709150D02*
Y727850D01*
X451433Y708067D02*
Y728933D01*
X453500Y706000D02*
Y731000D01*
X464327Y706000D02*
Y731000D01*
X466394Y708067D02*
Y728933D01*
X480173Y708067D02*
Y728933D01*
X502081Y761031D02*
X506018D01*
Y764968D01*
X502081D02*
X506018D01*
X502081Y761031D02*
Y764968D01*
Y781032D02*
X506018D01*
X502081D02*
Y784969D01*
X506018D01*
Y781032D02*
Y784969D01*
X486019Y781032D02*
Y784969D01*
X482082Y781032D02*
X486019D01*
X482082D02*
Y784969D01*
X486019D01*
X482082Y764968D02*
X486019D01*
Y761031D02*
Y764968D01*
X482082Y761031D02*
X486019D01*
X482082D02*
Y764968D01*
X481550Y761563D02*
Y784415D01*
X482613Y760500D02*
X505465D01*
X482635Y785500D02*
X505466D01*
X506550Y761585D02*
Y784415D01*
X481157Y784417D02*
X481550Y784415D01*
X480173Y783433D02*
X481157Y784417D01*
X466394Y783433D02*
X480173D01*
X464327Y785500D02*
X466394Y783433D01*
X453500Y785500D02*
X464327D01*
X451433Y783433D02*
X453500Y785500D01*
X448480Y783433D02*
X451433D01*
X448284Y783236D02*
X448480Y783433D01*
X448284Y782350D02*
Y783236D01*
Y762764D02*
Y763650D01*
Y762764D02*
X448480Y762567D01*
X451433D01*
X453500Y760500D01*
X464327D01*
X466394Y762567D01*
X480173D01*
X481157Y761583D01*
X481550Y761585D01*
X448284Y763650D02*
Y782350D01*
X451433Y762567D02*
Y783433D01*
X453500Y760500D02*
Y785500D01*
X464327Y760500D02*
Y785500D01*
X466394Y762567D02*
Y783433D01*
X480173Y762567D02*
Y783433D01*
X523799Y739201D02*
Y751799D01*
X511201Y739201D02*
Y751799D01*
X523799D01*
X511201Y739201D02*
X523799D01*
X534342Y721311D02*
X536902D01*
X534342Y722689D02*
X536902D01*
Y721311D02*
Y722689D01*
X534342Y721311D02*
Y722689D01*
Y719189D02*
X536902D01*
X534342Y717811D02*
X536902D01*
X534342D02*
Y719189D01*
X536902Y717811D02*
Y719189D01*
X535720Y768311D02*
Y769689D01*
X538279Y768311D02*
Y769689D01*
X535720D02*
X538279D01*
X535720Y768311D02*
X538279D01*
Y771811D02*
Y773189D01*
X535720Y771811D02*
Y773189D01*
Y771811D02*
X538279D01*
X535720Y773189D02*
X538279D01*
X617646Y700524D02*
Y728476D01*
X589693Y700524D02*
Y728476D01*
X617646D01*
X589693Y700524D02*
X617646D01*
X560867Y617419D02*
X565198D01*
X560867Y619781D02*
X565198D01*
Y617419D02*
Y619781D01*
X560867Y617419D02*
Y619781D01*
X560735Y612920D02*
X565065D01*
X560735Y610558D02*
X565065D01*
X560735D02*
Y612920D01*
X565065Y610558D02*
Y612920D01*
X530947Y622397D02*
Y638145D01*
X546695Y622397D02*
Y638145D01*
X530947D02*
X546695D01*
X530947Y622397D02*
X546695D01*
X560935Y646019D02*
X565265D01*
X560935Y648381D02*
X565265D01*
Y646019D02*
Y648381D01*
X560935Y646019D02*
Y648381D01*
X561035Y641881D02*
X565365D01*
X561035Y639519D02*
X565365D01*
X561035D02*
Y641881D01*
X565365Y639519D02*
Y641881D01*
X584088Y610688D02*
Y646712D01*
X620112Y610688D02*
Y646712D01*
X584088Y610688D02*
X620112D01*
X584088Y646712D02*
X620112D01*
X502032Y590531D02*
X505969D01*
Y594468D01*
X502032D02*
X505969D01*
X502032Y590531D02*
Y594468D01*
Y610532D02*
X505969D01*
X502032D02*
Y614468D01*
X505969D01*
Y610532D02*
Y614468D01*
X485968Y610532D02*
Y614468D01*
X482031Y610532D02*
X485968D01*
X482031D02*
Y614468D01*
X485968D01*
X482031Y594468D02*
X485968D01*
Y590531D02*
Y594468D01*
X482031Y590531D02*
X485968D01*
X482031D02*
Y594468D01*
X481500Y591063D02*
Y613915D01*
X482563Y590000D02*
X505415D01*
X482585Y615000D02*
X505415D01*
X506500Y591085D02*
Y613915D01*
X481108Y613917D02*
X481500Y613915D01*
X480123Y612933D02*
X481108Y613917D01*
X466344Y612933D02*
X480123D01*
X464277Y615000D02*
X466344Y612933D01*
X453450Y615000D02*
X464277D01*
X451383Y612933D02*
X453450Y615000D01*
X448430Y612933D02*
X451383D01*
X448234Y612736D02*
X448430Y612933D01*
X448234Y611850D02*
Y612736D01*
Y592264D02*
Y593150D01*
Y592264D02*
X448430Y592067D01*
X451383D01*
X453450Y590000D01*
X464277D01*
X466344Y592067D01*
X480123D01*
X481108Y591083D01*
X481500Y591085D01*
X448234Y593150D02*
Y611850D01*
X451383Y592067D02*
Y612933D01*
X453450Y590000D02*
Y615000D01*
X464277Y590000D02*
Y615000D01*
X466344Y592067D02*
Y612933D01*
X480123Y592067D02*
Y612933D01*
X502081Y648032D02*
X506018D01*
Y651968D01*
X502081D02*
X506018D01*
X502081Y648032D02*
Y651968D01*
Y668032D02*
X506018D01*
X502081D02*
Y671969D01*
X506018D01*
Y668032D02*
Y671969D01*
X486019Y668032D02*
Y671969D01*
X482082Y668032D02*
X486019D01*
X482082D02*
Y671969D01*
X486019D01*
X482082Y651968D02*
X486019D01*
Y648032D02*
Y651968D01*
X482082Y648032D02*
X486019D01*
X482082D02*
Y651968D01*
X481550Y648563D02*
Y671415D01*
X482613Y647500D02*
X505465D01*
X482635Y672500D02*
X505466D01*
X506550Y648585D02*
Y671416D01*
X481157Y671417D02*
X481550Y671415D01*
X480173Y670433D02*
X481157Y671417D01*
X466394Y670433D02*
X480173D01*
X464327Y672500D02*
X466394Y670433D01*
X453500Y672500D02*
X464327D01*
X451433Y670433D02*
X453500Y672500D01*
X448480Y670433D02*
X451433D01*
X448284Y670236D02*
X448480Y670433D01*
X448284Y669350D02*
Y670236D01*
Y649764D02*
Y650650D01*
Y649764D02*
X448480Y649567D01*
X451433D01*
X453500Y647500D01*
X464327D01*
X466394Y649567D01*
X480173D01*
X481157Y648583D01*
X481550Y648585D01*
X448284Y650650D02*
Y669350D01*
X451433Y649567D02*
Y670433D01*
X453500Y647500D02*
Y672500D01*
X464327Y647500D02*
Y672500D01*
X466394Y649567D02*
Y670433D01*
X480173Y649567D02*
Y670433D01*
D108*
X481157Y707083D02*
Y729917D01*
Y761583D02*
Y784417D01*
X481108Y591083D02*
Y613917D01*
X481157Y648583D02*
Y671417D01*
M02*
