G04 Layer_Physical_Order=5*
G04 Layer_Color=8388736*
%FSLAX26Y26*%
%MOIN*%
%TF.FileFunction,Copper,L5,Inr,Plane*%
%TF.Part,Single*%
G01*
G75*
%TA.AperFunction,ComponentPad*%
%ADD42C,0.150000*%
%TA.AperFunction,NonConductor*%
%ADD47C,0.040000*%
%TA.AperFunction,ComponentPad*%
%ADD48C,0.095000*%
%ADD49C,0.104961*%
%ADD50C,0.091000*%
%ADD51C,0.091181*%
%TA.AperFunction,ViaPad*%
%ADD52C,0.050000*%
%ADD53C,0.047874*%
D42*
X5175000Y7960000D02*
D03*
X7315000Y8130000D02*
D03*
Y5660000D02*
D03*
X5175000Y5750000D02*
D03*
D47*
X4740000Y5650000D02*
Y8050000D01*
X5190000D01*
Y8135000D01*
X5615000D01*
Y8250000D01*
X7750000D01*
Y5535000D02*
Y8250000D01*
X5805000Y5535000D02*
X7750000D01*
X5805000D02*
Y5650000D01*
X4740000D02*
X5805000D01*
D48*
X6855000Y8166221D02*
D03*
Y7916221D02*
D03*
Y7791221D02*
D03*
X6230000D02*
D03*
Y8166221D02*
D03*
X6292028Y6062190D02*
D03*
Y5812190D02*
D03*
Y5687190D02*
D03*
X6917028D02*
D03*
Y6062190D02*
D03*
D49*
X4940500Y7185000D02*
D03*
X5040500Y7085000D02*
D03*
X4840500D02*
D03*
Y7285000D02*
D03*
X5040500D02*
D03*
X4940500Y7730000D02*
D03*
X5040500Y7630000D02*
D03*
X4840500D02*
D03*
Y7830000D02*
D03*
X5040500D02*
D03*
X4940000Y6025000D02*
D03*
X5040000Y5925000D02*
D03*
X4840000D02*
D03*
Y6125000D02*
D03*
X5040000D02*
D03*
X4940500Y6600000D02*
D03*
X5040500Y6500000D02*
D03*
X4840500D02*
D03*
Y6700000D02*
D03*
X5040500D02*
D03*
D50*
X7275000Y7965000D02*
D03*
X7390000Y5820000D02*
D03*
D51*
X7395000Y5824499D02*
D03*
X7275000Y7965500D02*
D03*
D52*
X7076000Y7601000D02*
D03*
X7176000Y7746000D02*
D03*
X7126000Y7696000D02*
D03*
X7426000Y7646000D02*
D03*
Y7496000D02*
D03*
Y7346000D02*
D03*
X7226000Y7296000D02*
D03*
X7176000D02*
D03*
X7426000Y7196000D02*
D03*
Y7046000D02*
D03*
X7126000D02*
D03*
X7026000D02*
D03*
X7276000Y6946000D02*
D03*
X7076000D02*
D03*
X7026000Y6896000D02*
D03*
X7126000D02*
D03*
X7226000D02*
D03*
X7326000D02*
D03*
X7426000D02*
D03*
X7126000Y6546000D02*
D03*
X7376000Y6696000D02*
D03*
X7326000Y6746000D02*
D03*
X7276000Y6796000D02*
D03*
X7226000Y6846000D02*
D03*
X7176000D02*
D03*
X7026000D02*
D03*
X7426000Y6746000D02*
D03*
X7276000Y6646000D02*
D03*
X7226000D02*
D03*
X7026000D02*
D03*
X7126000Y6596000D02*
D03*
X7076000D02*
D03*
X7176000Y6546000D02*
D03*
X7376000D02*
D03*
X7477000Y6547000D02*
D03*
X7426000Y6446000D02*
D03*
X7326000D02*
D03*
X7276000Y6496000D02*
D03*
X7226000D02*
D03*
Y6446000D02*
D03*
X7126000D02*
D03*
X7076000Y6547000D02*
D03*
X7026000Y6497000D02*
D03*
Y6446000D02*
D03*
X7076000Y6396000D02*
D03*
Y6346000D02*
D03*
X7176000Y6396000D02*
D03*
X7276000D02*
D03*
X7376000D02*
D03*
X7476000D02*
D03*
X7477000Y6247000D02*
D03*
X7426000Y6296000D02*
D03*
X7326000D02*
D03*
X7376000Y6246000D02*
D03*
X7276000D02*
D03*
X7226000Y6296000D02*
D03*
Y6246000D02*
D03*
X7176000D02*
D03*
X7126000Y6296000D02*
D03*
X7026000D02*
D03*
Y6246000D02*
D03*
X7076000Y6196000D02*
D03*
X7226000Y6146000D02*
D03*
X7426000D02*
D03*
X7326000D02*
D03*
X7276000Y5946000D02*
D03*
X7326000Y5996000D02*
D03*
X7276000Y6046000D02*
D03*
X7126000Y6146000D02*
D03*
X7076000D02*
D03*
X7026000Y6096000D02*
D03*
X7426000Y5996000D02*
D03*
X7026000Y6046000D02*
D03*
X7176000Y6096000D02*
D03*
X7226000D02*
D03*
Y6046000D02*
D03*
X7376000Y6096000D02*
D03*
X7476000D02*
D03*
Y5946000D02*
D03*
X7426000D02*
D03*
X7376000D02*
D03*
X7226000Y5996000D02*
D03*
X7126000D02*
D03*
X7076000D02*
D03*
X7026000Y5896000D02*
D03*
X7076000Y5946000D02*
D03*
X7126000Y5896000D02*
D03*
X7176000Y5946000D02*
D03*
X7126000D02*
D03*
X7176000Y5896000D02*
D03*
X7226000D02*
D03*
X7326000D02*
D03*
X7376000D02*
D03*
X7426000D02*
D03*
X7476000D02*
D03*
Y7296000D02*
D03*
X7176000Y6696000D02*
D03*
X7476000D02*
D03*
X7376000Y6846000D02*
D03*
X7476000D02*
D03*
Y6996000D02*
D03*
X7374000Y6998000D02*
D03*
X7176000Y6996000D02*
D03*
X7326000Y7046000D02*
D03*
X7226000D02*
D03*
X7276000Y7246000D02*
D03*
X7326000Y7196000D02*
D03*
X7376000Y7146000D02*
D03*
X7476000D02*
D03*
X7376000Y7296000D02*
D03*
X7126000Y7346000D02*
D03*
X7076000D02*
D03*
Y7396000D02*
D03*
X7376000Y7446000D02*
D03*
X7476000D02*
D03*
X7076000Y7546000D02*
D03*
X7126000Y7646000D02*
D03*
X7176000Y7596000D02*
D03*
X7276000D02*
D03*
X7376000D02*
D03*
X7027000Y7647000D02*
D03*
X7276000Y7746000D02*
D03*
X7326000Y7696000D02*
D03*
X7426000D02*
D03*
X7376000Y7746000D02*
D03*
Y7796000D02*
D03*
X7476000Y7746000D02*
D03*
Y7796000D02*
D03*
X7276000D02*
D03*
X7176000D02*
D03*
X7076000D02*
D03*
X7426000Y7846000D02*
D03*
X7225000Y7847000D02*
D03*
X7126000Y7846000D02*
D03*
X7027000Y7847000D02*
D03*
X7473000Y6493000D02*
D03*
X7125000Y6695000D02*
D03*
X7425000Y6693000D02*
D03*
X7126000Y6647000D02*
D03*
X7479000Y6645000D02*
D03*
X7424000Y6647000D02*
D03*
X7174000Y6744000D02*
D03*
Y6797000D02*
D03*
X7128000Y6847000D02*
D03*
X7326000Y7496000D02*
D03*
X7276000Y7546000D02*
D03*
X7176000Y7446000D02*
D03*
X7026000Y7296000D02*
D03*
X5127000Y5955000D02*
D03*
X5128000Y6531000D02*
D03*
X5456000Y6164000D02*
D03*
X5500000Y6112000D02*
D03*
X5336000Y6092000D02*
D03*
X5363000Y6650000D02*
D03*
X5806000Y6511000D02*
D03*
X5948000Y6037500D02*
D03*
X6007083Y6964862D02*
D03*
X6067636Y6917000D02*
D03*
X5874732Y7001732D02*
D03*
X5855000Y6817000D02*
D03*
X5766000Y6739000D02*
D03*
X5770000Y6144000D02*
D03*
X5162000Y6358000D02*
D03*
X5518000Y6297000D02*
D03*
X5487695Y6159695D02*
D03*
X5517618Y6272000D02*
D03*
X5518000Y6333000D02*
D03*
X5873362Y6666636D02*
D03*
X5799864Y6713000D02*
D03*
X5685000Y6530364D02*
D03*
X6256000Y6506000D02*
D03*
X5808000Y6065000D02*
D03*
X5816775Y6967000D02*
D03*
X5542000Y7025000D02*
D03*
X5627000Y7132000D02*
D03*
X5628315Y7206000D02*
D03*
X6013500Y7397000D02*
D03*
X5874500Y7530000D02*
D03*
X5535000Y7222500D02*
D03*
X7476000Y7596000D02*
D03*
X7326000Y7646000D02*
D03*
X7076000Y6995000D02*
D03*
X7226000Y6696000D02*
D03*
X7026000D02*
D03*
X5562000Y8095000D02*
D03*
X5595500Y8053500D02*
D03*
X5409000Y8078000D02*
D03*
X5401500Y8005000D02*
D03*
X5446364Y7151000D02*
D03*
X5485000Y7101658D02*
D03*
X5120886Y7240000D02*
D03*
X5416000Y7244000D02*
D03*
X5096000Y7536841D02*
D03*
X5240114Y7369000D02*
D03*
X5725000Y7371000D02*
D03*
X5786000Y7402000D02*
D03*
X6042000Y7566000D02*
D03*
X6202000Y7656000D02*
D03*
X6201000Y7583000D02*
D03*
X5919000Y7427000D02*
D03*
X6186513Y7870487D02*
D03*
X6154000Y7697000D02*
D03*
X6052000Y7666000D02*
D03*
X5837000Y7809000D02*
D03*
X5872000Y7443000D02*
D03*
X5375000Y7805000D02*
D03*
X5249000Y7602000D02*
D03*
X5243500Y7313500D02*
D03*
X5751000Y6013000D02*
D03*
X5928425Y7323126D02*
D03*
X6065000Y7324000D02*
D03*
X5861000Y7115472D02*
D03*
Y7174528D02*
D03*
X5848000Y7253000D02*
D03*
X5819000Y7095000D02*
D03*
Y7194000D02*
D03*
X6027000Y7324000D02*
D03*
X5500000Y7610000D02*
D03*
X5662000Y7372000D02*
D03*
X6264000Y6780000D02*
D03*
X5675000Y6756000D02*
D03*
X7226000Y6996000D02*
D03*
X7326000Y6696000D02*
D03*
X7226000Y6796000D02*
D03*
Y6746000D02*
D03*
X7276000Y6896000D02*
D03*
Y6846000D02*
D03*
X7326000Y6946000D02*
D03*
Y6996000D02*
D03*
X7476000Y7696000D02*
D03*
X7076000Y7146000D02*
D03*
X7226000Y7646000D02*
D03*
Y7696000D02*
D03*
X7026000D02*
D03*
X7276000Y7396000D02*
D03*
X7226000Y7446000D02*
D03*
X6837000Y6310870D02*
D03*
Y6451919D02*
D03*
X6840613Y6483947D02*
D03*
X5941677Y5974000D02*
D03*
X5996500Y6040500D02*
D03*
X6577000Y6456720D02*
D03*
X6810000Y6263000D02*
D03*
X7376000Y6796000D02*
D03*
Y6746000D02*
D03*
X7326000Y6646000D02*
D03*
X7376000D02*
D03*
Y6596000D02*
D03*
X7276000Y7096000D02*
D03*
X7026000D02*
D03*
X7226000Y7246000D02*
D03*
X7376000Y7696000D02*
D03*
X7273000Y7146000D02*
D03*
X7276000Y7196000D02*
D03*
X7176000Y7146000D02*
D03*
X5561000Y6312500D02*
D03*
Y6277500D02*
D03*
X7476000Y7646000D02*
D03*
X7226000Y7196000D02*
D03*
X7223000Y7145000D02*
D03*
X7326000Y7096000D02*
D03*
Y7146000D02*
D03*
X7376000Y7046000D02*
D03*
Y7096000D02*
D03*
X7276000Y7046000D02*
D03*
Y6996000D02*
D03*
X7473000Y6593000D02*
D03*
X7176000D02*
D03*
X7177000Y6647000D02*
D03*
X6528000Y6366000D02*
D03*
X6545207Y6383207D02*
D03*
X6564395Y6407667D02*
D03*
X6500000Y6630000D02*
D03*
X7226000Y6946000D02*
D03*
X7376000Y6896000D02*
D03*
Y6946000D02*
D03*
X7126000Y6746000D02*
D03*
X7076000D02*
D03*
X7077000Y6795000D02*
D03*
X6088000Y6503000D02*
D03*
X5801898Y6159047D02*
D03*
X6237000Y6356685D02*
D03*
X5992396Y6560000D02*
D03*
X6071076Y6527972D02*
D03*
X5803213Y6237787D02*
D03*
X5801898Y6434638D02*
D03*
X5773500Y6194000D02*
D03*
X6241000Y6203000D02*
D03*
X6232193Y6391740D02*
D03*
X5921622Y6576000D02*
D03*
X5791000Y6297000D02*
D03*
X6231000Y6138000D02*
D03*
X6259000Y6239000D02*
D03*
X5796000Y6326000D02*
D03*
X5929000Y6066000D02*
D03*
X6127000Y6504000D02*
D03*
X6050528Y6057268D02*
D03*
X6257787Y6296842D02*
D03*
X5990000Y6593000D02*
D03*
X6149939Y6071000D02*
D03*
X5796000Y6390000D02*
D03*
X5801898Y6355898D02*
D03*
Y6139362D02*
D03*
X6089898Y6057268D02*
D03*
X6237000Y6415740D02*
D03*
X6107000Y6524000D02*
D03*
X6155544Y6512000D02*
D03*
X6254941Y6183000D02*
D03*
X6236000Y6313000D02*
D03*
X6013000Y6540000D02*
D03*
X6070213Y6076458D02*
D03*
X5801898Y6218102D02*
D03*
X6030842Y6573842D02*
D03*
Y6076458D02*
D03*
X6246000Y6159000D02*
D03*
X6052000Y6544000D02*
D03*
X5946000Y6534000D02*
D03*
X5801898Y6414953D02*
D03*
X6109583Y6076458D02*
D03*
X6276000Y6219000D02*
D03*
X6275102Y6277158D02*
D03*
X5947000Y6558334D02*
D03*
X6251394Y6377000D02*
D03*
X6244000Y6258000D02*
D03*
X7226000Y7396000D02*
D03*
X7326000Y7346000D02*
D03*
X7226000Y7096000D02*
D03*
X7026000Y7246000D02*
D03*
X7076000Y7746000D02*
D03*
X6227364Y7533364D02*
D03*
X6784000Y6844000D02*
D03*
X6829000Y6875130D02*
D03*
X7426000Y7746000D02*
D03*
Y7796000D02*
D03*
X7026000Y7446000D02*
D03*
X6779000Y7426000D02*
D03*
X6811000Y7409000D02*
D03*
X6869000Y7385000D02*
D03*
X5957000Y7603000D02*
D03*
X6783000Y6968000D02*
D03*
X6209000Y6541000D02*
D03*
X5618921Y7529000D02*
D03*
X5668000Y7570000D02*
D03*
X5527000Y7464624D02*
D03*
X5539000Y7371000D02*
D03*
X5710500Y8085000D02*
D03*
X5765000Y8152000D02*
D03*
X5812000Y8065000D02*
D03*
X7427000Y6597000D02*
D03*
X6009953Y5978130D02*
D03*
X6710000Y5867000D02*
D03*
X6605000Y5771500D02*
D03*
X6511000Y5771000D02*
D03*
X6694000Y5773000D02*
D03*
X5585000Y6023000D02*
D03*
X5904130Y6035000D02*
D03*
X5886500Y6013000D02*
D03*
X6224402Y6335342D02*
D03*
X6039000Y6630000D02*
D03*
X5692870Y7433000D02*
D03*
X5437000Y7789000D02*
D03*
X5758000Y6370000D02*
D03*
X5761000Y5823000D02*
D03*
X5816846Y7038886D02*
D03*
X6003000Y7328291D02*
D03*
X7376000Y7646000D02*
D03*
X7227000Y7369000D02*
D03*
X7326000Y6597000D02*
D03*
X6015500Y6056844D02*
D03*
X6036000Y6696000D02*
D03*
X6570000Y7370000D02*
D03*
X7326000Y7446000D02*
D03*
X6568787Y7399000D02*
D03*
X7326000Y7396000D02*
D03*
X6559000Y7464000D02*
D03*
X7376000Y7496000D02*
D03*
X6610000Y7483000D02*
D03*
X7376000Y7546000D02*
D03*
X6198051Y7552000D02*
D03*
X7276000Y7446000D02*
D03*
X7326000Y7546000D02*
D03*
Y7596000D02*
D03*
Y7246000D02*
D03*
X6590000Y7346000D02*
D03*
X7326000Y7296000D02*
D03*
X6570000Y7325000D02*
D03*
X6649000Y7688000D02*
D03*
X7326000Y7746000D02*
D03*
X6678033Y7663033D02*
D03*
X7326000Y7796000D02*
D03*
X6417681Y7015000D02*
D03*
X6384000Y7036000D02*
D03*
X7376000Y7396000D02*
D03*
Y7346000D02*
D03*
X6647000Y7304000D02*
D03*
X7276000Y7296000D02*
D03*
X6648000Y7270000D02*
D03*
X7276000Y7346000D02*
D03*
X6650000Y7188000D02*
D03*
X7376000Y7246000D02*
D03*
X6622000Y7170000D02*
D03*
X7376000Y7196000D02*
D03*
X6330000Y7531000D02*
D03*
X6989000Y7528000D02*
D03*
X7026000Y7495000D02*
D03*
X7126000D02*
D03*
X7226000D02*
D03*
X7279000Y7499000D02*
D03*
X6309000Y7548000D02*
D03*
X7326000Y6796000D02*
D03*
Y6846000D02*
D03*
X6130000Y6056000D02*
D03*
X6806000Y5731750D02*
D03*
X6168000Y6032000D02*
D03*
X6406000Y7792000D02*
D03*
D53*
X5749000Y8006000D02*
D03*
X6123307Y7231614D02*
D03*
Y7188307D02*
D03*
Y7145000D02*
D03*
Y7101693D02*
D03*
Y7058386D02*
D03*
X6080000Y7231614D02*
D03*
Y7188307D02*
D03*
Y7145000D02*
D03*
Y7101693D02*
D03*
Y7058386D02*
D03*
X6036693Y7231614D02*
D03*
Y7188307D02*
D03*
Y7145000D02*
D03*
Y7101693D02*
D03*
Y7058386D02*
D03*
X5993386Y7231614D02*
D03*
Y7188307D02*
D03*
Y7145000D02*
D03*
Y7101693D02*
D03*
Y7058386D02*
D03*
X5950079Y7231614D02*
D03*
Y7188307D02*
D03*
Y7145000D02*
D03*
Y7101693D02*
D03*
Y7058386D02*
D03*
X5366559Y6324362D02*
D03*
X5409866D02*
D03*
X5366559Y6281055D02*
D03*
X5409866D02*
D03*
X6107614Y6373614D02*
D03*
X6021000D02*
D03*
X6064307D02*
D03*
X5934386Y6200386D02*
D03*
Y6243693D02*
D03*
Y6287000D02*
D03*
Y6330307D02*
D03*
Y6373614D02*
D03*
X5977693Y6200386D02*
D03*
Y6243693D02*
D03*
Y6287000D02*
D03*
Y6330307D02*
D03*
Y6373614D02*
D03*
X6021000Y6200386D02*
D03*
Y6243693D02*
D03*
Y6287000D02*
D03*
Y6330307D02*
D03*
X6064307Y6200386D02*
D03*
Y6243693D02*
D03*
Y6287000D02*
D03*
Y6330307D02*
D03*
X6107614Y6200386D02*
D03*
Y6243693D02*
D03*
Y6287000D02*
D03*
Y6330307D02*
D03*
%TF.MD5,9F90C3CF4B9EEFD3DF4781FAA615F191*%
M02*
